<svg width="410" height="410" viewBox="0 0 410 410" fill="none" xmlns="http://www.w3.org/2000/svg">
  <g clip-path="url(#clip0_3596_19320)">
  <path d="M0 50.625H102.242V51.875H0V88.75H102.5V13.75H0V50.625Z" fill="#131313" style="fill:#131313;fill:color(display-p3 0.0729 0.0729 0.0729);fill-opacity:1;"/>
  <path d="M51.875 0L51.875 102.242H50.625L50.625 0H13.75V102.5H88.75V0H51.875Z" fill="black" style="fill:black;fill-opacity:1;"/>
  <path d="M154.375 0V102.242H153.125V0H116.25V102.5H191.25V0H154.375Z" fill="black" style="fill:black;fill-opacity:1;"/>
  <path d="M102.5 50.625H204.742V51.875H102.5V88.75H205V13.75H102.5V50.625Z" fill="#131313" style="fill:#131313;fill:color(display-p3 0.0729 0.0729 0.0729);fill-opacity:1;"/>
  <path d="M256.875 0V102.242H255.625V0H218.75V102.5H293.75V0H256.875Z" fill="black" style="fill:black;fill-opacity:1;"/>
  <path d="M205 50.625H307.242V51.875H205V88.75H307.5V13.75H205V50.625Z" fill="#131313" style="fill:#131313;fill:color(display-p3 0.0729 0.0729 0.0729);fill-opacity:1;"/>
  <path d="M307.5 50.625H409.742V51.875H307.5V88.75H410V13.75H307.5V50.625Z" fill="#131313" style="fill:#131313;fill:color(display-p3 0.0729 0.0729 0.0729);fill-opacity:1;"/>
  <path d="M359.375 0V102.242H358.125V0H321.25V102.5H396.25V0H359.375Z" fill="black" style="fill:black;fill-opacity:1;"/>
  <path d="M0 153.125H102.242V154.375H0V191.25H102.5V116.25H0V153.125Z" fill="#131313" style="fill:#131313;fill:color(display-p3 0.0729 0.0729 0.0729);fill-opacity:1;"/>
  <path d="M51.875 102.5L51.875 204.742H50.625L50.625 102.5H13.75V205H88.75V102.5H51.875Z" fill="black" style="fill:black;fill-opacity:1;"/>
  <path d="M256.875 102.5V204.742H255.625V102.5H218.75V205H293.75V102.5H256.875Z" fill="black" style="fill:black;fill-opacity:1;"/>
  <path d="M205 153.125H307.242V154.375H205V191.25H307.5V116.25H205V153.125Z" fill="#131313" style="fill:#131313;fill:color(display-p3 0.0729 0.0729 0.0729);fill-opacity:1;"/>
  <path d="M359.375 102.5V204.742H358.125V102.5H321.25V205H396.25V102.5H359.375Z" fill="black" style="fill:black;fill-opacity:1;"/>
  <path d="M307.5 153.125H409.742V154.375H307.5V191.25H410V116.25H307.5V153.125Z" fill="#131313" style="fill:#131313;fill:color(display-p3 0.0729 0.0729 0.0729);fill-opacity:1;"/>
  <path d="M51.875 205L51.875 307.242H50.625L50.625 205H13.75V307.5H88.75V205H51.875Z" fill="black" style="fill:black;fill-opacity:1;"/>
  <path d="M0 255.625H102.242V256.875H0V293.75H102.5V218.75H0V255.625Z" fill="#131313" style="fill:#131313;fill:color(display-p3 0.0729 0.0729 0.0729);fill-opacity:1;"/>
  <path d="M102.5 255.625H204.742V256.875H102.5V293.75H205V218.75H102.5V255.625Z" fill="#131313" style="fill:#131313;fill:color(display-p3 0.0729 0.0729 0.0729);fill-opacity:1;"/>
  <path d="M154.375 205V307.242H153.125V205H116.25V307.5H191.25V205H154.375Z" fill="black" style="fill:black;fill-opacity:1;"/>
  <path d="M205 255.625H307.242V256.875H205V293.75H307.5V218.75H205V255.625Z" fill="#131313" style="fill:#131313;fill:color(display-p3 0.0729 0.0729 0.0729);fill-opacity:1;"/>
  <path d="M256.875 205V307.242H255.625V205H218.75V307.5H293.75V205H256.875Z" fill="black" style="fill:black;fill-opacity:1;"/>
  <path d="M359.375 205V307.242H358.125V205H321.25V307.5H396.25V205H359.375Z" fill="black" style="fill:black;fill-opacity:1;"/>
  <path d="M307.5 255.625H409.742V256.875H307.5V293.75H410V218.75H307.5V255.625Z" fill="#131313" style="fill:#131313;fill:color(display-p3 0.0729 0.0729 0.0729);fill-opacity:1;"/>
  <path d="M51.875 307.5L51.875 409.742H50.625L50.625 307.5H13.75V410H88.75V307.5H51.875Z" fill="black" style="fill:black;fill-opacity:1;"/>
  <path d="M0 358.125H102.242V359.375H0V396.25H102.5V321.25H0V358.125Z" fill="#131313" style="fill:#131313;fill:color(display-p3 0.0729 0.0729 0.0729);fill-opacity:1;"/>
  <path d="M154.375 307.5V409.742H153.125V307.5H116.25V410H191.25V307.5H154.375Z" fill="black" style="fill:black;fill-opacity:1;"/>
  <path d="M102.5 358.125H204.742V359.375H102.5V396.25H205V321.25H102.5V358.125Z" fill="#131313" style="fill:#131313;fill:color(display-p3 0.0729 0.0729 0.0729);fill-opacity:1;"/>
  <path d="M205 358.125H307.242V359.375H205V396.25H307.5V321.25H205V358.125Z" fill="#131313" style="fill:#131313;fill:color(display-p3 0.0729 0.0729 0.0729);fill-opacity:1;"/>
  <path d="M256.875 307.5V409.742H255.625V307.5H218.75V410H293.75V307.5H256.875Z" fill="black" style="fill:black;fill-opacity:1;"/>
  <path d="M307.5 358.125H409.742V359.375H307.5V396.25H410V321.25H307.5V358.125Z" fill="#131313" style="fill:#131313;fill:color(display-p3 0.0729 0.0729 0.0729);fill-opacity:1;"/>
  <path d="M359.375 307.5V409.742H358.125V307.5H321.25V410H396.25V307.5H359.375Z" fill="black" style="fill:black;fill-opacity:1;"/>
  <path d="M102.5 153.125H204.742V154.375H102.5V191.25H205V116.25H102.5V153.125Z" fill="#131313" style="fill:#131313;fill:color(display-p3 0.0729 0.0729 0.0729);fill-opacity:1;"/>
  <path d="M154.375 102.5V204.742H153.125V102.5H116.25V205H191.25V102.5H154.375Z" fill="black" style="fill:black;fill-opacity:1;"/>
  </g>
  <defs>
  <clipPath id="clip0_3596_19320">
  <rect width="410" height="410" fill="white" style="fill:white;fill-opacity:1;"/>
  </clipPath>
  </defs>
  </svg>
  