<svg width="36" height="36" viewBox="0 0 36 36" fill="none" xmlns="http://www.w3.org/2000/svg">
<path d="M18.1519 0C27.9956 0 36 8.22687 36 17.9938C36 27.7608 28.008 35.982 18.1519 35.982L0 36V17.6844C0 7.92313 8.29688 0.00112496 18.1519 0.00112496V0ZM18.3285 6.84316C14.4382 6.83754 10.8349 8.87035 8.8245 12.198C6.8265 15.5088 6.74437 19.6329 8.60175 23.0258L6.59812 29.4122L13.7936 27.8013C17.9066 29.6406 22.7407 28.8148 25.9931 25.7156C29.2511 22.6399 30.2884 17.8757 28.6009 13.7223C26.9021 9.55658 22.8409 6.83754 18.3409 6.84316H18.3285Z" fill="#EE9453"/>
</svg>
