<svg width="40" height="40" viewBox="0 0 40 40" fill="none" xmlns="http://www.w3.org/2000/svg">
<path d="M20.6223 6C28.552 6 35 12.6274 35 20.4955C35 28.3635 28.562 34.9864 20.6223 34.9864L6 35.0009V20.2463C6 12.3827 12.6836 6.00091 20.6223 6.00091V6ZM20.7646 11.5127C17.6308 11.5082 14.7281 13.1458 13.1086 15.8265C11.4991 18.4936 11.433 21.8159 12.9292 24.5491L11.3152 29.6939L17.1115 28.3962C20.4248 29.8779 24.3189 29.2127 26.9389 26.716C29.5634 24.2383 30.399 20.4003 29.0396 17.0544C27.6712 13.6986 24.3996 11.5082 20.7746 11.5127H20.7646Z" fill="#838383" fill-opacity="0.3"/>
</svg>
