<svg width="57" height="60" xmlns="http://www.w3.org/2000/svg"><defs><linearGradient x1="-4.806%" y1="-12.654%" x2="137.192%" y2="110.391%" id="a"><stop stop-color="#52E5FF" offset="0%"/><stop stop-color="#5045FF" offset="100%"/></linearGradient><linearGradient x1="-11.156%" y1="48.658%" x2="175.429%" y2="53.699%" id="b"><stop stop-color="#52E5FF" offset="0%"/><stop stop-color="#5045FF" offset="100%"/></linearGradient><linearGradient x1="-11.156%" y1="-12.654%" x2="162.997%" y2="-12.654%" id="c"><stop stop-color="#52E5FF" offset="0%"/><stop stop-color="#5045FF" offset="100%"/></linearGradient></defs><g fill="none" fill-rule="evenodd"><path d="M52.156 50.072c0 2.915-2.334 5.231-5.27 5.231H9.99c-2.936 0-5.27-2.316-5.27-5.23V9.927c0-2.915 2.334-5.231 5.27-5.231h23.342v10.462c0 3.886 3.238 7.1 7.153 7.1h11.671v27.813zM37.917 7.452l10.92 10.235h-8.266c-1.44 0-2.654-1.204-2.654-2.634V7.451zm.683-5.495C37.31.677 35.566 0 33.67 0H9.859C4.398 0 0 4.365 0 9.784v40.432C0 55.635 4.398 60 9.858 60h37.084c5.46 0 9.858-4.365 9.858-9.784V22.053c0-1.957-.834-3.839-2.275-5.194L38.6 1.957z" fill="url(#a)"/><path d="M14.288 30.4h28.224c1.296 0 2.288 1.04 2.288 2.4 0 1.36-.992 2.4-2.288 2.4H14.288C12.992 35.2 12 34.16 12 32.8c0-1.36.992-2.4 2.288-2.4" fill="url(#b)"/><path d="M14.288 40.8h28.224c1.296 0 2.288 1.04 2.288 2.4 0 1.36-.992 2.4-2.288 2.4H14.288C12.992 45.6 12 44.56 12 43.2c0-1.36.992-2.4 2.288-2.4" fill="url(#c)"/></g></svg>