<svg width="79" height="65" xmlns="http://www.w3.org/2000/svg"><defs><linearGradient x1="14.978%" y1="15.632%" x2="132.381%" y2="97.639%" id="a"><stop stop-color="#52E5FF" offset="0%"/><stop stop-color="#514BFF" offset="100%"/></linearGradient><linearGradient x1="14.978%" y1="42.826%" x2="132.381%" y2="59.944%" id="b"><stop stop-color="#52E5FF" offset="0%"/><stop stop-color="#514BFF" offset="100%"/></linearGradient></defs><g fill="none" fill-rule="evenodd"><path d="M65.25 43.918h-3.217v-3.22c0-1.264-1.113-2.472-2.418-2.415-1.314.056-2.419 1.062-2.419 2.415v3.22H53.98c-1.265 0-2.475 1.11-2.418 2.415.056 1.304 1.064 2.415 2.418 2.415h3.216v3.204c0 1.264 1.113 2.471 2.419 2.415 1.305-.057 2.418-1.055 2.418-2.415v-3.204h3.216c1.266 0 2.475-1.111 2.418-2.415-.056-1.312-1.064-2.415-2.418-2.415zm7.786 4.288a16.056 16.056 0 01-.895 3.291 17.4 17.4 0 01-1.359 2.483 8.771 8.771 0 01-.413.576c.026-.026.052-.06.086-.094l-.103.128c-.009.009-.017.026-.026.035-.06.086-.18.223-.18.223-.31.361-.62.713-.964 1.04-.344.344-.706.67-1.076.988l-.077.077-.112.078c-.215.154-.43.309-.645.455-.774.516-1.583.962-2.435 1.34-1.101.43-2.237.74-3.398.928-1.23.138-2.478.13-3.717-.008a16.177 16.177 0 01-3.287-.894 15.863 15.863 0 01-2.985-1.71c-.103-.068-.198-.146-.293-.223.035.026.06.043.086.06a16.985 16.985 0 01-1.092-.98 14.965 14.965 0 01-1.007-1.082l-.207-.258a15.389 15.389 0 01-1.807-3.093 16.119 16.119 0 01-.92-3.368 16.077 16.077 0 010-3.695c.18-1.143.482-2.26.903-3.325.388-.86.835-1.693 1.36-2.483a8.83 8.83 0 01.413-.576c-.026.026-.052.06-.086.095l.103-.13c.009-.008.017-.025.026-.034.06-.086.18-.223.18-.223.31-.36.62-.713.964-1.04.344-.343.706-.67 1.076-.988l.077-.077c-.043.026-.06.034-.052.026l.018-.018c-.147.095.12-.146.24-.206-.051.026-.129.095-.197.155.068-.052.163-.129.223-.155.009 0 .018-.008.026-.008.155-.112.31-.224.473-.327a16.516 16.516 0 012.255-1.254c-.052.017-.104.042-.155.06l.18-.078c.052-.025.104-.043.155-.068.06-.026.112-.043.172-.07a.593.593 0 01.112-.042c-.026.009-.06.026-.086.034a16.346 16.346 0 013.115-.833l-.215.026a.95.95 0 01.154-.018c-.06.01-.12.018-.18.018.232-.035.456-.06.688-.095-.095.017-.19.026-.293.043.104-.017.207-.026.319-.043l-.344.052c.378-.043.757-.069 1.135-.078.052 0 .104 0 .147-.008.086 0 .163-.009.25-.009h.515c.086 0 .172 0 .258.009.052 0 .095 0 .147.008.069 0 .129.009.198.009h.008c.319.017.637.043.947.077l-.181-.025a.95.95 0 00.155.017c-.104-.017-.207-.035-.31-.043.232.034.456.06.688.094-.06-.008-.112-.017-.172-.017.052.009.095.009.146.017l-.189-.026c1.05.172 2.065.447 3.063.817h.009c.069.026.129.043.189.069l.18.077a16.82 16.82 0 012.418 1.358c.172.111.327.231.49.343.087.069.173.138.259.215.396.326.766.679 1.127 1.04.344.352.671.713.98 1.1.018.017.052.06.087.102.017.026.034.052.043.06.146.198.284.404.421.602.5.756.938 1.547 1.308 2.372.413 1.048.714 2.13.903 3.239.07.662.104 1.323.104 1.985-.017.635-.06 1.254-.12 1.881zm-31.92-4.365a20.54 20.54 0 00.052 5.388c.009.077.026.155.035.232.094.601.223 1.194.378 1.787H11.125c-1.515 0-3.029.017-4.543 0-.078 0-.147 0-.224-.008l.396.077c-.19-.026-.37-.052-.56-.077.052.025.112.051.173.077-.06-.026-.13-.052-.19-.077a.5.5 0 01-.111-.018c.034 0 .06.009.094.009l-.301-.129c.103.095 0 .034-.112-.043-.137-.103-.284-.223-.051-.095a.794.794 0 01-.12-.12 2.283 2.283 0 01-.139-.146l.035.06c.112.19-.017.035-.112-.094-.086-.112-.146-.198-.043-.095l-.13-.309c0 .034.01.06.01.095-.01-.035-.01-.078-.018-.112-.025-.06-.051-.13-.077-.19.026.06.052.112.077.173a7.3 7.3 0 00-.06-.43c.017.095.035.189.06.283-.025-.43-.008-.859-.008-1.271v-36.99c0-1.718-.017-3.428 0-5.147 0-.077 0-.154.008-.232l-.077.395c.026-.189.052-.369.077-.558-.025.06-.051.112-.077.172.026-.06.052-.13.077-.19 0-.034.009-.077.018-.11 0 .033-.01.06-.01.094.044-.104.087-.198.13-.301-.095.103-.034 0 .043-.112.103-.137.224-.283.095-.051a.794.794 0 01.12-.12c.043-.044.095-.095.146-.138-.017.008-.043.026-.06.034-.19.112-.034-.017.095-.12.112-.077.198-.138.094-.035l.31-.128c-.034 0-.069.008-.094.008.034-.008.077-.008.111-.017.06-.026.13-.051.19-.077l-.172.077c.146-.017.284-.034.43-.06l-.276.051c.542-.034 1.093 0 1.635 0h48.344c2.254 0 4.508-.008 6.762 0 .086 0 .164 0 .25.01a32.872 32.872 0 00-.396-.078l.56.077c-.06-.026-.112-.051-.173-.077.06.026.13.051.19.077.034 0 .077.009.111.017-.034 0-.06-.008-.094-.008.103.043.206.086.301.128-.103-.094 0-.034.112.043.138.104.284.224.051.095a.798.798 0 01.12.12c.044.043.096.095.139.146l-.035-.06c-.112-.189.017-.034.112.095.086.111.138.197.043.094.043.112.086.215.138.327.008.026.025.051.034.086 0 .034-.009.068-.009.094.01.086.026.172.035.267a1.739 1.739 0 00-.043-.207v21.86c-3.338-.894-6.866-.886-10.178.068h-.009c-.37.112-.74.24-1.101.378-3.485 1.315-6.401 3.506-8.655 6.47-1.91 2.5-3.072 5.482-3.476 8.566zm37.186 2.424c-.035-3.815-1.213-7.69-3.493-10.775a19.658 19.658 0 00-5.128-4.855V6.955c.017-.112.017-.224.017-.335-.052-3.575-2.951-6.488-6.539-6.53H6.711c-1.841 0-3.7.687-4.947 2.079C.568 3.5 0 5.116 0 6.895v42.858c.009 2.363 1.239 4.648 3.338 5.808 1.833 1.006 3.846.834 5.842.834H43.88c.154.24.326.49.499.722 2.357 3.222 5.532 5.619 9.317 6.925 3.545 1.22 7.554 1.272 11.15.223 6.789-1.984 12.192-7.939 13.207-14.976.138-.98.25-1.942.25-2.939v-.085z" fill="url(#a)"/><path d="M60.316 15.708c-.975.585-1.94 1.17-2.915 1.755-4.268 2.571-8.536 5.134-12.804 7.706-2.699 1.625-5.406 3.25-8.105 4.876-.776.465-1.845.482-2.613 0-.974-.61-1.948-1.213-2.923-1.823-4.285-2.666-8.562-5.332-12.838-7.998L10.056 15.2c-1.225-.765-1.604-2.262-.914-3.526.638-1.213 2.388-1.643 3.535-.929.974.61 1.949 1.213 2.923 1.823 4.285 2.666 8.562 5.332 12.839 7.999 2.259 1.41 4.518 2.812 6.777 4.222a253.08 253.08 0 011.586-.954c4.268-2.572 8.537-5.135 12.805-7.706 2.698-1.626 5.406-3.251 8.105-4.877 1.233-.74 2.785-.232 3.535.93.759 1.177.224 2.829-.931 3.525" fill="url(#b)"/></g></svg>