<svg width="36" height="30" viewBox="0 0 36 30" fill="none" xmlns="http://www.w3.org/2000/svg">
<path d="M36 3.4635C34.6755 4.0515 33.252 4.4475 31.758 4.626C33.2835 3.7125 34.455 2.265 35.0055 0.54C33.579 1.386 31.998 2.001 30.315 2.3325C28.9695 0.897 27.048 0 24.924 0C20.1555 0 16.6515 4.449 17.7285 9.0675C11.592 8.76 6.15 5.82 2.5065 1.3515C0.5715 4.671 1.503 9.0135 4.791 11.2125C3.582 11.1735 2.442 10.842 1.4475 10.2885C1.3665 13.71 3.819 16.911 7.371 17.6235C6.3315 17.9055 5.193 17.9715 4.035 17.7495C4.974 20.6835 7.701 22.818 10.935 22.878C7.83 25.3125 3.918 26.4 0 25.938C3.2685 28.0335 7.152 29.256 11.322 29.256C25.035 29.256 32.7825 17.6745 32.3145 7.287C33.7575 6.2445 35.01 4.944 36 3.4635Z" fill="#4D90F1"/>
</svg>
