
<svg width="50px" height="32px" viewBox="0 0 50 32" version="1.1" xmlns="http://www.w3.org/2000/svg" xmlns:xlink="http://www.w3.org/1999/xlink">
    <defs>
        <linearGradient x1="120.335937%" y1="80.47%" x2="50%" y2="21.555%" id="linearGradient-1">
            <stop stop-color="#503FFF" offset="0%"></stop>
            <stop stop-color="#52E5FF" offset="100%"></stop>
        </linearGradient>
    </defs>
    <g id="Page-1" stroke="none" stroke-width="1" fill="none" fill-rule="evenodd">
        <g id="ens.domains_redesign_landing" transform="translate(-604.000000, -4608.000000)" fill="url(#linearGradient-1)">
            <g id="Other-Features" transform="translate(248.000000, 4423.000000)">
                <g id="Attach" transform="translate(321.000000, 155.000000)">
                    <path d="M46.2105263,30 C45.1052632,30 44.2105263,30.9066667 44.2105263,32.0266667 C44.2105263,33.1466667 45.1052632,34.0533333 46.2105263,34.0533333 L69.2105263,34.0533333 C75.6842105,34.0533333 81,39.3866667 81,46 C81,52.6133333 75.7368421,57.9466667 69.2105263,57.9466667 L46.2105263,57.9466667 C42.2631579,57.9466667 39.0526316,54.6933333 39.0526316,50.6933333 C39.0526316,46.6933333 42.2631579,43.44 46.2105263,43.44 L69.2105263,43.44 C70.6315789,43.44 71.7894737,44.6133333 71.7894737,46.0533333 C71.7894737,47.4933333 70.6315789,48.6666667 69.2105263,48.6666667 L46.2105263,48.6666667 C45.1052632,48.6666667 44.2105263,49.5733333 44.2105263,50.6933333 C44.2105263,51.8133333 45.1052632,52.72 46.2105263,52.72 L69.2105263,52.72 C72.8421053,52.72 75.7894737,49.68 75.7894737,46 C75.7894737,42.32 72.8421053,39.28 69.1578947,39.28 L46.2105263,39.28 C40.0526316,39.28 35,44.4 35,50.64 C35,56.88 40.0526316,62 46.2105263,62 L69.2105263,62 C77.9473684,62 85,54.8 85,46 C85,37.2 77.8947368,30 69.2105263,30 L46.2105263,30 Z" id="Fill-1"></path>
                </g>
            </g>
        </g>
    </g>
</svg>