<svg width="55" height="43" xmlns="http://www.w3.org/2000/svg">
  <defs>
    <linearGradient x1="68.0659%" y1="143.6479%" x2="31.9341%" y2="0%" id="a">
      <stop stop-color="#52DCFF" offset="0%"/>
      <stop stop-color="#5178FF" offset="100%"/>
    </linearGradient>
    <linearGradient x1="72.4292%" y1="143.6479%" x2="27.5708%" y2="0%" id="b">
      <stop stop-color="#52DCFF" offset="0%"/>
      <stop stop-color="#5178FF" offset="100%"/>
    </linearGradient>
    <linearGradient x1="88.4679%" y1="143.6479%" x2="11.5321%" y2="0%" id="c">
      <stop stop-color="#52DCFF" offset="0%"/>
      <stop stop-color="#5178FF" offset="100%"/>
    </linearGradient>
  </defs>
  <g fill="none" fill-rule="evenodd">
    <path d="M17.482 31.158c1.026 0 1.863-.828 1.854-1.854V4.05c0-.189.153-.342.342-.342h12.825c1.026 0 1.854-.828 1.854-1.854C34.357.828 33.529 0 32.503 0H19.678c-2.232 0-4.05 1.818-4.05 4.05v25.254c0 1.026.828 1.854 1.854 1.854" fill="url(#a)"/>
    <path d="M20.119 36.468l-3.285 2.124c-.09.045-.18.036-.234.018-.063-.018-.153-.054-.207-.153L3.766 16.587c-.063-.099-.054-.198-.036-.261.018-.063.054-.153.153-.207l7.785-4.644c.882-.531 1.17-1.665.648-2.547-.531-.882-1.665-1.17-2.547-.648l-7.758 4.626c-.927.54-1.593 1.413-1.872 2.457-.279 1.053-.135 2.142.405 3.078l12.618 21.861c.54.936 1.422 1.611 2.466 1.89.351.099.711.144 1.062.144.702 0 1.395-.18 2.025-.54l.045-.027 3.375-2.187c.864-.558 1.107-1.701.549-2.565-.558-.864-1.701-1.107-2.565-.549" fill="url(#b)"/>
    <path d="M50.62 15.615l-12.627 21.87c-.063.126-.198.171-.297.171-.054 0-.108-.018-.162-.045l-11.268-6.507c-.099-.054-.135-.144-.153-.207-.009-.063-.018-.162.036-.261l12.627-21.87c.063-.126.198-.171.297-.171.054 0 .108.009.153.045l11.268 6.507c.099.054.135.144.153.207.018.063.027.162-.027.261m3.627-1.224c-.288-1.053-.954-1.926-1.89-2.466L41.089 5.418c-.612-.351-1.305-.54-2.016-.54-1.449 0-2.799.774-3.519 2.025l-12.627 21.87c-.54.936-.684 2.034-.405 3.078.288 1.053.954 1.926 1.89 2.466l11.277 6.507c.612.351 1.305.54 2.016.54 1.449 0 2.79-.783 3.51-2.025l12.627-21.87c.54-.936.684-2.034.405-3.078" fill="url(#c)"/>
  </g>
</svg>