<svg width="41" height="41" xmlns="http://www.w3.org/2000/svg">
  <defs>
    <linearGradient x1="91.3967%" y1="107.9935%" x2="27.8821%" y2="14.415%" id="a">
      <stop stop-color="#52DFFF" offset="0%"/>
      <stop stop-color="#517AFF" offset="100%"/>
    </linearGradient>
  </defs>
  <path d="M54.9032 62.059c3.8731-3.9886 6.2469-9.2558 6.6413-14.886h6.0246c-.6984 7.19-5.859 13.0756-12.6659 14.886zM33.4318 47.173h6.0261c.3944 5.6302 2.7674 10.8974 6.6413 14.886-6.8078-1.8104-11.9683-7.696-12.6674-14.886zm12.6674-18.2329c-3.8739 3.9895-6.2469 9.2583-6.6413 14.8877h-6.0261c.699-7.1893 5.8596-13.0764 12.6674-14.8877zm-3.2847 14.8877c.4623-5.6552 3.2394-10.8724 7.6871-14.3664 4.4461 3.494 7.2232 8.7112 7.6855 14.3664H42.8145zm7.6871 17.7132c-4.4477-3.4964-7.224-8.7111-7.687-14.3672H58.187c-.4631 5.6552-3.2394 10.8708-7.6855 14.3672zm17.0675-17.7132h-6.0246c-.3944-5.6302-2.7682-10.8982-6.6413-14.8877 6.807 1.812 11.9675 7.6984 12.6659 14.8877zM50.5016 25C39.197 25 30 34.196 30 45.5 30 56.8031 39.1969 66 50.5016 66 61.8047 66 71 56.8031 71 45.5 71 34.196 61.8047 25 50.5016 25z" transform="translate(-30 -25)" fill="url(#a)" fill-rule="evenodd"/>
</svg>