<svg width="34" height="40" xmlns="http://www.w3.org/2000/svg">
  <defs>
    <linearGradient x1="91.2526%" y1="100%" x2="15.1888%" y2="7.5847%" id="a">
      <stop stop-color="#52E5FF" offset="0%"/>
      <stop stop-color="#5179FF" offset="100%"/>
    </linearGradient>
    <linearGradient x1="22.2342%" y1="9.6885%" x2="85.4571%" y2="100%" id="b">
      <stop stop-color="#517AFF" offset="0%"/>
      <stop stop-color="#52E5FF" offset="100%"/>
    </linearGradient>
  </defs>
  <path d="M60.3517 44.1642H50.3103c-2.5379 0-4.6344-2.1173-4.6344-4.6803V28.6745H35.6345c-1.1035 0-1.9862.8915-1.9862 2.0059v28.6392c0 1.1144.8827 2.006 1.9862 2.006h22.731c1.1035 0 1.9862-.8916 1.9862-2.006V44.1642zM48.3241 30.569v8.915c0 1.1143.8828 2.0058 1.9862 2.0058h8.8276L48.3241 30.569zM35.6345 26h10.4827c.8828 0 1.7656.3343 2.4276 1.003l13.3518 13.5952C62.5586 41.267 63 42.1584 63 43.05v16.2697C63 61.8827 60.9034 64 58.3655 64h-22.731C33.0965 64 31 61.8827 31 59.3196V30.6804C31 28.1173 33.0966 26 35.6345 26h0z" transform="translate(-30 -25)" fill="url(#a)" stroke="url(#b)" fill-rule="evenodd"/>
</svg>