<svg width="45" height="40" xmlns="http://www.w3.org/2000/svg">
  <defs>
    <linearGradient x1="24.1146%" y1="10.4938%" x2="111.4757%" y2="102.8935%" id="a">
      <stop stop-color="#52E5FF" offset="0%"/>
      <stop stop-color="#5141FF" offset="100%"/>
    </linearGradient>
  </defs>
  <path d="M55.6131 54.0503c0 .743-.4224 1.3644-1.0232 1.7243.0126.0139.0227.0303.0358.0442-2.4261 1.3341-4.258 3.2886-4.456 5.737-.0141.072-.0439.138-.0439.2145v4.0043c0 .6388.5258 1.157 1.175 1.157H73.728c.6488 0 1.175-.5177 1.175-1.157v-4.0043c0-.069-.0282-.1286-.0398-.1941-.1936-2.4633-2.0823-4.4278-4.5669-5.7654.0116-.0124.0207-.0273.0323-.0397-.5968-.3608-1.0162-.9797-1.0162-1.7198 0-1.1326.9325-2.0508 2.0828-2.0508.4814 0 .9038.1871 1.2561.4571.001-.0025.003-.0045.004-.007.0605.0398.1155.0854.1755.1261.012.0115.0282.017.0398.0283 3.4625 2.3432 6.0428 5.6904 6.1295 9.4814h-.0131v6.426c0 1.3738-1.106 2.4876-2.4705 2.4876H48.472C47.106 70.9995 46 69.8857 46 68.5119v-6.426c0-.198.0287-.3881.072-.5727.3136-3.5473 2.7458-6.6707 5.9728-8.8943.0459-.0461.1069-.0724.1568-.1141.0186-.013.0358-.0273.055-.0397.0004.001.001.0015.0014.0024.3549-.277.7844-.4675 1.2723-.4675 1.1503-.0005 2.0828.9177 2.0828 2.0503zM62 39c-2.209 0-4 2.0147-4 4.5003C58 45.9853 59.791 48 62 48c2.2095 0 4-2.0147 4-4.4997C66 41.0147 64.209 39 62 39zm-.0002 13C57.5814 52 54 48.1943 54 43.5003 54 38.8057 57.5818 35 61.9998 35 66.4182 35 70 38.8057 70 43.5003 69.9995 48.1943 66.4182 52 61.9998 52zm12.428-4c-.6632 0-1.3019-.091-1.9217-.2322.3825-1.239.6429-2.4825.6429-3.7682 0-.1647-.0168-.3226-.0226-.4852.4019.1237.8205.2094 1.2627.2094 2.3649 0 4.2813-1.9008 4.2813-4.2451 0-2.3443-1.9164-4.2456-4.2813-4.2456-1.3821 0-2.5976.6603-3.3808 1.668-.8095-1.1693-1.8258-2.1713-3.0083-2.9718C69.5712 32.148 71.8533 31 74.4273 31 79.1619 31 83 34.8056 83 39.5c.0005 4.6944-3.8376 8.5-8.5722 8.5zm16.5587 10.0862c0 .0005 0 .0005 0 0v6.4261c0 1.374-1.1417 2.4877-2.5502 2.4877h-7.4295v-4.0685h4.5514c.6697 0 1.213-.5177 1.213-1.157V57.77c0-.069-.0292-.1285-.0412-.194-.1998-2.4624-2.1474-4.426-4.7106-5.764.012-.0125.0208-.0274.0327-.0393C81.434 51.4124 81 50.7924 81 50.0509 81 48.9182 81.9626 48 83.15 48c.5017 0 .943.1896 1.3087.4646.001-.0025.0032-.0045.0042-.007.0614.0392.1166.084.1774.1236.01.009.023.0134.0323.0224 3.5737 2.3437 6.2379 5.6915 6.3274 9.4826h-.0135z" transform="translate(-46 -31)" fill="url(#a)" fill-rule="evenodd"/>
</svg>