<svg width="186" height="54" viewBox="0 0 186 54" fill="none" xmlns="http://www.w3.org/2000/svg">
<path fill-rule="evenodd" clip-rule="evenodd" d="M186.001 3.268C186.001 1.9275 184.915 0.84082 183.574 0.84082H2.74944C1.40895 0.84082 0.322266 1.92751 0.322266 3.268V39.6757C0.322266 41.0161 1.40895 42.1028 2.74945 42.1028H155.656C156.3 42.1028 156.917 42.3586 157.372 42.8137L166.991 52.4327C168.52 53.9617 171.135 52.8788 171.135 50.7164V44.53C171.135 43.1895 172.221 42.1028 173.562 42.1028H183.574C184.915 42.1028 186.001 41.0161 186.001 39.6757V3.268Z" fill="#0080BC"/>
<path d="M17.5155 27.1902L15.7388 16.996H17.5592L18.3164 22.8213C18.4912 23.9572 18.5349 24.5251 18.6223 25.2387H18.6805C18.797 24.5543 18.9427 23.6659 19.1029 22.865L20.166 18.0155H22.0592L23.1514 22.865C23.3407 23.7387 23.4572 24.5251 23.5737 25.2387H23.632C23.7193 24.5397 23.7922 23.7096 23.9232 22.8213L24.6805 16.996H26.4863L24.7096 27.1902H22.598L21.564 22.2533C21.4184 21.598 21.2436 20.6222 21.1417 19.9669H21.0834C20.9669 20.6659 20.8359 21.4523 20.6611 22.2679L19.6562 27.1902H17.5155ZM30.8674 27.3649C28.5373 27.3649 27.1538 25.9232 27.1538 23.5494C27.1538 21.3358 28.5519 19.7339 30.8674 19.7339C33.1538 19.7339 34.581 21.3504 34.581 23.5494C34.581 25.8358 33.1101 27.3649 30.8674 27.3649ZM29.0033 23.5494C29.0033 24.5106 29.1635 25.195 29.5422 25.6028C29.8334 25.9378 30.2703 26.098 30.8674 26.098C31.4936 26.098 31.9305 25.9232 32.2218 25.5737C32.5859 25.1514 32.7315 24.4815 32.7315 23.5494C32.7315 22.6174 32.5713 21.9475 32.2218 21.5252C31.916 21.1756 31.4791 21.0009 30.8674 21.0009C30.2703 21.0009 29.8334 21.1611 29.5276 21.496C29.1635 21.9038 29.0033 22.5883 29.0033 23.5494ZM37.1557 27.1902L35.3644 19.9087H37.0683L37.7819 23.7533L38.1023 25.7339H38.146C38.2771 25.1077 38.4518 24.1611 38.5392 23.7533L39.311 20.4038H41.0004L41.7431 23.7533C41.845 24.2193 41.9906 25.0349 42.1071 25.7339H42.1508C42.2965 24.8601 42.3547 24.6125 42.4858 23.7533L43.1994 19.9087H44.9033L43.1266 27.1902H41.2188L40.5052 24.0446C40.4178 23.6514 40.2722 22.8358 40.1557 22.1077H40.112C39.9955 22.7921 39.879 23.5494 39.7625 24.0446L39.0489 27.1902H37.1557ZM46.9416 27.1902V25.1077H48.995V27.1902H46.9416ZM61.8415 27.3649C59.2201 27.3649 57.4871 25.6319 57.4871 22.0931C57.4871 18.831 59.2201 16.8213 62.0599 16.8213C64.1424 16.8213 65.5987 17.9135 66.1084 19.9378L64.2735 20.3019C64.0114 19.0786 63.356 18.2922 62.0599 18.2922C61.157 18.2922 60.4871 18.5689 60.0502 19.1805C59.6133 19.7921 59.4094 20.7533 59.4094 22.0931C59.4094 23.462 59.6133 24.4086 60.0502 25.0203C60.4871 25.6319 61.1424 25.8941 62.089 25.8941C63.5453 25.8941 64.4191 24.962 64.5356 23.2436H61.9725V21.6708H66.2104V27.1902H64.7541L64.6521 25.9232C64.1279 26.8261 63.123 27.3649 61.8415 27.3649ZM71.2287 27.3649C68.8986 27.3649 67.5151 25.9232 67.5151 23.5494C67.5151 21.3358 68.9132 19.7339 71.2287 19.7339C73.5151 19.7339 74.9423 21.3504 74.9423 23.5494C74.9423 25.8358 73.4714 27.3649 71.2287 27.3649ZM69.3646 23.5494C69.3646 24.5106 69.5248 25.195 69.9035 25.6028C70.1947 25.9378 70.6316 26.098 71.2287 26.098C71.8549 26.098 72.2918 25.9232 72.5831 25.5737C72.9472 25.1514 73.0928 24.4815 73.0928 23.5494C73.0928 22.6174 72.9326 21.9475 72.5831 21.5252C72.2773 21.1756 71.8404 21.0009 71.2287 21.0009C70.6316 21.0009 70.1947 21.1611 69.8889 21.496C69.5248 21.9038 69.3646 22.5883 69.3646 23.5494ZM86.3265 27.263C84.7246 27.263 83.8508 26.7242 83.8508 25.2387V21.2921H82.3654V19.9087H83.8508V17.8844H85.5401V19.9087H87.5789V21.2921H85.5401V25.0785C85.5401 25.6465 85.8605 25.7921 86.545 25.7921C86.8362 25.7921 87.1857 25.7484 87.5353 25.6611L87.5644 27.1319C87.2149 27.2193 86.7197 27.263 86.3265 27.263ZM92.8742 27.3649C90.5441 27.3649 89.1606 25.9232 89.1606 23.5494C89.1606 21.3358 90.5587 19.7339 92.8742 19.7339C95.1606 19.7339 96.5878 21.3504 96.5878 23.5494C96.5878 25.8358 95.1169 27.3649 92.8742 27.3649ZM91.0101 23.5494C91.0101 24.5106 91.1703 25.195 91.549 25.6028C91.8402 25.9378 92.2771 26.098 92.8742 26.098C93.5004 26.098 93.9373 25.9232 94.2286 25.5737C94.5927 25.1514 94.7383 24.4815 94.7383 23.5494C94.7383 22.6174 94.5781 21.9475 94.2286 21.5252C93.9228 21.1756 93.4859 21.0009 92.8742 21.0009C92.2771 21.0009 91.8402 21.1611 91.5344 21.496C91.1703 21.9038 91.0101 22.5883 91.0101 23.5494ZM107.579 27.3649C106.443 27.3649 105.569 27.0009 104.943 26.3601C104.273 25.6756 103.967 24.7145 103.967 23.5349C103.967 22.4135 104.288 21.4523 104.943 20.7533C105.584 20.0834 106.457 19.7339 107.564 19.7339C108.715 19.7339 109.69 20.1708 110.302 20.9426C110.885 21.6708 111.176 22.7776 111.132 24.03H105.715C105.744 25.3844 106.356 26.0688 107.564 26.0688C108.627 26.0688 109.181 25.6174 109.341 24.729L111.016 24.8601C110.637 26.5348 109.443 27.3649 107.579 27.3649ZM105.729 22.7339H109.37C109.341 22.3261 109.21 21.9038 108.962 21.598C108.642 21.2048 108.205 21.03 107.564 21.03C106.88 21.03 106.385 21.263 106.093 21.6708C105.86 21.9912 105.758 22.3844 105.729 22.7339ZM112.922 27.1902V19.9087H114.64V21.0009C115.019 20.1271 115.79 19.7339 116.824 19.7339C117.771 19.7339 118.383 19.9669 118.863 20.4766C119.446 21.0737 119.489 21.9475 119.489 22.7921V27.1902H117.742V22.9232C117.742 22.2533 117.713 21.8019 117.334 21.4378C117.014 21.1174 116.664 21.0883 116.227 21.0883C115.601 21.0883 114.64 21.4378 114.64 23.1999V27.1902H112.922ZM124.554 27.3649C122.85 27.3649 121.379 26.6222 121.321 24.8747L122.938 24.6853C122.952 25.6319 123.608 26.1271 124.569 26.1271C125.544 26.1271 126.054 25.7776 126.054 25.1659C126.054 24.5251 125.151 24.4086 124.059 24.1319C122.763 23.797 121.525 23.3892 121.525 21.9184C121.525 20.3601 122.938 19.7339 124.394 19.7339C125.981 19.7339 127.336 20.3164 127.496 22.0494L125.908 22.3116C125.865 21.4086 125.311 20.9718 124.394 20.9718C123.753 20.9718 123.156 21.2193 123.156 21.7873C123.156 22.3552 123.826 22.53 124.758 22.7339C126.127 23.0397 127.685 23.3455 127.685 25.064C127.685 26.8261 126.156 27.3649 124.554 27.3649ZM130.665 27.1902V25.1077H132.718V27.1902H130.665ZM138.162 27.3649C136.822 27.3649 135.642 26.6514 135.642 25.1805C135.642 23.6222 136.939 23.1853 138.264 22.9378L140.434 22.53C140.434 22.0494 140.434 21.6999 140.23 21.4086C140.026 21.132 139.662 21.0009 139.065 21.0009C138.06 21.0009 137.594 21.3504 137.579 22.3698L135.89 22.1514C135.934 21.2921 136.254 20.6805 136.807 20.3019C137.346 19.9232 138.147 19.7339 139.167 19.7339C141.045 19.7339 142.108 20.5494 142.108 22.1368V25.8795C142.108 26.3601 142.21 26.7824 142.356 27.1319V27.1902H140.623C140.565 26.9135 140.521 26.6077 140.521 26.1562C140.142 26.8698 139.356 27.3649 138.162 27.3649ZM137.405 25.1659C137.405 25.7921 137.9 26.098 138.526 26.098C139.764 26.098 140.434 25.4717 140.434 24.3941V23.7096L138.54 24.1174C137.871 24.2776 137.405 24.496 137.405 25.1659ZM144.236 30.1028V19.9087H145.955V20.8989C146.45 20.1271 147.266 19.7339 148.168 19.7339C150.033 19.7339 151.416 21.1756 151.416 23.5494C151.416 25.8504 150.091 27.3649 148.212 27.3649C147.295 27.3649 146.508 27.0154 145.955 26.2727V30.1028H144.236ZM145.911 23.5203C145.911 24.9912 146.275 26.0834 147.688 26.0834C148.285 26.0834 148.722 25.9232 148.999 25.6028C149.392 25.195 149.537 24.4815 149.537 23.5349C149.537 21.8601 149.115 21.0009 147.732 21.0009C147.149 21.0009 146.712 21.1902 146.406 21.5688C146.071 21.9912 145.911 22.6611 145.911 23.5203ZM153.011 30.1028V19.9087H154.73V20.8989C155.225 20.1271 156.04 19.7339 156.943 19.7339C158.807 19.7339 160.191 21.1756 160.191 23.5494C160.191 25.8504 158.866 27.3649 156.987 27.3649C156.069 27.3649 155.283 27.0154 154.73 26.2727V30.1028H153.011ZM154.686 23.5203C154.686 24.9912 155.05 26.0834 156.463 26.0834C157.06 26.0834 157.497 25.9232 157.773 25.6028C158.167 25.195 158.312 24.4815 158.312 23.5349C158.312 21.8601 157.89 21.0009 156.506 21.0009C155.924 21.0009 155.487 21.1902 155.181 21.5688C154.846 21.9912 154.686 22.6611 154.686 23.5203Z" fill="#F6F6F6"/>
</svg>
