<svg width="326" height="71" viewBox="0 0 326 71" fill="none" xmlns="http://www.w3.org/2000/svg">
<path fill-rule="evenodd" clip-rule="evenodd" d="M326.001 2.8847C326.001 1.5442 324.914 0.45752 323.574 0.45752H2.57952C1.23903 0.45752 0.152344 1.5442 0.152344 2.8847V56.2826C0.152344 57.6231 1.23904 58.7098 2.57953 58.7098L294.656 58.7097C295.3 58.7097 295.917 58.9654 296.373 59.4206L306.991 70.0395C308.52 71.5685 311.135 70.4856 311.135 68.3232V61.1369C311.135 59.7964 312.222 58.7097 313.562 58.7097L323.574 58.7098C324.914 58.7098 326.001 57.6231 326.001 56.2826V2.8847Z" fill="#0080BC"/>
<path d="M17.953 26.8071L16.1763 16.613H17.9967L18.7539 22.4382C18.9287 23.5741 18.9724 24.1421 19.0598 24.8557H19.118C19.2345 24.1712 19.3802 23.2829 19.5404 22.4819L20.6035 17.6324H22.4967L23.5889 22.4819C23.7782 23.3557 23.8947 24.1421 24.0112 24.8557H24.0695C24.1568 24.1567 24.2297 23.3266 24.3607 22.4382L25.118 16.613H26.9238L25.1471 26.8071H23.0355L22.0015 21.8703C21.8559 21.2149 21.6811 20.2392 21.5792 19.5838H21.5209C21.4044 20.2829 21.2734 21.0693 21.0986 21.8848L20.0937 26.8071H17.953ZM28.2703 26.8071V16.613H29.9888V20.6033C30.382 19.7586 31.183 19.3508 32.1587 19.3508C33.1053 19.3508 33.7315 19.5693 34.2412 20.1227C34.8237 20.7343 34.8383 21.5499 34.8383 22.4091V26.8071H33.0907V22.4965C33.0907 21.8266 33.0616 21.4188 32.6975 21.0693C32.3626 20.7343 32.013 20.7052 31.5907 20.7052C30.9645 20.7052 30.0033 21.0256 30.0033 22.7586V26.8071H28.2703ZM39.1893 26.9819C37.8495 26.9819 36.6699 26.2683 36.6699 24.7974C36.6699 23.2392 37.966 22.8023 39.2913 22.5547L41.4612 22.1469C41.4612 21.6664 41.4612 21.3169 41.2573 21.0256C41.0534 20.7489 40.6893 20.6178 40.0922 20.6178C39.0874 20.6178 38.6214 20.9673 38.6068 21.9868L36.9175 21.7683C36.9612 20.9091 37.2816 20.2974 37.835 19.9188C38.3738 19.5402 39.1748 19.3508 40.1942 19.3508C42.0728 19.3508 43.1359 20.1664 43.1359 21.7537V25.4965C43.1359 25.977 43.2379 26.3994 43.3835 26.7489V26.8071H41.6505C41.5922 26.5304 41.5486 26.2246 41.5486 25.7732C41.1699 26.4867 40.3835 26.9819 39.1893 26.9819ZM38.4321 24.7829C38.4321 25.4091 38.9272 25.7149 39.5534 25.7149C40.7913 25.7149 41.4612 25.0887 41.4612 24.011V23.3266L39.568 23.7343C38.8981 23.8945 38.4321 24.113 38.4321 24.7829ZM48.9057 26.8799C47.3038 26.8799 46.43 26.3411 46.43 24.8557V20.9091H44.9446V19.5256H46.43V17.5013H48.1193V19.5256H50.1582V20.9091H48.1193V24.6955C48.1193 25.2634 48.4397 25.4091 49.1242 25.4091C49.4155 25.4091 49.765 25.3654 50.1145 25.278L50.1436 26.7489C49.7941 26.8363 49.2989 26.8799 48.9057 26.8799ZM53.3113 19.8169C53.821 19.6858 54.1268 19.278 54.1414 18.579H53.2822V16.613H55.1754V18.5936C55.1754 19.7586 54.4035 20.545 53.3113 20.7343V19.8169ZM61.1075 26.9819C59.4037 26.9819 57.9328 26.2392 57.8745 24.4916L59.491 24.3023C59.5056 25.2489 60.1609 25.744 61.1221 25.744C62.0978 25.744 62.6075 25.3945 62.6075 24.7829C62.6075 24.1421 61.7046 24.0256 60.6124 23.7489C59.3163 23.4139 58.0784 23.0062 58.0784 21.5353C58.0784 19.9771 59.491 19.3508 60.9474 19.3508C62.5347 19.3508 63.8891 19.9334 64.0493 21.6664L62.4619 21.9285C62.4182 21.0256 61.8648 20.5887 60.9474 20.5887C60.3066 20.5887 59.7095 20.8363 59.7095 21.4042C59.7095 21.9722 60.3794 22.1469 61.3114 22.3508C62.6804 22.6567 64.2386 22.9625 64.2386 24.6809C64.2386 26.4431 62.7095 26.9819 61.1075 26.9819ZM73.426 29.7926C73.0765 29.7926 72.6104 29.7197 72.2755 29.6178L72.3046 28.0887C72.5667 28.1615 72.8726 28.2489 73.1784 28.2489C73.8192 28.2489 74.0376 27.8557 74.4163 26.7926L71.6056 19.5256H73.4697L74.6493 23.0499C74.8095 23.5304 75.0133 24.1858 75.2172 24.8994C75.4065 24.2295 75.5813 23.6761 75.8143 22.977L76.9211 19.5256H78.7269L75.9162 27.4188C75.3337 29.1081 74.693 29.7926 73.426 29.7926ZM83.456 26.9819C81.126 26.9819 79.7425 25.5401 79.7425 23.1664C79.7425 20.9528 81.1405 19.3508 83.456 19.3508C85.7424 19.3508 87.1696 20.9673 87.1696 23.1664C87.1696 25.4528 85.6988 26.9819 83.456 26.9819ZM81.592 23.1664C81.592 24.1275 81.7522 24.812 82.1308 25.2198C82.4221 25.5547 82.859 25.7149 83.456 25.7149C84.0823 25.7149 84.5191 25.5401 84.8104 25.1906C85.1745 24.7683 85.3201 24.0984 85.3201 23.1664C85.3201 22.2343 85.1599 21.5644 84.8104 21.1421C84.5046 20.7926 84.0677 20.6178 83.456 20.6178C82.859 20.6178 82.4221 20.778 82.1162 21.113C81.7522 21.5207 81.592 22.2052 81.592 23.1664ZM91.5339 26.9819C90.6018 26.9819 89.9611 26.7343 89.4368 26.1809C88.8543 25.5693 88.8106 24.6664 88.8106 23.7926V19.5256H90.5727V23.7052C90.5727 24.3314 90.5727 24.8702 90.9368 25.2489C91.2717 25.5984 91.665 25.6275 92.0873 25.6275C92.7572 25.6275 93.6601 25.278 93.6601 23.545V19.5256H95.364V26.8071H93.6747V25.744C93.2815 26.545 92.5387 26.9819 91.5339 26.9819ZM98.1131 26.8071V19.5256H99.817V20.9528C100.094 20.1081 100.924 19.4819 102.264 19.3654C102.424 19.3508 102.73 19.3508 102.963 19.3508L102.919 20.9237C102.7 20.9091 102.54 20.9091 102.365 20.9091C100.822 20.9091 99.8315 21.4916 99.8315 23.5304V26.8071H98.1131ZM113.979 26.9819C111.663 26.9819 110.295 25.5547 110.295 23.1664C110.295 20.9237 111.663 19.3508 113.979 19.3508C115.916 19.3508 116.964 20.4431 117.256 21.9285L115.625 22.2198C115.45 21.4042 115.086 20.6615 113.979 20.6615C113.309 20.6615 112.887 20.8654 112.61 21.2295C112.29 21.6664 112.173 22.3363 112.173 23.1664C112.173 24.7392 112.537 25.6712 113.979 25.6712C114.911 25.6712 115.406 25.2198 115.625 24.3168L117.285 24.4916C117.052 25.9625 115.799 26.9819 113.979 26.9819ZM119.588 26.8071V19.5256H121.292V20.9528C121.568 20.1081 122.399 19.4819 123.738 19.3654C123.899 19.3508 124.204 19.3508 124.437 19.3508L124.394 20.9237C124.175 20.9091 124.015 20.9091 123.84 20.9091C122.297 20.9091 121.306 21.4916 121.306 23.5304V26.8071H119.588ZM127.597 29.7926C127.247 29.7926 126.781 29.7197 126.446 29.6178L126.475 28.0887C126.737 28.1615 127.043 28.2489 127.349 28.2489C127.99 28.2489 128.208 27.8557 128.587 26.7926L125.776 19.5256H127.64L128.82 23.0499C128.98 23.5304 129.184 24.1858 129.388 24.8994C129.577 24.2295 129.752 23.6761 129.985 22.977L131.092 19.5256H132.898L130.087 27.4188C129.504 29.1081 128.864 29.7926 127.597 29.7926ZM134.392 29.7197V19.5256H136.11V20.5159C136.605 19.744 137.421 19.3508 138.324 19.3508C140.188 19.3508 141.571 20.7926 141.571 23.1664C141.571 25.4673 140.246 26.9819 138.367 26.9819C137.45 26.9819 136.663 26.6324 136.11 25.8897V29.7197H134.392ZM136.066 23.1372C136.066 24.6081 136.43 25.7003 137.843 25.7003C138.44 25.7003 138.877 25.5401 139.154 25.2198C139.547 24.812 139.693 24.0984 139.693 23.1518C139.693 21.477 139.27 20.6178 137.887 20.6178C137.304 20.6178 136.867 20.8071 136.562 21.1858C136.227 21.6081 136.066 22.278 136.066 23.1372ZM146.794 26.8799C145.192 26.8799 144.318 26.3411 144.318 24.8557V20.9091H142.833V19.5256H144.318V17.5013H146.008V19.5256H148.046V20.9091H146.008V24.6955C146.008 25.2634 146.328 25.4091 147.012 25.4091C147.304 25.4091 147.653 25.3654 148.003 25.278L148.032 26.7489C147.682 26.8363 147.187 26.8799 146.794 26.8799ZM153.342 26.9819C151.012 26.9819 149.628 25.5401 149.628 23.1664C149.628 20.9528 151.026 19.3508 153.342 19.3508C155.628 19.3508 157.055 20.9673 157.055 23.1664C157.055 25.4528 155.584 26.9819 153.342 26.9819ZM151.478 23.1664C151.478 24.1275 151.638 24.812 152.016 25.2198C152.308 25.5547 152.745 25.7149 153.342 25.7149C153.968 25.7149 154.405 25.5401 154.696 25.1906C155.06 24.7683 155.206 24.0984 155.206 23.1664C155.206 22.2343 155.046 21.5644 154.696 21.1421C154.39 20.7926 153.953 20.6178 153.342 20.6178C152.745 20.6178 152.308 20.778 152.002 21.113C151.638 21.5207 151.478 22.2052 151.478 23.1664ZM167.1 26.9819C165.76 26.9819 164.58 26.2683 164.58 24.7974C164.58 23.2392 165.876 22.8023 167.202 22.5547L169.372 22.1469C169.372 21.6664 169.372 21.3169 169.168 21.0256C168.964 20.7489 168.6 20.6178 168.003 20.6178C166.998 20.6178 166.532 20.9673 166.517 21.9868L164.828 21.7683C164.872 20.9091 165.192 20.2974 165.745 19.9188C166.284 19.5402 167.085 19.3508 168.105 19.3508C169.983 19.3508 171.046 20.1664 171.046 21.7537V25.4965C171.046 25.977 171.148 26.3994 171.294 26.7489V26.8071H169.561C169.503 26.5304 169.459 26.2246 169.459 25.7732C169.08 26.4867 168.294 26.9819 167.1 26.9819ZM166.342 24.7829C166.342 25.4091 166.838 25.7149 167.464 25.7149C168.702 25.7149 169.372 25.0887 169.372 24.011V23.3266L167.478 23.7343C166.808 23.8945 166.342 24.113 166.342 24.7829ZM176 26.9819C174.092 26.9819 172.708 25.5401 172.708 23.1664C172.708 20.8654 174.019 19.3508 175.97 19.3508C176.917 19.3508 177.66 19.7149 178.155 20.4139V16.613H179.873V26.8071H178.155V25.7732C177.733 26.5741 176.961 26.9819 176 26.9819ZM174.587 23.1664C174.587 24.8411 174.98 25.7149 176.393 25.7149C176.932 25.7149 177.354 25.5256 177.645 25.1906C178.024 24.7537 178.199 24.0838 178.199 23.1809C178.199 21.7246 177.805 20.6324 176.422 20.6324C175.752 20.6324 175.301 20.8363 175.024 21.2295C174.703 21.6518 174.587 22.3071 174.587 23.1664ZM184.774 26.9819C182.867 26.9819 181.483 25.5401 181.483 23.1664C181.483 20.8654 182.794 19.3508 184.745 19.3508C185.692 19.3508 186.435 19.7149 186.93 20.4139V16.613H188.648V26.8071H186.93V25.7732C186.507 26.5741 185.736 26.9819 184.774 26.9819ZM183.362 23.1664C183.362 24.8411 183.755 25.7149 185.168 25.7149C185.706 25.7149 186.129 25.5256 186.42 25.1906C186.799 24.7537 186.973 24.0838 186.973 23.1809C186.973 21.7246 186.58 20.6324 185.197 20.6324C184.527 20.6324 184.075 20.8363 183.799 21.2295C183.478 21.6518 183.362 22.3071 183.362 23.1664ZM191.379 26.8071V19.5256H193.083V20.9528C193.36 20.1081 194.19 19.4819 195.53 19.3654C195.69 19.3508 195.996 19.3508 196.229 19.3508L196.185 20.9237C195.967 20.9091 195.806 20.9091 195.632 20.9091C194.088 20.9091 193.098 21.4916 193.098 23.5304V26.8071H191.379ZM201.098 26.9819C199.962 26.9819 199.088 26.6178 198.462 25.977C197.792 25.2926 197.486 24.3314 197.486 23.1518C197.486 22.0304 197.806 21.0693 198.462 20.3703C199.102 19.7004 199.976 19.3508 201.083 19.3508C202.234 19.3508 203.209 19.7877 203.821 20.5596C204.403 21.2877 204.695 22.3945 204.651 23.6469H199.234C199.263 25.0013 199.874 25.6858 201.083 25.6858C202.146 25.6858 202.7 25.2343 202.86 24.346L204.534 24.477C204.156 26.1518 202.962 26.9819 201.098 26.9819ZM199.248 22.3508H202.889C202.86 21.9431 202.729 21.5207 202.481 21.2149C202.161 20.8217 201.724 20.647 201.083 20.647C200.399 20.647 199.903 20.88 199.612 21.2877C199.379 21.6081 199.277 22.0013 199.248 22.3508ZM209.44 26.9819C207.736 26.9819 206.266 26.2392 206.207 24.4916L207.824 24.3023C207.838 25.2489 208.494 25.744 209.455 25.744C210.431 25.744 210.94 25.3945 210.94 24.7829C210.94 24.1421 210.037 24.0256 208.945 23.7489C207.649 23.4139 206.411 23.0062 206.411 21.5353C206.411 19.9771 207.824 19.3508 209.28 19.3508C210.867 19.3508 212.222 19.9334 212.382 21.6664L210.795 21.9285C210.751 21.0256 210.198 20.5887 209.28 20.5887C208.639 20.5887 208.042 20.8363 208.042 21.4042C208.042 21.9722 208.712 22.1469 209.644 22.3508C211.013 22.6567 212.571 22.9625 212.571 24.6809C212.571 26.4431 211.042 26.9819 209.44 26.9819ZM217.561 26.9819C215.857 26.9819 214.386 26.2392 214.328 24.4916L215.944 24.3023C215.959 25.2489 216.614 25.744 217.575 25.744C218.551 25.744 219.061 25.3945 219.061 24.7829C219.061 24.1421 218.158 24.0256 217.066 23.7489C215.77 23.4139 214.532 23.0062 214.532 21.5353C214.532 19.9771 215.944 19.3508 217.401 19.3508C218.988 19.3508 220.342 19.9334 220.503 21.6664L218.915 21.9285C218.872 21.0256 218.318 20.5887 217.401 20.5887C216.76 20.5887 216.163 20.8363 216.163 21.4042C216.163 21.9722 216.833 22.1469 217.765 22.3508C219.134 22.6567 220.692 22.9625 220.692 24.6809C220.692 26.4431 219.163 26.9819 217.561 26.9819ZM231.726 26.9819C230.022 26.9819 228.551 26.2392 228.493 24.4916L230.109 24.3023C230.124 25.2489 230.779 25.744 231.74 25.744C232.716 25.744 233.226 25.3945 233.226 24.7829C233.226 24.1421 232.323 24.0256 231.231 23.7489C229.935 23.4139 228.697 23.0062 228.697 21.5353C228.697 19.9771 230.109 19.3508 231.566 19.3508C233.153 19.3508 234.507 19.9334 234.668 21.6664L233.08 21.9285C233.036 21.0256 232.483 20.5887 231.566 20.5887C230.925 20.5887 230.328 20.8363 230.328 21.4042C230.328 21.9722 230.998 22.1469 231.93 22.3508C233.299 22.6567 234.857 22.9625 234.857 24.6809C234.857 26.4431 233.328 26.9819 231.726 26.9819ZM240.109 26.9819C237.778 26.9819 236.395 25.5401 236.395 23.1664C236.395 20.9528 237.793 19.3508 240.109 19.3508C242.395 19.3508 243.822 20.9673 243.822 23.1664C243.822 25.4528 242.351 26.9819 240.109 26.9819ZM238.244 23.1664C238.244 24.1275 238.405 24.812 238.783 25.2198C239.075 25.5547 239.511 25.7149 240.109 25.7149C240.735 25.7149 241.172 25.5401 241.463 25.1906C241.827 24.7683 241.973 24.0984 241.973 23.1664C241.973 22.2343 241.812 21.5644 241.463 21.1421C241.157 20.7926 240.72 20.6178 240.109 20.6178C239.511 20.6178 239.075 20.778 238.769 21.113C238.405 21.5207 238.244 22.2052 238.244 23.1664ZM251.668 26.8071V25.3217H252.847V18.0984H251.668V16.613H255.833V18.0984H254.667V25.3217H255.833V26.8071H251.668ZM267.545 26.9819C265.23 26.9819 263.861 25.5547 263.861 23.1664C263.861 20.9237 265.23 19.3508 267.545 19.3508C269.482 19.3508 270.531 20.4431 270.822 21.9285L269.191 22.2198C269.016 21.4042 268.652 20.6615 267.545 20.6615C266.875 20.6615 266.453 20.8654 266.176 21.2295C265.856 21.6664 265.74 22.3363 265.74 23.1664C265.74 24.7392 266.104 25.6712 267.545 25.6712C268.477 25.6712 268.973 25.2198 269.191 24.3168L270.851 24.4916C270.618 25.9625 269.366 26.9819 267.545 26.9819ZM274.844 26.9819C273.504 26.9819 272.324 26.2683 272.324 24.7974C272.324 23.2392 273.62 22.8023 274.946 22.5547L277.115 22.1469C277.115 21.6664 277.115 21.3169 276.912 21.0256C276.708 20.7489 276.344 20.6178 275.747 20.6178C274.742 20.6178 274.276 20.9673 274.261 21.9868L272.572 21.7683C272.615 20.9091 272.936 20.2974 273.489 19.9188C274.028 19.5402 274.829 19.3508 275.848 19.3508C277.727 19.3508 278.79 20.1664 278.79 21.7537V25.4965C278.79 25.977 278.892 26.3994 279.038 26.7489V26.8071H277.305C277.247 26.5304 277.203 26.2246 277.203 25.7732C276.824 26.4867 276.038 26.9819 274.844 26.9819ZM274.086 24.7829C274.086 25.4091 274.581 25.7149 275.208 25.7149C276.446 25.7149 277.115 25.0887 277.115 24.011V23.3266L275.222 23.7343C274.552 23.8945 274.086 24.113 274.086 24.7829ZM280.976 26.8071V19.5256H282.695V20.6178C283.074 19.744 283.845 19.3508 284.879 19.3508C285.826 19.3508 286.438 19.5838 286.918 20.0936C287.501 20.6906 287.544 21.5644 287.544 22.4091V26.8071H285.797V22.5402C285.797 21.8703 285.768 21.4188 285.389 21.0547C285.069 20.7343 284.719 20.7052 284.282 20.7052C283.656 20.7052 282.695 21.0547 282.695 22.8168V26.8071H280.976ZM16.9627 45.7197V35.5256H18.6811V36.5159C19.1763 35.744 19.9918 35.3508 20.8947 35.3508C22.7588 35.3508 24.1423 36.7926 24.1423 39.1664C24.1423 41.4673 22.817 42.9819 20.9384 42.9819C20.0209 42.9819 19.2345 42.6324 18.6811 41.8897V45.7197H16.9627ZM18.6374 39.1372C18.6374 40.6081 19.0015 41.7003 20.4141 41.7003C21.0112 41.7003 21.4481 41.5401 21.7248 41.2198C22.118 40.812 22.2636 40.0984 22.2636 39.1518C22.2636 37.477 21.8413 36.6178 20.4578 36.6178C19.8753 36.6178 19.4384 36.8071 19.1326 37.1858C18.7976 37.6081 18.6374 38.278 18.6374 39.1372ZM28.0822 42.9819C26.7424 42.9819 25.5627 42.2683 25.5627 40.7974C25.5627 39.2392 26.8589 38.8023 28.1841 38.5547L30.354 38.1469C30.354 37.6664 30.354 37.3169 30.1501 37.0256C29.9462 36.7489 29.5822 36.6178 28.9851 36.6178C27.9802 36.6178 27.5142 36.9673 27.4996 37.9868L25.8103 37.7683C25.854 36.9091 26.1744 36.2974 26.7278 35.9188C27.2666 35.5402 28.0676 35.3508 29.087 35.3508C30.9656 35.3508 32.0287 36.1664 32.0287 37.7537V41.4965C32.0287 41.977 32.1307 42.3994 32.2763 42.7489V42.8071H30.5433C30.4851 42.5304 30.4414 42.2246 30.4414 41.7732C30.0627 42.4867 29.2763 42.9819 28.0822 42.9819ZM27.3249 40.7829C27.3249 41.4091 27.82 41.7149 28.4462 41.7149C29.6841 41.7149 30.354 41.0887 30.354 40.011V39.3266L28.4608 39.7343C27.7909 39.8945 27.3249 40.113 27.3249 40.7829ZM35.4397 45.7926C35.0902 45.7926 34.6242 45.7197 34.2892 45.6178L34.3183 44.0887C34.5805 44.1615 34.8863 44.2489 35.1921 44.2489C35.8329 44.2489 36.0513 43.8557 36.43 42.7926L33.6193 35.5256H35.4834L36.663 39.0499C36.8232 39.5304 37.0271 40.1858 37.2309 40.8994C37.4203 40.2295 37.595 39.6761 37.828 38.977L38.9348 35.5256H40.7406L37.93 43.4188C37.3475 45.1081 36.7067 45.7926 35.4397 45.7926ZM49.377 45.7926C49.0275 45.7926 48.5615 45.7197 48.2265 45.6178L48.2556 44.0887C48.5178 44.1615 48.8236 44.2489 49.1294 44.2489C49.7702 44.2489 49.9886 43.8557 50.3673 42.7926L47.5566 35.5256H49.4207L50.6003 39.0499C50.7605 39.5304 50.9644 40.1858 51.1683 40.8994C51.3576 40.2295 51.5323 39.6761 51.7653 38.977L52.8721 35.5256H54.678L51.8673 43.4188C51.2848 45.1081 50.644 45.7926 49.377 45.7926ZM59.4071 42.9819C57.077 42.9819 55.6935 41.5401 55.6935 39.1664C55.6935 36.9528 57.0916 35.3508 59.4071 35.3508C61.6935 35.3508 63.1207 36.9673 63.1207 39.1664C63.1207 41.4528 61.6498 42.9819 59.4071 42.9819ZM57.543 39.1664C57.543 40.1275 57.7032 40.812 58.0818 41.2198C58.3731 41.5547 58.81 41.7149 59.4071 41.7149C60.0333 41.7149 60.4702 41.5401 60.7614 41.1906C61.1255 40.7683 61.2712 40.0984 61.2712 39.1664C61.2712 38.2343 61.111 37.5644 60.7614 37.1421C60.4556 36.7926 60.0187 36.6178 59.4071 36.6178C58.81 36.6178 58.3731 36.778 58.0673 37.113C57.7032 37.5207 57.543 38.2052 57.543 39.1664ZM67.4849 42.9819C66.5529 42.9819 65.9121 42.7343 65.3878 42.1809C64.8053 41.5693 64.7616 40.6664 64.7616 39.7926V35.5256H66.5238V39.7052C66.5238 40.3314 66.5238 40.8702 66.8878 41.2489C67.2228 41.5984 67.616 41.6275 68.0383 41.6275C68.7082 41.6275 69.6111 41.278 69.6111 39.545V35.5256H71.315V42.8071H69.6257V41.744C69.2325 42.545 68.4898 42.9819 67.4849 42.9819ZM75.6224 39.2974C75.6224 38.3363 76.0301 37.7974 76.8457 37.0547C77.4136 36.5304 77.9379 36.0936 77.9379 35.3363C77.9379 34.4042 77.501 33.8654 76.5398 33.8654C75.2146 33.8654 74.9088 34.8557 74.9233 35.8169L73.1612 35.5402C73.2049 33.8945 74.2243 32.4382 76.5981 32.4382C78.5641 32.4382 79.7292 33.545 79.7292 35.3217C79.7292 36.5741 79.1321 37.1567 78.3165 37.8557C77.7049 38.38 77.2534 38.8023 77.2534 39.5887V39.9236H75.6224V39.2974ZM75.5641 42.8071V40.8266H77.5156V42.8071H75.5641Z" fill="#F6F6F6"/>
</svg>
