<svg width="385" height="55" viewBox="0 0 385 55" fill="none" xmlns="http://www.w3.org/2000/svg">
<path fill-rule="evenodd" clip-rule="evenodd" d="M-0.000244141 2.768C-0.000244141 1.4275 1.08646 0.34082 2.42694 0.34082H381.673C383.014 0.34082 384.101 1.42751 384.101 2.768V39.7825C384.101 41.1229 383.014 42.2096 381.673 42.2096L31.6472 42.2096C31.0034 42.2096 30.3861 42.4654 29.9309 42.9205L19.312 53.5394C17.783 55.0685 15.1685 53.9855 15.1685 51.8232V44.6368C15.1685 43.2963 14.0818 42.2096 12.7414 42.2096H2.42691C1.08643 42.2096 -0.000244141 41.1229 -0.000244141 39.7824V2.768Z" fill="#F6F6F6"/>
<path d="M19.6126 26.8649C17.1515 26.8649 15.8554 25.1028 15.8554 21.6951C15.8554 18.6659 17.0641 16.5397 19.6126 16.5397C22.1757 16.5397 23.399 18.6805 23.399 21.6951C23.399 24.7533 22.1757 26.8649 19.6126 26.8649ZM17.7049 21.6951C17.7049 22.5251 17.7486 23.2242 17.8651 23.7776L20.5447 18.2145C20.2971 18.0689 19.9913 17.996 19.6126 17.996C18.9282 17.996 18.4767 18.2436 18.1855 18.7388C17.8068 19.3358 17.7049 20.3261 17.7049 21.6951ZM18.6078 25.1611C18.8699 25.3504 19.1903 25.4378 19.6126 25.4378C20.2097 25.4378 20.632 25.2484 20.9233 24.8698C21.4039 24.2727 21.535 23.1951 21.535 21.6951C21.535 20.7921 21.4913 20.0494 21.3456 19.4815L18.6078 25.1611ZM29.9281 24.8698L28.0349 22.9766L26.1417 24.8698L25.1659 23.9232L27.0737 22.0154L25.1659 20.1077L26.1271 19.1465L28.0349 21.0543L29.9572 19.1465L30.9038 20.1077L28.996 22.0154L30.9038 23.9232L29.9281 24.8698ZM36.4512 26.8649C33.99 26.8649 32.6939 25.1028 32.6939 21.6951C32.6939 18.6659 33.9026 16.5397 36.4512 16.5397C39.0143 16.5397 40.2376 18.6805 40.2376 21.6951C40.2376 24.7533 39.0143 26.8649 36.4512 26.8649ZM34.5434 21.6951C34.5434 22.5251 34.5871 23.2242 34.7036 23.7776L37.3832 18.2145C37.1356 18.0689 36.8298 17.996 36.4512 17.996C35.7667 17.996 35.3153 18.2436 35.024 18.7388C34.6454 19.3358 34.5434 20.3261 34.5434 21.6951ZM35.4463 25.1611C35.7085 25.3504 36.0288 25.4378 36.4512 25.4378C37.0483 25.4378 37.4706 25.2484 37.7619 24.8698C38.2424 24.2727 38.3735 23.1951 38.3735 21.6951C38.3735 20.7921 38.3298 20.0494 38.1842 19.4815L35.4463 25.1611ZM45.8783 26.8649C44.9462 26.8649 44.1453 26.3844 43.7229 25.6853V26.6902H41.9899V16.496H43.7229V20.3116C44.2035 19.6125 45.0045 19.2193 45.9219 19.2193C47.8588 19.2193 49.1841 20.7485 49.1841 23.0494C49.1841 25.4086 47.8151 26.8649 45.8783 26.8649ZM43.6792 23.064C43.6792 24.7096 44.2763 25.598 45.4851 25.598C46.0821 25.598 46.519 25.4232 46.7957 25.0882C47.1598 24.6659 47.2909 23.9815 47.2909 23.0494C47.2909 21.3747 46.8394 20.5009 45.4705 20.5009C44.8443 20.5009 44.4074 20.7339 44.1307 21.1125C43.7957 21.5786 43.6792 22.2776 43.6792 23.064ZM54.1288 26.8649C51.6676 26.8649 50.3715 25.1028 50.3715 21.6951C50.3715 18.6659 51.5803 16.5397 54.1288 16.5397C56.6919 16.5397 57.9152 18.6805 57.9152 21.6951C57.9152 24.7533 56.6919 26.8649 54.1288 26.8649ZM52.221 21.6951C52.221 22.5251 52.2647 23.2242 52.3812 23.7776L55.0608 18.2145C54.8133 18.0689 54.5074 17.996 54.1288 17.996C53.4443 17.996 52.9929 18.2436 52.7016 18.7388C52.323 19.3358 52.221 20.3261 52.221 21.6951ZM53.1239 25.1611C53.3861 25.3504 53.7065 25.4378 54.1288 25.4378C54.7259 25.4378 55.1482 25.2484 55.4395 24.8698C55.9201 24.2727 56.0511 23.1951 56.0511 21.6951C56.0511 20.7921 56.0074 20.0494 55.8618 19.4815L53.1239 25.1611ZM62.9297 26.8649C60.7306 26.8649 59.3326 25.6999 59.3326 23.8067C59.3326 22.4523 59.886 21.6222 61.0656 21.2727C60.2501 20.8941 59.7404 20.2242 59.7404 19.1756C59.7404 17.7776 60.7015 16.5397 62.9442 16.5397C65.1724 16.5397 66.119 17.7776 66.119 19.1756C66.119 20.2242 65.5947 20.8941 64.8083 21.2582C66.017 21.6077 66.5267 22.4669 66.5267 23.8067C66.5267 25.8018 64.9976 26.8649 62.9297 26.8649ZM61.0947 23.7339C61.0947 24.8116 61.7792 25.496 62.9297 25.496C64.0947 25.496 64.7646 24.8116 64.7646 23.7339C64.7646 22.7145 64.0947 22.0591 62.9297 22.0591C61.8229 22.0591 61.0947 22.6708 61.0947 23.7339ZM61.4588 19.3067C61.4588 20.1368 61.9539 20.7193 62.9297 20.7193C63.8908 20.7193 64.4005 20.1368 64.4005 19.3067C64.4005 18.4329 63.9054 17.9087 62.9297 17.9087C61.9248 17.9087 61.4588 18.4475 61.4588 19.3067ZM71.1243 26.8649C69.2166 26.8649 67.8331 25.4232 67.8331 23.0494C67.8331 20.7485 69.1438 19.2339 71.0952 19.2339C72.0418 19.2339 72.7845 19.598 73.2797 20.297V16.496H74.9981V26.6902H73.2797V25.6562C72.8574 26.4572 72.0855 26.8649 71.1243 26.8649ZM69.7117 23.0494C69.7117 24.7242 70.1049 25.598 71.5176 25.598C72.0564 25.598 72.4787 25.4086 72.77 25.0737C73.1486 24.6368 73.3234 23.9669 73.3234 23.064C73.3234 21.6077 72.9302 20.5154 71.5467 20.5154C70.8768 20.5154 70.4253 20.7193 70.1486 21.1125C69.8282 21.5349 69.7117 22.1902 69.7117 23.0494ZM76.2438 26.6902L79.739 16.496H81.7341L85.2147 26.6902H83.336L82.506 24.0106H78.9671L78.137 26.6902H76.2438ZM79.4331 22.4815H82.0254L81.2535 20.0203C81.0933 19.5543 80.8749 18.7679 80.7293 18.2145H80.7001C80.5399 18.8407 80.3797 19.3795 80.1904 20.0203L79.4331 22.4815ZM87.2064 26.6902C87.4249 23.53 88.619 20.3553 90.8909 18.0106H86.0122V16.496H92.7258V18.0106C90.5559 20.064 89.2307 23.3261 89.0705 26.6902H87.2064ZM97.9047 26.8649C95.3998 26.8649 94.0746 25.0737 94.0746 21.5786C94.0746 18.4912 95.3125 16.3213 97.9047 16.3213C100.526 16.3213 101.778 18.5057 101.778 21.5786C101.778 24.7096 100.526 26.8649 97.9047 26.8649ZM95.9678 21.5786C95.9678 22.4378 96.0115 23.1514 96.128 23.7193L98.8659 18.0252C98.6037 17.8795 98.2979 17.8067 97.9047 17.8067C97.2057 17.8067 96.7542 18.0543 96.4484 18.564C96.0697 19.1756 95.9678 20.1805 95.9678 21.5786ZM96.8853 25.1319C97.1474 25.3213 97.4824 25.4086 97.9047 25.4086C98.5163 25.4086 98.9532 25.2193 99.2445 24.8261C99.7396 24.2145 99.8707 23.1222 99.8707 21.5786C99.8707 20.6611 99.827 19.9038 99.6814 19.3067L96.8853 25.1319ZM106.864 26.8649C103.791 26.8649 103.165 24.2145 103.165 21.8844C103.165 18.5786 104.17 16.3213 107.082 16.3213C109.048 16.3213 109.981 17.4863 110.184 19.0155L108.451 19.263C108.393 18.4766 108.029 17.7776 107.024 17.7776C105.262 17.7776 104.883 19.5688 104.869 21.3892C105.32 20.5009 106.223 20.0203 107.272 20.0203C109.209 20.0203 110.432 21.4766 110.432 23.4135C110.432 25.0446 109.485 26.8649 106.864 26.8649ZM105.087 23.4717C105.087 24.462 105.553 25.4086 106.835 25.4086C108.116 25.4086 108.655 24.7387 108.655 23.3989C108.655 22.2048 108.146 21.5057 106.908 21.5057C105.728 21.5057 105.087 22.3213 105.087 23.4717ZM115.509 26.8649C113.266 26.8649 111.839 25.6853 111.839 23.7484C111.839 22.3504 112.407 21.5203 113.601 21.1562C112.771 20.7776 112.247 20.0786 112.247 19.0155C112.247 17.5883 113.237 16.3213 115.523 16.3213C117.795 16.3213 118.771 17.5883 118.771 19.0155C118.771 20.0786 118.232 20.763 117.417 21.1417C118.654 21.4912 119.179 22.365 119.179 23.7484C119.179 25.7873 117.62 26.8649 115.509 26.8649ZM113.63 23.6756C113.63 24.7679 114.329 25.4669 115.509 25.4669C116.703 25.4669 117.387 24.7679 117.387 23.6756C117.387 22.6271 116.703 21.9572 115.509 21.9572C114.373 21.9572 113.63 22.5834 113.63 23.6756ZM114.009 19.1465C114.009 19.9912 114.519 20.5883 115.509 20.5883C116.485 20.5883 117.009 19.9912 117.009 19.1465C117.009 18.2582 116.514 17.7193 115.509 17.7193C114.489 17.7193 114.009 18.2727 114.009 19.1465ZM124.823 26.8649C123.891 26.8649 123.09 26.3844 122.668 25.6853V26.6902H120.935V16.496H122.668V20.3116C123.148 19.6125 123.949 19.2193 124.867 19.2193C126.804 19.2193 128.129 20.7485 128.129 23.0494C128.129 25.4086 126.76 26.8649 124.823 26.8649ZM122.624 23.064C122.624 24.7096 123.221 25.598 124.43 25.598C125.027 25.598 125.464 25.4232 125.741 25.0882C126.105 24.6659 126.236 23.9815 126.236 23.0494C126.236 21.3747 125.784 20.5009 124.415 20.5009C123.789 20.5009 123.352 20.7339 123.076 21.1125C122.741 21.5786 122.624 22.2776 122.624 23.064ZM130.554 26.6902C130.773 23.53 131.967 20.3553 134.239 18.0106H129.36V16.496H136.074V18.0106C133.904 20.064 132.579 23.3261 132.418 26.6902H130.554ZM141.078 26.8649C138.762 26.8649 137.524 25.4669 137.495 23.53L139.287 23.2679C139.272 24.5931 139.913 25.4086 141.078 25.4086C142.185 25.4086 142.854 24.8261 142.854 23.7339C142.854 22.5251 141.995 22.1319 141.151 22.1319H140.189V20.5883H140.961C141.675 20.5883 142.49 20.2242 142.49 19.1902C142.49 18.331 141.995 17.763 141.063 17.763C139.723 17.763 139.432 18.8553 139.461 19.6708L137.641 19.3941C137.728 17.5009 139.097 16.3213 141.063 16.3213C142.854 16.3213 144.282 17.2824 144.282 19.1611C144.282 20.0494 143.801 20.8067 143.015 21.2145C144.121 21.5931 144.689 22.598 144.689 23.7193C144.689 25.8018 143.16 26.8649 141.078 26.8649ZM145.546 26.6902L149.042 16.496H151.037L154.517 26.6902H152.639L151.808 24.0106H148.27L147.44 26.6902H145.546ZM148.736 22.4815H151.328L150.556 20.0203C150.396 19.5543 150.177 18.7679 150.032 18.2145H150.003C149.842 18.8407 149.682 19.3795 149.493 20.0203L148.736 22.4815ZM158.908 26.8649C156.899 26.8649 155.472 25.6562 155.428 23.6174L157.205 23.3407C157.205 24.6805 157.918 25.4086 158.938 25.4086C160.205 25.4086 160.831 24.6659 160.831 23.3407C160.831 22.0883 160.073 21.4912 158.952 21.4912C158.224 21.4912 157.656 21.7533 157.277 22.2485L155.675 21.9863L156.476 16.496H162.083V18.0106H157.947L157.569 20.6611C157.991 20.2242 158.603 19.9766 159.389 19.9766C161.006 19.9766 162.607 21.0106 162.607 23.3989C162.607 25.3358 161.37 26.8649 158.908 26.8649ZM165.227 26.6902C165.445 23.53 166.64 20.3553 168.911 18.0106H164.033V16.496H170.746V18.0106C168.576 20.064 167.251 23.3261 167.091 26.6902H165.227ZM175.59 26.8649C173.639 26.8649 172.634 25.7145 172.445 24.098L174.134 23.8067C174.221 24.6659 174.614 25.4086 175.663 25.4086C177.076 25.4086 177.716 24.1853 177.76 21.8407C177.236 22.6853 176.464 23.2242 175.401 23.2242C173.464 23.2242 172.197 21.797 172.197 19.8164C172.197 18.2145 173.129 16.3213 175.78 16.3213C178.794 16.3213 179.464 19.0591 179.464 21.3019C179.464 24.5931 178.488 26.8649 175.59 26.8649ZM173.974 19.8455C173.974 21.0543 174.483 21.7387 175.721 21.7387C176.901 21.7387 177.542 20.8941 177.542 19.7436C177.542 18.7242 177.076 17.7922 175.794 17.7922C174.498 17.7922 173.974 18.4621 173.974 19.8455ZM181.307 26.6902V16.496H184.657C186.55 16.496 188.633 16.8019 188.633 19.263C188.633 20.3116 188.108 21.0688 187.278 21.462C188.356 21.8698 188.982 22.6271 188.982 23.865C188.982 26.4135 186.943 26.6902 184.817 26.6902H181.307ZM183.113 25.2339H184.759C186.172 25.2339 187.22 25.1902 187.22 23.7776C187.22 22.2485 185.939 22.2193 184.832 22.2193H183.113V25.2339ZM183.113 20.763H184.54C185.793 20.763 186.856 20.7339 186.856 19.365C186.856 18.0106 185.778 17.9669 184.555 17.9669H183.113V20.763ZM193.389 26.8649C191.481 26.8649 190.097 25.4232 190.097 23.0494C190.097 20.7485 191.408 19.2339 193.36 19.2339C194.306 19.2339 195.049 19.598 195.544 20.297V16.496H197.262V26.6902H195.544V25.6562C195.122 26.4572 194.35 26.8649 193.389 26.8649ZM191.976 23.0494C191.976 24.7242 192.369 25.598 193.782 25.598C194.321 25.598 194.743 25.4086 195.034 25.0737C195.413 24.6368 195.588 23.9669 195.588 23.064C195.588 21.6077 195.194 20.5154 193.811 20.5154C193.141 20.5154 192.69 20.7193 192.413 21.1125C192.093 21.5349 191.976 22.1902 191.976 23.0494ZM202.484 26.8649C200.474 26.8649 199.047 25.6562 199.003 23.6174L200.78 23.3407C200.78 24.6805 201.494 25.4086 202.513 25.4086C203.78 25.4086 204.406 24.6659 204.406 23.3407C204.406 22.0883 203.649 21.4912 202.528 21.4912C201.799 21.4912 201.231 21.7533 200.853 22.2485L199.251 21.9863L200.052 16.496H205.659V18.0106H201.523L201.144 20.6611C201.566 20.2242 202.178 19.9766 202.964 19.9766C204.581 19.9766 206.183 21.0106 206.183 23.3989C206.183 25.3358 204.945 26.8649 202.484 26.8649ZM208.176 26.6902V16.496H214.933V18.0106H209.996V20.7921H214.409V22.2921H209.996V25.1756H214.933V26.6902H208.176ZM220.124 26.8649C217.881 26.8649 216.454 25.6853 216.454 23.7484C216.454 22.3504 217.022 21.5203 218.216 21.1562C217.386 20.7776 216.862 20.0786 216.862 19.0155C216.862 17.5883 217.852 16.3213 220.139 16.3213C222.41 16.3213 223.386 17.5883 223.386 19.0155C223.386 20.0786 222.847 20.763 222.032 21.1417C223.27 21.4912 223.794 22.365 223.794 23.7484C223.794 25.7873 222.236 26.8649 220.124 26.8649ZM218.245 23.6756C218.245 24.7679 218.944 25.4669 220.124 25.4669C221.318 25.4669 222.003 24.7679 222.003 23.6756C222.003 22.6271 221.318 21.9572 220.124 21.9572C218.988 21.9572 218.245 22.5834 218.245 23.6756ZM218.624 19.1465C218.624 19.9912 219.134 20.5883 220.124 20.5883C221.1 20.5883 221.624 19.9912 221.624 19.1465C221.624 18.2582 221.129 17.7193 220.124 17.7193C219.105 17.7193 218.624 18.2727 218.624 19.1465ZM227.851 26.8649C226.511 26.8649 225.331 26.1514 225.331 24.6805C225.331 23.1222 226.628 22.6853 227.953 22.4378L230.123 22.03C230.123 21.5494 230.123 21.1999 229.919 20.9086C229.715 20.632 229.351 20.5009 228.754 20.5009C227.749 20.5009 227.283 20.8504 227.268 21.8698L225.579 21.6514C225.623 20.7921 225.943 20.1805 226.497 19.8019C227.035 19.4232 227.836 19.2339 228.856 19.2339C230.734 19.2339 231.797 20.0494 231.797 21.6368V25.3795C231.797 25.8601 231.899 26.2824 232.045 26.6319V26.6902H230.312C230.254 26.4135 230.21 26.1077 230.21 25.6562C229.831 26.3698 229.045 26.8649 227.851 26.8649ZM227.094 24.6659C227.094 25.2921 227.589 25.598 228.215 25.598C229.453 25.598 230.123 24.9717 230.123 23.8941V23.2096L228.23 23.6174C227.56 23.7776 227.094 23.996 227.094 24.6659ZM237.231 26.8649C235.032 26.8649 233.634 25.6999 233.634 23.8067C233.634 22.4523 234.188 21.6222 235.367 21.2727C234.552 20.8941 234.042 20.2242 234.042 19.1756C234.042 17.7776 235.003 16.5397 237.246 16.5397C239.474 16.5397 240.421 17.7776 240.421 19.1756C240.421 20.2242 239.896 20.8941 239.11 21.2582C240.319 21.6077 240.828 22.4669 240.828 23.8067C240.828 25.8018 239.299 26.8649 237.231 26.8649ZM235.396 23.7339C235.396 24.8116 236.081 25.496 237.231 25.496C238.396 25.496 239.066 24.8116 239.066 23.7339C239.066 22.7145 238.396 22.0591 237.231 22.0591C236.125 22.0591 235.396 22.6708 235.396 23.7339ZM235.76 19.3067C235.76 20.1368 236.256 20.7193 237.231 20.7193C238.192 20.7193 238.702 20.1368 238.702 19.3067C238.702 18.4329 238.207 17.9087 237.231 17.9087C236.226 17.9087 235.76 18.4475 235.76 19.3067ZM242.237 26.6902C242.368 24.2436 243.562 23.0494 245.208 22.0154C246.314 21.3164 247.377 20.763 247.377 19.496C247.377 18.5786 246.941 17.9815 245.979 17.9815C244.581 17.9815 244.392 19.1465 244.407 19.9912L242.601 19.729C242.572 18.1999 243.46 16.5397 246.038 16.5397C247.931 16.5397 249.169 17.6465 249.169 19.5397C249.169 21.2727 248.091 22.1174 246.591 23.0494C245.499 23.7193 244.596 24.2582 244.348 25.2048H249.183V26.6902H242.237ZM254.164 26.8649C252.256 26.8649 251.266 25.729 251.091 24.1562L252.737 23.865C252.824 24.7096 253.217 25.4378 254.237 25.4378C255.62 25.4378 256.246 24.229 256.29 21.9281C255.78 22.7727 255.023 23.297 253.975 23.297C252.081 23.297 250.844 21.8989 250.844 19.962C250.844 18.4038 251.761 16.5397 254.353 16.5397C257.295 16.5397 257.95 19.2193 257.95 21.4184C257.95 24.6368 257.004 26.8649 254.164 26.8649ZM252.577 19.9912C252.577 21.1708 253.086 21.8407 254.295 21.8407C255.446 21.8407 256.072 21.0252 256.072 19.8892C256.072 18.8989 255.62 17.9815 254.368 17.9815C253.101 17.9815 252.577 18.6368 252.577 19.9912ZM263.16 26.8649C260.699 26.8649 259.403 25.1028 259.403 21.6951C259.403 18.6659 260.611 16.5397 263.16 16.5397C265.723 16.5397 266.946 18.6805 266.946 21.6951C266.946 24.7533 265.723 26.8649 263.16 26.8649ZM261.252 21.6951C261.252 22.5251 261.296 23.2242 261.412 23.7776L264.092 18.2145C263.844 18.0689 263.539 17.996 263.16 17.996C262.476 17.996 262.024 18.2436 261.733 18.7388C261.354 19.3358 261.252 20.3261 261.252 21.6951ZM262.155 25.1611C262.417 25.3504 262.738 25.4378 263.16 25.4378C263.757 25.4378 264.179 25.2484 264.471 24.8698C264.951 24.2727 265.082 23.1951 265.082 21.6951C265.082 20.7921 265.039 20.0494 264.893 19.4815L262.155 25.1611ZM270.009 26.6902V20.7921H268.597V19.4087H270.009V18.3747C270.009 17.1077 270.752 16.4232 272.456 16.4232C272.922 16.4232 273.388 16.4815 273.65 16.5252L273.621 17.9232C273.272 17.865 272.922 17.8358 272.674 17.8358C272.005 17.8358 271.728 17.9669 271.728 18.4475V19.4087H273.723V20.7921H271.728V26.6902H270.009ZM275.179 20.7921V19.4087H276.592V18.3747C276.592 17.1077 277.335 16.4232 279.038 16.4232C279.504 16.4232 279.971 16.4815 280.233 16.5252L280.204 17.9232C279.854 17.865 279.504 17.8358 279.257 17.8358C278.587 17.8358 278.31 17.9669 278.31 18.4475V19.4087H280.305V20.7921H278.31V26.6902H276.592V20.7921H275.179ZM285.443 26.8649C283.244 26.8649 281.846 25.6999 281.846 23.8067C281.846 22.4523 282.399 21.6222 283.579 21.2727C282.763 20.8941 282.254 20.2242 282.254 19.1756C282.254 17.7776 283.215 16.5397 285.458 16.5397C287.686 16.5397 288.632 17.7776 288.632 19.1756C288.632 20.2242 288.108 20.8941 287.322 21.2582C288.53 21.6077 289.04 22.4669 289.04 23.8067C289.04 25.8018 287.511 26.8649 285.443 26.8649ZM283.608 23.7339C283.608 24.8116 284.293 25.496 285.443 25.496C286.608 25.496 287.278 24.8116 287.278 23.7339C287.278 22.7145 286.608 22.0591 285.443 22.0591C284.336 22.0591 283.608 22.6708 283.608 23.7339ZM283.972 19.3067C283.972 20.1368 284.467 20.7193 285.443 20.7193C286.404 20.7193 286.914 20.1368 286.914 19.3067C286.914 18.4329 286.419 17.9087 285.443 17.9087C284.438 17.9087 283.972 18.4475 283.972 19.3067ZM293.157 26.8649C291.817 26.8649 290.638 26.1514 290.638 24.6805C290.638 23.1222 291.934 22.6853 293.259 22.4378L295.429 22.03C295.429 21.5494 295.429 21.1999 295.225 20.9086C295.021 20.632 294.657 20.5009 294.06 20.5009C293.055 20.5009 292.589 20.8504 292.575 21.8698L290.885 21.6514C290.929 20.7921 291.249 20.1805 291.803 19.8019C292.342 19.4232 293.143 19.2339 294.162 19.2339C296.041 19.2339 297.104 20.0494 297.104 21.6368V25.3795C297.104 25.8601 297.206 26.2824 297.351 26.6319V26.6902H295.618C295.56 26.4135 295.516 26.1077 295.516 25.6562C295.138 26.3698 294.351 26.8649 293.157 26.8649ZM292.4 24.6659C292.4 25.2921 292.895 25.598 293.521 25.598C294.759 25.598 295.429 24.9717 295.429 23.8941V23.2096L293.536 23.6174C292.866 23.7776 292.4 23.996 292.4 24.6659ZM300.529 26.6902V20.7921H299.117V19.4087H300.529V18.3747C300.529 17.1077 301.272 16.4232 302.976 16.4232C303.442 16.4232 303.908 16.4815 304.17 16.5252L304.141 17.9232C303.791 17.865 303.442 17.8358 303.194 17.8358C302.524 17.8358 302.248 17.9669 302.248 18.4475V19.4087H304.243V20.7921H302.248V26.6902H300.529ZM308.855 26.8649C306.947 26.8649 305.564 25.4232 305.564 23.0494C305.564 20.7485 306.874 19.2339 308.826 19.2339C309.772 19.2339 310.515 19.598 311.01 20.297V16.496H312.729V26.6902H311.01V25.6562C310.588 26.4572 309.816 26.8649 308.855 26.8649ZM307.442 23.0494C307.442 24.7242 307.836 25.598 309.248 25.598C309.787 25.598 310.209 25.4086 310.501 25.0737C310.879 24.6368 311.054 23.9669 311.054 23.064C311.054 21.6077 310.661 20.5154 309.277 20.5154C308.607 20.5154 308.156 20.7193 307.879 21.1125C307.559 21.5349 307.442 22.1902 307.442 23.0494ZM318.038 26.8649C315.78 26.8649 314.572 25.496 314.542 23.6028L316.29 23.3407C316.275 24.6368 316.902 25.4378 318.038 25.4378C319.13 25.4378 319.785 24.8698 319.785 23.7921C319.785 22.6125 318.94 22.2339 318.11 22.2339H317.178V20.7193H317.936C318.635 20.7193 319.421 20.3698 319.421 19.3504C319.421 18.5057 318.94 17.9523 318.023 17.9523C316.712 17.9523 316.436 19.03 316.465 19.8164L314.674 19.5543C314.761 17.7048 316.101 16.5397 318.023 16.5397C319.785 16.5397 321.183 17.4863 321.183 19.3213C321.183 20.1951 320.717 20.9232 319.945 21.331C321.023 21.6951 321.576 22.6853 321.576 23.7776C321.576 25.8164 320.076 26.8649 318.038 26.8649ZM324.254 26.6902C324.458 23.5883 325.638 20.4863 327.851 18.1999H323.089V16.7145H329.657V18.1999C327.531 20.2096 326.235 23.3989 326.075 26.6902H324.254ZM335.362 26.8649C334.43 26.8649 333.629 26.3844 333.206 25.6853V26.6902H331.473V16.496H333.206V20.3116C333.687 19.6125 334.488 19.2193 335.406 19.2193C337.342 19.2193 338.668 20.7485 338.668 23.0494C338.668 25.4086 337.299 26.8649 335.362 26.8649ZM333.163 23.064C333.163 24.7096 333.76 25.598 334.969 25.598C335.566 25.598 336.003 25.4232 336.279 25.0882C336.643 24.6659 336.774 23.9815 336.774 23.0494C336.774 21.3747 336.323 20.5009 334.954 20.5009C334.328 20.5009 333.891 20.7339 333.614 21.1125C333.279 21.5786 333.163 22.2776 333.163 23.064ZM343.656 26.8649C341.341 26.8649 339.972 25.4378 339.972 23.0494C339.972 20.8067 341.341 19.2339 343.656 19.2339C345.593 19.2339 346.641 20.3261 346.933 21.8116L345.302 22.1028C345.127 21.2873 344.763 20.5446 343.656 20.5446C342.986 20.5446 342.564 20.7485 342.287 21.1125C341.967 21.5494 341.85 22.2193 341.85 23.0494C341.85 24.6222 342.214 25.5543 343.656 25.5543C344.588 25.5543 345.083 25.1028 345.302 24.1999L346.962 24.3747C346.729 25.8455 345.476 26.8649 343.656 26.8649ZM351.901 26.8649C349.585 26.8649 348.348 25.4669 348.318 23.53L350.11 23.2679C350.095 24.5931 350.736 25.4086 351.901 25.4086C353.008 25.4086 353.678 24.8261 353.678 23.7339C353.678 22.5251 352.818 22.1319 351.974 22.1319H351.013V20.5883H351.784C352.498 20.5883 353.314 20.2242 353.314 19.1902C353.314 18.331 352.818 17.763 351.886 17.763C350.547 17.763 350.255 18.8553 350.284 19.6708L348.464 19.3941C348.551 17.5009 349.92 16.3213 351.886 16.3213C353.678 16.3213 355.105 17.2824 355.105 19.1611C355.105 20.0494 354.624 20.8067 353.838 21.2145C354.945 21.5931 355.513 22.598 355.513 23.7193C355.513 25.8018 353.983 26.8649 351.901 26.8649ZM356.835 26.6902C356.98 24.1853 358.189 22.962 359.878 21.9135C361.014 21.1999 362.092 20.632 362.092 19.3358C362.092 18.4038 361.655 17.7922 360.665 17.7922C359.238 17.7922 359.048 18.9863 359.063 19.8455L357.213 19.5688C357.184 18.0106 358.087 16.3213 360.723 16.3213C362.66 16.3213 363.927 17.4426 363.927 19.3795C363.927 21.1562 362.82 22.0154 361.291 22.962C360.17 23.6611 359.267 24.2145 359.005 25.1756H363.942V26.6902H356.835ZM364.959 26.6902L368.455 16.496H370.45L373.93 26.6902H372.052L371.222 24.0106H367.683L366.853 26.6902H364.959ZM368.149 22.4815H370.741L369.969 20.0203C369.809 19.5543 369.59 18.7679 369.445 18.2145H369.416C369.256 18.8407 369.095 19.3795 368.906 20.0203L368.149 22.4815Z" fill="#4A5C63"/>
</svg>
