<svg width="12" height="12" viewBox="0 0 12 12" fill="none" xmlns="http://www.w3.org/2000/svg">
<g id="Pencil" clip-path="url(#clip0_780_1633)">
<path id="Union" fill-rule="evenodd" clip-rule="evenodd" d="M2.25 1.5C2.11193 1.5 2 1.61193 2 1.75V10.25C2 10.3881 2.11193 10.5 2.25 10.5H7.75C7.88807 10.5 8 10.3881 8 10.25V9.25C8 8.83579 8.33579 8.5 8.75 8.5C9.16421 8.5 9.5 8.83579 9.5 9.25V10.25C9.5 11.2165 8.7165 12 7.75 12H2.25C1.2835 12 0.5 11.2165 0.5 10.25V1.75C0.5 0.783502 1.2835 0 2.25 0H4.83579C5.29992 0 5.74503 0.184375 6.07322 0.512563L6.28033 0.71967C6.57322 1.01256 6.57322 1.48744 6.28033 1.78033C5.98744 2.07322 5.51256 2.07322 5.21967 1.78033L5.01256 1.57322C4.96568 1.52634 4.90209 1.5 4.83579 1.5H2.25ZM9.53033 0.71967C9.82322 1.01256 9.82322 1.48744 9.53033 1.78033L7.67644 3.63422C8.238 4.02458 8.72542 4.512 9.11578 5.07356L10.2197 3.96967C10.5126 3.67678 10.9874 3.67678 11.2803 3.96967C11.5732 4.26256 11.5732 4.73744 11.2803 5.03033L9.05323 7.25743C8.94809 7.36257 8.81788 7.43919 8.6749 7.48004L5.42238 8.40933C4.76232 8.59792 4.15208 7.98767 4.34067 7.32762L5.26996 4.0751C5.31081 3.93213 5.38742 3.80191 5.49257 3.69677L8.46967 0.71967C8.76256 0.426777 9.23744 0.426777 9.53033 0.71967ZM8.00603 6.11112L7.93066 5.99808C7.61941 5.5312 7.2188 5.13059 6.75192 4.81934L6.63888 4.74397L6.09202 6.65798L8.00603 6.11112Z" fill="#F3930B"/>
</g>
<defs>
<clipPath id="clip0_780_1633">
<rect width="12" height="12" fill="white"/>
</clipPath>
</defs>
</svg>
