<svg width="400" height="401" viewBox="0 0 400 401" fill="none" xmlns="http://www.w3.org/2000/svg">
    <g clip-path="url(#clip0_580_9955)">
        <g clip-path="url(#clip1_580_9955)">
            <path d="M199.513 80.6191V160.418H200.489V80.6191H229.27V160.619H170.732V80.6191H199.513Z" fill="#F6F6F6" />
            <path d="M240 120.131H160.201V121.107H240V149.888H160V91.3506H240V120.131Z" fill="#E5E5E5" />
        </g>
        <g clip-path="url(#clip2_580_9955)">
            <path d="M80 40.1309H0.201172V41.1074H80V69.8877H0V11.3506H80V40.1309Z" fill="#E5E5E5" />
            <path d="M39.5127 0.619141V80.418H40.4893V0.619141H69.2695V80.6191H10.7324L10.7324 0.619141H39.5127Z"
                fill="#F6F6F6" />
        </g>
        <g clip-path="url(#clip3_580_9955)">
            <path d="M160 40.1309H80.2012V41.1074H160V69.8877H80V11.3506H160V40.1309Z" fill="#E5E5E5" />
            <path d="M119.513 0.619141V80.418H120.489V0.619141H149.27V80.6191H90.7324V0.619141H119.513Z"
                fill="#F6F6F6" />
        </g>
        <g clip-path="url(#clip4_580_9955)">
            <path d="M240 40.1309H160.201V41.1074H240V69.8877H160V11.3506H240V40.1309Z" fill="#E5E5E5" />
            <path d="M199.513 0.619141V80.418H200.489V0.619141H229.27V80.6191H170.732V0.619141H199.513Z"
                fill="#F6F6F6" />
        </g>
        <g clip-path="url(#clip5_580_9955)">
            <path d="M320 40.1309H240.201V41.1074H320V69.8877H240V11.3506H320V40.1309Z" fill="#E5E5E5" />
            <path d="M279.513 0.619141V80.418H280.489V0.619141H309.27V80.6191H250.732V0.619141H279.513Z"
                fill="#F6F6F6" />
        </g>
        <g clip-path="url(#clip6_580_9955)">
            <path d="M80 120.131H0.201172V121.107H80V149.888H0V91.3506H80V120.131Z" fill="#E5E5E5" />
            <path d="M39.5127 80.6191V160.418H40.4893V80.6191H69.2695V160.619H10.7324L10.7324 80.6191H39.5127Z"
                fill="#F6F6F6" />
        </g>
        <g clip-path="url(#clip7_580_9955)">
            <path d="M160 120.131H80.2012V121.107H160V149.888H80V91.3506H160V120.131Z" fill="#E5E5E5" />
            <path d="M119.513 80.6191V160.418H120.489V80.6191H149.27V160.619H90.7324V80.6191H119.513Z" fill="#F6F6F6" />
        </g>
        <g clip-path="url(#clip8_580_9955)">
            <path d="M320 120.131H240.201V121.107H320V149.888H240V91.3506H320V120.131Z" fill="#E5E5E5" />
            <path d="M279.513 80.6191V160.418H280.489V80.6191H309.27V160.619H250.732V80.6191H279.513Z" fill="#F6F6F6" />
        </g>
        <g clip-path="url(#clip9_580_9955)">
            <path d="M39.5127 160.619V240.418H40.4893V160.619H69.2695V240.619H10.7324L10.7324 160.619H39.5127Z"
                fill="#F6F6F6" />
            <path d="M80 200.131H0.201172V201.107H80V229.888H0V171.351H80V200.131Z" fill="#E5E5E5" />
        </g>
        <g clip-path="url(#clip10_580_9955)">
            <path d="M160 200.131H80.2012V201.107H160V229.888H80V171.351H160V200.131Z" fill="#E5E5E5" />
            <path d="M119.513 160.619V240.418H120.489V160.619H149.27V240.619H90.7324V160.619H119.513Z" fill="#F6F6F6" />
        </g>
        <g clip-path="url(#clip11_580_9955)">
            <path d="M240 200.131H160.201V201.107H240V229.888H160V171.351H240V200.131Z" fill="#E5E5E5" />
            <path d="M199.513 160.619V240.418H200.489V160.619H229.27V240.619H170.732V160.619H199.513Z" fill="#F6F6F6" />
        </g>
        <g clip-path="url(#clip12_580_9955)">
            <path d="M320 200.131H240.201V201.107H320V229.888H240V171.351H320V200.131Z" fill="#E5E5E5" />
            <path d="M279.513 160.619V240.418H280.489V160.619H309.27V240.619H250.732V160.619H279.513Z" fill="#F6F6F6" />
        </g>
        <g clip-path="url(#clip13_580_9955)">
            <path d="M400 200.131H320.201V201.107H400V229.888H320V171.351H400V200.131Z" fill="#E5E5E5" />
            <path d="M359.513 160.619V240.418H360.489V160.619H389.27V240.619H330.732V160.619H359.513Z" fill="#F6F6F6" />
        </g>
        <g clip-path="url(#clip14_580_9955)">
            <path d="M240 280.131H160.201V281.107H240V309.888H160V251.351H240V280.131Z" fill="#E5E5E5" />
            <path d="M199.513 240.619V320.418H200.489V240.619H229.27V320.619H170.732V240.619H199.513Z" fill="#F6F6F6" />
        </g>
        <g clip-path="url(#clip15_580_9955)">
            <path d="M160 280.131H80.2012V281.107H160V309.888H80V251.351H160V280.131Z" fill="#E5E5E5" />
            <path d="M119.513 240.619V320.418H120.489V240.619H149.27V320.619H90.7324V240.619H119.513Z" fill="#F6F6F6" />
        </g>
        <g clip-path="url(#clip16_580_9955)">
            <path d="M400 120.131H320.201V121.107H400V149.888H320V91.3506H400V120.131Z" fill="#E5E5E5" />
            <path d="M359.513 80.6191V160.418H360.489V80.6191H389.27V160.619H330.732V80.6191H359.513Z" fill="#F6F6F6" />
        </g>
        <g clip-path="url(#clip17_580_9955)">
            <path d="M359.513 0.619141V80.418H360.489V0.619141H389.27V80.6191H330.732V0.619141H359.513Z"
                fill="#F6F6F6" />
            <path d="M400 40.1309H320.201V41.1074H400V69.8877H320V11.3506H400V40.1309Z" fill="#E5E5E5" />
        </g>
        <g clip-path="url(#clip18_580_9955)">
            <path d="M279.513 240.619V320.418H280.489V240.619H309.27V320.619H250.732V240.619H279.513Z" fill="#F6F6F6" />
            <path d="M320 280.131H240.201V281.107H320V309.888H240V251.351H320V280.131Z" fill="#E5E5E5" />
        </g>
        <g clip-path="url(#clip19_580_9955)">
            <path d="M80 280.131H0.201172V281.107H80V309.888H0V251.351H80V280.131Z" fill="#E5E5E5" />
            <path d="M39.5127 240.619V320.418H40.4893V240.619H69.2695V320.619H10.7324L10.7324 240.619H39.5127Z"
                fill="#F6F6F6" />
        </g>
        <g clip-path="url(#clip20_580_9955)">
            <path d="M119.513 320.619V400.418H120.489V320.619H149.27V400.619H90.7324V320.619H119.513Z" fill="#F6F6F6" />
            <path d="M160 360.131H80.2012V361.107H160V389.888H80V331.351H160V360.131Z" fill="#E5E5E5" />
        </g>
        <g clip-path="url(#clip21_580_9955)">
            <path d="M400 280.131H320.201V281.107H400V309.888H320V251.351H400V280.131Z" fill="#E5E5E5" />
            <path d="M359.513 240.619V320.418H360.489V240.619H389.27V320.619H330.732V240.619H359.513Z" fill="#F6F6F6" />
        </g>
        <g clip-path="url(#clip22_580_9955)">
            <path d="M80 360.131H0.201172V361.107H80V389.888H0V331.351H80V360.131Z" fill="#E5E5E5" />
            <path d="M39.5127 320.619V400.418H40.4893V320.619H69.2695V400.619H10.7324L10.7324 320.619H39.5127Z"
                fill="#F6F6F6" />
        </g>
        <g clip-path="url(#clip23_580_9955)">
            <path d="M240 360.131H160.201V361.107H240V389.888H160V331.351H240V360.131Z" fill="#E5E5E5" />
            <path d="M199.513 320.619V400.418H200.489V320.619H229.27V400.619H170.732V320.619H199.513Z" fill="#F6F6F6" />
        </g>
        <g clip-path="url(#clip24_580_9955)">
            <path d="M320 360.131H240.201V361.107H320V389.888H240V331.351H320V360.131Z" fill="#E5E5E5" />
            <path d="M279.513 320.619V400.418H280.489V320.619H309.27V400.619H250.732V320.619H279.513Z" fill="#F6F6F6" />
        </g>
        <g clip-path="url(#clip25_580_9955)">
            <path d="M400 360.131H320.201V361.107H400V389.888H320V331.351H400V360.131Z" fill="#E5E5E5" />
            <path d="M359.513 320.619V400.418H360.489V320.619H389.27V400.619H330.732V320.619H359.513Z" fill="#F6F6F6" />
        </g>
    </g>
    <defs>
        <clipPath id="clip0_580_9955">
            <rect width="400" height="400" fill="white" transform="translate(0 0.619141)" />
        </clipPath>
        <clipPath id="clip1_580_9955">
            <rect width="80" height="80" fill="white" transform="translate(160 80.6191)" />
        </clipPath>
        <clipPath id="clip2_580_9955">
            <rect width="80" height="80" fill="white" transform="translate(0 0.619141)" />
        </clipPath>
        <clipPath id="clip3_580_9955">
            <rect width="80" height="80" fill="white" transform="translate(80 0.619141)" />
        </clipPath>
        <clipPath id="clip4_580_9955">
            <rect width="80" height="80" fill="white" transform="translate(160 0.619141)" />
        </clipPath>
        <clipPath id="clip5_580_9955">
            <rect width="80" height="80" fill="white" transform="translate(240 0.619141)" />
        </clipPath>
        <clipPath id="clip6_580_9955">
            <rect width="80" height="80" fill="white" transform="translate(0 80.6191)" />
        </clipPath>
        <clipPath id="clip7_580_9955">
            <rect width="80" height="80" fill="white" transform="translate(80 80.6191)" />
        </clipPath>
        <clipPath id="clip8_580_9955">
            <rect width="80" height="80" fill="white" transform="translate(240 80.6191)" />
        </clipPath>
        <clipPath id="clip9_580_9955">
            <rect width="80" height="80" fill="white" transform="translate(0 160.619)" />
        </clipPath>
        <clipPath id="clip10_580_9955">
            <rect width="80" height="80" fill="white" transform="translate(80 160.619)" />
        </clipPath>
        <clipPath id="clip11_580_9955">
            <rect width="80" height="80" fill="white" transform="translate(160 160.619)" />
        </clipPath>
        <clipPath id="clip12_580_9955">
            <rect width="80" height="80" fill="white" transform="translate(240 160.619)" />
        </clipPath>
        <clipPath id="clip13_580_9955">
            <rect width="80" height="80" fill="white" transform="translate(320 160.619)" />
        </clipPath>
        <clipPath id="clip14_580_9955">
            <rect width="80" height="80" fill="white" transform="translate(160 240.619)" />
        </clipPath>
        <clipPath id="clip15_580_9955">
            <rect width="80" height="80" fill="white" transform="translate(80 240.619)" />
        </clipPath>
        <clipPath id="clip16_580_9955">
            <rect width="80" height="80" fill="white" transform="translate(320 80.6191)" />
        </clipPath>
        <clipPath id="clip17_580_9955">
            <rect width="80" height="80" fill="white" transform="translate(320 0.619141)" />
        </clipPath>
        <clipPath id="clip18_580_9955">
            <rect width="80" height="80" fill="white" transform="translate(240 240.619)" />
        </clipPath>
        <clipPath id="clip19_580_9955">
            <rect width="80" height="80" fill="white" transform="translate(0 240.619)" />
        </clipPath>
        <clipPath id="clip20_580_9955">
            <rect width="80" height="80" fill="white" transform="translate(80 320.619)" />
        </clipPath>
        <clipPath id="clip21_580_9955">
            <rect width="80" height="80" fill="white" transform="translate(320 240.619)" />
        </clipPath>
        <clipPath id="clip22_580_9955">
            <rect width="80" height="80" fill="white" transform="translate(0 320.619)" />
        </clipPath>
        <clipPath id="clip23_580_9955">
            <rect width="80" height="80" fill="white" transform="translate(160 320.619)" />
        </clipPath>
        <clipPath id="clip24_580_9955">
            <rect width="80" height="80" fill="white" transform="translate(240 320.619)" />
        </clipPath>
        <clipPath id="clip25_580_9955">
            <rect width="80" height="80" fill="white" transform="translate(320 320.619)" />
        </clipPath>
    </defs>
</svg>