<svg width="280" height="157" viewBox="0 0 280 157" fill="none" xmlns="http://www.w3.org/2000/svg">
<path fill-rule="evenodd" clip-rule="evenodd" d="M87.1031 88.9831C87.1031 87.5033 85.9035 86.3037 84.4237 86.3037H68.8414C67.3616 86.3037 66.1619 87.5033 66.1619 88.9831V90.835C66.1619 92.3148 64.9623 93.5145 63.4825 93.5145H2.67943C1.19962 93.5145 0 94.7141 0 96.1939V153.355C0 154.835 1.19963 156.034 2.67943 156.034H91.1005C92.5803 156.034 93.7799 154.835 93.7799 153.355V96.1939C93.7799 94.7141 92.5803 93.5145 91.1005 93.5145H89.7825C88.3027 93.5145 87.1031 92.3148 87.1031 90.835V88.9831Z" fill="#F2C4DA"/>
<path fill-rule="evenodd" clip-rule="evenodd" d="M174.4 48.5918C174.4 47.112 173.2 45.9124 171.72 45.9124H144.008C142.528 45.9124 141.328 47.112 141.328 48.5918V54.6204C141.328 56.1002 140.129 57.2999 138.649 57.2999H39.5217C38.0419 57.2999 36.8423 58.4995 36.8423 59.9793V153.355C36.8423 154.835 38.0419 156.034 39.5217 156.034H182.265C183.744 156.034 184.944 154.835 184.944 153.355V59.9793C184.944 58.4995 183.744 57.2999 182.265 57.2999H177.079C175.599 57.2999 174.4 56.1002 174.4 54.6204V48.5918Z" fill="#C5DDCC"/>
<path fill-rule="evenodd" clip-rule="evenodd" d="M265.263 3.04149C265.263 1.56168 264.063 0.362061 262.584 0.362061H221.722C220.242 0.362061 219.043 1.56168 219.043 3.04149V15.0989C219.043 16.5787 217.843 17.7783 216.363 17.7783H75.6936C74.2138 17.7783 73.0142 18.978 73.0142 20.4578V153.089C73.0142 154.569 74.2138 155.769 75.6936 155.769H277.32C278.8 155.769 280 154.569 280 153.089V20.4578C280 18.9779 278.8 17.7783 277.32 17.7783H267.942C266.463 17.7783 265.263 16.5787 265.263 15.0989V3.04149Z" fill="#CEE1E8"/>
</svg>
