<svg width="317" height="177" viewBox="0 0 317 177" fill="none" xmlns="http://www.w3.org/2000/svg">
<path fill-rule="evenodd" clip-rule="evenodd" d="M98.4876 100.37C98.4876 98.6997 97.1337 97.3458 95.4637 97.3458H77.8779C76.2079 97.3458 74.854 98.6997 74.854 100.37V102.46C74.854 104.13 73.5002 105.484 71.8301 105.484H3.20947C1.5394 105.484 0.185547 106.838 0.185547 108.508V173.018C0.185547 174.688 1.5394 176.042 3.20947 176.042H102.999C104.669 176.042 106.023 174.688 106.023 173.018V108.508C106.023 106.838 104.669 105.484 102.999 105.484H101.512C99.8414 105.484 98.4876 104.13 98.4876 102.46V100.37Z" fill="#F2C4DA"/>
<path fill-rule="evenodd" clip-rule="evenodd" d="M197.008 54.7852C197.008 53.1151 195.655 51.7612 193.985 51.7612H162.709C161.039 51.7612 159.685 53.1151 159.685 54.7852V61.5889C159.685 63.2589 158.331 64.6128 156.661 64.6128H44.7886C43.1185 64.6128 41.7646 65.9666 41.7646 67.6367V173.018C41.7646 174.688 43.1185 176.042 44.7886 176.042H205.884C207.554 176.042 208.908 174.688 208.908 173.018V67.6367C208.908 65.9666 207.554 64.6128 205.884 64.6128H200.032C198.362 64.6128 197.008 63.2589 197.008 61.5889V54.7852Z" fill="#C5DDCC"/>
<path fill-rule="evenodd" clip-rule="evenodd" d="M299.554 3.37842C299.554 1.70835 298.2 0.354492 296.53 0.354492H250.415C248.745 0.354492 247.391 1.70835 247.391 3.37841V16.9861C247.391 18.6561 246.037 20.01 244.367 20.01H85.6113C83.9413 20.01 82.5874 21.3639 82.5874 23.0339V172.718C82.5874 174.388 83.9413 175.742 85.6113 175.742H313.162C314.832 175.742 316.185 174.388 316.185 172.718V23.0339C316.185 21.3639 314.832 20.01 313.162 20.01H302.578C300.908 20.01 299.554 18.6561 299.554 16.9861V3.37842Z" fill="#CEE1E8"/>
</svg>
