<svg width="418" height="233" viewBox="0 0 418 233" fill="none" xmlns="http://www.w3.org/2000/svg">
<path fill-rule="evenodd" clip-rule="evenodd" d="M130.032 132.299C130.032 130.089 128.242 128.299 126.032 128.299H102.77C100.561 128.299 98.7703 130.089 98.7703 132.299V135.063C98.7703 137.272 96.9795 139.063 94.7703 139.063H4C1.79086 139.063 0 140.854 0 143.063V228.397C0 230.606 1.79086 232.397 4 232.397H136C138.209 232.397 140 230.606 140 228.397V143.063C140 140.854 138.209 139.063 136 139.063H134.032C131.823 139.063 130.032 137.272 130.032 135.063V132.299Z" fill="#F2C4DA"/>
<path fill-rule="evenodd" clip-rule="evenodd" d="M260.354 72C260.354 69.7909 258.563 68 256.354 68H214.983C212.774 68 210.983 69.7909 210.983 72V80.9999C210.983 83.2091 209.192 84.9999 206.983 84.9999H59C56.7909 84.9999 55 86.7908 55 88.9999V228.396C55 230.606 56.7909 232.396 59 232.396H272.095C274.304 232.396 276.095 230.606 276.095 228.396V88.9999C276.095 86.7908 274.304 84.9999 272.095 84.9999H264.354C262.144 84.9999 260.354 83.2091 260.354 80.9999V72Z" fill="#C5DDCC"/>
<path fill-rule="evenodd" clip-rule="evenodd" d="M396 4C396 1.79086 394.209 0 392 0H331C328.791 0 327 1.79086 327 4V22C327 24.2091 325.209 26 323 26H113C110.791 26 109 27.7909 109 30V228C109 230.209 110.791 232 113 232H414C416.209 232 418 230.209 418 228V30C418 27.7909 416.209 26 414 26H400C397.791 26 396 24.2091 396 22V4Z" fill="#CEE1E8"/>
</svg>
