<svg width="284" height="391" viewBox="0 0 284 391" fill="none" xmlns="http://www.w3.org/2000/svg">
<g clip-path="url(#clip0_717_3471)">
<path d="M350.403 102.558C365.592 87.3693 365.592 62.744 350.403 47.5552L270.98 -31.8682C255.792 -47.0565 231.166 -47.0565 215.978 -31.8682L17.5309 166.579C2.34256 181.767 2.34251 206.393 17.5308 221.581L96.7378 300.788L239.336 443.386M328.678 80.8326C331.868 77.6426 331.868 72.4711 328.678 69.2811L249.254 -10.1423C246.064 -13.3323 240.893 -13.3323 237.703 -10.1423L39.2558 188.305C36.0658 191.495 36.0658 196.666 39.2558 199.856L78.5904 239.191L248.686 409.287C251.876 412.477 257.048 412.477 260.238 409.287" stroke="#F2C4DA" stroke-width="28.402" stroke-miterlimit="10" stroke-linecap="round"/>
</g>
<g clip-path="url(#clip1_717_3471)">
<path d="M287.704 349.981C302.892 365.169 327.517 365.17 342.706 349.981L422.129 270.558C437.318 255.369 437.318 230.744 422.129 215.555L223.683 17.1085C208.494 1.9202 183.869 1.92015 168.68 17.1085L89.4731 96.3155L-53.125 238.914M309.429 328.255C312.619 331.445 317.79 331.445 320.98 328.255L400.404 248.832C403.594 245.642 403.594 240.47 400.404 237.28L201.957 38.8334C198.767 35.6434 193.595 35.6434 190.405 38.8334L151.071 78.168L-19.0255 248.264C-22.2155 251.454 -22.2156 256.626 -19.0255 259.816" stroke="#F2C4DA" stroke-width="28.402" stroke-miterlimit="10" stroke-linecap="round"/>
</g>
<defs>
<clipPath id="clip0_717_3471">
<rect x="141.844" y="390.265" width="200" height="200" rx="1.56863" transform="rotate(-135 141.844 390.265)" fill="white"/>
</clipPath>
<clipPath id="clip1_717_3471">
<rect y="141.421" width="200" height="200" rx="1.56863" transform="rotate(-45 0 141.421)" fill="white"/>
</clipPath>
</defs>
</svg>
