<svg width="68" height="107" xmlns="http://www.w3.org/2000/svg">
  <g fill-rule="nonzero" fill="none">
    <path d="M34.2524.3432V39.465c0 .1679-.1704.3358-.3408.3358-1.1929.5037-2.2153 1.0074-3.4082 1.5111-1.5337.6716-3.2378 1.3432-4.7715 2.1828l-5.6235 2.5185-4.601 2.0149-5.6236 2.5185c-1.5337.6716-3.0674 1.3433-4.7715 2.1828-1.1929.5037-2.5561 1.1753-3.749 1.679-.1704 0-.1704.168-.3408 0H.852c.5112-.8395 1.0224-1.5111 1.5336-2.3506 2.7266-4.5334 5.6236-9.0669 8.3501-13.6003 2.897-4.8692 5.9644-9.7384 8.8614-14.6076 2.7265-4.5334 5.453-9.0668 8.1796-13.4323 2.045-3.3581 4.0899-6.5483 5.9644-9.9064.3408 0 .3408-.1679.5112-.1679-.1704 0 0 0 0 0z" fill="#8A92B2"/>
    <path d="M67.312 54.4083c-2.5562 1.679-5.2827 3.1902-7.8389 4.7013-8.35 4.8692-16.5298 9.5706-24.8799 14.4398-.1704 0-.1704.1679-.3408.1679s-.1704-.168-.1704-.168v-.5036-32.7413-.5037c0-.168.1704-.168.3408-.168.6817.3359 1.3633.6717 2.2154 1.0075 2.0449 1.0074 4.2602 1.847 6.3051 2.8544 1.8745.8395 3.5786 1.679 5.4531 2.3506 1.8746.8395 3.5787 1.679 5.4532 2.5186 1.5337.6716 3.2378 1.3432 4.7715 2.1827 1.5336.6716 3.2377 1.3433 4.7714 2.1828 1.1929.5037 2.3858 1.1753 3.749 1.679 0-.1679 0 0 .1705 0z" fill="#454A75"/>
    <path d="M34.2524 106.6265s-.1704 0 0 0c-.1704 0-.1704 0-.3408-.168-3.4082-4.7013-6.646-9.2347-10.0542-13.936l-10.2246-14.104c-3.2378-4.5333-6.646-9.0667-9.8838-13.768l-2.5561-3.526c0-.168-.1704-.168-.1704-.3358.1704 0 .1704.1679.3408.1679 4.601 2.6864 9.3725 5.3729 13.9736 8.0594 5.2827 3.1901 10.7358 6.2124 16.0185 9.4026.8521.5037 1.8746 1.0074 2.7266 1.5111.1704 0 .1704.168.1704.3358v26.361z" fill="#8A92B2"/>
    <path d="M1.0225 54.4083s.1704 0 0 0c.1704 0 .1704 0 0 0 0 .168 0 .168 0 0z" fill="gray"/>
    <path d="M1.1929 54.5762c0-.1679 0-.1679 0 0 1.704-.8395 3.4082-1.5111 5.1123-2.3506l6.646-3.0223c1.704-.8395 3.4082-1.5111 5.1123-2.3507 2.3857-1.1753 4.9419-2.1827 7.3276-3.358 1.704-.6717 3.4082-1.5112 5.1123-2.1828 1.1929-.5037 2.3857-1.0074 3.5786-1.679.1704 0 .1704-.168.3408-.168v34.2525c-.1704.1679-.1704 0-.3408 0-.5112-.3358-1.0225-.5037-1.3633-.8395L1.5337 54.744c-.1704-.1679-.3408-.1679-.3408-.1679zM67.1416 60.7887c0 .1679 0 .1679-.1705.3358-9.8837 13.7681-19.7675 27.3683-29.6513 41.1365-1.0225 1.5111-2.045 2.8543-3.0674 4.3655v-.168-.3357-25.6894-.5037c2.2153-1.3432 4.4307-2.6864 6.646-3.8618 8.691-5.037 17.3818-10.0742 26.0727-15.1113 0-.168.1705-.168.1705-.168z" fill="#62688F"/>
    <path d="M34.2524 39.6328v-.3358V.847.511l32.7187 53.3935c.1705.168.3409.3358.3409.5037-.6817-.3358-1.3633-.6716-2.2154-1.0074-.852-.3358-1.704-.8395-2.5561-1.1753-.5112-.168-1.0225-.5037-1.7041-.6716-.852-.3359-1.8745-.8396-2.7266-1.1754-.5112-.1679-1.0224-.5037-1.5337-.6716l-3.5786-1.5111c-.6816-.3358-1.1929-.5037-1.8745-.8395-.852-.3359-1.704-.8396-2.5561-1.1754-.5113-.1679-1.0225-.5037-1.5337-.6716l-3.5786-1.5111c-.6817-.3358-1.193-.5037-1.8746-.8395-.852-.3359-1.704-.8396-2.5561-1.1754-.5112-.3358-1.1929-.5037-1.7041-.8395l-3.0674-1.5111z" fill="#62688F"/>
  </g>
</svg>