<svg width="370" height="152" viewBox="0 0 370 152" fill="none" xmlns="http://www.w3.org/2000/svg">
<g filter="url(#filter0_d_40_11835)">
<path fill-rule="evenodd" clip-rule="evenodd" d="M338 12C338 9.79086 336.209 8 334 8H36C33.7909 8 32 9.79086 32 12V72C32 74.2091 33.7909 76 36 76H286.343C287.404 76 288.421 76.4214 289.172 77.1716L306.672 94.6716C309.191 97.1914 313.5 95.4068 313.5 91.8431V80C313.5 77.7909 315.291 76 317.5 76H334C336.209 76 338 74.2091 338 72V12Z" fill="#0080BC"/>
</g>
<path d="M60.336 51L57.408 34.2H60.408L61.656 43.8C61.944 45.672 62.016 46.608 62.16 47.784H62.256C62.448 46.656 62.688 45.192 62.952 43.872L64.704 35.88H67.824L69.624 43.872C69.936 45.312 70.128 46.608 70.32 47.784H70.416C70.56 46.632 70.68 45.264 70.896 43.8L72.144 34.2H75.12L72.192 51H68.712L67.008 42.864C66.768 41.784 66.48 40.176 66.312 39.096H66.216C66.024 40.248 65.808 41.544 65.52 42.888L63.864 51H60.336ZM82.3401 51.288C78.5001 51.288 76.2201 48.912 76.2201 45C76.2201 41.352 78.5241 38.712 82.3401 38.712C86.1081 38.712 88.4601 41.376 88.4601 45C88.4601 48.768 86.0361 51.288 82.3401 51.288ZM79.2681 45C79.2681 46.584 79.5321 47.712 80.1561 48.384C80.6361 48.936 81.3561 49.2 82.3401 49.2C83.3721 49.2 84.0921 48.912 84.5721 48.336C85.1721 47.64 85.4121 46.536 85.4121 45C85.4121 43.464 85.1481 42.36 84.5721 41.664C84.0681 41.088 83.3481 40.8 82.3401 40.8C81.3561 40.8 80.6361 41.064 80.1321 41.616C79.5321 42.288 79.2681 43.416 79.2681 45ZM92.7032 51L89.7512 39H92.5592L93.7352 45.336L94.2632 48.6H94.3352C94.5512 47.568 94.8392 46.008 94.9832 45.336L96.2552 39.816H99.0392L100.263 45.336C100.431 46.104 100.671 47.448 100.863 48.6H100.935C101.175 47.16 101.271 46.752 101.487 45.336L102.663 39H105.471L102.543 51H99.3992L98.2232 45.816C98.0792 45.168 97.8392 43.824 97.6472 42.624H97.5752C97.3832 43.752 97.1912 45 96.9992 45.816L95.8232 51H92.7032ZM108.83 51V47.568H112.214V51H108.83ZM133.385 51.288C129.065 51.288 126.209 48.432 126.209 42.6C126.209 37.224 129.065 33.912 133.745 33.912C137.177 33.912 139.577 35.712 140.417 39.048L137.393 39.648C136.961 37.632 135.881 36.336 133.745 36.336C132.257 36.336 131.153 36.792 130.433 37.8C129.713 38.808 129.377 40.392 129.377 42.6C129.377 44.856 129.713 46.416 130.433 47.424C131.153 48.432 132.233 48.864 133.793 48.864C136.193 48.864 137.633 47.328 137.825 44.496H133.601V41.904H140.585V51H138.185L138.017 48.912C137.153 50.4 135.497 51.288 133.385 51.288ZM148.856 51.288C145.016 51.288 142.736 48.912 142.736 45C142.736 41.352 145.04 38.712 148.856 38.712C152.624 38.712 154.976 41.376 154.976 45C154.976 48.768 152.552 51.288 148.856 51.288ZM145.784 45C145.784 46.584 146.048 47.712 146.672 48.384C147.152 48.936 147.872 49.2 148.856 49.2C149.888 49.2 150.608 48.912 151.088 48.336C151.688 47.64 151.928 46.536 151.928 45C151.928 43.464 151.664 42.36 151.088 41.664C150.584 41.088 149.864 40.8 148.856 40.8C147.872 40.8 147.152 41.064 146.648 41.616C146.048 42.288 145.784 43.416 145.784 45ZM173.737 51.12C171.097 51.12 169.657 50.232 169.657 47.784V41.28H167.209V39H169.657V35.664H172.441V39H175.801V41.28H172.441V47.52C172.441 48.456 172.969 48.696 174.097 48.696C174.577 48.696 175.153 48.624 175.729 48.48L175.777 50.904C175.201 51.048 174.385 51.12 173.737 51.12ZM184.528 51.288C180.688 51.288 178.408 48.912 178.408 45C178.408 41.352 180.712 38.712 184.528 38.712C188.296 38.712 190.648 41.376 190.648 45C190.648 48.768 188.224 51.288 184.528 51.288ZM181.456 45C181.456 46.584 181.72 47.712 182.344 48.384C182.824 48.936 183.544 49.2 184.528 49.2C185.56 49.2 186.28 48.912 186.76 48.336C187.36 47.64 187.6 46.536 187.6 45C187.6 43.464 187.336 42.36 186.76 41.664C186.256 41.088 185.536 40.8 184.528 40.8C183.544 40.8 182.824 41.064 182.32 41.616C181.72 42.288 181.456 43.416 181.456 45ZM208.761 51.288C206.889 51.288 205.449 50.688 204.417 49.632C203.313 48.504 202.809 46.92 202.809 44.976C202.809 43.128 203.337 41.544 204.417 40.392C205.473 39.288 206.913 38.712 208.737 38.712C210.633 38.712 212.241 39.432 213.249 40.704C214.209 41.904 214.689 43.728 214.617 45.792H205.689C205.737 48.024 206.745 49.152 208.737 49.152C210.489 49.152 211.401 48.408 211.665 46.944L214.425 47.16C213.801 49.92 211.833 51.288 208.761 51.288ZM205.713 43.656H211.713C211.665 42.984 211.449 42.288 211.041 41.784C210.513 41.136 209.793 40.848 208.737 40.848C207.609 40.848 206.793 41.232 206.313 41.904C205.929 42.432 205.761 43.08 205.713 43.656ZM217.566 51V39H220.398V40.8C221.022 39.36 222.294 38.712 223.998 38.712C225.558 38.712 226.566 39.096 227.358 39.936C228.318 40.92 228.39 42.36 228.39 43.752V51H225.51V43.968C225.51 42.864 225.462 42.12 224.838 41.52C224.31 40.992 223.734 40.944 223.014 40.944C221.982 40.944 220.398 41.52 220.398 44.424V51H217.566ZM236.736 51.288C233.928 51.288 231.504 50.064 231.408 47.184L234.072 46.872C234.096 48.432 235.176 49.248 236.76 49.248C238.368 49.248 239.208 48.672 239.208 47.664C239.208 46.608 237.72 46.416 235.92 45.96C233.784 45.408 231.744 44.736 231.744 42.312C231.744 39.744 234.072 38.712 236.472 38.712C239.088 38.712 241.32 39.672 241.584 42.528L238.968 42.96C238.896 41.472 237.984 40.752 236.472 40.752C235.416 40.752 234.432 41.16 234.432 42.096C234.432 43.032 235.536 43.32 237.072 43.656C239.328 44.16 241.896 44.664 241.896 47.496C241.896 50.4 239.376 51.288 236.736 51.288ZM246.807 51V47.568H250.191V51H246.807ZM259.162 51.288C256.954 51.288 255.01 50.112 255.01 47.688C255.01 45.12 257.146 44.4 259.33 43.992L262.906 43.32C262.906 42.528 262.906 41.952 262.57 41.472C262.234 41.016 261.634 40.8 260.65 40.8C258.994 40.8 258.226 41.376 258.202 43.056L255.418 42.696C255.49 41.28 256.018 40.272 256.93 39.648C257.818 39.024 259.138 38.712 260.818 38.712C263.914 38.712 265.666 40.056 265.666 42.672V48.84C265.666 49.632 265.834 50.328 266.074 50.904V51H263.218C263.122 50.544 263.05 50.04 263.05 49.296C262.426 50.472 261.13 51.288 259.162 51.288ZM257.914 47.664C257.914 48.696 258.73 49.2 259.762 49.2C261.802 49.2 262.906 48.168 262.906 46.392V45.264L259.786 45.936C258.682 46.2 257.914 46.56 257.914 47.664ZM269.173 55.8V39H272.005V40.632C272.821 39.36 274.165 38.712 275.653 38.712C278.725 38.712 281.005 41.088 281.005 45C281.005 48.792 278.821 51.288 275.725 51.288C274.213 51.288 272.917 50.712 272.005 49.488V55.8H269.173ZM271.933 44.952C271.933 47.376 272.533 49.176 274.861 49.176C275.845 49.176 276.565 48.912 277.021 48.384C277.669 47.712 277.909 46.536 277.909 44.976C277.909 42.216 277.213 40.8 274.933 40.8C273.973 40.8 273.253 41.112 272.749 41.736C272.197 42.432 271.933 43.536 271.933 44.952ZM283.634 55.8V39H286.466V40.632C287.282 39.36 288.626 38.712 290.114 38.712C293.186 38.712 295.466 41.088 295.466 45C295.466 48.792 293.282 51.288 290.186 51.288C288.674 51.288 287.378 50.712 286.466 49.488V55.8H283.634ZM286.394 44.952C286.394 47.376 286.994 49.176 289.322 49.176C290.306 49.176 291.026 48.912 291.482 48.384C292.13 47.712 292.37 46.536 292.37 44.976C292.37 42.216 291.674 40.8 289.394 40.8C288.434 40.8 287.714 41.112 287.21 41.736C286.658 42.432 286.394 43.536 286.394 44.952Z" fill="#F6F6F6"/>
<defs>
<filter id="filter0_d_40_11835" x="0" y="0" width="370" height="151.851" filterUnits="userSpaceOnUse" color-interpolation-filters="sRGB">
<feFlood flood-opacity="0" result="BackgroundImageFix"/>
<feColorMatrix in="SourceAlpha" type="matrix" values="0 0 0 0 0 0 0 0 0 0 0 0 0 0 0 0 0 0 127 0" result="hardAlpha"/>
<feOffset dy="24"/>
<feGaussianBlur stdDeviation="16"/>
<feComposite in2="hardAlpha" operator="out"/>
<feColorMatrix type="matrix" values="0 0 0 0 0.0543419 0 0 0 0 0.238372 0 0 0 0 0.408247 0 0 0 0.06 0"/>
<feBlend mode="normal" in2="BackgroundImageFix" result="effect1_dropShadow_40_11835"/>
<feBlend mode="normal" in="SourceGraphic" in2="effect1_dropShadow_40_11835" result="shape"/>
</filter>
</defs>
</svg>
