<svg width="463" height="116" viewBox="0 0 463 116" fill="none" xmlns="http://www.w3.org/2000/svg">
<path fill-rule="evenodd" clip-rule="evenodd" d="M0 4C0 1.79086 1.79086 0 4 0H459C461.209 0 463 1.79086 463 4V92C463 94.2091 461.209 96 459 96H52.1569C51.096 96 50.0786 96.4214 49.3284 97.1716L31.8284 114.672C29.3086 117.191 25 115.407 25 111.843V100C25 97.7909 23.2091 96 21 96H4C1.79086 96 0 94.2091 0 92V4Z" fill="#F6F6F6"/>
<path d="M30.784 43V28.744H25.648V26.2H38.944V28.744H33.784V43H30.784ZM41.4016 43V26.2H44.2336V32.776C44.8816 31.384 46.2016 30.712 47.8096 30.712C49.3696 30.712 50.4016 31.072 51.2416 31.984C52.2016 32.992 52.2256 34.336 52.2256 35.752V43H49.3456V35.896C49.3456 34.792 49.2976 34.12 48.6976 33.544C48.1456 32.992 47.5696 32.944 46.8736 32.944C45.8416 32.944 44.2576 33.472 44.2576 36.328V43H41.4016ZM55.3401 43V40.72H57.6681V33.28H55.7241V31H60.5241V40.72H62.6601V43H55.3401ZM57.5481 29.104V25.984H60.4521V29.104H57.5481ZM70.8846 43.288C68.0766 43.288 65.6526 42.064 65.5566 39.184L68.2206 38.872C68.2446 40.432 69.3246 41.248 70.9086 41.248C72.5166 41.248 73.3566 40.672 73.3566 39.664C73.3566 38.608 71.8686 38.416 70.0686 37.96C67.9326 37.408 65.8926 36.736 65.8926 34.312C65.8926 31.744 68.2206 30.712 70.6206 30.712C73.2366 30.712 75.4686 31.672 75.7326 34.528L73.1166 34.96C73.0446 33.472 72.1326 32.752 70.6206 32.752C69.5646 32.752 68.5806 33.16 68.5806 34.096C68.5806 35.032 69.6846 35.32 71.2206 35.656C73.4766 36.16 76.0446 36.664 76.0446 39.496C76.0446 42.4 73.5246 43.288 70.8846 43.288ZM88.9964 43V40.72H91.3244V33.28H89.3804V31H94.1804V40.72H96.3164V43H88.9964ZM91.2044 29.104V25.984H94.1084V29.104H91.2044ZM104.541 43.288C101.733 43.288 99.3089 42.064 99.2129 39.184L101.877 38.872C101.901 40.432 102.981 41.248 104.565 41.248C106.173 41.248 107.013 40.672 107.013 39.664C107.013 38.608 105.525 38.416 103.725 37.96C101.589 37.408 99.5489 36.736 99.5489 34.312C99.5489 31.744 101.877 30.712 104.277 30.712C106.893 30.712 109.125 31.672 109.389 34.528L106.773 34.96C106.701 33.472 105.789 32.752 104.277 32.752C103.221 32.752 102.237 33.16 102.237 34.096C102.237 35.032 103.341 35.32 104.877 35.656C107.133 36.16 109.701 36.664 109.701 39.496C109.701 42.4 107.181 43.288 104.541 43.288ZM127.885 43.288C125.077 43.288 122.653 42.064 122.557 39.184L125.221 38.872C125.245 40.432 126.325 41.248 127.909 41.248C129.517 41.248 130.357 40.672 130.357 39.664C130.357 38.608 128.869 38.416 127.069 37.96C124.933 37.408 122.893 36.736 122.893 34.312C122.893 31.744 125.221 30.712 127.621 30.712C130.237 30.712 132.469 31.672 132.733 34.528L130.117 34.96C130.045 33.472 129.133 32.752 127.621 32.752C126.565 32.752 125.581 33.16 125.581 34.096C125.581 35.032 126.685 35.32 128.221 35.656C130.477 36.16 133.045 36.664 133.045 39.496C133.045 42.4 130.525 43.288 127.885 43.288ZM141.699 43.288C137.859 43.288 135.579 40.912 135.579 37C135.579 33.352 137.883 30.712 141.699 30.712C145.467 30.712 147.819 33.376 147.819 37C147.819 40.768 145.395 43.288 141.699 43.288ZM138.627 37C138.627 38.584 138.891 39.712 139.515 40.384C139.995 40.936 140.715 41.2 141.699 41.2C142.731 41.2 143.451 40.912 143.931 40.336C144.531 39.64 144.771 38.536 144.771 37C144.771 35.464 144.507 34.36 143.931 33.664C143.427 33.088 142.707 32.8 141.699 32.8C140.715 32.8 139.995 33.064 139.491 33.616C138.891 34.288 138.627 35.416 138.627 37ZM160.101 43V31H162.789V32.68C162.957 32.248 163.221 31.816 163.581 31.504C164.109 31.024 164.781 30.712 165.789 30.712C167.373 30.712 168.381 31.576 168.765 32.92C168.981 32.344 169.293 31.864 169.749 31.48C170.325 31 171.021 30.712 172.077 30.712C174.285 30.712 175.581 32.056 175.581 35.08V43H172.845V35.824C172.845 34.744 172.821 33.928 172.365 33.424C172.005 33.04 171.573 32.944 171.117 32.944C170.565 32.944 170.133 33.136 169.797 33.496C169.389 34 169.197 34.72 169.197 36.04V43H166.461V35.824C166.461 34.72 166.437 33.904 165.981 33.4C165.573 32.992 165.141 32.944 164.685 32.944C164.205 32.944 163.749 33.112 163.437 33.448C163.029 33.928 162.837 34.672 162.837 36.04V43H160.101ZM182.926 43.288C181.39 43.288 180.334 42.88 179.47 41.968C178.51 40.96 178.438 39.472 178.438 38.032V31H181.342V37.888C181.342 38.92 181.342 39.808 181.942 40.432C182.494 41.008 183.142 41.056 183.838 41.056C184.942 41.056 186.43 40.48 186.43 37.624V31H189.238V43H186.454V41.248C185.806 42.568 184.582 43.288 182.926 43.288ZM198.376 43.288C194.56 43.288 192.304 40.936 192.304 37C192.304 33.304 194.56 30.712 198.376 30.712C201.568 30.712 203.296 32.512 203.776 34.96L201.088 35.44C200.8 34.096 200.2 32.872 198.376 32.872C197.272 32.872 196.576 33.208 196.12 33.808C195.592 34.528 195.4 35.632 195.4 37C195.4 39.592 196 41.128 198.376 41.128C199.912 41.128 200.728 40.384 201.088 38.896L203.824 39.184C203.44 41.608 201.376 43.288 198.376 43.288ZM206.636 43V26.2H209.468V32.776C210.116 31.384 211.436 30.712 213.044 30.712C214.604 30.712 215.636 31.072 216.476 31.984C217.436 32.992 217.46 34.336 217.46 35.752V43H214.58V35.896C214.58 34.792 214.532 34.12 213.932 33.544C213.38 32.992 212.804 32.944 212.108 32.944C211.076 32.944 209.492 33.472 209.492 36.328V43H206.636ZM235.767 43.288C232.959 43.288 230.535 42.064 230.439 39.184L233.103 38.872C233.127 40.432 234.207 41.248 235.791 41.248C237.399 41.248 238.239 40.672 238.239 39.664C238.239 38.608 236.751 38.416 234.951 37.96C232.815 37.408 230.775 36.736 230.775 34.312C230.775 31.744 233.103 30.712 235.503 30.712C238.119 30.712 240.351 31.672 240.615 34.528L237.999 34.96C237.927 33.472 237.015 32.752 235.503 32.752C234.447 32.752 233.463 33.16 233.463 34.096C233.463 35.032 234.567 35.32 236.103 35.656C238.359 36.16 240.927 36.664 240.927 39.496C240.927 42.4 238.407 43.288 235.767 43.288ZM243.918 43V40.72H246.246V33.28H244.302V31H249.102V40.72H251.238V43H243.918ZM246.126 29.104V25.984H249.03V29.104H246.126ZM254.015 43V31H256.703V32.68C256.871 32.248 257.135 31.816 257.495 31.504C258.023 31.024 258.695 30.712 259.703 30.712C261.287 30.712 262.295 31.576 262.679 32.92C262.895 32.344 263.207 31.864 263.663 31.48C264.239 31 264.935 30.712 265.991 30.712C268.199 30.712 269.495 32.056 269.495 35.08V43H266.759V35.824C266.759 34.744 266.735 33.928 266.279 33.424C265.919 33.04 265.487 32.944 265.031 32.944C264.479 32.944 264.047 33.136 263.711 33.496C263.303 34 263.111 34.72 263.111 36.04V43H260.375V35.824C260.375 34.72 260.351 33.904 259.895 33.4C259.487 32.992 259.055 32.944 258.599 32.944C258.119 32.944 257.663 33.112 257.351 33.448C256.943 33.928 256.751 34.672 256.751 36.04V43H254.015ZM272.376 47.8V31H275.208V32.632C276.024 31.36 277.368 30.712 278.856 30.712C281.928 30.712 284.208 33.088 284.208 37C284.208 40.792 282.024 43.288 278.928 43.288C277.416 43.288 276.12 42.712 275.208 41.488V47.8H272.376ZM275.136 36.952C275.136 39.376 275.736 41.176 278.064 41.176C279.048 41.176 279.768 40.912 280.224 40.384C280.872 39.712 281.112 38.536 281.112 36.976C281.112 34.216 280.416 32.8 278.136 32.8C277.176 32.8 276.456 33.112 275.952 33.736C275.4 34.432 275.136 35.536 275.136 36.952ZM286.693 43V40.72H289.045V28.48H287.101V26.2H291.877V40.72H294.013V43H286.693ZM302.573 43.288C300.701 43.288 299.261 42.688 298.229 41.632C297.125 40.504 296.621 38.92 296.621 36.976C296.621 35.128 297.149 33.544 298.229 32.392C299.285 31.288 300.725 30.712 302.549 30.712C304.445 30.712 306.053 31.432 307.061 32.704C308.021 33.904 308.501 35.728 308.429 37.792H299.501C299.549 40.024 300.557 41.152 302.549 41.152C304.301 41.152 305.213 40.408 305.477 38.944L308.237 39.16C307.613 41.92 305.645 43.288 302.573 43.288ZM299.525 35.656H305.525C305.477 34.984 305.261 34.288 304.853 33.784C304.325 33.136 303.605 32.848 302.549 32.848C301.421 32.848 300.605 33.232 300.125 33.904C299.741 34.432 299.573 35.08 299.525 35.656ZM312.362 43V31H315.17V33.352C315.626 31.96 316.994 30.928 319.202 30.736C319.466 30.712 319.97 30.712 320.354 30.712L320.282 33.304C319.922 33.28 319.658 33.28 319.37 33.28C316.826 33.28 315.194 34.24 315.194 37.6V43H312.362ZM325.662 38.176L325.278 31.936V26.2H328.086V31.936L327.702 38.176H325.662ZM325.23 43V39.736H328.446V43H325.23ZM349.674 43.288C345.954 43.288 342.834 41.488 342.738 37.6L345.834 37.264C345.882 39.664 347.466 40.888 349.722 40.888C351.786 40.888 353.37 40.12 353.37 38.272C353.37 36.304 351.234 36.28 348.81 35.728C345.882 35.032 343.218 33.952 343.218 30.76C343.218 27.256 346.434 25.912 349.338 25.912C352.842 25.912 355.482 27.28 355.89 31.144L352.842 31.672C352.746 29.344 351.426 28.288 349.338 28.288C347.634 28.288 346.242 29.056 346.242 30.592C346.242 32.128 348.066 32.632 350.274 33.04C353.634 33.664 356.418 34.528 356.418 38.104C356.418 41.896 353.274 43.288 349.674 43.288ZM364.284 43.288C362.412 43.288 360.972 42.688 359.94 41.632C358.836 40.504 358.332 38.92 358.332 36.976C358.332 35.128 358.86 33.544 359.94 32.392C360.996 31.288 362.436 30.712 364.26 30.712C366.156 30.712 367.764 31.432 368.772 32.704C369.732 33.904 370.212 35.728 370.14 37.792H361.212C361.26 40.024 362.268 41.152 364.26 41.152C366.012 41.152 366.924 40.408 367.188 38.944L369.948 39.16C369.324 41.92 367.356 43.288 364.284 43.288ZM361.236 35.656H367.236C367.188 34.984 366.972 34.288 366.564 33.784C366.036 33.136 365.316 32.848 364.26 32.848C363.132 32.848 362.316 33.232 361.836 33.904C361.452 34.432 361.284 35.08 361.236 35.656ZM373.089 43V31H375.921V32.8C376.545 31.36 377.817 30.712 379.521 30.712C381.081 30.712 382.089 31.096 382.881 31.936C383.841 32.92 383.913 34.36 383.913 35.752V43H381.033V35.968C381.033 34.864 380.985 34.12 380.361 33.52C379.833 32.992 379.257 32.944 378.537 32.944C377.505 32.944 375.921 33.52 375.921 36.424V43H373.089ZM391.876 43.288C388.732 43.288 386.452 40.912 386.452 37C386.452 33.208 388.612 30.712 391.828 30.712C393.388 30.712 394.612 31.312 395.428 32.464V26.2H398.26V43H395.428V41.296C394.732 42.616 393.46 43.288 391.876 43.288ZM389.548 37C389.548 39.76 390.196 41.2 392.524 41.2C393.412 41.2 394.108 40.888 394.588 40.336C395.212 39.616 395.5 38.512 395.5 37.024C395.5 34.624 394.852 32.824 392.572 32.824C391.468 32.824 390.724 33.16 390.268 33.808C389.74 34.504 389.548 35.584 389.548 37ZM417.714 43.12C415.074 43.12 413.634 42.232 413.634 39.784V33.28H411.186V31H413.634V27.664H416.418V31H419.778V33.28H416.418V39.52C416.418 40.456 416.946 40.696 418.074 40.696C418.554 40.696 419.13 40.624 419.706 40.48L419.754 42.904C419.178 43.048 418.362 43.12 417.714 43.12ZM428.504 43.288C424.664 43.288 422.384 40.912 422.384 37C422.384 33.352 424.688 30.712 428.504 30.712C432.272 30.712 434.624 33.376 434.624 37C434.624 40.768 432.2 43.288 428.504 43.288ZM425.432 37C425.432 38.584 425.696 39.712 426.32 40.384C426.8 40.936 427.52 41.2 428.504 41.2C429.536 41.2 430.256 40.912 430.736 40.336C431.336 39.64 431.576 38.536 431.576 37C431.576 35.464 431.312 34.36 430.736 33.664C430.232 33.088 429.512 32.8 428.504 32.8C427.52 32.8 426.8 33.064 426.296 33.616C425.696 34.288 425.432 35.416 425.432 37Z" fill="#4A5C63"/>
<path d="M26.296 70V58H28.984V59.68C29.152 59.248 29.416 58.816 29.776 58.504C30.304 58.024 30.976 57.712 31.984 57.712C33.568 57.712 34.576 58.576 34.96 59.92C35.176 59.344 35.488 58.864 35.944 58.48C36.52 58 37.216 57.712 38.272 57.712C40.48 57.712 41.776 59.056 41.776 62.08V70H39.04V62.824C39.04 61.744 39.016 60.928 38.56 60.424C38.2 60.04 37.768 59.944 37.312 59.944C36.76 59.944 36.328 60.136 35.992 60.496C35.584 61 35.392 61.72 35.392 63.04V70H32.656V62.824C32.656 61.72 32.632 60.904 32.176 60.4C31.768 59.992 31.336 59.944 30.88 59.944C30.4 59.944 29.944 60.112 29.632 60.448C29.224 60.928 29.032 61.672 29.032 63.04V70H26.296ZM46.7714 74.92C46.1954 74.92 45.4274 74.8 44.8754 74.632L44.9234 72.112C45.3554 72.232 45.8594 72.376 46.3634 72.376C47.4194 72.376 47.7794 71.728 48.4034 69.976L43.7714 58H46.8434L48.7874 63.808C49.0514 64.6 49.3874 65.68 49.7234 66.856C50.0354 65.752 50.3234 64.84 50.7074 63.688L52.5314 58H55.5074L50.8754 71.008C49.9154 73.792 48.8594 74.92 46.7714 74.92ZM58.0656 70V58H60.8976V59.8C61.5216 58.36 62.7936 57.712 64.4976 57.712C66.0576 57.712 67.0656 58.096 67.8576 58.936C68.8176 59.92 68.8896 61.36 68.8896 62.752V70H66.0096V62.968C66.0096 61.864 65.9616 61.12 65.3376 60.52C64.8096 59.992 64.2336 59.944 63.5136 59.944C62.4816 59.944 60.8976 60.52 60.8976 63.424V70H58.0656ZM77.6202 70.288C75.7482 70.288 74.3082 69.688 73.2762 68.632C72.1722 67.504 71.6682 65.92 71.6682 63.976C71.6682 62.128 72.1962 60.544 73.2762 59.392C74.3322 58.288 75.7722 57.712 77.5962 57.712C79.4922 57.712 81.1002 58.432 82.1082 59.704C83.0682 60.904 83.5482 62.728 83.4762 64.792H74.5482C74.5962 67.024 75.6042 68.152 77.5962 68.152C79.3482 68.152 80.2602 67.408 80.5242 65.944L83.2842 66.16C82.6602 68.92 80.6922 70.288 77.6202 70.288ZM74.5722 62.656H80.5722C80.5242 61.984 80.3082 61.288 79.9002 60.784C79.3722 60.136 78.6522 59.848 77.5962 59.848C76.4682 59.848 75.6522 60.232 75.1722 60.904C74.7882 61.432 74.6202 62.08 74.5722 62.656ZM87.8673 70L84.9153 58H87.7233L88.8993 64.336L89.4273 67.6H89.4993C89.7153 66.568 90.0033 65.008 90.1473 64.336L91.4193 58.816H94.2033L95.4273 64.336C95.5953 65.104 95.8353 66.448 96.0273 67.6H96.0993C96.3393 66.16 96.4353 65.752 96.6512 64.336L97.8273 58H100.635L97.7073 70H94.5633L93.3873 64.816C93.2433 64.168 93.0033 62.824 92.8113 61.624H92.7393C92.5473 62.752 92.3553 64 92.1633 64.816L90.9873 70H87.8673ZM102.808 70V58H105.64V59.8C106.264 58.36 107.536 57.712 109.24 57.712C110.8 57.712 111.808 58.096 112.6 58.936C113.56 59.92 113.632 61.36 113.632 62.752V70H110.752V62.968C110.752 61.864 110.704 61.12 110.08 60.52C109.552 59.992 108.976 59.944 108.256 59.944C107.224 59.944 105.64 60.52 105.64 63.424V70H102.808ZM120.802 70.288C118.594 70.288 116.65 69.112 116.65 66.688C116.65 64.12 118.786 63.4 120.97 62.992L124.546 62.32C124.546 61.528 124.546 60.952 124.21 60.472C123.874 60.016 123.274 59.8 122.29 59.8C120.634 59.8 119.866 60.376 119.842 62.056L117.058 61.696C117.13 60.28 117.658 59.272 118.57 58.648C119.458 58.024 120.778 57.712 122.458 57.712C125.554 57.712 127.306 59.056 127.306 61.672V67.84C127.306 68.632 127.474 69.328 127.714 69.904V70H124.858C124.762 69.544 124.69 69.04 124.69 68.296C124.066 69.472 122.77 70.288 120.802 70.288ZM119.554 66.664C119.554 67.696 120.37 68.2 121.402 68.2C123.442 68.2 124.546 67.168 124.546 65.392V64.264L121.426 64.936C120.322 65.2 119.554 65.56 119.554 66.664ZM130.405 70V58H133.093V59.68C133.261 59.248 133.525 58.816 133.885 58.504C134.413 58.024 135.085 57.712 136.093 57.712C137.677 57.712 138.685 58.576 139.069 59.92C139.285 59.344 139.597 58.864 140.053 58.48C140.629 58 141.325 57.712 142.381 57.712C144.589 57.712 145.885 59.056 145.885 62.08V70H143.149V62.824C143.149 61.744 143.125 60.928 142.669 60.424C142.309 60.04 141.877 59.944 141.421 59.944C140.869 59.944 140.437 60.136 140.101 60.496C139.693 61 139.501 61.72 139.501 63.04V70H136.765V62.824C136.765 61.72 136.741 60.904 136.285 60.4C135.877 59.992 135.445 59.944 134.989 59.944C134.509 59.944 134.053 60.112 133.741 60.448C133.333 60.928 133.141 61.672 133.141 63.04V70H130.405ZM154.191 70.288C152.319 70.288 150.879 69.688 149.847 68.632C148.743 67.504 148.239 65.92 148.239 63.976C148.239 62.128 148.767 60.544 149.847 59.392C150.903 58.288 152.343 57.712 154.167 57.712C156.063 57.712 157.671 58.432 158.679 59.704C159.639 60.904 160.119 62.728 160.047 64.792H151.119C151.167 67.024 152.175 68.152 154.167 68.152C155.919 68.152 156.831 67.408 157.095 65.944L159.855 66.16C159.231 68.92 157.263 70.288 154.191 70.288ZM151.143 62.656H157.143C157.095 61.984 156.879 61.288 156.471 60.784C155.943 60.136 155.223 59.848 154.167 59.848C153.039 59.848 152.223 60.232 151.743 60.904C151.359 61.432 151.191 62.08 151.143 62.656ZM164.627 70V66.568H168.011V70H164.627ZM178.472 70.288C176.6 70.288 175.16 69.688 174.128 68.632C173.024 67.504 172.52 65.92 172.52 63.976C172.52 62.128 173.048 60.544 174.128 59.392C175.184 58.288 176.624 57.712 178.448 57.712C180.344 57.712 181.952 58.432 182.96 59.704C183.92 60.904 184.4 62.728 184.328 64.792H175.4C175.448 67.024 176.456 68.152 178.448 68.152C180.2 68.152 181.112 67.408 181.376 65.944L184.136 66.16C183.512 68.92 181.544 70.288 178.472 70.288ZM175.424 62.656H181.424C181.376 61.984 181.16 61.288 180.752 60.784C180.224 60.136 179.504 59.848 178.448 59.848C177.32 59.848 176.504 60.232 176.024 60.904C175.64 61.432 175.472 62.08 175.424 62.656ZM193.159 70.12C190.519 70.12 189.079 69.232 189.079 66.784V60.28H186.631V58H189.079V54.664H191.863V58H195.223V60.28H191.863V66.52C191.863 67.456 192.391 67.696 193.519 67.696C193.999 67.696 194.575 67.624 195.151 67.48L195.199 69.904C194.623 70.048 193.807 70.12 193.159 70.12ZM198.667 70V53.2H201.499V59.776C202.147 58.384 203.467 57.712 205.075 57.712C206.635 57.712 207.667 58.072 208.507 58.984C209.467 59.992 209.491 61.336 209.491 62.752V70H206.611V62.896C206.611 61.792 206.563 61.12 205.963 60.544C205.411 59.992 204.835 59.944 204.139 59.944C203.107 59.944 201.523 60.472 201.523 63.328V70H198.667Z" fill="#0080BC"/>
</svg>
