<svg width="601" height="180" viewBox="0 0 601 180" fill="none" xmlns="http://www.w3.org/2000/svg">
<g filter="url(#filter0_d_40_11830)">
<path fill-rule="evenodd" clip-rule="evenodd" d="M569 12C569 9.79086 567.209 8 565 8H36C33.7909 8 32 9.79086 32 12V100C32 102.209 33.7909 104 36 104H517.343C518.404 104 519.421 104.421 520.172 105.172L537.672 122.672C540.191 125.191 544.5 123.407 544.5 119.843V108C544.5 105.791 546.291 104 548.5 104H565C567.209 104 569 102.209 569 100V12Z" fill="#0080BC"/>
</g>
<path d="M61.336 51L58.408 34.2H61.408L62.656 43.8C62.944 45.672 63.016 46.608 63.16 47.784H63.256C63.448 46.656 63.688 45.192 63.952 43.872L65.704 35.88H68.824L70.624 43.872C70.936 45.312 71.128 46.608 71.32 47.784H71.416C71.56 46.632 71.68 45.264 71.896 43.8L73.144 34.2H76.12L73.192 51H69.712L68.008 42.864C67.768 41.784 67.48 40.176 67.312 39.096H67.216C67.024 40.248 66.808 41.544 66.52 42.888L64.864 51H61.336ZM78.3391 51V34.2H81.1711V40.776C81.8191 39.384 83.1391 38.712 84.7471 38.712C86.3071 38.712 87.3391 39.072 88.1791 39.984C89.1391 40.992 89.1631 42.336 89.1631 43.752V51H86.2831V43.896C86.2831 42.792 86.2351 42.12 85.6351 41.544C85.0831 40.992 84.5071 40.944 83.8111 40.944C82.7791 40.944 81.1951 41.472 81.1951 44.328V51H78.3391ZM96.3336 51.288C94.1256 51.288 92.1816 50.112 92.1816 47.688C92.1816 45.12 94.3176 44.4 96.5016 43.992L100.078 43.32C100.078 42.528 100.078 41.952 99.7416 41.472C99.4056 41.016 98.8056 40.8 97.8216 40.8C96.1656 40.8 95.3976 41.376 95.3736 43.056L92.5896 42.696C92.6616 41.28 93.1896 40.272 94.1016 39.648C94.9896 39.024 96.3096 38.712 97.9896 38.712C101.086 38.712 102.838 40.056 102.838 42.672V48.84C102.838 49.632 103.006 50.328 103.246 50.904V51H100.39C100.294 50.544 100.222 50.04 100.222 49.296C99.5976 50.472 98.3016 51.288 96.3336 51.288ZM95.0856 47.664C95.0856 48.696 95.9016 49.2 96.9336 49.2C98.9736 49.2 100.078 48.168 100.078 46.392V45.264L96.9576 45.936C95.8536 46.2 95.0856 46.56 95.0856 47.664ZM112.346 51.12C109.706 51.12 108.266 50.232 108.266 47.784V41.28H105.818V39H108.266V35.664H111.05V39H114.41V41.28H111.05V47.52C111.05 48.456 111.578 48.696 112.706 48.696C113.186 48.696 113.762 48.624 114.338 48.48L114.386 50.904C113.81 51.048 112.994 51.12 112.346 51.12ZM119.607 39.48C120.447 39.264 120.951 38.592 120.975 37.44H119.559V34.2H122.679V37.464C122.679 39.384 121.407 40.68 119.607 40.992V39.48ZM132.455 51.288C129.647 51.288 127.223 50.064 127.127 47.184L129.791 46.872C129.815 48.432 130.895 49.248 132.479 49.248C134.087 49.248 134.927 48.672 134.927 47.664C134.927 46.608 133.439 46.416 131.639 45.96C129.503 45.408 127.463 44.736 127.463 42.312C127.463 39.744 129.791 38.712 132.191 38.712C134.807 38.712 137.039 39.672 137.303 42.528L134.687 42.96C134.615 41.472 133.703 40.752 132.191 40.752C131.135 40.752 130.151 41.16 130.151 42.096C130.151 43.032 131.255 43.32 132.791 43.656C135.047 44.16 137.615 44.664 137.615 47.496C137.615 50.4 135.095 51.288 132.455 51.288ZM152.756 55.92C152.18 55.92 151.412 55.8 150.86 55.632L150.908 53.112C151.34 53.232 151.844 53.376 152.348 53.376C153.404 53.376 153.764 52.728 154.388 50.976L149.756 39H152.828L154.772 44.808C155.036 45.6 155.372 46.68 155.708 47.856C156.02 46.752 156.308 45.84 156.692 44.688L158.516 39H161.492L156.86 52.008C155.9 54.792 154.844 55.92 152.756 55.92ZM169.285 51.288C165.445 51.288 163.165 48.912 163.165 45C163.165 41.352 165.469 38.712 169.285 38.712C173.053 38.712 175.405 41.376 175.405 45C175.405 48.768 172.981 51.288 169.285 51.288ZM166.213 45C166.213 46.584 166.477 47.712 167.101 48.384C167.581 48.936 168.301 49.2 169.285 49.2C170.317 49.2 171.037 48.912 171.517 48.336C172.117 47.64 172.357 46.536 172.357 45C172.357 43.464 172.093 42.36 171.517 41.664C171.013 41.088 170.293 40.8 169.285 40.8C168.301 40.8 167.581 41.064 167.077 41.616C166.477 42.288 166.213 43.416 166.213 45ZM182.598 51.288C181.062 51.288 180.006 50.88 179.142 49.968C178.182 48.96 178.11 47.472 178.11 46.032V39H181.014V45.888C181.014 46.92 181.014 47.808 181.614 48.432C182.166 49.008 182.814 49.056 183.51 49.056C184.614 49.056 186.102 48.48 186.102 45.624V39H188.91V51H186.126V49.248C185.478 50.568 184.254 51.288 182.598 51.288ZM193.44 51V39H196.248V41.352C196.704 39.96 198.072 38.928 200.28 38.736C200.544 38.712 201.048 38.712 201.432 38.712L201.36 41.304C201 41.28 200.736 41.28 200.448 41.28C197.904 41.28 196.272 42.24 196.272 45.6V51H193.44ZM219.587 51.288C215.771 51.288 213.515 48.936 213.515 45C213.515 41.304 215.771 38.712 219.587 38.712C222.779 38.712 224.507 40.512 224.987 42.96L222.299 43.44C222.011 42.096 221.411 40.872 219.587 40.872C218.483 40.872 217.787 41.208 217.331 41.808C216.803 42.528 216.611 43.632 216.611 45C216.611 47.592 217.211 49.128 219.587 49.128C221.123 49.128 221.939 48.384 222.299 46.896L225.035 47.184C224.651 49.608 222.587 51.288 219.587 51.288ZM228.831 51V39H231.639V41.352C232.095 39.96 233.463 38.928 235.671 38.736C235.935 38.712 236.439 38.712 236.823 38.712L236.751 41.304C236.391 41.28 236.127 41.28 235.839 41.28C233.295 41.28 231.663 42.24 231.663 45.6V51H228.831ZM242.029 55.92C241.453 55.92 240.685 55.8 240.133 55.632L240.181 53.112C240.613 53.232 241.117 53.376 241.621 53.376C242.677 53.376 243.037 52.728 243.661 50.976L239.029 39H242.101L244.045 44.808C244.309 45.6 244.645 46.68 244.981 47.856C245.293 46.752 245.581 45.84 245.965 44.688L247.789 39H250.765L246.133 52.008C245.173 54.792 244.117 55.92 242.029 55.92ZM253.227 55.8V39H256.059V40.632C256.875 39.36 258.219 38.712 259.707 38.712C262.779 38.712 265.059 41.088 265.059 45C265.059 48.792 262.875 51.288 259.779 51.288C258.267 51.288 256.971 50.712 256.059 49.488V55.8H253.227ZM255.987 44.952C255.987 47.376 256.587 49.176 258.915 49.176C259.899 49.176 260.619 48.912 261.075 48.384C261.723 47.712 261.963 46.536 261.963 44.976C261.963 42.216 261.267 40.8 258.987 40.8C258.027 40.8 257.307 41.112 256.803 41.736C256.251 42.432 255.987 43.536 255.987 44.952ZM273.667 51.12C271.027 51.12 269.587 50.232 269.587 47.784V41.28H267.139V39H269.587V35.664H272.371V39H275.731V41.28H272.371V47.52C272.371 48.456 272.899 48.696 274.027 48.696C274.507 48.696 275.083 48.624 275.659 48.48L275.707 50.904C275.131 51.048 274.315 51.12 273.667 51.12ZM284.457 51.288C280.617 51.288 278.337 48.912 278.337 45C278.337 41.352 280.641 38.712 284.457 38.712C288.225 38.712 290.577 41.376 290.577 45C290.577 48.768 288.153 51.288 284.457 51.288ZM281.385 45C281.385 46.584 281.649 47.712 282.273 48.384C282.753 48.936 283.473 49.2 284.457 49.2C285.489 49.2 286.209 48.912 286.689 48.336C287.289 47.64 287.529 46.536 287.529 45C287.529 43.464 287.265 42.36 286.689 41.664C286.185 41.088 285.465 40.8 284.457 40.8C283.473 40.8 282.753 41.064 282.249 41.616C281.649 42.288 281.385 43.416 281.385 45ZM307.131 51.288C304.923 51.288 302.979 50.112 302.979 47.688C302.979 45.12 305.115 44.4 307.299 43.992L310.875 43.32C310.875 42.528 310.875 41.952 310.539 41.472C310.203 41.016 309.603 40.8 308.618 40.8C306.963 40.8 306.195 41.376 306.171 43.056L303.387 42.696C303.459 41.28 303.987 40.272 304.899 39.648C305.787 39.024 307.107 38.712 308.787 38.712C311.883 38.712 313.635 40.056 313.635 42.672V48.84C313.635 49.632 313.803 50.328 314.043 50.904V51H311.187C311.091 50.544 311.019 50.04 311.019 49.296C310.395 50.472 309.099 51.288 307.131 51.288ZM305.883 47.664C305.883 48.696 306.699 49.2 307.73 49.2C309.771 49.2 310.875 48.168 310.875 46.392V45.264L307.755 45.936C306.651 46.2 305.883 46.56 305.883 47.664ZM321.798 51.288C318.654 51.288 316.374 48.912 316.374 45C316.374 41.208 318.534 38.712 321.75 38.712C323.31 38.712 324.534 39.312 325.35 40.464V34.2H328.182V51H325.35V49.296C324.654 50.616 323.382 51.288 321.798 51.288ZM319.47 45C319.47 47.76 320.118 49.2 322.446 49.2C323.334 49.2 324.03 48.888 324.51 48.336C325.134 47.616 325.422 46.512 325.422 45.024C325.422 42.624 324.774 40.824 322.493 40.824C321.39 40.824 320.646 41.16 320.19 41.808C319.662 42.504 319.47 43.584 319.47 45ZM336.258 51.288C333.114 51.288 330.834 48.912 330.834 45C330.834 41.208 332.994 38.712 336.21 38.712C337.77 38.712 338.994 39.312 339.81 40.464V34.2H342.642V51H339.81V49.296C339.114 50.616 337.842 51.288 336.258 51.288ZM333.93 45C333.93 47.76 334.578 49.2 336.906 49.2C337.794 49.2 338.49 48.888 338.97 48.336C339.594 47.616 339.882 46.512 339.882 45.024C339.882 42.624 339.234 40.824 336.954 40.824C335.85 40.824 335.106 41.16 334.65 41.808C334.122 42.504 333.93 43.584 333.93 45ZM347.143 51V39H349.951V41.352C350.407 39.96 351.775 38.928 353.983 38.736C354.247 38.712 354.751 38.712 355.135 38.712L355.063 41.304C354.703 41.28 354.439 41.28 354.151 41.28C351.607 41.28 349.975 42.24 349.975 45.6V51H347.143ZM363.159 51.288C361.287 51.288 359.847 50.688 358.815 49.632C357.711 48.504 357.207 46.92 357.207 44.976C357.207 43.128 357.735 41.544 358.815 40.392C359.871 39.288 361.311 38.712 363.135 38.712C365.031 38.712 366.639 39.432 367.647 40.704C368.607 41.904 369.087 43.728 369.015 45.792H360.087C360.135 48.024 361.143 49.152 363.135 49.152C364.887 49.152 365.799 48.408 366.063 46.944L368.823 47.16C368.199 49.92 366.231 51.288 363.159 51.288ZM360.111 43.656H366.111C366.063 42.984 365.847 42.288 365.439 41.784C364.911 41.136 364.191 40.848 363.135 40.848C362.007 40.848 361.191 41.232 360.711 41.904C360.327 42.432 360.159 43.08 360.111 43.656ZM376.908 51.288C374.1 51.288 371.676 50.064 371.58 47.184L374.244 46.872C374.268 48.432 375.348 49.248 376.932 49.248C378.54 49.248 379.38 48.672 379.38 47.664C379.38 46.608 377.892 46.416 376.092 45.96C373.956 45.408 371.916 44.736 371.916 42.312C371.916 39.744 374.244 38.712 376.644 38.712C379.26 38.712 381.492 39.672 381.756 42.528L379.14 42.96C379.068 41.472 378.156 40.752 376.644 40.752C375.588 40.752 374.604 41.16 374.604 42.096C374.604 43.032 375.708 43.32 377.244 43.656C379.5 44.16 382.068 44.664 382.068 47.496C382.068 50.4 379.548 51.288 376.908 51.288ZM390.291 51.288C387.483 51.288 385.059 50.064 384.963 47.184L387.627 46.872C387.651 48.432 388.731 49.248 390.315 49.248C391.923 49.248 392.763 48.672 392.763 47.664C392.763 46.608 391.275 46.416 389.475 45.96C387.339 45.408 385.299 44.736 385.299 42.312C385.299 39.744 387.627 38.712 390.027 38.712C392.643 38.712 394.875 39.672 395.139 42.528L392.523 42.96C392.451 41.472 391.539 40.752 390.027 40.752C388.971 40.752 387.987 41.16 387.987 42.096C387.987 43.032 389.091 43.32 390.627 43.656C392.883 44.16 395.451 44.664 395.451 47.496C395.451 50.4 392.931 51.288 390.291 51.288ZM413.635 51.288C410.827 51.288 408.403 50.064 408.307 47.184L410.971 46.872C410.995 48.432 412.075 49.248 413.659 49.248C415.267 49.248 416.107 48.672 416.107 47.664C416.107 46.608 414.619 46.416 412.819 45.96C410.683 45.408 408.643 44.736 408.643 42.312C408.643 39.744 410.971 38.712 413.371 38.712C415.987 38.712 418.219 39.672 418.483 42.528L415.867 42.96C415.795 41.472 414.883 40.752 413.371 40.752C412.315 40.752 411.331 41.16 411.331 42.096C411.331 43.032 412.435 43.32 413.971 43.656C416.227 44.16 418.795 44.664 418.795 47.496C418.795 50.4 416.275 51.288 413.635 51.288ZM427.449 51.288C423.609 51.288 421.329 48.912 421.329 45C421.329 41.352 423.633 38.712 427.449 38.712C431.217 38.712 433.569 41.376 433.569 45C433.569 48.768 431.145 51.288 427.449 51.288ZM424.377 45C424.377 46.584 424.641 47.712 425.265 48.384C425.745 48.936 426.465 49.2 427.449 49.2C428.481 49.2 429.201 48.912 429.681 48.336C430.281 47.64 430.521 46.536 430.521 45C430.521 43.464 430.257 42.36 429.681 41.664C429.177 41.088 428.457 40.8 427.449 40.8C426.465 40.8 425.745 41.064 425.241 41.616C424.641 42.288 424.377 43.416 424.377 45ZM446.499 51V48.552H448.443V36.648H446.499V34.2H453.363V36.648H451.443V48.552H453.363V51H446.499ZM472.665 51.288C468.849 51.288 466.593 48.936 466.593 45C466.593 41.304 468.849 38.712 472.665 38.712C475.857 38.712 477.585 40.512 478.065 42.96L475.377 43.44C475.089 42.096 474.489 40.872 472.665 40.872C471.561 40.872 470.865 41.208 470.409 41.808C469.881 42.528 469.689 43.632 469.689 45C469.689 47.592 470.289 49.128 472.665 49.128C474.201 49.128 475.017 48.384 475.377 46.896L478.113 47.184C477.729 49.608 475.665 51.288 472.665 51.288ZM484.693 51.288C482.485 51.288 480.541 50.112 480.541 47.688C480.541 45.12 482.677 44.4 484.861 43.992L488.437 43.32C488.437 42.528 488.437 41.952 488.101 41.472C487.765 41.016 487.165 40.8 486.181 40.8C484.525 40.8 483.757 41.376 483.733 43.056L480.949 42.696C481.021 41.28 481.549 40.272 482.461 39.648C483.349 39.024 484.669 38.712 486.349 38.712C489.445 38.712 491.197 40.056 491.197 42.672V48.84C491.197 49.632 491.365 50.328 491.605 50.904V51H488.749C488.653 50.544 488.581 50.04 488.581 49.296C487.957 50.472 486.661 51.288 484.693 51.288ZM483.445 47.664C483.445 48.696 484.261 49.2 485.293 49.2C487.333 49.2 488.437 48.168 488.437 46.392V45.264L485.317 45.936C484.213 46.2 483.445 46.56 483.445 47.664ZM494.8 51V39H497.632V40.8C498.256 39.36 499.528 38.712 501.232 38.712C502.792 38.712 503.8 39.096 504.592 39.936C505.552 40.92 505.624 42.36 505.624 43.752V51H502.744V43.968C502.744 42.864 502.696 42.12 502.072 41.52C501.544 40.992 500.968 40.944 500.248 40.944C499.216 40.944 497.632 41.52 497.632 44.424V51H494.8ZM59.704 82.8V66H62.536V67.632C63.352 66.36 64.696 65.712 66.184 65.712C69.256 65.712 71.536 68.088 71.536 72C71.536 75.792 69.352 78.288 66.256 78.288C64.744 78.288 63.448 77.712 62.536 76.488V82.8H59.704ZM62.464 71.952C62.464 74.376 63.064 76.176 65.392 76.176C66.376 76.176 67.096 75.912 67.552 75.384C68.2 74.712 68.44 73.536 68.44 71.976C68.44 69.216 67.744 67.8 65.464 67.8C64.504 67.8 63.784 68.112 63.28 68.736C62.728 69.432 62.464 70.536 62.464 71.952ZM78.0289 78.288C75.8209 78.288 73.8769 77.112 73.8769 74.688C73.8769 72.12 76.0129 71.4 78.1969 70.992L81.7729 70.32C81.7729 69.528 81.7729 68.952 81.4369 68.472C81.1009 68.016 80.5009 67.8 79.5169 67.8C77.8609 67.8 77.0929 68.376 77.0689 70.056L74.2849 69.696C74.3569 68.28 74.8849 67.272 75.7969 66.648C76.6849 66.024 78.0049 65.712 79.6849 65.712C82.7809 65.712 84.5329 67.056 84.5329 69.672V75.84C84.5329 76.632 84.7009 77.328 84.9409 77.904V78H82.0849C81.9889 77.544 81.9169 77.04 81.9169 76.296C81.2929 77.472 79.9969 78.288 78.0289 78.288ZM76.7809 74.664C76.7809 75.696 77.5969 76.2 78.6289 76.2C80.6689 76.2 81.7729 75.168 81.7729 73.392V72.264L78.6529 72.936C77.5489 73.2 76.7809 73.56 76.7809 74.664ZM90.1542 82.92C89.5782 82.92 88.8102 82.8 88.2582 82.632L88.3062 80.112C88.7382 80.232 89.2422 80.376 89.7462 80.376C90.8022 80.376 91.1622 79.728 91.7862 77.976L87.1542 66H90.2262L92.1702 71.808C92.4342 72.6 92.7702 73.68 93.1062 74.856C93.4182 73.752 93.7062 72.84 94.0902 71.688L95.9142 66H98.8902L94.2582 79.008C93.2982 81.792 92.2422 82.92 90.1542 82.92ZM113.123 82.92C112.547 82.92 111.779 82.8 111.227 82.632L111.275 80.112C111.707 80.232 112.211 80.376 112.715 80.376C113.771 80.376 114.131 79.728 114.755 77.976L110.123 66H113.195L115.139 71.808C115.403 72.6 115.739 73.68 116.075 74.856C116.387 73.752 116.675 72.84 117.059 71.688L118.883 66H121.859L117.227 79.008C116.267 81.792 115.211 82.92 113.123 82.92ZM129.653 78.288C125.813 78.288 123.533 75.912 123.533 72C123.533 68.352 125.837 65.712 129.653 65.712C133.421 65.712 135.773 68.376 135.773 72C135.773 75.768 133.349 78.288 129.653 78.288ZM126.581 72C126.581 73.584 126.845 74.712 127.469 75.384C127.949 75.936 128.669 76.2 129.653 76.2C130.685 76.2 131.405 75.912 131.885 75.336C132.485 74.64 132.725 73.536 132.725 72C132.725 70.464 132.461 69.36 131.885 68.664C131.381 68.088 130.661 67.8 129.653 67.8C128.669 67.8 127.949 68.064 127.445 68.616C126.845 69.288 126.581 70.416 126.581 72ZM142.965 78.288C141.429 78.288 140.373 77.88 139.509 76.968C138.549 75.96 138.477 74.472 138.477 73.032V66H141.381V72.888C141.381 73.92 141.381 74.808 141.981 75.432C142.533 76.008 143.181 76.056 143.877 76.056C144.981 76.056 146.469 75.48 146.469 72.624V66H149.277V78H146.493V76.248C145.845 77.568 144.621 78.288 142.965 78.288ZM156.375 72.216C156.375 70.632 157.047 69.744 158.391 68.52C159.327 67.656 160.191 66.936 160.191 65.688C160.191 64.152 159.471 63.264 157.887 63.264C155.703 63.264 155.199 64.896 155.223 66.48L152.319 66.024C152.391 63.312 154.071 60.912 157.983 60.912C161.223 60.912 163.143 62.736 163.143 65.664C163.143 67.728 162.159 68.688 160.815 69.84C159.807 70.704 159.063 71.4 159.063 72.696V73.248H156.375V72.216ZM156.279 78V74.736H159.495V78H156.279Z" fill="#F6F6F6"/>
<defs>
<filter id="filter0_d_40_11830" x="0" y="0" width="601" height="179.851" filterUnits="userSpaceOnUse" color-interpolation-filters="sRGB">
<feFlood flood-opacity="0" result="BackgroundImageFix"/>
<feColorMatrix in="SourceAlpha" type="matrix" values="0 0 0 0 0 0 0 0 0 0 0 0 0 0 0 0 0 0 127 0" result="hardAlpha"/>
<feOffset dy="24"/>
<feGaussianBlur stdDeviation="16"/>
<feComposite in2="hardAlpha" operator="out"/>
<feColorMatrix type="matrix" values="0 0 0 0 0.0543419 0 0 0 0 0.238372 0 0 0 0 0.408247 0 0 0 0.06 0"/>
<feBlend mode="normal" in2="BackgroundImageFix" result="effect1_dropShadow_40_11830"/>
<feBlend mode="normal" in="SourceGraphic" in2="effect1_dropShadow_40_11830" result="shape"/>
</filter>
</defs>
</svg>
