<svg width="537" height="116" viewBox="0 0 537 116" fill="none" xmlns="http://www.w3.org/2000/svg">
<path fill-rule="evenodd" clip-rule="evenodd" d="M537 4C537 1.79086 535.209 0 533 0H4C1.79086 0 0 1.79086 0 4V92C0 94.2091 1.79087 96 4.00001 96H485.343C486.404 96 487.421 96.4214 488.172 97.1716L505.672 114.672C508.191 117.191 512.5 115.407 512.5 111.843V100C512.5 97.7909 514.291 96 516.5 96H533C535.209 96 537 94.2091 537 92V4Z" fill="#0080BC"/>
<path d="M29.336 43L26.408 26.2H29.408L30.656 35.8C30.944 37.672 31.016 38.608 31.16 39.784H31.256C31.448 38.656 31.688 37.192 31.952 35.872L33.704 27.88H36.824L38.624 35.872C38.936 37.312 39.128 38.608 39.32 39.784H39.416C39.56 38.632 39.68 37.264 39.896 35.8L41.144 26.2H44.12L41.192 43H37.712L36.008 34.864C35.768 33.784 35.48 32.176 35.312 31.096H35.216C35.024 32.248 34.808 33.544 34.52 34.888L32.864 43H29.336ZM46.3391 43V26.2H49.1711V32.776C49.8191 31.384 51.1391 30.712 52.7471 30.712C54.3071 30.712 55.3391 31.072 56.1791 31.984C57.1391 32.992 57.1631 34.336 57.1631 35.752V43H54.2831V35.896C54.2831 34.792 54.2351 34.12 53.6351 33.544C53.0831 32.992 52.5071 32.944 51.8111 32.944C50.7791 32.944 49.1951 33.472 49.1951 36.328V43H46.3391ZM64.3336 43.288C62.1256 43.288 60.1816 42.112 60.1816 39.688C60.1816 37.12 62.3176 36.4 64.5016 35.992L68.0776 35.32C68.0776 34.528 68.0776 33.952 67.7416 33.472C67.4056 33.016 66.8056 32.8 65.8216 32.8C64.1656 32.8 63.3976 33.376 63.3736 35.056L60.5896 34.696C60.6616 33.28 61.1896 32.272 62.1016 31.648C62.9896 31.024 64.3096 30.712 65.9896 30.712C69.0856 30.712 70.8376 32.056 70.8376 34.672V40.84C70.8376 41.632 71.0056 42.328 71.2456 42.904V43H68.3896C68.2936 42.544 68.2216 42.04 68.2216 41.296C67.5976 42.472 66.3016 43.288 64.3336 43.288ZM63.0856 39.664C63.0856 40.696 63.9016 41.2 64.9336 41.2C66.9736 41.2 68.0776 40.168 68.0776 38.392V37.264L64.9576 37.936C63.8536 38.2 63.0856 38.56 63.0856 39.664ZM80.3463 43.12C77.7063 43.12 76.2663 42.232 76.2663 39.784V33.28H73.8183V31H76.2663V27.664H79.0503V31H82.4103V33.28H79.0503V39.52C79.0503 40.456 79.5783 40.696 80.7063 40.696C81.1863 40.696 81.7623 40.624 82.3383 40.48L82.3863 42.904C81.8103 43.048 80.9943 43.12 80.3463 43.12ZM87.6067 31.48C88.4467 31.264 88.9507 30.592 88.9747 29.44H87.5587V26.2H90.6787V29.464C90.6787 31.384 89.4067 32.68 87.6067 32.992V31.48ZM100.455 43.288C97.6469 43.288 95.2229 42.064 95.1269 39.184L97.7909 38.872C97.8149 40.432 98.8949 41.248 100.479 41.248C102.087 41.248 102.927 40.672 102.927 39.664C102.927 38.608 101.439 38.416 99.6389 37.96C97.5029 37.408 95.4629 36.736 95.4629 34.312C95.4629 31.744 97.7909 30.712 100.191 30.712C102.807 30.712 105.039 31.672 105.303 34.528L102.687 34.96C102.615 33.472 101.703 32.752 100.191 32.752C99.1349 32.752 98.1509 33.16 98.1509 34.096C98.1509 35.032 99.2549 35.32 100.791 35.656C103.047 36.16 105.615 36.664 105.615 39.496C105.615 42.4 103.095 43.288 100.455 43.288ZM120.756 47.92C120.18 47.92 119.412 47.8 118.86 47.632L118.908 45.112C119.34 45.232 119.844 45.376 120.348 45.376C121.404 45.376 121.764 44.728 122.388 42.976L117.756 31H120.828L122.772 36.808C123.036 37.6 123.372 38.68 123.708 39.856C124.02 38.752 124.308 37.84 124.692 36.688L126.516 31H129.492L124.86 44.008C123.9 46.792 122.844 47.92 120.756 47.92ZM137.285 43.288C133.445 43.288 131.165 40.912 131.165 37C131.165 33.352 133.469 30.712 137.285 30.712C141.053 30.712 143.405 33.376 143.405 37C143.405 40.768 140.981 43.288 137.285 43.288ZM134.213 37C134.213 38.584 134.477 39.712 135.101 40.384C135.581 40.936 136.301 41.2 137.285 41.2C138.317 41.2 139.037 40.912 139.517 40.336C140.117 39.64 140.357 38.536 140.357 37C140.357 35.464 140.093 34.36 139.517 33.664C139.013 33.088 138.293 32.8 137.285 32.8C136.301 32.8 135.581 33.064 135.077 33.616C134.477 34.288 134.213 35.416 134.213 37ZM150.598 43.288C149.062 43.288 148.006 42.88 147.142 41.968C146.182 40.96 146.11 39.472 146.11 38.032V31H149.014V37.888C149.014 38.92 149.014 39.808 149.614 40.432C150.166 41.008 150.814 41.056 151.51 41.056C152.614 41.056 154.102 40.48 154.102 37.624V31H156.91V43H154.126V41.248C153.478 42.568 152.254 43.288 150.598 43.288ZM161.44 43V31H164.248V33.352C164.704 31.96 166.072 30.928 168.28 30.736C168.544 30.712 169.048 30.712 169.432 30.712L169.36 33.304C169 33.28 168.736 33.28 168.448 33.28C165.904 33.28 164.272 34.24 164.272 37.6V43H161.44ZM187.587 43.288C183.771 43.288 181.515 40.936 181.515 37C181.515 33.304 183.771 30.712 187.587 30.712C190.779 30.712 192.507 32.512 192.987 34.96L190.299 35.44C190.011 34.096 189.411 32.872 187.587 32.872C186.483 32.872 185.787 33.208 185.331 33.808C184.803 34.528 184.611 35.632 184.611 37C184.611 39.592 185.211 41.128 187.587 41.128C189.123 41.128 189.939 40.384 190.299 38.896L193.035 39.184C192.651 41.608 190.587 43.288 187.587 43.288ZM196.831 43V31H199.639V33.352C200.095 31.96 201.463 30.928 203.671 30.736C203.935 30.712 204.439 30.712 204.823 30.712L204.751 33.304C204.391 33.28 204.127 33.28 203.839 33.28C201.295 33.28 199.663 34.24 199.663 37.6V43H196.831ZM210.029 47.92C209.453 47.92 208.685 47.8 208.133 47.632L208.181 45.112C208.613 45.232 209.117 45.376 209.621 45.376C210.677 45.376 211.037 44.728 211.661 42.976L207.029 31H210.101L212.045 36.808C212.309 37.6 212.645 38.68 212.981 39.856C213.293 38.752 213.581 37.84 213.965 36.688L215.789 31H218.765L214.133 44.008C213.173 46.792 212.117 47.92 210.029 47.92ZM221.227 47.8V31H224.059V32.632C224.875 31.36 226.219 30.712 227.707 30.712C230.779 30.712 233.059 33.088 233.059 37C233.059 40.792 230.875 43.288 227.779 43.288C226.267 43.288 224.971 42.712 224.059 41.488V47.8H221.227ZM223.987 36.952C223.987 39.376 224.587 41.176 226.915 41.176C227.899 41.176 228.619 40.912 229.075 40.384C229.723 39.712 229.963 38.536 229.963 36.976C229.963 34.216 229.267 32.8 226.987 32.8C226.027 32.8 225.307 33.112 224.803 33.736C224.251 34.432 223.987 35.536 223.987 36.952ZM241.667 43.12C239.027 43.12 237.587 42.232 237.587 39.784V33.28H235.139V31H237.587V27.664H240.371V31H243.731V33.28H240.371V39.52C240.371 40.456 240.899 40.696 242.027 40.696C242.507 40.696 243.083 40.624 243.659 40.48L243.707 42.904C243.131 43.048 242.315 43.12 241.667 43.12ZM252.457 43.288C248.617 43.288 246.337 40.912 246.337 37C246.337 33.352 248.641 30.712 252.457 30.712C256.225 30.712 258.577 33.376 258.577 37C258.577 40.768 256.153 43.288 252.457 43.288ZM249.385 37C249.385 38.584 249.649 39.712 250.273 40.384C250.753 40.936 251.473 41.2 252.457 41.2C253.489 41.2 254.209 40.912 254.689 40.336C255.289 39.64 255.529 38.536 255.529 37C255.529 35.464 255.265 34.36 254.689 33.664C254.185 33.088 253.465 32.8 252.457 32.8C251.473 32.8 250.753 33.064 250.249 33.616C249.649 34.288 249.385 35.416 249.385 37ZM275.131 43.288C272.923 43.288 270.979 42.112 270.979 39.688C270.979 37.12 273.115 36.4 275.299 35.992L278.875 35.32C278.875 34.528 278.875 33.952 278.539 33.472C278.203 33.016 277.603 32.8 276.618 32.8C274.963 32.8 274.195 33.376 274.171 35.056L271.387 34.696C271.459 33.28 271.987 32.272 272.899 31.648C273.787 31.024 275.107 30.712 276.787 30.712C279.883 30.712 281.635 32.056 281.635 34.672V40.84C281.635 41.632 281.803 42.328 282.043 42.904V43H279.187C279.091 42.544 279.019 42.04 279.019 41.296C278.395 42.472 277.099 43.288 275.131 43.288ZM273.883 39.664C273.883 40.696 274.699 41.2 275.73 41.2C277.771 41.2 278.875 40.168 278.875 38.392V37.264L275.755 37.936C274.651 38.2 273.883 38.56 273.883 39.664ZM289.798 43.288C286.654 43.288 284.374 40.912 284.374 37C284.374 33.208 286.534 30.712 289.75 30.712C291.31 30.712 292.534 31.312 293.35 32.464V26.2H296.182V43H293.35V41.296C292.654 42.616 291.382 43.288 289.798 43.288ZM287.47 37C287.47 39.76 288.118 41.2 290.446 41.2C291.334 41.2 292.03 40.888 292.51 40.336C293.134 39.616 293.422 38.512 293.422 37.024C293.422 34.624 292.774 32.824 290.493 32.824C289.39 32.824 288.646 33.16 288.19 33.808C287.662 34.504 287.47 35.584 287.47 37ZM304.258 43.288C301.114 43.288 298.834 40.912 298.834 37C298.834 33.208 300.994 30.712 304.21 30.712C305.77 30.712 306.994 31.312 307.81 32.464V26.2H310.642V43H307.81V41.296C307.114 42.616 305.842 43.288 304.258 43.288ZM301.93 37C301.93 39.76 302.578 41.2 304.906 41.2C305.794 41.2 306.49 40.888 306.97 40.336C307.594 39.616 307.882 38.512 307.882 37.024C307.882 34.624 307.234 32.824 304.954 32.824C303.85 32.824 303.106 33.16 302.65 33.808C302.122 34.504 301.93 35.584 301.93 37ZM315.143 43V31H317.951V33.352C318.407 31.96 319.775 30.928 321.983 30.736C322.247 30.712 322.751 30.712 323.135 30.712L323.063 33.304C322.703 33.28 322.439 33.28 322.151 33.28C319.607 33.28 317.975 34.24 317.975 37.6V43H315.143ZM331.159 43.288C329.287 43.288 327.847 42.688 326.815 41.632C325.711 40.504 325.207 38.92 325.207 36.976C325.207 35.128 325.735 33.544 326.815 32.392C327.871 31.288 329.311 30.712 331.135 30.712C333.031 30.712 334.639 31.432 335.647 32.704C336.607 33.904 337.087 35.728 337.015 37.792H328.087C328.135 40.024 329.143 41.152 331.135 41.152C332.887 41.152 333.799 40.408 334.063 38.944L336.823 39.16C336.199 41.92 334.231 43.288 331.159 43.288ZM328.111 35.656H334.111C334.063 34.984 333.847 34.288 333.439 33.784C332.911 33.136 332.191 32.848 331.135 32.848C330.007 32.848 329.191 33.232 328.711 33.904C328.327 34.432 328.159 35.08 328.111 35.656ZM344.908 43.288C342.1 43.288 339.676 42.064 339.58 39.184L342.244 38.872C342.268 40.432 343.348 41.248 344.932 41.248C346.54 41.248 347.38 40.672 347.38 39.664C347.38 38.608 345.892 38.416 344.092 37.96C341.956 37.408 339.916 36.736 339.916 34.312C339.916 31.744 342.244 30.712 344.644 30.712C347.26 30.712 349.492 31.672 349.756 34.528L347.14 34.96C347.068 33.472 346.156 32.752 344.644 32.752C343.588 32.752 342.604 33.16 342.604 34.096C342.604 35.032 343.708 35.32 345.244 35.656C347.5 36.16 350.068 36.664 350.068 39.496C350.068 42.4 347.548 43.288 344.908 43.288ZM358.291 43.288C355.483 43.288 353.059 42.064 352.963 39.184L355.627 38.872C355.651 40.432 356.731 41.248 358.315 41.248C359.923 41.248 360.763 40.672 360.763 39.664C360.763 38.608 359.275 38.416 357.475 37.96C355.339 37.408 353.299 36.736 353.299 34.312C353.299 31.744 355.627 30.712 358.027 30.712C360.643 30.712 362.875 31.672 363.139 34.528L360.523 34.96C360.451 33.472 359.539 32.752 358.027 32.752C356.971 32.752 355.987 33.16 355.987 34.096C355.987 35.032 357.091 35.32 358.627 35.656C360.883 36.16 363.451 36.664 363.451 39.496C363.451 42.4 360.931 43.288 358.291 43.288ZM381.635 43.288C378.827 43.288 376.403 42.064 376.307 39.184L378.971 38.872C378.995 40.432 380.075 41.248 381.659 41.248C383.267 41.248 384.107 40.672 384.107 39.664C384.107 38.608 382.619 38.416 380.819 37.96C378.683 37.408 376.643 36.736 376.643 34.312C376.643 31.744 378.971 30.712 381.371 30.712C383.987 30.712 386.219 31.672 386.483 34.528L383.867 34.96C383.795 33.472 382.883 32.752 381.371 32.752C380.315 32.752 379.331 33.16 379.331 34.096C379.331 35.032 380.435 35.32 381.971 35.656C384.227 36.16 386.795 36.664 386.795 39.496C386.795 42.4 384.275 43.288 381.635 43.288ZM395.449 43.288C391.609 43.288 389.329 40.912 389.329 37C389.329 33.352 391.633 30.712 395.449 30.712C399.217 30.712 401.569 33.376 401.569 37C401.569 40.768 399.145 43.288 395.449 43.288ZM392.377 37C392.377 38.584 392.641 39.712 393.265 40.384C393.745 40.936 394.465 41.2 395.449 41.2C396.481 41.2 397.201 40.912 397.681 40.336C398.281 39.64 398.521 38.536 398.521 37C398.521 35.464 398.257 34.36 397.681 33.664C397.177 33.088 396.457 32.8 395.449 32.8C394.465 32.8 393.745 33.064 393.241 33.616C392.641 34.288 392.377 35.416 392.377 37ZM414.499 43V40.552H416.443V28.648H414.499V26.2H421.363V28.648H419.443V40.552H421.363V43H414.499ZM440.665 43.288C436.849 43.288 434.593 40.936 434.593 37C434.593 33.304 436.849 30.712 440.665 30.712C443.857 30.712 445.585 32.512 446.065 34.96L443.377 35.44C443.089 34.096 442.489 32.872 440.665 32.872C439.561 32.872 438.865 33.208 438.409 33.808C437.881 34.528 437.689 35.632 437.689 37C437.689 39.592 438.289 41.128 440.665 41.128C442.201 41.128 443.017 40.384 443.377 38.896L446.113 39.184C445.729 41.608 443.665 43.288 440.665 43.288ZM452.693 43.288C450.485 43.288 448.541 42.112 448.541 39.688C448.541 37.12 450.677 36.4 452.861 35.992L456.437 35.32C456.437 34.528 456.437 33.952 456.101 33.472C455.765 33.016 455.165 32.8 454.181 32.8C452.525 32.8 451.757 33.376 451.733 35.056L448.949 34.696C449.021 33.28 449.549 32.272 450.461 31.648C451.349 31.024 452.669 30.712 454.349 30.712C457.445 30.712 459.197 32.056 459.197 34.672V40.84C459.197 41.632 459.365 42.328 459.605 42.904V43H456.749C456.653 42.544 456.581 42.04 456.581 41.296C455.957 42.472 454.661 43.288 452.693 43.288ZM451.445 39.664C451.445 40.696 452.261 41.2 453.293 41.2C455.333 41.2 456.437 40.168 456.437 38.392V37.264L453.317 37.936C452.213 38.2 451.445 38.56 451.445 39.664ZM462.8 43V31H465.632V32.8C466.256 31.36 467.528 30.712 469.232 30.712C470.792 30.712 471.8 31.096 472.592 31.936C473.552 32.92 473.624 34.36 473.624 35.752V43H470.744V35.968C470.744 34.864 470.696 34.12 470.072 33.52C469.544 32.992 468.968 32.944 468.248 32.944C467.216 32.944 465.632 33.52 465.632 36.424V43H462.8ZM27.704 74.8V58H30.536V59.632C31.352 58.36 32.696 57.712 34.184 57.712C37.256 57.712 39.536 60.088 39.536 64C39.536 67.792 37.352 70.288 34.256 70.288C32.744 70.288 31.448 69.712 30.536 68.488V74.8H27.704ZM30.464 63.952C30.464 66.376 31.064 68.176 33.392 68.176C34.376 68.176 35.096 67.912 35.552 67.384C36.2 66.712 36.44 65.536 36.44 63.976C36.44 61.216 35.744 59.8 33.464 59.8C32.504 59.8 31.784 60.112 31.28 60.736C30.728 61.432 30.464 62.536 30.464 63.952ZM46.0289 70.288C43.8209 70.288 41.8769 69.112 41.8769 66.688C41.8769 64.12 44.0129 63.4 46.1969 62.992L49.7729 62.32C49.7729 61.528 49.7729 60.952 49.4369 60.472C49.1009 60.016 48.5009 59.8 47.5169 59.8C45.8609 59.8 45.0929 60.376 45.0689 62.056L42.2849 61.696C42.3569 60.28 42.8849 59.272 43.7969 58.648C44.6849 58.024 46.0049 57.712 47.6849 57.712C50.7809 57.712 52.5329 59.056 52.5329 61.672V67.84C52.5329 68.632 52.7009 69.328 52.9409 69.904V70H50.0849C49.9889 69.544 49.9169 69.04 49.9169 68.296C49.2929 69.472 47.9969 70.288 46.0289 70.288ZM44.7809 66.664C44.7809 67.696 45.5969 68.2 46.6289 68.2C48.6689 68.2 49.7729 67.168 49.7729 65.392V64.264L46.6529 64.936C45.5489 65.2 44.7809 65.56 44.7809 66.664ZM58.1542 74.92C57.5782 74.92 56.8102 74.8 56.2582 74.632L56.3062 72.112C56.7382 72.232 57.2422 72.376 57.7462 72.376C58.8022 72.376 59.1622 71.728 59.7862 69.976L55.1542 58H58.2262L60.1702 63.808C60.4342 64.6 60.7702 65.68 61.1062 66.856C61.4182 65.752 61.7062 64.84 62.0902 63.688L63.9142 58H66.8902L62.2582 71.008C61.2982 73.792 60.2422 74.92 58.1542 74.92ZM81.1229 74.92C80.5469 74.92 79.7789 74.8 79.2269 74.632L79.2749 72.112C79.7069 72.232 80.2109 72.376 80.7149 72.376C81.7709 72.376 82.1309 71.728 82.7549 69.976L78.1229 58H81.1949L83.1389 63.808C83.4029 64.6 83.7389 65.68 84.0749 66.856C84.3869 65.752 84.6749 64.84 85.0589 63.688L86.8829 58H89.8589L85.2269 71.008C84.2669 73.792 83.2109 74.92 81.1229 74.92ZM97.6526 70.288C93.8126 70.288 91.5326 67.912 91.5326 64C91.5326 60.352 93.8366 57.712 97.6526 57.712C101.421 57.712 103.773 60.376 103.773 64C103.773 67.768 101.349 70.288 97.6526 70.288ZM94.5806 64C94.5806 65.584 94.8446 66.712 95.4686 67.384C95.9486 67.936 96.6686 68.2 97.6526 68.2C98.6846 68.2 99.4046 67.912 99.8846 67.336C100.485 66.64 100.725 65.536 100.725 64C100.725 62.464 100.461 61.36 99.8846 60.664C99.3806 60.088 98.6606 59.8 97.6526 59.8C96.6686 59.8 95.9486 60.064 95.4446 60.616C94.8446 61.288 94.5806 62.416 94.5806 64ZM110.965 70.288C109.429 70.288 108.373 69.88 107.509 68.968C106.549 67.96 106.477 66.472 106.477 65.032V58H109.381V64.888C109.381 65.92 109.381 66.808 109.981 67.432C110.533 68.008 111.181 68.056 111.877 68.056C112.981 68.056 114.469 67.48 114.469 64.624V58H117.277V70H114.493V68.248C113.845 69.568 112.621 70.288 110.965 70.288ZM124.375 64.216C124.375 62.632 125.047 61.744 126.391 60.52C127.327 59.656 128.191 58.936 128.191 57.688C128.191 56.152 127.471 55.264 125.887 55.264C123.703 55.264 123.199 56.896 123.223 58.48L120.319 58.024C120.391 55.312 122.071 52.912 125.983 52.912C129.223 52.912 131.143 54.736 131.143 57.664C131.143 59.728 130.159 60.688 128.815 61.84C127.807 62.704 127.063 63.4 127.063 64.696V65.248H124.375V64.216ZM124.279 70V66.736H127.495V70H124.279Z" fill="#F6F6F6"/>
</svg>
