<svg width="306" height="88" viewBox="0 0 306 88" fill="none" xmlns="http://www.w3.org/2000/svg">
<path fill-rule="evenodd" clip-rule="evenodd" d="M306 4C306 1.79086 304.209 0 302 0H4C1.79086 0 0 1.79086 0 4V64C0 66.2091 1.79086 68 4 68H254.343C255.404 68 256.421 68.4214 257.172 69.1716L274.672 86.6716C277.191 89.1914 281.5 87.4068 281.5 83.8431V72C281.5 69.7909 283.291 68 285.5 68H302C304.209 68 306 66.2091 306 64V4Z" fill="#0080BC"/>
<path d="M28.336 43L25.408 26.2H28.408L29.656 35.8C29.944 37.672 30.016 38.608 30.16 39.784H30.256C30.448 38.656 30.688 37.192 30.952 35.872L32.704 27.88H35.824L37.624 35.872C37.936 37.312 38.128 38.608 38.32 39.784H38.416C38.56 38.632 38.68 37.264 38.896 35.8L40.144 26.2H43.12L40.192 43H36.712L35.008 34.864C34.768 33.784 34.48 32.176 34.312 31.096H34.216C34.024 32.248 33.808 33.544 33.52 34.888L31.864 43H28.336ZM50.3401 43.288C46.5001 43.288 44.2201 40.912 44.2201 37C44.2201 33.352 46.5241 30.712 50.3401 30.712C54.1081 30.712 56.4601 33.376 56.4601 37C56.4601 40.768 54.0361 43.288 50.3401 43.288ZM47.2681 37C47.2681 38.584 47.5321 39.712 48.1561 40.384C48.6361 40.936 49.3561 41.2 50.3401 41.2C51.3721 41.2 52.0921 40.912 52.5721 40.336C53.1721 39.64 53.4121 38.536 53.4121 37C53.4121 35.464 53.1481 34.36 52.5721 33.664C52.0681 33.088 51.3481 32.8 50.3401 32.8C49.3561 32.8 48.6361 33.064 48.1321 33.616C47.5321 34.288 47.2681 35.416 47.2681 37ZM60.7032 43L57.7512 31H60.5592L61.7352 37.336L62.2632 40.6H62.3352C62.5512 39.568 62.8392 38.008 62.9832 37.336L64.2552 31.816H67.0392L68.2632 37.336C68.4312 38.104 68.6712 39.448 68.8632 40.6H68.9352C69.1752 39.16 69.2712 38.752 69.4872 37.336L70.6632 31H73.4712L70.5432 43H67.3992L66.2232 37.816C66.0792 37.168 65.8392 35.824 65.6472 34.624H65.5752C65.3832 35.752 65.1912 37 64.9992 37.816L63.8232 43H60.7032ZM76.8304 43V39.568H80.2144V43H76.8304ZM101.385 43.288C97.0654 43.288 94.2094 40.432 94.2094 34.6C94.2094 29.224 97.0654 25.912 101.745 25.912C105.177 25.912 107.577 27.712 108.417 31.048L105.393 31.648C104.961 29.632 103.881 28.336 101.745 28.336C100.257 28.336 99.1534 28.792 98.4334 29.8C97.7134 30.808 97.3774 32.392 97.3774 34.6C97.3774 36.856 97.7134 38.416 98.4334 39.424C99.1534 40.432 100.233 40.864 101.793 40.864C104.193 40.864 105.633 39.328 105.825 36.496H101.601V33.904H108.585V43H106.185L106.017 40.912C105.153 42.4 103.497 43.288 101.385 43.288ZM116.856 43.288C113.016 43.288 110.736 40.912 110.736 37C110.736 33.352 113.04 30.712 116.856 30.712C120.624 30.712 122.976 33.376 122.976 37C122.976 40.768 120.552 43.288 116.856 43.288ZM113.784 37C113.784 38.584 114.048 39.712 114.672 40.384C115.152 40.936 115.872 41.2 116.856 41.2C117.888 41.2 118.608 40.912 119.088 40.336C119.688 39.64 119.928 38.536 119.928 37C119.928 35.464 119.664 34.36 119.088 33.664C118.584 33.088 117.864 32.8 116.856 32.8C115.872 32.8 115.152 33.064 114.648 33.616C114.048 34.288 113.784 35.416 113.784 37ZM141.737 43.12C139.097 43.12 137.657 42.232 137.657 39.784V33.28H135.209V31H137.657V27.664H140.441V31H143.801V33.28H140.441V39.52C140.441 40.456 140.969 40.696 142.097 40.696C142.577 40.696 143.153 40.624 143.729 40.48L143.777 42.904C143.201 43.048 142.385 43.12 141.737 43.12ZM152.528 43.288C148.688 43.288 146.408 40.912 146.408 37C146.408 33.352 148.712 30.712 152.528 30.712C156.296 30.712 158.648 33.376 158.648 37C158.648 40.768 156.224 43.288 152.528 43.288ZM149.456 37C149.456 38.584 149.72 39.712 150.344 40.384C150.824 40.936 151.544 41.2 152.528 41.2C153.56 41.2 154.28 40.912 154.76 40.336C155.36 39.64 155.6 38.536 155.6 37C155.6 35.464 155.336 34.36 154.76 33.664C154.256 33.088 153.536 32.8 152.528 32.8C151.544 32.8 150.824 33.064 150.32 33.616C149.72 34.288 149.456 35.416 149.456 37ZM176.761 43.288C174.889 43.288 173.449 42.688 172.417 41.632C171.313 40.504 170.809 38.92 170.809 36.976C170.809 35.128 171.337 33.544 172.417 32.392C173.473 31.288 174.913 30.712 176.737 30.712C178.633 30.712 180.241 31.432 181.249 32.704C182.209 33.904 182.689 35.728 182.617 37.792H173.689C173.737 40.024 174.745 41.152 176.737 41.152C178.489 41.152 179.401 40.408 179.665 38.944L182.425 39.16C181.801 41.92 179.833 43.288 176.761 43.288ZM173.713 35.656H179.713C179.665 34.984 179.449 34.288 179.041 33.784C178.513 33.136 177.793 32.848 176.737 32.848C175.609 32.848 174.793 33.232 174.313 33.904C173.929 34.432 173.761 35.08 173.713 35.656ZM185.566 43V31H188.398V32.8C189.022 31.36 190.294 30.712 191.998 30.712C193.558 30.712 194.566 31.096 195.358 31.936C196.318 32.92 196.39 34.36 196.39 35.752V43H193.51V35.968C193.51 34.864 193.462 34.12 192.838 33.52C192.31 32.992 191.734 32.944 191.014 32.944C189.982 32.944 188.398 33.52 188.398 36.424V43H185.566ZM204.736 43.288C201.928 43.288 199.504 42.064 199.408 39.184L202.072 38.872C202.096 40.432 203.176 41.248 204.76 41.248C206.368 41.248 207.208 40.672 207.208 39.664C207.208 38.608 205.72 38.416 203.92 37.96C201.784 37.408 199.744 36.736 199.744 34.312C199.744 31.744 202.072 30.712 204.472 30.712C207.088 30.712 209.32 31.672 209.584 34.528L206.968 34.96C206.896 33.472 205.984 32.752 204.472 32.752C203.416 32.752 202.432 33.16 202.432 34.096C202.432 35.032 203.536 35.32 205.072 35.656C207.328 36.16 209.896 36.664 209.896 39.496C209.896 42.4 207.376 43.288 204.736 43.288ZM214.807 43V39.568H218.191V43H214.807ZM227.162 43.288C224.954 43.288 223.01 42.112 223.01 39.688C223.01 37.12 225.146 36.4 227.33 35.992L230.906 35.32C230.906 34.528 230.906 33.952 230.57 33.472C230.234 33.016 229.634 32.8 228.65 32.8C226.994 32.8 226.226 33.376 226.202 35.056L223.418 34.696C223.49 33.28 224.018 32.272 224.93 31.648C225.818 31.024 227.138 30.712 228.818 30.712C231.914 30.712 233.666 32.056 233.666 34.672V40.84C233.666 41.632 233.834 42.328 234.074 42.904V43H231.218C231.122 42.544 231.05 42.04 231.05 41.296C230.426 42.472 229.13 43.288 227.162 43.288ZM225.914 39.664C225.914 40.696 226.73 41.2 227.762 41.2C229.802 41.2 230.906 40.168 230.906 38.392V37.264L227.786 37.936C226.682 38.2 225.914 38.56 225.914 39.664ZM237.173 47.8V31H240.005V32.632C240.821 31.36 242.165 30.712 243.653 30.712C246.725 30.712 249.005 33.088 249.005 37C249.005 40.792 246.821 43.288 243.725 43.288C242.213 43.288 240.917 42.712 240.005 41.488V47.8H237.173ZM239.933 36.952C239.933 39.376 240.533 41.176 242.861 41.176C243.845 41.176 244.565 40.912 245.021 40.384C245.669 39.712 245.909 38.536 245.909 36.976C245.909 34.216 245.213 32.8 242.933 32.8C241.973 32.8 241.253 33.112 240.749 33.736C240.197 34.432 239.933 35.536 239.933 36.952ZM251.634 47.8V31H254.466V32.632C255.282 31.36 256.626 30.712 258.114 30.712C261.186 30.712 263.466 33.088 263.466 37C263.466 40.792 261.282 43.288 258.186 43.288C256.674 43.288 255.378 42.712 254.466 41.488V47.8H251.634ZM254.394 36.952C254.394 39.376 254.994 41.176 257.322 41.176C258.306 41.176 259.026 40.912 259.482 40.384C260.13 39.712 260.37 38.536 260.37 36.976C260.37 34.216 259.674 32.8 257.394 32.8C256.434 32.8 255.714 33.112 255.21 33.736C254.658 34.432 254.394 35.536 254.394 36.952Z" fill="#F6F6F6"/>
</svg>
