<svg width="375" height="72" viewBox="0 0 375 72" fill="none" xmlns="http://www.w3.org/2000/svg">
<path fill-rule="evenodd" clip-rule="evenodd" d="M0.00149536 3.16058C0.00149536 1.82008 1.0882 0.733398 2.42868 0.733398H278.52C279.861 0.733398 280.947 1.82008 280.947 3.16058V56.5585C280.947 57.899 279.861 58.9857 278.52 58.9857H31.6505C31.0068 58.9857 30.3894 59.2414 29.9342 59.6966L19.3155 70.3153C17.7864 71.8444 15.172 70.7615 15.172 68.5991V61.4127C15.172 60.0722 14.0853 58.9855 12.7448 58.9856L2.42868 58.9856C1.0882 58.9856 0.00149536 57.899 0.00149536 56.5585V3.16058Z" fill="#F6F6F6"/>
<path d="M18.6796 27.0829V18.4324H15.5631V16.8887H23.6311V18.4324H20.5V27.0829H18.6796ZM25.1223 27.0829V16.8887H26.8407V20.879C27.2339 20.0344 28.0349 19.6266 29.0106 19.6266C29.9572 19.6266 30.5834 19.845 31.0932 20.3984C31.6757 21.0101 31.6902 21.8256 31.6902 22.6848V27.0829H29.9427V22.7722C29.9427 22.1023 29.9135 21.6946 29.5495 21.345C29.2145 21.0101 28.865 20.981 28.4427 20.981C27.8165 20.981 26.8553 21.3013 26.8553 23.0344V27.0829H25.1223ZM33.5801 27.0829V25.6994H34.9928V21.1848H33.8131V19.8014H36.7258V25.6994H38.0219V27.0829H33.5801ZM34.9199 18.6509V16.7577H36.6821V18.6509H34.9199ZM43.0125 27.2576C41.3086 27.2576 39.8377 26.5149 39.7795 24.7674L41.396 24.578C41.4105 25.5246 42.0659 26.0198 43.027 26.0198C44.0027 26.0198 44.5124 25.6703 44.5124 25.0586C44.5124 24.4178 43.6095 24.3013 42.5173 24.0246C41.2212 23.6897 39.9833 23.2819 39.9833 21.8111C39.9833 20.2528 41.396 19.6266 42.8523 19.6266C44.4396 19.6266 45.794 20.2091 45.9542 21.9421L44.3668 22.2043C44.3231 21.3013 43.7697 20.8645 42.8523 20.8645C42.2115 20.8645 41.6144 21.112 41.6144 21.68C41.6144 22.2479 42.2843 22.4227 43.2163 22.6266C44.5853 22.9324 46.1435 23.2382 46.1435 24.9567C46.1435 26.7188 44.6144 27.2576 43.0125 27.2576ZM54.0026 27.0829V25.6994H55.4152V21.1848H54.2356V19.8014H57.1482V25.6994H58.4443V27.0829H54.0026ZM55.3424 18.6509V16.7577H57.1045V18.6509H55.3424ZM63.4349 27.2576C61.731 27.2576 60.2601 26.5149 60.2019 24.7674L61.8184 24.578C61.8329 25.5246 62.4883 26.0198 63.4494 26.0198C64.4252 26.0198 64.9349 25.6703 64.9349 25.0586C64.9349 24.4178 64.032 24.3013 62.9397 24.0246C61.6436 23.6897 60.4058 23.2819 60.4058 21.8111C60.4058 20.2528 61.8184 19.6266 63.2747 19.6266C64.8621 19.6266 66.2164 20.2091 66.3766 21.9421L64.7892 22.2043C64.7455 21.3013 64.1922 20.8645 63.2747 20.8645C62.6339 20.8645 62.0368 21.112 62.0368 21.68C62.0368 22.2479 62.7067 22.4227 63.6388 22.6266C65.0077 22.9324 66.5659 23.2382 66.5659 24.9567C66.5659 26.7188 65.0368 27.2576 63.4349 27.2576ZM77.5997 27.2576C75.8958 27.2576 74.425 26.5149 74.3667 24.7674L75.9832 24.578C75.9978 25.5246 76.6531 26.0198 77.6143 26.0198C78.59 26.0198 79.0997 25.6703 79.0997 25.0586C79.0997 24.4178 78.1968 24.3013 77.1046 24.0246C75.8085 23.6897 74.5706 23.2819 74.5706 21.8111C74.5706 20.2528 75.9832 19.6266 77.4395 19.6266C79.0269 19.6266 80.3813 20.2091 80.5415 21.9421L78.9541 22.2043C78.9104 21.3013 78.357 20.8645 77.4395 20.8645C76.7988 20.8645 76.2017 21.112 76.2017 21.68C76.2017 22.2479 76.8716 22.4227 77.8036 22.6266C79.1725 22.9324 80.7308 23.2382 80.7308 24.9567C80.7308 26.7188 79.2017 27.2576 77.5997 27.2576ZM85.9825 27.2576C83.6524 27.2576 82.2689 25.8159 82.2689 23.4421C82.2689 21.2285 83.6669 19.6266 85.9825 19.6266C88.2689 19.6266 89.6961 21.2431 89.6961 23.4421C89.6961 25.7285 88.2252 27.2576 85.9825 27.2576ZM84.1184 23.4421C84.1184 24.4033 84.2786 25.0877 84.6572 25.4955C84.9485 25.8305 85.3854 25.9907 85.9825 25.9907C86.6087 25.9907 87.0456 25.8159 87.3368 25.4664C87.7009 25.0441 87.8465 24.3742 87.8465 23.4421C87.8465 22.5101 87.6864 21.8402 87.3368 21.4179C87.031 21.0683 86.5941 20.8936 85.9825 20.8936C85.3854 20.8936 84.9485 21.0538 84.6427 21.3887C84.2786 21.7965 84.1184 22.481 84.1184 23.4421ZM97.1483 27.0829V19.8014H98.7793V20.8208C98.8813 20.5586 99.0415 20.2965 99.2599 20.1072C99.5803 19.8159 99.988 19.6266 100.6 19.6266C101.561 19.6266 102.173 20.1509 102.406 20.9664C102.537 20.6169 102.726 20.3256 103.003 20.0926C103.352 19.8014 103.774 19.6266 104.415 19.6266C105.755 19.6266 106.541 20.4421 106.541 22.2771V27.0829H104.881V22.7285C104.881 22.0732 104.867 21.578 104.59 21.2722C104.372 21.0392 104.109 20.981 103.833 20.981C103.498 20.981 103.236 21.0975 103.032 21.3159C102.784 21.6217 102.668 22.0586 102.668 22.8596V27.0829H101.007V22.7285C101.007 22.0586 100.993 21.5635 100.716 21.2577C100.469 21.0101 100.206 20.981 99.9298 20.981C99.6385 20.981 99.3618 21.0829 99.1725 21.2868C98.9249 21.578 98.8084 22.0295 98.8084 22.8596V27.0829H97.1483ZM110.998 27.2576C110.066 27.2576 109.426 27.0101 108.901 26.4567C108.319 25.845 108.275 24.9421 108.275 24.0683V19.8014H110.037V23.981C110.037 24.6072 110.037 25.146 110.401 25.5246C110.736 25.8742 111.129 25.9033 111.552 25.9033C112.222 25.9033 113.125 25.5538 113.125 23.8208V19.8014H114.828V27.0829H113.139V26.0198C112.746 26.8208 112.003 27.2576 110.998 27.2576ZM120.374 27.2576C118.058 27.2576 116.689 25.8305 116.689 23.4421C116.689 21.1994 118.058 19.6266 120.374 19.6266C122.311 19.6266 123.359 20.7188 123.65 22.2043L122.019 22.4955C121.845 21.68 121.481 20.9373 120.374 20.9373C119.704 20.9373 119.281 21.1412 119.005 21.5052C118.684 21.9421 118.568 22.612 118.568 23.4421C118.568 25.0149 118.932 25.947 120.374 25.947C121.306 25.947 121.801 25.4955 122.019 24.5926L123.68 24.7674C123.447 26.2382 122.194 27.2576 120.374 27.2576ZM125.386 27.0829V16.8887H127.104V20.879C127.497 20.0344 128.298 19.6266 129.274 19.6266C130.221 19.6266 130.847 19.845 131.356 20.3984C131.939 21.0101 131.954 21.8256 131.954 22.6848V27.0829H130.206V22.7722C130.206 22.1023 130.177 21.6946 129.813 21.345C129.478 21.0101 129.128 20.981 128.706 20.981C128.08 20.981 127.119 21.3013 127.119 23.0344V27.0829H125.386ZM143.062 27.2576C141.359 27.2576 139.888 26.5149 139.829 24.7674L141.446 24.578C141.46 25.5246 142.116 26.0198 143.077 26.0198C144.053 26.0198 144.562 25.6703 144.562 25.0586C144.562 24.4178 143.659 24.3013 142.567 24.0246C141.271 23.6897 140.033 23.2819 140.033 21.8111C140.033 20.2528 141.446 19.6266 142.902 19.6266C144.49 19.6266 145.844 20.2091 146.004 21.9421L144.417 22.2043C144.373 21.3013 143.82 20.8645 142.902 20.8645C142.261 20.8645 141.664 21.112 141.664 21.68C141.664 22.2479 142.334 22.4227 143.266 22.6266C144.635 22.9324 146.193 23.2382 146.193 24.9567C146.193 26.7188 144.664 27.2576 143.062 27.2576ZM148.008 27.0829V25.6994H149.421V21.1848H148.241V19.8014H151.154V25.6994H152.45V27.0829H148.008ZM149.348 18.6509V16.7577H151.11V18.6509H149.348ZM154.135 27.0829V19.8014H155.766V20.8208C155.868 20.5586 156.028 20.2965 156.246 20.1072C156.567 19.8159 156.975 19.6266 157.586 19.6266C158.547 19.6266 159.159 20.1509 159.392 20.9664C159.523 20.6169 159.712 20.3256 159.989 20.0926C160.339 19.8014 160.761 19.6266 161.402 19.6266C162.742 19.6266 163.528 20.4421 163.528 22.2771V27.0829H161.868V22.7285C161.868 22.0732 161.853 21.578 161.577 21.2722C161.358 21.0392 161.096 20.981 160.819 20.981C160.484 20.981 160.222 21.0975 160.018 21.3159C159.771 21.6217 159.654 22.0586 159.654 22.8596V27.0829H157.994V22.7285C157.994 22.0586 157.979 21.5635 157.703 21.2577C157.455 21.0101 157.193 20.981 156.916 20.981C156.625 20.981 156.348 21.0829 156.159 21.2868C155.911 21.578 155.795 22.0295 155.795 22.8596V27.0829H154.135ZM165.276 29.9955V19.8014H166.995V20.7916C167.49 20.0198 168.305 19.6266 169.208 19.6266C171.072 19.6266 172.456 21.0683 172.456 23.4421C172.456 25.7431 171.131 27.2576 169.252 27.2576C168.334 27.2576 167.548 26.9081 166.995 26.1654V29.9955H165.276ZM166.951 23.413C166.951 24.8839 167.315 25.9761 168.728 25.9761C169.325 25.9761 169.762 25.8159 170.038 25.4955C170.432 25.0877 170.577 24.3742 170.577 23.4276C170.577 21.7528 170.155 20.8936 168.771 20.8936C168.189 20.8936 167.752 21.0829 167.446 21.4615C167.111 21.8839 166.951 22.5538 166.951 23.413ZM173.964 27.0829V25.6994H175.391V18.2722H174.211V16.8887H177.109V25.6994H178.405V27.0829H173.964ZM183.6 27.2576C182.464 27.2576 181.59 26.8936 180.964 26.2528C180.294 25.5683 179.988 24.6072 179.988 23.4276C179.988 22.3062 180.309 21.345 180.964 20.646C181.605 19.9761 182.478 19.6266 183.585 19.6266C184.736 19.6266 185.711 20.0635 186.323 20.8353C186.906 21.5635 187.197 22.6703 187.153 23.9227H181.736C181.765 25.2771 182.377 25.9615 183.585 25.9615C184.648 25.9615 185.202 25.5101 185.362 24.6217L187.037 24.7528C186.658 26.4275 185.464 27.2576 183.6 27.2576ZM181.75 22.6266H185.391C185.362 22.2188 185.231 21.7965 184.983 21.4907C184.663 21.0975 184.226 20.9227 183.585 20.9227C182.901 20.9227 182.406 21.1557 182.114 21.5635C181.881 21.8839 181.779 22.2771 181.75 22.6266ZM189.54 27.0829V19.8014H191.244V21.2285C191.52 20.3839 192.35 19.7577 193.69 19.6412C193.85 19.6266 194.156 19.6266 194.389 19.6266L194.345 21.1994C194.127 21.1848 193.967 21.1848 193.792 21.1848C192.248 21.1848 191.258 21.7674 191.258 23.8062V27.0829H189.54ZM197.61 24.1557L197.377 20.3693V16.8887H199.08V20.3693L198.847 24.1557H197.61ZM197.347 27.0829V25.1023H199.299V27.0829H197.347ZM212.18 27.2576C209.923 27.2576 208.03 26.1654 207.971 23.8062L209.85 23.6023C209.879 25.0586 210.84 25.8013 212.209 25.8013C213.462 25.8013 214.423 25.3353 214.423 24.214C214.423 23.0198 213.127 23.0052 211.656 22.6703C209.879 22.2479 208.263 21.5926 208.263 19.6557C208.263 17.5295 210.214 16.714 211.976 16.714C214.103 16.714 215.704 17.5441 215.952 19.8887L214.103 20.2091C214.044 18.7965 213.243 18.1557 211.976 18.1557C210.942 18.1557 210.098 18.6217 210.098 19.5538C210.098 20.4858 211.204 20.7916 212.544 21.0392C214.583 21.4179 216.272 21.9421 216.272 24.112C216.272 26.413 214.365 27.2576 212.18 27.2576ZM221.046 27.2576C219.91 27.2576 219.036 26.8936 218.41 26.2528C217.74 25.5683 217.434 24.6072 217.434 23.4276C217.434 22.3062 217.754 21.345 218.41 20.646C219.051 19.9761 219.924 19.6266 221.031 19.6266C222.182 19.6266 223.157 20.0635 223.769 20.8353C224.351 21.5635 224.643 22.6703 224.599 23.9227H219.182C219.211 25.2771 219.822 25.9615 221.031 25.9615C222.094 25.9615 222.648 25.5101 222.808 24.6217L224.483 24.7528C224.104 26.4275 222.91 27.2576 221.046 27.2576ZM219.196 22.6266H222.837C222.808 22.2188 222.677 21.7965 222.429 21.4907C222.109 21.0975 221.672 20.9227 221.031 20.9227C220.347 20.9227 219.852 21.1557 219.56 21.5635C219.327 21.8839 219.225 22.2771 219.196 22.6266ZM226.388 27.0829V19.8014H228.107V20.8936C228.485 20.0198 229.257 19.6266 230.291 19.6266C231.238 19.6266 231.85 19.8596 232.33 20.3693C232.913 20.9664 232.956 21.8402 232.956 22.6848V27.0829H231.209V22.8159C231.209 22.146 231.18 21.6946 230.801 21.3305C230.481 21.0101 230.131 20.981 229.694 20.981C229.068 20.981 228.107 21.3305 228.107 23.0926V27.0829H226.388ZM237.788 27.2576C235.88 27.2576 234.497 25.8159 234.497 23.4421C234.497 21.1412 235.807 19.6266 237.759 19.6266C238.705 19.6266 239.448 19.9907 239.943 20.6897V16.8887H241.662V27.0829H239.943V26.0489C239.521 26.8499 238.749 27.2576 237.788 27.2576ZM236.375 23.4421C236.375 25.1169 236.769 25.9907 238.181 25.9907C238.72 25.9907 239.142 25.8013 239.434 25.4664C239.812 25.0295 239.987 24.3596 239.987 23.4567C239.987 22.0004 239.594 20.9081 238.21 20.9081C237.54 20.9081 237.089 21.112 236.812 21.5052C236.492 21.9276 236.375 22.5829 236.375 23.4421ZM253.466 27.1557C251.864 27.1557 250.991 26.6169 250.991 25.1314V21.1848H249.505V19.8014H250.991V17.7771H252.68V19.8014H254.719V21.1848H252.68V24.9712C252.68 25.5392 253 25.6848 253.685 25.6848C253.976 25.6848 254.325 25.6411 254.675 25.5538L254.704 27.0246C254.355 27.112 253.859 27.1557 253.466 27.1557ZM260.014 27.2576C257.684 27.2576 256.3 25.8159 256.3 23.4421C256.3 21.2285 257.698 19.6266 260.014 19.6266C262.3 19.6266 263.728 21.2431 263.728 23.4421C263.728 25.7285 262.257 27.2576 260.014 27.2576ZM258.15 23.4421C258.15 24.4033 258.31 25.0877 258.689 25.4955C258.98 25.8305 259.417 25.9907 260.014 25.9907C260.64 25.9907 261.077 25.8159 261.368 25.4664C261.732 25.0441 261.878 24.3742 261.878 23.4421C261.878 22.5101 261.718 21.8402 261.368 21.4179C261.062 21.0683 260.626 20.8936 260.014 20.8936C259.417 20.8936 258.98 21.0538 258.674 21.3887C258.31 21.7965 258.15 22.481 258.15 23.4421Z" fill="#4A5C63"/>
<path d="M15.9563 43.0829V35.8014H17.5874V36.8208C17.6893 36.5586 17.8495 36.2965 18.068 36.1072C18.3884 35.8159 18.7961 35.6266 19.4078 35.6266C20.3689 35.6266 20.9806 36.1509 21.2136 36.9664C21.3447 36.6169 21.534 36.3256 21.8107 36.0926C22.1602 35.8014 22.5825 35.6266 23.2233 35.6266C24.5631 35.6266 25.3495 36.4421 25.3495 38.2771V43.0829H23.6893V38.7285C23.6893 38.0732 23.6748 37.578 23.3981 37.2722C23.1796 37.0392 22.9175 36.981 22.6408 36.981C22.3058 36.981 22.0437 37.0975 21.8398 37.3159C21.5922 37.6217 21.4757 38.0586 21.4757 38.8596V43.0829H19.8155V38.7285C19.8155 38.0586 19.801 37.5635 19.5243 37.2577C19.2767 37.0101 19.0146 36.981 18.7379 36.981C18.4466 36.981 18.1699 37.0829 17.9806 37.2868C17.733 37.578 17.6165 38.0295 17.6165 38.8596V43.0829H15.9563ZM28.3807 46.0683C28.0312 46.0683 27.5651 45.9955 27.2302 45.8936L27.2593 44.3644C27.5214 44.4373 27.8273 44.5246 28.1331 44.5246C28.7739 44.5246 28.9923 44.1314 29.371 43.0683L26.5603 35.8014H28.4244L29.604 39.3256C29.7642 39.8062 29.968 40.4615 30.1719 41.1751C30.3612 40.5052 30.536 39.9518 30.769 39.2528L31.8758 35.8014H33.6816L30.871 43.6945C30.2884 45.3838 29.6477 46.0683 28.3807 46.0683ZM35.234 43.0829V35.8014H36.9524V36.8936C37.331 36.0198 38.1029 35.6266 39.1369 35.6266C40.0835 35.6266 40.6951 35.8596 41.1757 36.3693C41.7582 36.9664 41.8019 37.8402 41.8019 38.6848V43.0829H40.0543V38.8159C40.0543 38.146 40.0252 37.6946 39.6466 37.3305C39.3262 37.0101 38.9767 36.981 38.5398 36.981C37.9136 36.981 36.9524 37.3305 36.9524 39.0926V43.0829H35.234ZM47.0996 43.2576C45.9636 43.2576 45.0898 42.8936 44.4636 42.2528C43.7937 41.5683 43.4879 40.6072 43.4879 39.4276C43.4879 38.3062 43.8083 37.345 44.4636 36.646C45.1044 35.9761 45.9782 35.6266 47.085 35.6266C48.2355 35.6266 49.2112 36.0635 49.8228 36.8353C50.4054 37.5635 50.6966 38.6703 50.6529 39.9227H45.2355C45.2646 41.2771 45.8763 41.9615 47.085 41.9615C48.1481 41.9615 48.7015 41.5101 48.8617 40.6217L50.5364 40.7528C50.1578 42.4275 48.9636 43.2576 47.0996 43.2576ZM45.25 38.6266H48.8908C48.8617 38.2188 48.7306 37.7965 48.483 37.4907C48.1627 37.0975 47.7258 36.9227 47.085 36.9227C46.4005 36.9227 45.9054 37.1557 45.6141 37.5635C45.3811 37.8839 45.2792 38.2771 45.25 38.6266ZM53.3174 43.0829L51.5262 35.8014H53.23L53.9436 39.646L54.264 41.6266H54.3077C54.4388 41.0004 54.6135 40.0538 54.7009 39.646L55.4727 36.2965H57.1621L57.9048 39.646C58.0067 40.112 58.1523 40.9276 58.2689 41.6266H58.3125C58.4582 40.7528 58.5164 40.5052 58.6475 39.646L59.3611 35.8014H61.065L59.2883 43.0829H57.3805L56.6669 39.9373C56.5795 39.5441 56.4339 38.7285 56.3174 38.0004H56.2737C56.1572 38.6848 56.0407 39.4421 55.9242 39.9373L55.2106 43.0829H53.3174ZM62.3833 43.0829V35.8014H64.1017V36.8936C64.4803 36.0198 65.2522 35.6266 66.2862 35.6266C67.2328 35.6266 67.8444 35.8596 68.325 36.3693C68.9075 36.9664 68.9512 37.8402 68.9512 38.6848V43.0829H67.2036V38.8159C67.2036 38.146 67.1745 37.6946 66.7959 37.3305C66.4755 37.0101 66.126 36.981 65.6891 36.981C65.0629 36.981 64.1017 37.3305 64.1017 39.0926V43.0829H62.3833ZM73.3023 43.2576C71.9625 43.2576 70.7829 42.5441 70.7829 41.0732C70.7829 39.5149 72.079 39.078 73.4042 38.8305L75.5741 38.4227C75.5741 37.9421 75.5741 37.5926 75.3702 37.3013C75.1663 37.0247 74.8023 36.8936 74.2052 36.8936C73.2003 36.8936 72.7343 37.2431 72.7197 38.2625L71.0304 38.0441C71.0741 37.1848 71.3945 36.5732 71.9479 36.1946C72.4867 35.8159 73.2877 35.6266 74.3071 35.6266C76.1857 35.6266 77.2489 36.4421 77.2489 38.0295V41.7722C77.2489 42.2528 77.3508 42.6751 77.4964 43.0246V43.0829H75.7634C75.7052 42.8062 75.6615 42.5004 75.6615 42.0489C75.2828 42.7625 74.4964 43.2576 73.3023 43.2576ZM72.545 41.0586C72.545 41.6848 73.0401 41.9907 73.6663 41.9907C74.9042 41.9907 75.5741 41.3644 75.5741 40.2868V39.6023L73.6809 40.0101C73.011 40.1703 72.545 40.3887 72.545 41.0586ZM79.1293 43.0829V35.8014H80.7604V36.8208C80.8623 36.5586 81.0225 36.2965 81.2409 36.1072C81.5613 35.8159 81.9691 35.6266 82.5808 35.6266C83.5419 35.6266 84.1536 36.1509 84.3866 36.9664C84.5176 36.6169 84.707 36.3256 84.9837 36.0926C85.3332 35.8014 85.7555 35.6266 86.3963 35.6266C87.7361 35.6266 88.5225 36.4421 88.5225 38.2771V43.0829H86.8623V38.7285C86.8623 38.0732 86.8477 37.578 86.571 37.2722C86.3526 37.0392 86.0904 36.981 85.8138 36.981C85.4788 36.981 85.2167 37.0975 85.0128 37.3159C84.7652 37.6217 84.6487 38.0586 84.6487 38.8596V43.0829H82.9885V38.7285C82.9885 38.0586 82.974 37.5635 82.6973 37.2577C82.4497 37.0101 82.1875 36.981 81.9108 36.981C81.6196 36.981 81.3429 37.0829 81.1536 37.2868C80.906 37.578 80.7895 38.0295 80.7895 38.8596V43.0829H79.1293ZM93.562 43.2576C92.4261 43.2576 91.5523 42.8936 90.9261 42.2528C90.2562 41.5683 89.9503 40.6072 89.9503 39.4276C89.9503 38.3062 90.2707 37.345 90.9261 36.646C91.5668 35.9761 92.4406 35.6266 93.5474 35.6266C94.6979 35.6266 95.6736 36.0635 96.2853 36.8353C96.8678 37.5635 97.1591 38.6703 97.1154 39.9227H91.6979C91.727 41.2771 92.3387 41.9615 93.5474 41.9615C94.6105 41.9615 95.1639 41.5101 95.3241 40.6217L96.9989 40.7528C96.6202 42.4275 95.4261 43.2576 93.562 43.2576ZM91.7125 38.6266H95.3532C95.3241 38.2188 95.193 37.7965 94.9455 37.4907C94.6251 37.0975 94.1882 36.9227 93.5474 36.9227C92.863 36.9227 92.3678 37.1557 92.0766 37.5635C91.8435 37.8839 91.7416 38.2771 91.7125 38.6266ZM99.895 43.0829V41.0004H101.948V43.0829H99.895ZM108.296 43.2576C107.16 43.2576 106.286 42.8936 105.66 42.2528C104.99 41.5683 104.684 40.6072 104.684 39.4276C104.684 38.3062 105.004 37.345 105.66 36.646C106.301 35.9761 107.174 35.6266 108.281 35.6266C109.432 35.6266 110.407 36.0635 111.019 36.8353C111.602 37.5635 111.893 38.6703 111.849 39.9227H106.432C106.461 41.2771 107.072 41.9615 108.281 41.9615C109.344 41.9615 109.898 41.5101 110.058 40.6217L111.733 40.7528C111.354 42.4275 110.16 43.2576 108.296 43.2576ZM106.446 38.6266H110.087C110.058 38.2188 109.927 37.7965 109.679 37.4907C109.359 37.0975 108.922 36.9227 108.281 36.9227C107.597 36.9227 107.102 37.1557 106.81 37.5635C106.577 37.8839 106.475 38.2771 106.446 38.6266ZM117.208 43.1557C115.606 43.1557 114.732 42.6169 114.732 41.1314V37.1848H113.247V35.8014H114.732V33.7771H116.421V35.8014H118.46V37.1848H116.421V40.9712C116.421 41.5392 116.742 41.6848 117.426 41.6848C117.717 41.6848 118.067 41.6411 118.416 41.5538L118.446 43.0246C118.096 43.112 117.601 43.1557 117.208 43.1557ZM120.55 43.0829V32.8887H122.269V36.879C122.662 36.0344 123.463 35.6266 124.439 35.6266C125.385 35.6266 126.011 35.845 126.521 36.3984C127.104 37.0101 127.118 37.8256 127.118 38.6848V43.0829H125.371V38.7722C125.371 38.1023 125.341 37.6946 124.977 37.345C124.642 37.0101 124.293 36.981 123.871 36.981C123.244 36.981 122.283 37.3013 122.283 39.0344V43.0829H120.55Z" fill="#0080BC"/>
</svg>
