<svg width="633" height="89" viewBox="0 0 633 89" fill="none" xmlns="http://www.w3.org/2000/svg">
<path fill-rule="evenodd" clip-rule="evenodd" d="M0 4C0 1.79086 1.79083 0 4 0H629C631.209 0 633 1.79086 633 4V65C633 67.2091 631.209 69 629 69H52.1569C51.096 69 50.0786 69.4214 49.3284 70.1716L31.8284 87.6716C29.3086 90.1914 25 88.4068 25 84.8431V73C25 70.7909 23.2092 69 21 69H4C1.79083 69 0 67.2091 0 65V4Z" fill="#F6F6F6"/>
<path d="M32.32 43.288C28.264 43.288 26.128 40.384 26.128 34.768C26.128 29.776 28.12 26.272 32.32 26.272C36.544 26.272 38.56 29.8 38.56 34.768C38.56 39.808 36.544 43.288 32.32 43.288ZM29.176 34.768C29.176 36.136 29.248 37.288 29.44 38.2L33.856 29.032C33.448 28.792 32.944 28.672 32.32 28.672C31.192 28.672 30.448 29.08 29.968 29.896C29.344 30.88 29.176 32.512 29.176 34.768ZM30.664 40.48C31.096 40.792 31.624 40.936 32.32 40.936C33.304 40.936 34 40.624 34.48 40C35.272 39.016 35.488 37.24 35.488 34.768C35.488 33.28 35.416 32.056 35.176 31.12L30.664 40.48ZM49.3199 40L46.1999 36.88L43.0799 40L41.4719 38.44L44.6159 35.296L41.4719 32.152L43.0559 30.568L46.1999 33.712L49.3679 30.568L50.9279 32.152L47.7839 35.296L50.9279 38.44L49.3199 40ZM60.07 43.288C56.014 43.288 53.878 40.384 53.878 34.768C53.878 29.776 55.87 26.272 60.07 26.272C64.294 26.272 66.31 29.8 66.31 34.768C66.31 39.808 64.294 43.288 60.07 43.288ZM56.926 34.768C56.926 36.136 56.998 37.288 57.19 38.2L61.606 29.032C61.198 28.792 60.694 28.672 60.07 28.672C58.942 28.672 58.198 29.08 57.718 29.896C57.094 30.88 56.926 32.512 56.926 34.768ZM58.414 40.48C58.846 40.792 59.374 40.936 60.07 40.936C61.054 40.936 61.75 40.624 62.23 40C63.022 39.016 63.238 37.24 63.238 34.768C63.238 33.28 63.166 32.056 62.926 31.12L58.414 40.48ZM75.6059 43.288C74.0699 43.288 72.7499 42.496 72.0539 41.344V43H69.1979V26.2H72.0539V32.488C72.8459 31.336 74.1659 30.688 75.6779 30.688C78.8699 30.688 81.0539 33.208 81.0539 37C81.0539 40.888 78.7979 43.288 75.6059 43.288ZM71.9819 37.024C71.9819 39.736 72.9659 41.2 74.9579 41.2C75.9419 41.2 76.6619 40.912 77.1179 40.36C77.7179 39.664 77.9339 38.536 77.9339 37C77.9339 34.24 77.1899 32.8 74.9339 32.8C73.9019 32.8 73.1819 33.184 72.7259 33.808C72.1739 34.576 71.9819 35.728 71.9819 37.024ZM89.2028 43.288C85.1468 43.288 83.0108 40.384 83.0108 34.768C83.0108 29.776 85.0028 26.272 89.2028 26.272C93.4268 26.272 95.4428 29.8 95.4428 34.768C95.4428 39.808 93.4268 43.288 89.2028 43.288ZM86.0588 34.768C86.0588 36.136 86.1308 37.288 86.3228 38.2L90.7388 29.032C90.3308 28.792 89.8268 28.672 89.2028 28.672C88.0748 28.672 87.3308 29.08 86.8508 29.896C86.2268 30.88 86.0588 32.512 86.0588 34.768ZM87.5468 40.48C87.9788 40.792 88.5068 40.936 89.2028 40.936C90.1868 40.936 90.8828 40.624 91.3628 40C92.1548 39.016 92.3708 37.24 92.3708 34.768C92.3708 33.28 92.2988 32.056 92.0588 31.12L87.5468 40.48ZM103.707 43.288C100.083 43.288 97.7787 41.368 97.7787 38.248C97.7787 36.016 98.6907 34.648 100.635 34.072C99.2907 33.448 98.4507 32.344 98.4507 30.616C98.4507 28.312 100.035 26.272 103.731 26.272C107.403 26.272 108.963 28.312 108.963 30.616C108.963 32.344 108.099 33.448 106.803 34.048C108.795 34.624 109.635 36.04 109.635 38.248C109.635 41.536 107.115 43.288 103.707 43.288ZM100.683 38.128C100.683 39.904 101.811 41.032 103.707 41.032C105.627 41.032 106.731 39.904 106.731 38.128C106.731 36.448 105.627 35.368 103.707 35.368C101.883 35.368 100.683 36.376 100.683 38.128ZM101.283 30.832C101.283 32.2 102.099 33.16 103.707 33.16C105.291 33.16 106.131 32.2 106.131 30.832C106.131 29.392 105.315 28.528 103.707 28.528C102.051 28.528 101.283 29.416 101.283 30.832ZM117.212 43.288C114.068 43.288 111.788 40.912 111.788 37C111.788 33.208 113.948 30.712 117.164 30.712C118.724 30.712 119.948 31.312 120.764 32.464V26.2H123.596V43H120.764V41.296C120.068 42.616 118.796 43.288 117.212 43.288ZM114.884 37C114.884 39.76 115.532 41.2 117.86 41.2C118.748 41.2 119.444 40.888 119.924 40.336C120.548 39.616 120.836 38.512 120.836 37.024C120.836 34.624 120.188 32.824 117.908 32.824C116.804 32.824 116.06 33.16 115.604 33.808C115.076 34.504 114.884 35.584 114.884 37ZM125.649 43L131.409 26.2H134.697L140.433 43H137.337L135.969 38.584H130.137L128.769 43H125.649ZM130.905 36.064H135.177L133.905 32.008C133.641 31.24 133.281 29.944 133.041 29.032H132.993C132.729 30.064 132.465 30.952 132.153 32.008L130.905 36.064ZM143.715 43C144.075 37.792 146.043 32.56 149.787 28.696H141.747V26.2H152.811V28.696C149.235 32.08 147.051 37.456 146.787 43H143.715ZM161.346 43.288C157.218 43.288 155.034 40.336 155.034 34.576C155.034 29.488 157.074 25.912 161.346 25.912C165.666 25.912 167.73 29.512 167.73 34.576C167.73 39.736 165.666 43.288 161.346 43.288ZM158.154 34.576C158.154 35.992 158.226 37.168 158.418 38.104L162.93 28.72C162.498 28.48 161.994 28.36 161.346 28.36C160.194 28.36 159.45 28.768 158.946 29.608C158.322 30.616 158.154 32.272 158.154 34.576ZM159.666 40.432C160.098 40.744 160.65 40.888 161.346 40.888C162.354 40.888 163.074 40.576 163.554 39.928C164.37 38.92 164.586 37.12 164.586 34.576C164.586 33.064 164.514 31.816 164.274 30.832L159.666 40.432ZM176.111 43.288C171.047 43.288 170.015 38.92 170.015 35.08C170.015 29.632 171.671 25.912 176.471 25.912C179.711 25.912 181.247 27.832 181.583 30.352L178.727 30.76C178.631 29.464 178.031 28.312 176.375 28.312C173.471 28.312 172.847 31.264 172.823 34.264C173.567 32.8 175.055 32.008 176.783 32.008C179.975 32.008 181.991 34.408 181.991 37.6C181.991 40.288 180.431 43.288 176.111 43.288ZM173.183 37.696C173.183 39.328 173.951 40.888 176.063 40.888C178.175 40.888 179.063 39.784 179.063 37.576C179.063 35.608 178.223 34.456 176.183 34.456C174.239 34.456 173.183 35.8 173.183 37.696ZM190.357 43.288C186.661 43.288 184.309 41.344 184.309 38.152C184.309 35.848 185.245 34.48 187.213 33.88C185.845 33.256 184.981 32.104 184.981 30.352C184.981 28 186.613 25.912 190.381 25.912C194.125 25.912 195.733 28 195.733 30.352C195.733 32.104 194.845 33.232 193.501 33.856C195.541 34.432 196.405 35.872 196.405 38.152C196.405 41.512 193.837 43.288 190.357 43.288ZM187.261 38.032C187.261 39.832 188.413 40.984 190.357 40.984C192.325 40.984 193.453 39.832 193.453 38.032C193.453 36.304 192.325 35.2 190.357 35.2C188.485 35.2 187.261 36.232 187.261 38.032ZM187.885 30.568C187.885 31.96 188.725 32.944 190.357 32.944C191.965 32.944 192.829 31.96 192.829 30.568C192.829 29.104 192.013 28.216 190.357 28.216C188.677 28.216 187.885 29.128 187.885 30.568ZM205.707 43.288C204.171 43.288 202.851 42.496 202.155 41.344V43H199.299V26.2H202.155V32.488C202.947 31.336 204.267 30.688 205.779 30.688C208.971 30.688 211.155 33.208 211.155 37C211.155 40.888 208.899 43.288 205.707 43.288ZM202.083 37.024C202.083 39.736 203.067 41.2 205.059 41.2C206.043 41.2 206.763 40.912 207.219 40.36C207.819 39.664 208.035 38.536 208.035 37C208.035 34.24 207.291 32.8 205.035 32.8C204.003 32.8 203.283 33.184 202.827 33.808C202.275 34.576 202.083 35.728 202.083 37.024ZM215.152 43C215.512 37.792 217.48 32.56 221.224 28.696H213.184V26.2H224.248V28.696C220.672 32.08 218.488 37.456 218.224 43H215.152ZM232.495 43.288C228.679 43.288 226.639 40.984 226.591 37.792L229.543 37.36C229.519 39.544 230.575 40.888 232.495 40.888C234.319 40.888 235.423 39.928 235.423 38.128C235.423 36.136 234.007 35.488 232.615 35.488H231.031V32.944H232.303C233.479 32.944 234.823 32.344 234.823 30.64C234.823 29.224 234.007 28.288 232.471 28.288C230.263 28.288 229.783 30.088 229.831 31.432L226.831 30.976C226.975 27.856 229.231 25.912 232.471 25.912C235.423 25.912 237.775 27.496 237.775 30.592C237.775 32.056 236.983 33.304 235.687 33.976C237.511 34.6 238.447 36.256 238.447 38.104C238.447 41.536 235.927 43.288 232.495 43.288ZM239.859 43L245.619 26.2H248.907L254.643 43H251.547L250.179 38.584H244.347L242.979 43H239.859ZM245.115 36.064H249.387L248.115 32.008C247.851 31.24 247.491 29.944 247.251 29.032H247.203C246.939 30.064 246.675 30.952 246.363 32.008L245.115 36.064ZM261.88 43.288C258.568 43.288 256.216 41.296 256.144 37.936L259.072 37.48C259.072 39.688 260.248 40.888 261.928 40.888C264.016 40.888 265.048 39.664 265.048 37.48C265.048 35.416 263.8 34.432 261.952 34.432C260.752 34.432 259.816 34.864 259.192 35.68L256.552 35.248L257.872 26.2H267.112V28.696H260.296L259.672 33.064C260.368 32.344 261.376 31.936 262.672 31.936C265.336 31.936 267.976 33.64 267.976 37.576C267.976 40.768 265.936 43.288 261.88 43.288ZM272.293 43C272.653 37.792 274.621 32.56 278.365 28.696H270.325V26.2H281.389V28.696C277.813 32.08 275.629 37.456 275.365 43H272.293ZM289.372 43.288C286.156 43.288 284.5 41.392 284.188 38.728L286.972 38.248C287.116 39.664 287.764 40.888 289.492 40.888C291.82 40.888 292.876 38.872 292.948 35.008C292.084 36.4 290.812 37.288 289.06 37.288C285.868 37.288 283.78 34.936 283.78 31.672C283.78 29.032 285.316 25.912 289.684 25.912C294.652 25.912 295.756 30.424 295.756 34.12C295.756 39.544 294.148 43.288 289.372 43.288ZM286.708 31.72C286.708 33.712 287.548 34.84 289.588 34.84C291.532 34.84 292.588 33.448 292.588 31.552C292.588 29.872 291.82 28.336 289.708 28.336C287.572 28.336 286.708 29.44 286.708 31.72ZM298.794 43V26.2H304.314C307.434 26.2 310.866 26.704 310.866 30.76C310.866 32.488 310.002 33.736 308.634 34.384C310.41 35.056 311.442 36.304 311.442 38.344C311.442 42.544 308.082 43 304.578 43H298.794ZM301.77 40.6H304.482C306.81 40.6 308.538 40.528 308.538 38.2C308.538 35.68 306.426 35.632 304.602 35.632H301.77V40.6ZM301.77 33.232H304.122C306.186 33.232 307.938 33.184 307.938 30.928C307.938 28.696 306.162 28.624 304.146 28.624H301.77V33.232ZM318.704 43.288C315.56 43.288 313.28 40.912 313.28 37C313.28 33.208 315.44 30.712 318.656 30.712C320.216 30.712 321.44 31.312 322.256 32.464V26.2H325.088V43H322.256V41.296C321.56 42.616 320.288 43.288 318.704 43.288ZM316.376 37C316.376 39.76 317.024 41.2 319.352 41.2C320.24 41.2 320.936 40.888 321.416 40.336C322.04 39.616 322.328 38.512 322.328 37.024C322.328 34.624 321.68 32.824 319.4 32.824C318.296 32.824 317.552 33.16 317.096 33.808C316.568 34.504 316.376 35.584 316.376 37ZM333.693 43.288C330.381 43.288 328.029 41.296 327.957 37.936L330.885 37.48C330.885 39.688 332.061 40.888 333.741 40.888C335.829 40.888 336.861 39.664 336.861 37.48C336.861 35.416 335.613 34.432 333.765 34.432C332.565 34.432 331.629 34.864 331.005 35.68L328.365 35.248L329.685 26.2H338.925V28.696H332.109L331.485 33.064C332.181 32.344 333.189 31.936 334.485 31.936C337.149 31.936 339.789 33.64 339.789 37.576C339.789 40.768 337.749 43.288 333.693 43.288ZM343.074 43V26.2H354.21V28.696H346.074V33.28H353.346V35.752H346.074V40.504H354.21V43H343.074ZM362.764 43.288C359.068 43.288 356.716 41.344 356.716 38.152C356.716 35.848 357.652 34.48 359.62 33.88C358.252 33.256 357.388 32.104 357.388 30.352C357.388 28 359.02 25.912 362.788 25.912C366.532 25.912 368.14 28 368.14 30.352C368.14 32.104 367.252 33.232 365.908 33.856C367.948 34.432 368.812 35.872 368.812 38.152C368.812 41.512 366.244 43.288 362.764 43.288ZM359.668 38.032C359.668 39.832 360.82 40.984 362.764 40.984C364.732 40.984 365.86 39.832 365.86 38.032C365.86 36.304 364.732 35.2 362.764 35.2C360.892 35.2 359.668 36.232 359.668 38.032ZM360.292 30.568C360.292 31.96 361.132 32.944 362.764 32.944C364.372 32.944 365.236 31.96 365.236 30.568C365.236 29.104 364.42 28.216 362.764 28.216C361.084 28.216 360.292 29.128 360.292 30.568ZM375.498 43.288C373.29 43.288 371.346 42.112 371.346 39.688C371.346 37.12 373.482 36.4 375.666 35.992L379.242 35.32C379.242 34.528 379.242 33.952 378.906 33.472C378.57 33.016 377.97 32.8 376.986 32.8C375.33 32.8 374.562 33.376 374.538 35.056L371.754 34.696C371.826 33.28 372.354 32.272 373.266 31.648C374.154 31.024 375.474 30.712 377.154 30.712C380.25 30.712 382.002 32.056 382.002 34.672V40.84C382.002 41.632 382.17 42.328 382.41 42.904V43H379.554C379.458 42.544 379.386 42.04 379.386 41.296C378.762 42.472 377.466 43.288 375.498 43.288ZM374.25 39.664C374.25 40.696 375.066 41.2 376.098 41.2C378.138 41.2 379.242 40.168 379.242 38.392V37.264L376.122 37.936C375.018 38.2 374.25 38.56 374.25 39.664ZM390.957 43.288C387.333 43.288 385.029 41.368 385.029 38.248C385.029 36.016 385.941 34.648 387.885 34.072C386.541 33.448 385.701 32.344 385.701 30.616C385.701 28.312 387.285 26.272 390.981 26.272C394.653 26.272 396.213 28.312 396.213 30.616C396.213 32.344 395.349 33.448 394.053 34.048C396.045 34.624 396.885 36.04 396.885 38.248C396.885 41.536 394.365 43.288 390.957 43.288ZM387.933 38.128C387.933 39.904 389.061 41.032 390.957 41.032C392.877 41.032 393.981 39.904 393.981 38.128C393.981 36.448 392.877 35.368 390.957 35.368C389.133 35.368 387.933 36.376 387.933 38.128ZM388.533 30.832C388.533 32.2 389.349 33.16 390.957 33.16C392.541 33.16 393.381 32.2 393.381 30.832C393.381 29.392 392.565 28.528 390.957 28.528C389.301 28.528 388.533 29.416 388.533 30.832ZM399.206 43C399.422 38.968 401.39 37 404.102 35.296C405.926 34.144 407.678 33.232 407.678 31.144C407.678 29.632 406.958 28.648 405.374 28.648C403.07 28.648 402.758 30.568 402.782 31.96L399.806 31.528C399.758 29.008 401.222 26.272 405.47 26.272C408.59 26.272 410.63 28.096 410.63 31.216C410.63 34.072 408.854 35.464 406.382 37C404.582 38.104 403.094 38.992 402.686 40.552H410.654V43H399.206ZM418.862 43.288C415.718 43.288 414.086 41.416 413.798 38.824L416.51 38.344C416.654 39.736 417.302 40.936 418.982 40.936C421.262 40.936 422.294 38.944 422.366 35.152C421.526 36.544 420.278 37.408 418.55 37.408C415.43 37.408 413.39 35.104 413.39 31.912C413.39 29.344 414.902 26.272 419.174 26.272C424.022 26.272 425.102 30.688 425.102 34.312C425.102 39.616 423.542 43.288 418.862 43.288ZM416.246 31.96C416.246 33.904 417.086 35.008 419.078 35.008C420.974 35.008 422.006 33.664 422.006 31.792C422.006 30.16 421.262 28.648 419.198 28.648C417.11 28.648 416.246 29.728 416.246 31.96ZM433.687 43.288C429.631 43.288 427.495 40.384 427.495 34.768C427.495 29.776 429.487 26.272 433.687 26.272C437.911 26.272 439.927 29.8 439.927 34.768C439.927 39.808 437.911 43.288 433.687 43.288ZM430.543 34.768C430.543 36.136 430.615 37.288 430.807 38.2L435.223 29.032C434.815 28.792 434.311 28.672 433.687 28.672C432.559 28.672 431.815 29.08 431.335 29.896C430.711 30.88 430.543 32.512 430.543 34.768ZM432.031 40.48C432.463 40.792 432.991 40.936 433.687 40.936C434.671 40.936 435.367 40.624 435.847 40C436.639 39.016 436.855 37.24 436.855 34.768C436.855 33.28 436.783 32.056 436.543 31.12L432.031 40.48ZM444.975 43V33.28H442.647V31H444.975V29.296C444.975 27.208 446.199 26.08 449.007 26.08C449.775 26.08 450.543 26.176 450.975 26.248L450.927 28.552C450.351 28.456 449.775 28.408 449.367 28.408C448.263 28.408 447.807 28.624 447.807 29.416V31H451.095V33.28H447.807V43H444.975ZM453.495 33.28V31H455.823V29.296C455.823 27.208 457.047 26.08 459.855 26.08C460.623 26.08 461.391 26.176 461.823 26.248L461.775 28.552C461.199 28.456 460.623 28.408 460.215 28.408C459.111 28.408 458.655 28.624 458.655 29.416V31H461.943V33.28H458.655V43H455.823V33.28H453.495ZM470.41 43.288C466.786 43.288 464.482 41.368 464.482 38.248C464.482 36.016 465.394 34.648 467.338 34.072C465.994 33.448 465.154 32.344 465.154 30.616C465.154 28.312 466.738 26.272 470.434 26.272C474.106 26.272 475.666 28.312 475.666 30.616C475.666 32.344 474.802 33.448 473.506 34.048C475.498 34.624 476.338 36.04 476.338 38.248C476.338 41.536 473.818 43.288 470.41 43.288ZM467.386 38.128C467.386 39.904 468.514 41.032 470.41 41.032C472.33 41.032 473.434 39.904 473.434 38.128C473.434 36.448 472.33 35.368 470.41 35.368C468.586 35.368 467.386 36.376 467.386 38.128ZM467.986 30.832C467.986 32.2 468.802 33.16 470.41 33.16C471.994 33.16 472.834 32.2 472.834 30.832C472.834 29.392 472.018 28.528 470.41 28.528C468.754 28.528 467.986 29.416 467.986 30.832ZM483.123 43.288C480.915 43.288 478.971 42.112 478.971 39.688C478.971 37.12 481.107 36.4 483.291 35.992L486.867 35.32C486.867 34.528 486.867 33.952 486.531 33.472C486.195 33.016 485.595 32.8 484.611 32.8C482.955 32.8 482.187 33.376 482.163 35.056L479.379 34.696C479.451 33.28 479.979 32.272 480.891 31.648C481.779 31.024 483.099 30.712 484.779 30.712C487.875 30.712 489.627 32.056 489.627 34.672V40.84C489.627 41.632 489.795 42.328 490.035 42.904V43H487.179C487.083 42.544 487.011 42.04 487.011 41.296C486.387 42.472 485.091 43.288 483.123 43.288ZM481.875 39.664C481.875 40.696 482.691 41.2 483.723 41.2C485.763 41.2 486.867 40.168 486.867 38.392V37.264L483.747 37.936C482.643 38.2 481.875 38.56 481.875 39.664ZM495.272 43V33.28H492.944V31H495.272V29.296C495.272 27.208 496.496 26.08 499.304 26.08C500.072 26.08 500.84 26.176 501.272 26.248L501.224 28.552C500.648 28.456 500.072 28.408 499.664 28.408C498.56 28.408 498.104 28.624 498.104 29.416V31H501.392V33.28H498.104V43H495.272ZM508.993 43.288C505.849 43.288 503.569 40.912 503.569 37C503.569 33.208 505.729 30.712 508.945 30.712C510.505 30.712 511.729 31.312 512.545 32.464V26.2H515.377V43H512.545V41.296C511.849 42.616 510.577 43.288 508.993 43.288ZM506.665 37C506.665 39.76 507.313 41.2 509.641 41.2C510.529 41.2 511.225 40.888 511.705 40.336C512.329 39.616 512.617 38.512 512.617 37.024C512.617 34.624 511.969 32.824 509.689 32.824C508.585 32.824 507.841 33.16 507.385 33.808C506.857 34.504 506.665 35.584 506.665 37ZM524.126 43.288C520.406 43.288 518.414 41.032 518.366 37.912L521.246 37.48C521.222 39.616 522.254 40.936 524.126 40.936C525.926 40.936 527.006 40 527.006 38.224C527.006 36.28 525.614 35.656 524.246 35.656H522.71V33.16H523.958C525.11 33.16 526.406 32.584 526.406 30.904C526.406 29.512 525.614 28.6 524.102 28.6C521.942 28.6 521.486 30.376 521.534 31.672L518.582 31.24C518.726 28.192 520.934 26.272 524.102 26.272C527.006 26.272 529.31 27.832 529.31 30.856C529.31 32.296 528.542 33.496 527.27 34.168C529.046 34.768 529.958 36.4 529.958 38.2C529.958 41.56 527.486 43.288 524.126 43.288ZM534.371 43C534.707 37.888 536.651 32.776 540.299 29.008H532.451V26.56H543.275V29.008C539.771 32.32 537.635 37.576 537.371 43H534.371ZM552.676 43.288C551.14 43.288 549.82 42.496 549.124 41.344V43H546.268V26.2H549.124V32.488C549.916 31.336 551.236 30.688 552.748 30.688C555.94 30.688 558.124 33.208 558.124 37C558.124 40.888 555.868 43.288 552.676 43.288ZM549.052 37.024C549.052 39.736 550.036 41.2 552.028 41.2C553.012 41.2 553.732 40.912 554.188 40.36C554.788 39.664 555.004 38.536 555.004 37C555.004 34.24 554.26 32.8 552.004 32.8C550.972 32.8 550.252 33.184 549.796 33.808C549.244 34.576 549.052 35.728 549.052 37.024ZM566.345 43.288C562.529 43.288 560.273 40.936 560.273 37C560.273 33.304 562.529 30.712 566.345 30.712C569.537 30.712 571.265 32.512 571.745 34.96L569.057 35.44C568.769 34.096 568.169 32.872 566.345 32.872C565.241 32.872 564.545 33.208 564.089 33.808C563.561 34.528 563.369 35.632 563.369 37C563.369 39.592 563.969 41.128 566.345 41.128C567.881 41.128 568.697 40.384 569.057 38.896L571.793 39.184C571.409 41.608 569.345 43.288 566.345 43.288ZM579.933 43.288C576.117 43.288 574.077 40.984 574.029 37.792L576.981 37.36C576.957 39.544 578.013 40.888 579.933 40.888C581.757 40.888 582.861 39.928 582.861 38.128C582.861 36.136 581.445 35.488 580.053 35.488H578.469V32.944H579.741C580.917 32.944 582.261 32.344 582.261 30.64C582.261 29.224 581.445 28.288 579.909 28.288C577.701 28.288 577.221 30.088 577.269 31.432L574.269 30.976C574.413 27.856 576.669 25.912 579.909 25.912C582.861 25.912 585.213 27.496 585.213 30.592C585.213 32.056 584.421 33.304 583.125 33.976C584.949 34.6 585.885 36.256 585.885 38.104C585.885 41.536 583.365 43.288 579.933 43.288ZM588.064 43C588.304 38.872 590.296 36.856 593.08 35.128C594.952 33.952 596.728 33.016 596.728 30.88C596.728 29.344 596.008 28.336 594.376 28.336C592.024 28.336 591.712 30.304 591.736 31.72L588.688 31.264C588.64 28.696 590.128 25.912 594.472 25.912C597.664 25.912 599.752 27.76 599.752 30.952C599.752 33.88 597.928 35.296 595.408 36.856C593.56 38.008 592.072 38.92 591.64 40.504H599.776V43H588.064ZM601.453 43L607.213 26.2H610.501L616.237 43H613.141L611.773 38.584H605.941L604.573 43H601.453ZM606.709 36.064H610.981L609.709 32.008C609.445 31.24 609.085 29.944 608.845 29.032H608.797C608.533 30.064 608.269 30.952 607.957 32.008L606.709 36.064Z" fill="#4A5C63"/>
</svg>
