<svg version="1.1" id="L9" xmlns="http://www.w3.org/2000/svg" xmlns:xlink="http://www.w3.org/1999/xlink" viewBox="0 0 58 58" enable-background="new 0 0 0 0" xml:space="preserve">
  <path fill-rule="evenodd" fill="#90C4DB"
        d="M12.7462 53.0169C18.5892 56.9712 25.6734 58.6599 32.6719 57.7665C39.6704 56.8732 46.1033 53.4592 50.7656 48.1639C55.428 42.8686 58 36.0553 58 29C58 26.4167 55.9059 24.3225 53.3226 24.3225C50.7393 24.3225 48.6452 26.4167 48.6452 29C48.6452 33.7794 46.9028 38.3949 43.7445 41.982C40.5861 45.5691 36.2284 47.8818 31.4874 48.487C26.7465 49.0921 21.9475 47.9482 17.9894 45.2695C14.0312 42.5907 11.1853 38.5609 9.98477 33.9347C8.7842 29.3086 9.31129 24.4034 11.4673 20.1379C13.6233 15.8725 17.2604 12.5393 21.6973 10.7626C26.1342 8.98594 31.0667 8.88771 35.5708 10.4863C38.0053 11.3503 40.6793 10.0772 41.5433 7.64275C42.4073 5.20826 41.1342 2.53429 38.6997 1.67025C32.0508 -0.689569 24.7696 -0.544553 18.2198 2.07812C11.6701 4.7008 6.30109 9.62125 3.11839 15.9179C-0.0643035 22.2146 -0.842384 29.4555 0.929882 36.2846C2.70215 43.1137 6.90319 49.0625 12.7462 53.0169Z">
    <animateTransform attributeName="transform" attributeType="XML" type="rotate" dur="1.5s" from="0 29 29" to="360 29 29" repeatCount="indefinite" />
  </path>
</svg>