<svg width="107" height="107" xmlns="http://www.w3.org/2000/svg">
  <g fill-rule="nonzero" transform="translate(0 -1)" fill="none">
    <circle fill="#F5B300" cx="53.2256" cy="54.5688" r="53.2256"/>
    <path d="M38.7858 27.3684c1.847.5037 3.694.8395 5.5409 1.3432 1.8469.5037 3.6938.8395 5.5408 1.3432.5037.168.6716 0 .8395-.5037.6716-2.8544 1.3432-5.5408 2.0149-8.3952.1679-.5037.3358-.6716.8395-.5037 1.679.5037 3.1902.8395 4.8692 1.1753.5037.168.5037.3358.3358.6716-.6716 2.6865-1.3432 5.5409-2.0148 8.2273 0 .168 0 .3358-.168.6716 1.3433.3359 2.8544.6717 4.1976 1.0075.168 0 .3359-.3358.5038-.5037.5037-2.1828 1.0074-4.1976 1.679-6.3804l.5037-2.0148c0-.3358.168-.5038.5037-.3358 1.679.5037 3.3581.8395 5.205 1.3432.168 0 .168.1679.3359.1679-.5038 2.1827-1.0075 4.1976-1.5112 6.2124-.1679.8396-.3358 1.679-.6716 2.5186-.1679.5037 0 .6716.5037.8395l5.5408 2.5186c1.679 1.0074 3.1902 2.3506 4.3656 4.0297 1.511 2.5185 1.679 5.205 1.0074 7.8915-.5037 1.8469-1.1754 3.526-2.5186 4.8692-1.0074 1.0074-2.3506 1.679-3.6939 2.1827-.1679 0-.3358.168-.6716.168.6716.5036 1.3432.8395 2.0149 1.3432 2.0148 1.5111 3.358 3.358 4.0297 5.7087.3358 1.847.1679 3.8618-.3359 5.7087-.6716 2.3507-1.511 4.3655-3.0222 6.2125-1.847 2.1827-4.1976 3.358-6.884 3.6939-3.526.5037-6.8842.1679-10.2422-.3358-.5037-.168-.8396 0-1.0075.5037-.6716 2.6864-1.3432 5.5408-2.0148 8.2273-.168.6716-.168.8395-1.0074.5037-1.5112-.3358-3.1902-.8395-4.7013-1.1753-.5038-.168-.5038-.3359-.3358-.6717.6716-2.8543 1.3432-5.7087 2.1827-8.3952 0-.3358.168-.5037-.1679-.6716-1.3432-.3358-2.6865-.6716-4.1976-1.0074-.3358 1.5111-.8395 3.0223-1.1753 4.5334-.3358 1.5111-.8395 3.0223-1.1754 4.5334-.1679.3358-.1679.5037-.6716.3358-1.679-.5037-3.358-.8395-5.037-1.1753-.5038-.168-.5038-.3358-.3359-.6716.6716-2.8544 1.3432-5.7088 2.1828-8.3952 0-.168.1679-.3358.1679-.6716-3.8618-1.0075-7.7236-2.0149-11.7533-3.0223.3358-.6716.5037-1.1753.8395-1.847.6716-1.511 1.3432-3.0222 1.847-4.3655.1678-.5037.3357-.5037.8395-.5037 1.1753.3358 2.5185.6716 3.6938.8396 1.3433.3358 2.3507-.3359 2.5186-1.5112 2.1828-8.563 4.3655-17.1262 6.3804-25.8572.3358-1.3432-.5038-2.8544-2.0149-3.358-1.5111-.5038-3.0223-.8396-4.3655-1.1754-.3358 0-.5037-.168-.3358-.5037.5037-1.847 1.0074-3.8618 1.5111-5.7088-.6716.5038-.6716.5038-.5037.3359zm8.5631 41.4722c.168 0 .3358.168.3358.168 2.6865.6716 5.5409 1.511 8.3952 1.679 2.0149.1679 3.8618.1679 5.7088-.5037 3.1901-1.0075 4.5334-5.205 2.6864-7.8915-.8395-1.3432-2.1827-2.1828-3.526-3.0223-3.0222-1.679-6.5482-2.3506-9.9063-3.0223-.5037-.1679-.5037 0-.6716.5038-.3358 1.679-.8395 3.1901-1.1753 4.8692-.6716 2.3506-1.1754 4.7013-1.847 7.2198zm14.104-17.1262c.3358 0 1.1753-.1679 1.847-.3358 3.19-.6716 4.8691-4.3655 3.19-7.2198-.8394-1.5112-2.3506-2.5186-3.8617-3.1902-2.3507-1.0074-4.7013-1.5112-7.2199-2.1828-.5037-.1679-.6716 0-.8395.5037-.8395 3.526-1.679 6.8841-2.6865 10.41-.1679.3359 0 .5038.3358.6717.6717.1679 1.1754.3358 1.847.5037 2.5185.3358 4.7013.8395 7.3878.8395z" fill="#FFF"/>
  </g>
</svg>