<svg width="108" height="107" xmlns="http://www.w3.org/2000/svg">
  <g transform="translate(0 -1)" fill-rule="nonzero" fill="none">
    <circle fill="#F8BF1A" cx="54.0651" cy="54.4009" r="53.2256"/>
    <path d="M24.514 84.2878v-14.104h8.2273V37.9464H24.514V24.3461h34.4203c2.3507 0 4.7013.6716 6.884 1.5111 4.3656 1.679 8.2274 4.1976 11.2496 7.8915 2.6865 3.1902 4.5334 6.884 5.5409 11.0817 1.679 7.052 1.679 14.2718-.3358 21.3238-2.6865 9.2347-8.3952 15.4471-18.1337 17.6299-1.679.3358-3.526.5037-5.205.6716h-33.077c-.5038-.1679-.8396-.1679-1.3433-.1679zm25.0177-14.104c1.847 0 3.6939.168 5.5408 0 2.3507-.1678 4.5334-1.0074 6.0446-3.0222 1.3432-1.679 2.5185-3.526 3.1901-5.5408 1.3433-4.5334.8396-9.0668-.1679-13.6003-.5037-2.6864-1.847-5.205-3.526-7.2198-1.0074-1.1754-2.3506-2.5186-3.8617-2.6865-2.3507-.5037-4.8693-.1679-7.22-.1679v32.2376z" fill="#FFF"/>
  </g>
</svg>