<svg width="64" height="65" xmlns="http://www.w3.org/2000/svg">
  <g fill-rule="nonzero" fill="none">
    <path d="M32.2 64.1C14.6 64 .5 49.9.6 32.4.6 14.8 14.9.7 32.4.8 50 .9 64.1 15.1 64 32.6c-.2 17.5-14.4 31.6-31.8 31.5zm28.7-31.6c0-15.9-12.8-28.7-28.7-28.7-15.8 0-28.6 12.8-28.6 28.6 0 15.9 12.8 28.7 28.7 28.7 15.8 0 28.6-12.8 28.6-28.6z" fill="silver"/>
    <path d="M56.6 32.5C56.4 46 45.5 56.9 32.1 56.8 18.5 56.6 7.7 45.6 7.9 32.2 8.1 18.7 19 8 32.3 8.1c13.5.1 24.3 11 24.3 24.4zm-25.9 8.7v-.3c.7-2.7 1.3-5.3 2-8 .1-.2.3-.5.6-.6.7-.3 1.4-.6 2.1-.8 1.6-.4 2.5-1.3 2.7-2.9.1-.7.4-1.4.6-2.2-1.7.7-3.2 1.3-4.8 1.9C35 24 36 20 37.1 15.8H28c-.6 0-.8.2-1 .8l-4.2 15.6c-.1.3-.4.6-.6.7-.9.4-1.9.7-2.8 1.1-.2.1-.5.2-.5.3-.4 1.3-.8 2.7-1.3 4.2 1.4-.6 2.6-1.1 4-1.6-.9 3.5-1.8 6.9-2.7 10.3h25.8c.5 0 .7-.1.8-.6.2-1 .5-2 .8-2.9.2-.7.3-1.4.5-2.2-5.4-.1-10.7-.2-16.1-.3z" fill="silver"/>
    <path d="M30.7 41.2c5.4.1 10.7.2 16.1.4-.2.8-.4 1.5-.5 2.2-.3 1-.6 1.9-.8 2.9-.1.5-.3.6-.8.6H18.9c.9-3.5 1.8-6.8 2.7-10.3-1.4.5-2.6 1-4 1.6.4-1.5.8-2.8 1.3-4.2 0-.2.3-.3.5-.3.9-.4 1.9-.7 2.8-1.1.3-.1.6-.4.6-.7L27 16.7c.1-.6.3-.8 1-.8h9.1C36 20 35 24.1 33.9 28.4c1.6-.7 3.1-1.3 4.8-1.9-.2.8-.5 1.5-.6 2.2-.2 1.6-1.1 2.5-2.7 2.9-.7.2-1.4.5-2.1.8-.2.1-.5.4-.6.6-.7 2.7-1.4 5.3-2 8v.2z" fill="#FFF"/>
  </g>
</svg>