<svg width="101" height="100" viewBox="0 0 101 100" fill="none" xmlns="http://www.w3.org/2000/svg">
<path d="M50.9888 100C78.603 100 100.989 77.6142 100.989 50C100.989 22.3858 78.603 0 50.9888 0C23.3745 0 0.98877 22.3858 0.98877 50C0.98877 77.6142 23.3745 100 50.9888 100Z" fill="#FF0420"/>
<path d="M36.4088 63.28C33.4288 63.28 30.9888 62.58 29.0888 61.18C27.2088 59.76 26.2688 57.72 26.2688 55.1C26.2688 54.54 26.3288 53.88 26.4488 53.08C26.7688 51.28 27.2288 49.12 27.8288 46.58C29.5288 39.7 33.9288 36.26 41.0088 36.26C42.9288 36.26 44.6688 36.58 46.1888 37.24C47.7088 37.86 48.9088 38.82 49.7888 40.1C50.6688 41.36 51.1088 42.86 51.1088 44.6C51.1088 45.12 51.0488 45.78 50.9288 46.58C50.5488 48.8 50.1088 50.98 49.5688 53.08C48.6888 56.5 47.1888 59.08 45.0288 60.78C42.8888 62.46 40.0088 63.28 36.4088 63.28ZM36.9488 57.88C38.3488 57.88 39.5288 57.46 40.5088 56.64C41.5088 55.82 42.2288 54.56 42.6488 52.84C43.2288 50.48 43.6688 48.44 43.9688 46.68C44.0688 46.16 44.1288 45.62 44.1288 45.06C44.1288 42.78 42.9488 41.64 40.5688 41.64C39.1688 41.64 37.9688 42.06 36.9688 42.88C35.9888 43.7 35.2888 44.96 34.8688 46.68C34.4088 48.36 33.9688 50.4 33.5088 52.84C33.4088 53.34 33.3488 53.86 33.3488 54.42C33.3288 56.74 34.5488 57.88 36.9488 57.88Z" fill="white"/>
<path d="M52.8487 62.92C52.5687 62.92 52.3687 62.84 52.2087 62.66C52.0887 62.46 52.0487 62.24 52.0887 61.98L57.2687 37.58C57.3087 37.3 57.4487 37.08 57.6887 36.9C57.9087 36.72 58.1487 36.64 58.4087 36.64H68.3887C71.1687 36.64 73.3887 37.22 75.0687 38.36C76.7687 39.52 77.6287 41.18 77.6287 43.36C77.6287 43.98 77.5487 44.64 77.4087 45.32C76.7887 48.2 75.5287 50.32 73.6087 51.7C71.7287 53.08 69.1487 53.76 65.8687 53.76H60.8087L59.0887 61.98C59.0287 62.26 58.9087 62.48 58.6687 62.66C58.4487 62.84 58.2087 62.92 57.9487 62.92H52.8487ZM66.1287 48.58C67.1887 48.58 68.0887 48.3 68.8687 47.72C69.6687 47.14 70.1887 46.32 70.4487 45.24C70.5287 44.82 70.5687 44.44 70.5687 44.12C70.5687 43.4 70.3487 42.84 69.9287 42.46C69.5087 42.06 68.7687 41.86 67.7487 41.86H63.2487L61.8287 48.58H66.1287Z" fill="white"/>
</svg>
