<svg width="101" height="100" viewBox="0 0 101 100" fill="none" xmlns="http://www.w3.org/2000/svg">
<rect x="0.98877" width="100" height="100" rx="50" fill="black"/>
<g clip-path="url(#clip0_86_490)">
<path d="M28.7207 63.6881C29.119 63.2878 29.6666 63.0542 30.2475 63.0542H82.9213C83.8839 63.0542 84.3652 64.222 83.6847 64.906L73.2794 75.366C72.8811 75.7664 72.3335 76 71.7526 76H19.0788C18.1162 76 17.635 74.8322 18.3154 74.1482L28.7207 63.6881Z" fill="url(#paint0_linear_86_490)"/>
<path d="M28.7206 24.6339C29.1355 24.2336 29.6831 24 30.2473 24H82.9212C83.8838 24 84.365 25.1678 83.6846 25.8518L73.2793 36.3118C72.881 36.7122 72.3333 36.9458 71.7525 36.9458H19.0786C18.1161 36.9458 17.6348 35.778 18.3152 35.094L28.7206 24.6339Z" fill="url(#paint1_linear_86_490)"/>
<path d="M73.2794 44.0359C72.8811 43.6355 72.3335 43.402 71.7526 43.402H19.0788C18.1162 43.402 17.635 44.5698 18.3154 45.2538L28.7207 55.7138C29.119 56.1142 29.6666 56.3478 30.2475 56.3478H82.9213C83.8839 56.3478 84.3652 55.18 83.6847 54.496L73.2794 44.0359Z" fill="url(#paint2_linear_86_490)"/>
</g>
<defs>
<linearGradient id="paint0_linear_86_490" x1="77.8895" y1="17.7514" x2="41.1335" y2="87.7855" gradientUnits="userSpaceOnUse">
<stop stop-color="#00FFA3"/>
<stop offset="1" stop-color="#DC1FFF"/>
</linearGradient>
<linearGradient id="paint1_linear_86_490" x1="61.9494" y1="9.38571" x2="25.1935" y2="79.4198" gradientUnits="userSpaceOnUse">
<stop stop-color="#00FFA3"/>
<stop offset="1" stop-color="#DC1FFF"/>
</linearGradient>
<linearGradient id="paint2_linear_86_490" x1="69.8688" y1="13.5419" x2="33.1128" y2="83.576" gradientUnits="userSpaceOnUse">
<stop stop-color="#00FFA3"/>
<stop offset="1" stop-color="#DC1FFF"/>
</linearGradient>
<clipPath id="clip0_86_490">
<rect width="66" height="52" fill="white" transform="translate(18 24)"/>
</clipPath>
</defs>
</svg>
