<svg width="200" height="601" viewBox="0 0 200 601" fill="none" xmlns="http://www.w3.org/2000/svg">
<g clip-path="url(#clip0_717_3498)">
<path d="M-150.914 255.966C-172.393 255.966 -189.806 273.378 -189.806 294.858L-189.806 407.18C-189.806 428.659 -172.393 446.072 -150.914 446.072L129.732 446.072C151.212 446.072 168.625 428.659 168.625 407.18L168.625 295.164L168.625 93.5M-150.913 286.69C-155.425 286.69 -159.081 290.347 -159.081 294.858L-159.081 407.18C-159.081 411.691 -155.425 415.348 -150.913 415.348L129.733 415.348C134.244 415.348 137.901 411.691 137.901 407.18L137.901 351.552L137.901 111C137.901 106.489 134.244 102.832 129.733 102.832" stroke="#CEE1E8" stroke-width="28.402" stroke-miterlimit="10" stroke-linecap="round"/>
</g>
<g clip-path="url(#clip1_717_3498)">
<path d="M-21.744 350.91C-21.744 372.389 -4.33168 389.802 17.1485 389.802L129.47 389.802C150.95 389.802 168.363 372.389 168.363 350.91L168.363 70.2637C168.363 48.7842 150.95 31.3711 129.47 31.3711L17.4544 31.3711L-62.5427 31.3711M8.98029 350.909C8.98029 355.421 12.6371 359.077 17.1485 359.077L129.47 359.078C133.982 359.078 137.638 355.421 137.638 350.909L137.638 70.263C137.638 65.7516 133.982 62.0948 129.47 62.0948L73.8426 62.0948L-62.5427 62.0948C-67.0541 62.0948 -70.7109 65.7516 -70.7109 70.263" stroke="#0080BC" stroke-width="28.402" stroke-miterlimit="10" stroke-linecap="round"/>
</g>
<g clip-path="url(#clip2_717_3498)">
<path d="M-150.914 379.256C-172.393 379.256 -189.806 396.668 -189.806 418.148L-189.806 530.47C-189.806 551.95 -172.393 569.363 -150.914 569.363L129.732 569.363C151.212 569.363 168.625 551.95 168.625 530.47L168.625 418.454L168.625 338.457M-150.913 409.98C-155.425 409.98 -159.081 413.637 -159.081 418.148L-159.081 530.47C-159.081 534.982 -155.425 538.638 -150.913 538.638L129.733 538.638C134.244 538.638 137.901 534.982 137.901 530.47L137.901 474.843L137.901 338.457C137.901 333.946 134.244 330.289 129.733 330.289" stroke="#0080BC" stroke-width="28.402" stroke-miterlimit="10" stroke-linecap="round"/>
</g>
<defs>
<clipPath id="clip0_717_3498">
<rect x="200" y="200" width="200" height="200" rx="2" transform="rotate(90 200 200)" fill="white"/>
</clipPath>
<clipPath id="clip1_717_3498">
<rect width="200" height="200" rx="2" fill="white"/>
</clipPath>
<clipPath id="clip2_717_3498">
<rect x="200" y="401" width="200" height="200" rx="2" transform="rotate(90 200 401)" fill="white"/>
</clipPath>
</defs>
</svg>
