<svg width="201" height="601" viewBox="0 0 201 601" fill="none" xmlns="http://www.w3.org/2000/svg">
<g clip-path="url(#clip0_717_3499)">
<path d="M351.826 345.034C373.306 345.034 390.719 327.622 390.719 306.142L390.719 193.82C390.719 172.341 373.306 154.928 351.826 154.928L71.1802 154.928C49.7007 154.928 32.2876 172.341 32.2876 193.82L32.2876 305.836L32.2876 507.5M351.826 314.31C356.337 314.31 359.994 310.653 359.994 306.142L359.994 193.82C359.994 189.309 356.337 185.652 351.826 185.652L71.1795 185.652C66.6681 185.652 63.0113 189.309 63.0113 193.82L63.0113 249.448L63.0113 490C63.0113 494.511 66.6681 498.168 71.1795 498.168" stroke="#CEE1E8" stroke-width="28.402" stroke-miterlimit="10" stroke-linecap="round"/>
</g>
<g clip-path="url(#clip1_717_3499)">
<path d="M222.657 250.09C222.657 228.611 205.244 211.198 183.764 211.198L71.4424 211.198C49.9629 211.198 32.5499 228.611 32.5499 250.09L32.5498 530.736C32.5498 552.216 49.9629 569.629 71.4424 569.629L183.458 569.629L263.455 569.629M191.932 250.091C191.932 245.579 188.275 241.923 183.764 241.923L71.4424 241.922C66.931 241.922 63.2742 245.579 63.2742 250.091L63.2742 530.737C63.2742 535.248 66.931 538.905 71.4424 538.905L127.07 538.905L263.455 538.905C267.967 538.905 271.624 535.248 271.624 530.737" stroke="#0080BC" stroke-width="28.402" stroke-miterlimit="10" stroke-linecap="round"/>
</g>
<g clip-path="url(#clip2_717_3499)">
<path d="M351.826 221.744C373.306 221.744 390.719 204.332 390.719 182.852L390.719 70.5298C390.719 49.0503 373.306 31.6373 351.826 31.6373L71.1802 31.6373C49.7007 31.6373 32.2876 49.0503 32.2876 70.5298L32.2876 182.546L32.2876 262.543M351.826 191.02C356.337 191.02 359.994 187.363 359.994 182.852L359.994 70.5298C359.994 66.0184 356.337 62.3616 351.826 62.3616L71.1795 62.3616C66.6681 62.3616 63.0113 66.0184 63.0113 70.5298L63.0113 126.157L63.0113 262.543C63.0113 267.054 66.6681 270.711 71.1795 270.711" stroke="#0080BC" stroke-width="28.402" stroke-miterlimit="10" stroke-linecap="round"/>
</g>
<defs>
<clipPath id="clip0_717_3499">
<rect x="0.912598" y="401" width="200" height="200" rx="2" transform="rotate(-90 0.912598 401)" fill="white"/>
</clipPath>
<clipPath id="clip1_717_3499">
<rect x="200.913" y="601" width="200" height="200" rx="2" transform="rotate(-180 200.913 601)" fill="white"/>
</clipPath>
<clipPath id="clip2_717_3499">
<rect x="0.912598" y="200" width="200" height="200" rx="2" transform="rotate(-90 0.912598 200)" fill="white"/>
</clipPath>
</defs>
</svg>
