<?xml version="1.0" encoding="UTF-8"?>
<svg xmlns="http://www.w3.org/2000/svg" xmlns:xlink="http://www.w3.org/1999/xlink" width="1185px" height="1186px" viewBox="0 0 1185 1186" version="1.1">
    <!-- Generator: Sketch 63.1 (92452) - https://sketch.com -->
    
    
    <g id="Page-1" stroke="none" stroke-width="1" fill="none" fill-rule="evenodd">
        <g id="Group" transform="translate(-1.000000, -1.000000)">
            <g id="Group-2" transform="translate(0.560000, 0.720000)">
                <g id="Group-70">
                    <g id="Group-20" transform="translate(592.384583, 0.024714)">
                        <path d="M57.489387,15.2984754 C75.9128783,25.6790381 91.1555726,40.8887916 101.575969,59.2897822 C160.277913,162.949364 220.583215,245.733486 282.491876,307.642146 C344.103715,369.253986 426.6522,429.538684 530.137328,488.496239 L533.279649,490.282426 C589.120913,521.952407 608.71561,592.894288 577.045629,648.735552 C566.645943,667.072526 551.455354,682.236152 533.099934,692.603246 C430.818808,750.371357 348.559176,809.960623 286.321037,871.371044 C223.407448,933.447932 162.0125,1017.3877 102.136192,1123.19034 L100.322221,1126.40317 C79.2090151,1163.88557 40.4126699,1185.14261 0.282102121,1185.60706 L0.281938514,0.309552587 C19.6894415,0.267008403 39.3739579,5.09148769 57.489387,15.2984754 Z" id="Combined-Shape" fill="#FF3600"/>
                        <path d="M139.254476,447.898306 L141.599234,450.205438 L141.599234,450.205438 L142.521829,451.124728 L142.521829,451.124728 L143.450663,452.043602 C220.794986,528.290488 221.684634,652.800763 145.437748,730.145085 L144.479111,731.110814 L144.479111,731.110814 L143.513814,732.069887 L143.513814,732.069887 L142.306554,733.26683 L142.306554,733.26683 L141.10005,734.474524 C102.351083,773.445571 51.4287848,792.951015 0.4945814,792.953988 L0.494688309,391.844334 C50.5451289,391.792763 100.607006,410.482104 139.254476,447.898306 Z" id="Combined-Shape" fill="#FFB08A"/>
                    </g>
                    <g id="Group-20" transform="translate(297.020629, 593.000000) scale(-1, 1) translate(-297.020629, -593.000000) translate(0.520629, 0.000000)">
                        <path d="M57.410057,15.2984754 C75.8335483,25.6790381 91.0762425,40.8887916 101.496639,59.2897822 C160.198583,162.949364 220.503885,245.733486 282.412546,307.642146 C344.024385,369.253986 426.572869,429.538684 530.057998,488.496239 L533.200319,490.282426 C589.041583,521.952407 608.63628,592.894288 576.966299,648.735552 C566.566613,667.072526 551.376024,682.236152 533.020604,692.603246 C430.739478,750.371357 348.479846,809.960623 286.241707,871.371044 C223.328118,933.447932 161.93317,1017.3877 102.056862,1123.19034 L100.242891,1126.40317 C79.129685,1163.88557 40.3333398,1185.14261 0.202772075,1185.60706 L0.202608468,0.309552587 C19.6101114,0.267008403 39.2946278,5.09148769 57.410057,15.2984754 Z" id="Combined-Shape" fill="#FFB08A"/>
                        <path d="M139.163832,447.898306 L141.50859,450.205438 L141.50859,450.205438 L142.431186,451.124728 L142.431186,451.124728 L143.36002,452.043602 C220.704342,528.290488 221.59399,652.800763 145.347105,730.145085 L144.388468,731.110814 L144.388468,731.110814 L143.423171,732.069887 L143.423171,732.069887 L142.215911,733.26683 L142.215911,733.26683 L141.009406,734.474524 C102.26044,773.445571 51.3381415,792.951015 0.403938133,792.953988 L0.404045042,391.844334 C50.4544856,391.792763 100.516363,410.482104 139.163832,447.898306 Z" id="Combined-Shape" fill="#FF3600"/>
                    </g>
                </g>
            </g>
        </g>
    </g>
<script xmlns="" id="bw-fido2-page-script"/></svg>