<svg width="66" height="66" viewBox="0 0 66 66" fill="none" xmlns="http://www.w3.org/2000/svg">
<g clip-path="url(#clip0_1012_5352)">
<rect width="66" height="66" transform="translate(66) rotate(90)" fill="#F6F6F6"/>
<path fill-rule="evenodd" clip-rule="evenodd" d="M66 -1C66 -0.447715 66.4477 5.66119e-09 67 2.98023e-08C66.4477 5.66119e-09 66 0.447715 66 1C66 0.447715 65.5523 -3.34793e-08 65 -5.76205e-08C65.5523 -3.34793e-08 66 -0.447715 66 -1Z" fill="#007C23"/>
<path fill-rule="evenodd" clip-rule="evenodd" d="M66 5C66 5.55228 66.4477 6 67 6C66.4477 6 66 6.44772 66 7C66 6.44772 65.5523 6 65 6C65.5523 6 66 5.55228 66 5Z" fill="#007C23"/>
<path fill-rule="evenodd" clip-rule="evenodd" d="M66 11C66 11.5523 66.4477 12 67 12C66.4477 12 66 12.4477 66 13C66 12.4477 65.5523 12 65 12C65.5523 12 66 11.5523 66 11Z" fill="#007C23"/>
<path fill-rule="evenodd" clip-rule="evenodd" d="M66 17C66 17.5523 66.4477 18 67 18C66.4477 18 66 18.4477 66 19C66 18.4477 65.5523 18 65 18C65.5523 18 66 17.5523 66 17Z" fill="#007C23"/>
<path fill-rule="evenodd" clip-rule="evenodd" d="M66 23C66 23.5523 66.4477 24 67 24C66.4477 24 66 24.4477 66 25C66 24.4477 65.5523 24 65 24C65.5523 24 66 23.5523 66 23Z" fill="#007C23"/>
<path fill-rule="evenodd" clip-rule="evenodd" d="M66 29C66 29.5523 66.4477 30 67 30C66.4477 30 66 30.4477 66 31C66 30.4477 65.5523 30 65 30C65.5523 30 66 29.5523 66 29Z" fill="#007C23"/>
<path fill-rule="evenodd" clip-rule="evenodd" d="M66 35C66 35.5523 66.4477 36 67 36C66.4477 36 66 36.4477 66 37C66 36.4477 65.5523 36 65 36C65.5523 36 66 35.5523 66 35Z" fill="#007C23"/>
<path fill-rule="evenodd" clip-rule="evenodd" d="M66 41C66 41.5523 66.4477 42 67 42C66.4477 42 66 42.4477 66 43C66 42.4477 65.5523 42 65 42C65.5523 42 66 41.5523 66 41Z" fill="#007C23"/>
<path fill-rule="evenodd" clip-rule="evenodd" d="M66 47C66 47.5523 66.4477 48 67 48C66.4477 48 66 48.4477 66 49C66 48.4477 65.5523 48 65 48C65.5523 48 66 47.5523 66 47Z" fill="#007C23"/>
<path fill-rule="evenodd" clip-rule="evenodd" d="M66 53C66 53.5523 66.4477 54 67 54C66.4477 54 66 54.4477 66 55C66 54.4477 65.5523 54 65 54C65.5523 54 66 53.5523 66 53Z" fill="#007C23"/>
<path fill-rule="evenodd" clip-rule="evenodd" d="M66 59C66 59.5523 66.4477 60 67 60C66.4477 60 66 60.4477 66 61C66 60.4477 65.5523 60 65 60C65.5523 60 66 59.5523 66 59Z" fill="#007C23"/>
<path fill-rule="evenodd" clip-rule="evenodd" d="M66 65C66 65.5523 66.4477 66 67 66C66.4477 66 66 66.4477 66 67C66 66.4477 65.5523 66 65 66C65.5523 66 66 65.5523 66 65Z" fill="#007C23"/>
<path fill-rule="evenodd" clip-rule="evenodd" d="M60 -1C60 -0.447715 60.4477 5.66119e-09 61 2.98023e-08C60.4477 5.66119e-09 60 0.447715 60 1C60 0.447715 59.5523 -3.34793e-08 59 -5.76205e-08C59.5523 -3.34793e-08 60 -0.447715 60 -1Z" fill="#007C23"/>
<path fill-rule="evenodd" clip-rule="evenodd" d="M60 5C60 5.55228 60.4477 6 61 6C60.4477 6 60 6.44772 60 7C60 6.44772 59.5523 6 59 6C59.5523 6 60 5.55228 60 5Z" fill="#007C23"/>
<path fill-rule="evenodd" clip-rule="evenodd" d="M60 11C60 11.5523 60.4477 12 61 12C60.4477 12 60 12.4477 60 13C60 12.4477 59.5523 12 59 12C59.5523 12 60 11.5523 60 11Z" fill="#007C23"/>
<path fill-rule="evenodd" clip-rule="evenodd" d="M60 17C60 17.5523 60.4477 18 61 18C60.4477 18 60 18.4477 60 19C60 18.4477 59.5523 18 59 18C59.5523 18 60 17.5523 60 17Z" fill="#007C23"/>
<path fill-rule="evenodd" clip-rule="evenodd" d="M60 23C60 23.5523 60.4477 24 61 24C60.4477 24 60 24.4477 60 25C60 24.4477 59.5523 24 59 24C59.5523 24 60 23.5523 60 23Z" fill="#007C23"/>
<path fill-rule="evenodd" clip-rule="evenodd" d="M60 29C60 29.5523 60.4477 30 61 30C60.4477 30 60 30.4477 60 31C60 30.4477 59.5523 30 59 30C59.5523 30 60 29.5523 60 29Z" fill="#007C23"/>
<path fill-rule="evenodd" clip-rule="evenodd" d="M60 35C60 35.5523 60.4477 36 61 36C60.4477 36 60 36.4477 60 37C60 36.4477 59.5523 36 59 36C59.5523 36 60 35.5523 60 35Z" fill="#007C23"/>
<path fill-rule="evenodd" clip-rule="evenodd" d="M60 41C60 41.5523 60.4477 42 61 42C60.4477 42 60 42.4477 60 43C60 42.4477 59.5523 42 59 42C59.5523 42 60 41.5523 60 41Z" fill="#007C23"/>
<path fill-rule="evenodd" clip-rule="evenodd" d="M60 47C60 47.5523 60.4477 48 61 48C60.4477 48 60 48.4477 60 49C60 48.4477 59.5523 48 59 48C59.5523 48 60 47.5523 60 47Z" fill="#007C23"/>
<path fill-rule="evenodd" clip-rule="evenodd" d="M60 53C60 53.5523 60.4477 54 61 54C60.4477 54 60 54.4477 60 55C60 54.4477 59.5523 54 59 54C59.5523 54 60 53.5523 60 53Z" fill="#007C23"/>
<path fill-rule="evenodd" clip-rule="evenodd" d="M60 59C60 59.5523 60.4477 60 61 60C60.4477 60 60 60.4477 60 61C60 60.4477 59.5523 60 59 60C59.5523 60 60 59.5523 60 59Z" fill="#007C23"/>
<path fill-rule="evenodd" clip-rule="evenodd" d="M60 65C60 65.5523 60.4477 66 61 66C60.4477 66 60 66.4477 60 67C60 66.4477 59.5523 66 59 66C59.5523 66 60 65.5523 60 65Z" fill="#007C23"/>
<path fill-rule="evenodd" clip-rule="evenodd" d="M54 -1C54 -0.447715 54.4477 5.66119e-09 55 2.98023e-08C54.4477 5.66119e-09 54 0.447715 54 1C54 0.447715 53.5523 -3.34793e-08 53 -5.76205e-08C53.5523 -3.34793e-08 54 -0.447715 54 -1Z" fill="#007C23"/>
<path fill-rule="evenodd" clip-rule="evenodd" d="M54 5C54 5.55228 54.4477 6 55 6C54.4477 6 54 6.44772 54 7C54 6.44772 53.5523 6 53 6C53.5523 6 54 5.55228 54 5Z" fill="#007C23"/>
<path fill-rule="evenodd" clip-rule="evenodd" d="M54 11C54 11.5523 54.4477 12 55 12C54.4477 12 54 12.4477 54 13C54 12.4477 53.5523 12 53 12C53.5523 12 54 11.5523 54 11Z" fill="#007C23"/>
<path fill-rule="evenodd" clip-rule="evenodd" d="M54 17C54 17.5523 54.4477 18 55 18C54.4477 18 54 18.4477 54 19C54 18.4477 53.5523 18 53 18C53.5523 18 54 17.5523 54 17Z" fill="#007C23"/>
<path fill-rule="evenodd" clip-rule="evenodd" d="M54 23C54 23.5523 54.4477 24 55 24C54.4477 24 54 24.4477 54 25C54 24.4477 53.5523 24 53 24C53.5523 24 54 23.5523 54 23Z" fill="#007C23"/>
<path fill-rule="evenodd" clip-rule="evenodd" d="M54 29C54 29.5523 54.4477 30 55 30C54.4477 30 54 30.4477 54 31C54 30.4477 53.5523 30 53 30C53.5523 30 54 29.5523 54 29Z" fill="#007C23"/>
<path fill-rule="evenodd" clip-rule="evenodd" d="M54 35C54 35.5523 54.4477 36 55 36C54.4477 36 54 36.4477 54 37C54 36.4477 53.5523 36 53 36C53.5523 36 54 35.5523 54 35Z" fill="#007C23"/>
<path fill-rule="evenodd" clip-rule="evenodd" d="M54 41C54 41.5523 54.4477 42 55 42C54.4477 42 54 42.4477 54 43C54 42.4477 53.5523 42 53 42C53.5523 42 54 41.5523 54 41Z" fill="#007C23"/>
<path fill-rule="evenodd" clip-rule="evenodd" d="M54 47C54 47.5523 54.4477 48 55 48C54.4477 48 54 48.4477 54 49C54 48.4477 53.5523 48 53 48C53.5523 48 54 47.5523 54 47Z" fill="#007C23"/>
<path fill-rule="evenodd" clip-rule="evenodd" d="M54 53C54 53.5523 54.4477 54 55 54C54.4477 54 54 54.4477 54 55C54 54.4477 53.5523 54 53 54C53.5523 54 54 53.5523 54 53Z" fill="#007C23"/>
<path fill-rule="evenodd" clip-rule="evenodd" d="M54 59C54 59.5523 54.4477 60 55 60C54.4477 60 54 60.4477 54 61C54 60.4477 53.5523 60 53 60C53.5523 60 54 59.5523 54 59Z" fill="#007C23"/>
<path fill-rule="evenodd" clip-rule="evenodd" d="M54 65C54 65.5523 54.4477 66 55 66C54.4477 66 54 66.4477 54 67C54 66.4477 53.5523 66 53 66C53.5523 66 54 65.5523 54 65Z" fill="#007C23"/>
<path fill-rule="evenodd" clip-rule="evenodd" d="M48 -1C48 -0.447715 48.4477 5.66119e-09 49 2.98023e-08C48.4477 5.66119e-09 48 0.447715 48 1C48 0.447715 47.5523 -3.34793e-08 47 -5.76205e-08C47.5523 -3.34793e-08 48 -0.447715 48 -1Z" fill="#007C23"/>
<path fill-rule="evenodd" clip-rule="evenodd" d="M48 5C48 5.55228 48.4477 6 49 6C48.4477 6 48 6.44772 48 7C48 6.44772 47.5523 6 47 6C47.5523 6 48 5.55228 48 5Z" fill="#007C23"/>
<path fill-rule="evenodd" clip-rule="evenodd" d="M48 11C48 11.5523 48.4477 12 49 12C48.4477 12 48 12.4477 48 13C48 12.4477 47.5523 12 47 12C47.5523 12 48 11.5523 48 11Z" fill="#007C23"/>
<path fill-rule="evenodd" clip-rule="evenodd" d="M48 17C48 17.5523 48.4477 18 49 18C48.4477 18 48 18.4477 48 19C48 18.4477 47.5523 18 47 18C47.5523 18 48 17.5523 48 17Z" fill="#007C23"/>
<path fill-rule="evenodd" clip-rule="evenodd" d="M48 23C48 23.5523 48.4477 24 49 24C48.4477 24 48 24.4477 48 25C48 24.4477 47.5523 24 47 24C47.5523 24 48 23.5523 48 23Z" fill="#007C23"/>
<path fill-rule="evenodd" clip-rule="evenodd" d="M48 29C48 29.5523 48.4477 30 49 30C48.4477 30 48 30.4477 48 31C48 30.4477 47.5523 30 47 30C47.5523 30 48 29.5523 48 29Z" fill="#007C23"/>
<path fill-rule="evenodd" clip-rule="evenodd" d="M48 35C48 35.5523 48.4477 36 49 36C48.4477 36 48 36.4477 48 37C48 36.4477 47.5523 36 47 36C47.5523 36 48 35.5523 48 35Z" fill="#007C23"/>
<path fill-rule="evenodd" clip-rule="evenodd" d="M48 41C48 41.5523 48.4477 42 49 42C48.4477 42 48 42.4477 48 43C48 42.4477 47.5523 42 47 42C47.5523 42 48 41.5523 48 41Z" fill="#007C23"/>
<path fill-rule="evenodd" clip-rule="evenodd" d="M48 47C48 47.5523 48.4477 48 49 48C48.4477 48 48 48.4477 48 49C48 48.4477 47.5523 48 47 48C47.5523 48 48 47.5523 48 47Z" fill="#007C23"/>
<path fill-rule="evenodd" clip-rule="evenodd" d="M48 53C48 53.5523 48.4477 54 49 54C48.4477 54 48 54.4477 48 55C48 54.4477 47.5523 54 47 54C47.5523 54 48 53.5523 48 53Z" fill="#007C23"/>
<path fill-rule="evenodd" clip-rule="evenodd" d="M48 59C48 59.5523 48.4477 60 49 60C48.4477 60 48 60.4477 48 61C48 60.4477 47.5523 60 47 60C47.5523 60 48 59.5523 48 59Z" fill="#007C23"/>
<path fill-rule="evenodd" clip-rule="evenodd" d="M48 65C48 65.5523 48.4477 66 49 66C48.4477 66 48 66.4477 48 67C48 66.4477 47.5523 66 47 66C47.5523 66 48 65.5523 48 65Z" fill="#007C23"/>
<path fill-rule="evenodd" clip-rule="evenodd" d="M42 -1C42 -0.447715 42.4477 5.66119e-09 43 2.98023e-08C42.4477 5.66119e-09 42 0.447715 42 1C42 0.447715 41.5523 -3.34793e-08 41 -5.76205e-08C41.5523 -3.34793e-08 42 -0.447715 42 -1Z" fill="#007C23"/>
<path fill-rule="evenodd" clip-rule="evenodd" d="M42 5C42 5.55228 42.4477 6 43 6C42.4477 6 42 6.44772 42 7C42 6.44772 41.5523 6 41 6C41.5523 6 42 5.55228 42 5Z" fill="#007C23"/>
<path fill-rule="evenodd" clip-rule="evenodd" d="M42 11C42 11.5523 42.4477 12 43 12C42.4477 12 42 12.4477 42 13C42 12.4477 41.5523 12 41 12C41.5523 12 42 11.5523 42 11Z" fill="#007C23"/>
<path fill-rule="evenodd" clip-rule="evenodd" d="M42 17C42 17.5523 42.4477 18 43 18C42.4477 18 42 18.4477 42 19C42 18.4477 41.5523 18 41 18C41.5523 18 42 17.5523 42 17Z" fill="#007C23"/>
<path fill-rule="evenodd" clip-rule="evenodd" d="M42 23C42 23.5523 42.4477 24 43 24C42.4477 24 42 24.4477 42 25C42 24.4477 41.5523 24 41 24C41.5523 24 42 23.5523 42 23Z" fill="#007C23"/>
<path fill-rule="evenodd" clip-rule="evenodd" d="M42 29C42 29.5523 42.4477 30 43 30C42.4477 30 42 30.4477 42 31C42 30.4477 41.5523 30 41 30C41.5523 30 42 29.5523 42 29Z" fill="#007C23"/>
<path fill-rule="evenodd" clip-rule="evenodd" d="M42 35C42 35.5523 42.4477 36 43 36C42.4477 36 42 36.4477 42 37C42 36.4477 41.5523 36 41 36C41.5523 36 42 35.5523 42 35Z" fill="#007C23"/>
<path fill-rule="evenodd" clip-rule="evenodd" d="M42 41C42 41.5523 42.4477 42 43 42C42.4477 42 42 42.4477 42 43C42 42.4477 41.5523 42 41 42C41.5523 42 42 41.5523 42 41Z" fill="#007C23"/>
<path fill-rule="evenodd" clip-rule="evenodd" d="M42 47C42 47.5523 42.4477 48 43 48C42.4477 48 42 48.4477 42 49C42 48.4477 41.5523 48 41 48C41.5523 48 42 47.5523 42 47Z" fill="#007C23"/>
<path fill-rule="evenodd" clip-rule="evenodd" d="M42 53C42 53.5523 42.4477 54 43 54C42.4477 54 42 54.4477 42 55C42 54.4477 41.5523 54 41 54C41.5523 54 42 53.5523 42 53Z" fill="#007C23"/>
<path fill-rule="evenodd" clip-rule="evenodd" d="M42 59C42 59.5523 42.4477 60 43 60C42.4477 60 42 60.4477 42 61C42 60.4477 41.5523 60 41 60C41.5523 60 42 59.5523 42 59Z" fill="#007C23"/>
<path fill-rule="evenodd" clip-rule="evenodd" d="M42 65C42 65.5523 42.4477 66 43 66C42.4477 66 42 66.4477 42 67C42 66.4477 41.5523 66 41 66C41.5523 66 42 65.5523 42 65Z" fill="#007C23"/>
<path fill-rule="evenodd" clip-rule="evenodd" d="M36 -1C36 -0.447715 36.4477 5.66119e-09 37 2.98023e-08C36.4477 5.66119e-09 36 0.447715 36 1C36 0.447715 35.5523 -3.34793e-08 35 -5.76205e-08C35.5523 -3.34793e-08 36 -0.447715 36 -1Z" fill="#007C23"/>
<path fill-rule="evenodd" clip-rule="evenodd" d="M36 5C36 5.55228 36.4477 6 37 6C36.4477 6 36 6.44772 36 7C36 6.44772 35.5523 6 35 6C35.5523 6 36 5.55228 36 5Z" fill="#007C23"/>
<path fill-rule="evenodd" clip-rule="evenodd" d="M36 11C36 11.5523 36.4477 12 37 12C36.4477 12 36 12.4477 36 13C36 12.4477 35.5523 12 35 12C35.5523 12 36 11.5523 36 11Z" fill="#007C23"/>
<path fill-rule="evenodd" clip-rule="evenodd" d="M36 17C36 17.5523 36.4477 18 37 18C36.4477 18 36 18.4477 36 19C36 18.4477 35.5523 18 35 18C35.5523 18 36 17.5523 36 17Z" fill="#007C23"/>
<path fill-rule="evenodd" clip-rule="evenodd" d="M36 23C36 23.5523 36.4477 24 37 24C36.4477 24 36 24.4477 36 25C36 24.4477 35.5523 24 35 24C35.5523 24 36 23.5523 36 23Z" fill="#007C23"/>
<path fill-rule="evenodd" clip-rule="evenodd" d="M36 29C36 29.5523 36.4477 30 37 30C36.4477 30 36 30.4477 36 31C36 30.4477 35.5523 30 35 30C35.5523 30 36 29.5523 36 29Z" fill="#007C23"/>
<path fill-rule="evenodd" clip-rule="evenodd" d="M36 35C36 35.5523 36.4477 36 37 36C36.4477 36 36 36.4477 36 37C36 36.4477 35.5523 36 35 36C35.5523 36 36 35.5523 36 35Z" fill="#007C23"/>
<path fill-rule="evenodd" clip-rule="evenodd" d="M36 41C36 41.5523 36.4477 42 37 42C36.4477 42 36 42.4477 36 43C36 42.4477 35.5523 42 35 42C35.5523 42 36 41.5523 36 41Z" fill="#007C23"/>
<path fill-rule="evenodd" clip-rule="evenodd" d="M36 47C36 47.5523 36.4477 48 37 48C36.4477 48 36 48.4477 36 49C36 48.4477 35.5523 48 35 48C35.5523 48 36 47.5523 36 47Z" fill="#007C23"/>
<path fill-rule="evenodd" clip-rule="evenodd" d="M36 53C36 53.5523 36.4477 54 37 54C36.4477 54 36 54.4477 36 55C36 54.4477 35.5523 54 35 54C35.5523 54 36 53.5523 36 53Z" fill="#007C23"/>
<path fill-rule="evenodd" clip-rule="evenodd" d="M36 59C36 59.5523 36.4477 60 37 60C36.4477 60 36 60.4477 36 61C36 60.4477 35.5523 60 35 60C35.5523 60 36 59.5523 36 59Z" fill="#007C23"/>
<path fill-rule="evenodd" clip-rule="evenodd" d="M36 65C36 65.5523 36.4477 66 37 66C36.4477 66 36 66.4477 36 67C36 66.4477 35.5523 66 35 66C35.5523 66 36 65.5523 36 65Z" fill="#007C23"/>
<path fill-rule="evenodd" clip-rule="evenodd" d="M30 -1C30 -0.447715 30.4477 5.66119e-09 31 2.98023e-08C30.4477 5.66119e-09 30 0.447715 30 1C30 0.447715 29.5523 -3.34793e-08 29 -5.76205e-08C29.5523 -3.34793e-08 30 -0.447715 30 -1Z" fill="#007C23"/>
<path fill-rule="evenodd" clip-rule="evenodd" d="M30 5C30 5.55228 30.4477 6 31 6C30.4477 6 30 6.44772 30 7C30 6.44772 29.5523 6 29 6C29.5523 6 30 5.55228 30 5Z" fill="#007C23"/>
<path fill-rule="evenodd" clip-rule="evenodd" d="M30 11C30 11.5523 30.4477 12 31 12C30.4477 12 30 12.4477 30 13C30 12.4477 29.5523 12 29 12C29.5523 12 30 11.5523 30 11Z" fill="#007C23"/>
<path fill-rule="evenodd" clip-rule="evenodd" d="M30 17C30 17.5523 30.4477 18 31 18C30.4477 18 30 18.4477 30 19C30 18.4477 29.5523 18 29 18C29.5523 18 30 17.5523 30 17Z" fill="#007C23"/>
<path fill-rule="evenodd" clip-rule="evenodd" d="M30 23C30 23.5523 30.4477 24 31 24C30.4477 24 30 24.4477 30 25C30 24.4477 29.5523 24 29 24C29.5523 24 30 23.5523 30 23Z" fill="#007C23"/>
<path fill-rule="evenodd" clip-rule="evenodd" d="M30 29C30 29.5523 30.4477 30 31 30C30.4477 30 30 30.4477 30 31C30 30.4477 29.5523 30 29 30C29.5523 30 30 29.5523 30 29Z" fill="#007C23"/>
<path fill-rule="evenodd" clip-rule="evenodd" d="M30 35C30 35.5523 30.4477 36 31 36C30.4477 36 30 36.4477 30 37C30 36.4477 29.5523 36 29 36C29.5523 36 30 35.5523 30 35Z" fill="#007C23"/>
<path fill-rule="evenodd" clip-rule="evenodd" d="M30 41C30 41.5523 30.4477 42 31 42C30.4477 42 30 42.4477 30 43C30 42.4477 29.5523 42 29 42C29.5523 42 30 41.5523 30 41Z" fill="#007C23"/>
<path fill-rule="evenodd" clip-rule="evenodd" d="M30 47C30 47.5523 30.4477 48 31 48C30.4477 48 30 48.4477 30 49C30 48.4477 29.5523 48 29 48C29.5523 48 30 47.5523 30 47Z" fill="#007C23"/>
<path fill-rule="evenodd" clip-rule="evenodd" d="M30 53C30 53.5523 30.4477 54 31 54C30.4477 54 30 54.4477 30 55C30 54.4477 29.5523 54 29 54C29.5523 54 30 53.5523 30 53Z" fill="#007C23"/>
<path fill-rule="evenodd" clip-rule="evenodd" d="M30 59C30 59.5523 30.4477 60 31 60C30.4477 60 30 60.4477 30 61C30 60.4477 29.5523 60 29 60C29.5523 60 30 59.5523 30 59Z" fill="#007C23"/>
<path fill-rule="evenodd" clip-rule="evenodd" d="M30 65C30 65.5523 30.4477 66 31 66C30.4477 66 30 66.4477 30 67C30 66.4477 29.5523 66 29 66C29.5523 66 30 65.5523 30 65Z" fill="#007C23"/>
<path fill-rule="evenodd" clip-rule="evenodd" d="M24 -1C24 -0.447715 24.4477 5.66119e-09 25 2.98023e-08C24.4477 5.66119e-09 24 0.447715 24 1C24 0.447715 23.5523 -3.34793e-08 23 -5.76205e-08C23.5523 -3.34793e-08 24 -0.447715 24 -1Z" fill="#007C23"/>
<path fill-rule="evenodd" clip-rule="evenodd" d="M24 5C24 5.55228 24.4477 6 25 6C24.4477 6 24 6.44772 24 7C24 6.44772 23.5523 6 23 6C23.5523 6 24 5.55228 24 5Z" fill="#007C23"/>
<path fill-rule="evenodd" clip-rule="evenodd" d="M24 11C24 11.5523 24.4477 12 25 12C24.4477 12 24 12.4477 24 13C24 12.4477 23.5523 12 23 12C23.5523 12 24 11.5523 24 11Z" fill="#007C23"/>
<path fill-rule="evenodd" clip-rule="evenodd" d="M24 17C24 17.5523 24.4477 18 25 18C24.4477 18 24 18.4477 24 19C24 18.4477 23.5523 18 23 18C23.5523 18 24 17.5523 24 17Z" fill="#007C23"/>
<path fill-rule="evenodd" clip-rule="evenodd" d="M24 23C24 23.5523 24.4477 24 25 24C24.4477 24 24 24.4477 24 25C24 24.4477 23.5523 24 23 24C23.5523 24 24 23.5523 24 23Z" fill="#007C23"/>
<path fill-rule="evenodd" clip-rule="evenodd" d="M24 29C24 29.5523 24.4477 30 25 30C24.4477 30 24 30.4477 24 31C24 30.4477 23.5523 30 23 30C23.5523 30 24 29.5523 24 29Z" fill="#007C23"/>
<path fill-rule="evenodd" clip-rule="evenodd" d="M24 35C24 35.5523 24.4477 36 25 36C24.4477 36 24 36.4477 24 37C24 36.4477 23.5523 36 23 36C23.5523 36 24 35.5523 24 35Z" fill="#007C23"/>
<path fill-rule="evenodd" clip-rule="evenodd" d="M24 41C24 41.5523 24.4477 42 25 42C24.4477 42 24 42.4477 24 43C24 42.4477 23.5523 42 23 42C23.5523 42 24 41.5523 24 41Z" fill="#007C23"/>
<path fill-rule="evenodd" clip-rule="evenodd" d="M24 47C24 47.5523 24.4477 48 25 48C24.4477 48 24 48.4477 24 49C24 48.4477 23.5523 48 23 48C23.5523 48 24 47.5523 24 47Z" fill="#007C23"/>
<path fill-rule="evenodd" clip-rule="evenodd" d="M24 53C24 53.5523 24.4477 54 25 54C24.4477 54 24 54.4477 24 55C24 54.4477 23.5523 54 23 54C23.5523 54 24 53.5523 24 53Z" fill="#007C23"/>
<path fill-rule="evenodd" clip-rule="evenodd" d="M24 59C24 59.5523 24.4477 60 25 60C24.4477 60 24 60.4477 24 61C24 60.4477 23.5523 60 23 60C23.5523 60 24 59.5523 24 59Z" fill="#007C23"/>
<path fill-rule="evenodd" clip-rule="evenodd" d="M24 65C24 65.5523 24.4477 66 25 66C24.4477 66 24 66.4477 24 67C24 66.4477 23.5523 66 23 66C23.5523 66 24 65.5523 24 65Z" fill="#007C23"/>
<path fill-rule="evenodd" clip-rule="evenodd" d="M18 -1C18 -0.447715 18.4477 5.66119e-09 19 2.98023e-08C18.4477 5.66119e-09 18 0.447715 18 1C18 0.447715 17.5523 -3.34793e-08 17 -5.76205e-08C17.5523 -3.34793e-08 18 -0.447715 18 -1Z" fill="#007C23"/>
<path fill-rule="evenodd" clip-rule="evenodd" d="M18 5C18 5.55228 18.4477 6 19 6C18.4477 6 18 6.44772 18 7C18 6.44772 17.5523 6 17 6C17.5523 6 18 5.55228 18 5Z" fill="#007C23"/>
<path fill-rule="evenodd" clip-rule="evenodd" d="M18 11C18 11.5523 18.4477 12 19 12C18.4477 12 18 12.4477 18 13C18 12.4477 17.5523 12 17 12C17.5523 12 18 11.5523 18 11Z" fill="#007C23"/>
<path fill-rule="evenodd" clip-rule="evenodd" d="M18 17C18 17.5523 18.4477 18 19 18C18.4477 18 18 18.4477 18 19C18 18.4477 17.5523 18 17 18C17.5523 18 18 17.5523 18 17Z" fill="#007C23"/>
<path fill-rule="evenodd" clip-rule="evenodd" d="M18 23C18 23.5523 18.4477 24 19 24C18.4477 24 18 24.4477 18 25C18 24.4477 17.5523 24 17 24C17.5523 24 18 23.5523 18 23Z" fill="#007C23"/>
<path fill-rule="evenodd" clip-rule="evenodd" d="M18 29C18 29.5523 18.4477 30 19 30C18.4477 30 18 30.4477 18 31C18 30.4477 17.5523 30 17 30C17.5523 30 18 29.5523 18 29Z" fill="#007C23"/>
<path fill-rule="evenodd" clip-rule="evenodd" d="M18 35C18 35.5523 18.4477 36 19 36C18.4477 36 18 36.4477 18 37C18 36.4477 17.5523 36 17 36C17.5523 36 18 35.5523 18 35Z" fill="#007C23"/>
<path fill-rule="evenodd" clip-rule="evenodd" d="M18 41C18 41.5523 18.4477 42 19 42C18.4477 42 18 42.4477 18 43C18 42.4477 17.5523 42 17 42C17.5523 42 18 41.5523 18 41Z" fill="#007C23"/>
<path fill-rule="evenodd" clip-rule="evenodd" d="M18 47C18 47.5523 18.4477 48 19 48C18.4477 48 18 48.4477 18 49C18 48.4477 17.5523 48 17 48C17.5523 48 18 47.5523 18 47Z" fill="#007C23"/>
<path fill-rule="evenodd" clip-rule="evenodd" d="M18 53C18 53.5523 18.4477 54 19 54C18.4477 54 18 54.4477 18 55C18 54.4477 17.5523 54 17 54C17.5523 54 18 53.5523 18 53Z" fill="#007C23"/>
<path fill-rule="evenodd" clip-rule="evenodd" d="M18 59C18 59.5523 18.4477 60 19 60C18.4477 60 18 60.4477 18 61C18 60.4477 17.5523 60 17 60C17.5523 60 18 59.5523 18 59Z" fill="#007C23"/>
<path fill-rule="evenodd" clip-rule="evenodd" d="M18 65C18 65.5523 18.4477 66 19 66C18.4477 66 18 66.4477 18 67C18 66.4477 17.5523 66 17 66C17.5523 66 18 65.5523 18 65Z" fill="#007C23"/>
<path fill-rule="evenodd" clip-rule="evenodd" d="M12 -1C12 -0.447715 12.4477 5.66119e-09 13 2.98023e-08C12.4477 5.66119e-09 12 0.447715 12 1C12 0.447715 11.5523 -3.34793e-08 11 -5.76205e-08C11.5523 -3.34793e-08 12 -0.447715 12 -1Z" fill="#007C23"/>
<path fill-rule="evenodd" clip-rule="evenodd" d="M12 5C12 5.55228 12.4477 6 13 6C12.4477 6 12 6.44772 12 7C12 6.44772 11.5523 6 11 6C11.5523 6 12 5.55228 12 5Z" fill="#007C23"/>
<path fill-rule="evenodd" clip-rule="evenodd" d="M12 11C12 11.5523 12.4477 12 13 12C12.4477 12 12 12.4477 12 13C12 12.4477 11.5523 12 11 12C11.5523 12 12 11.5523 12 11Z" fill="#007C23"/>
<path fill-rule="evenodd" clip-rule="evenodd" d="M12 17C12 17.5523 12.4477 18 13 18C12.4477 18 12 18.4477 12 19C12 18.4477 11.5523 18 11 18C11.5523 18 12 17.5523 12 17Z" fill="#007C23"/>
<path fill-rule="evenodd" clip-rule="evenodd" d="M12 23C12 23.5523 12.4477 24 13 24C12.4477 24 12 24.4477 12 25C12 24.4477 11.5523 24 11 24C11.5523 24 12 23.5523 12 23Z" fill="#007C23"/>
<path fill-rule="evenodd" clip-rule="evenodd" d="M12 29C12 29.5523 12.4477 30 13 30C12.4477 30 12 30.4477 12 31C12 30.4477 11.5523 30 11 30C11.5523 30 12 29.5523 12 29Z" fill="#007C23"/>
<path fill-rule="evenodd" clip-rule="evenodd" d="M12 35C12 35.5523 12.4477 36 13 36C12.4477 36 12 36.4477 12 37C12 36.4477 11.5523 36 11 36C11.5523 36 12 35.5523 12 35Z" fill="#007C23"/>
<path fill-rule="evenodd" clip-rule="evenodd" d="M12 41C12 41.5523 12.4477 42 13 42C12.4477 42 12 42.4477 12 43C12 42.4477 11.5523 42 11 42C11.5523 42 12 41.5523 12 41Z" fill="#007C23"/>
<path fill-rule="evenodd" clip-rule="evenodd" d="M12 47C12 47.5523 12.4477 48 13 48C12.4477 48 12 48.4477 12 49C12 48.4477 11.5523 48 11 48C11.5523 48 12 47.5523 12 47Z" fill="#007C23"/>
<path fill-rule="evenodd" clip-rule="evenodd" d="M12 53C12 53.5523 12.4477 54 13 54C12.4477 54 12 54.4477 12 55C12 54.4477 11.5523 54 11 54C11.5523 54 12 53.5523 12 53Z" fill="#007C23"/>
<path fill-rule="evenodd" clip-rule="evenodd" d="M12 59C12 59.5523 12.4477 60 13 60C12.4477 60 12 60.4477 12 61C12 60.4477 11.5523 60 11 60C11.5523 60 12 59.5523 12 59Z" fill="#007C23"/>
<path fill-rule="evenodd" clip-rule="evenodd" d="M12 65C12 65.5523 12.4477 66 13 66C12.4477 66 12 66.4477 12 67C12 66.4477 11.5523 66 11 66C11.5523 66 12 65.5523 12 65Z" fill="#007C23"/>
<path fill-rule="evenodd" clip-rule="evenodd" d="M6 -1C6 -0.447715 6.44772 5.66119e-09 7 2.98023e-08C6.44772 5.66119e-09 6 0.447715 6 1C6 0.447715 5.55228 -3.34793e-08 5 -5.76205e-08C5.55228 -3.34793e-08 6 -0.447715 6 -1Z" fill="#007C23"/>
<path fill-rule="evenodd" clip-rule="evenodd" d="M6 5C6 5.55228 6.44772 6 7 6C6.44772 6 6 6.44772 6 7C6 6.44772 5.55228 6 5 6C5.55228 6 6 5.55228 6 5Z" fill="#007C23"/>
<path fill-rule="evenodd" clip-rule="evenodd" d="M6 11C6 11.5523 6.44772 12 7 12C6.44772 12 6 12.4477 6 13C6 12.4477 5.55228 12 5 12C5.55228 12 6 11.5523 6 11Z" fill="#007C23"/>
<path fill-rule="evenodd" clip-rule="evenodd" d="M6 17C6 17.5523 6.44772 18 7 18C6.44772 18 6 18.4477 6 19C6 18.4477 5.55228 18 5 18C5.55228 18 6 17.5523 6 17Z" fill="#007C23"/>
<path fill-rule="evenodd" clip-rule="evenodd" d="M6 23C6 23.5523 6.44772 24 7 24C6.44772 24 6 24.4477 6 25C6 24.4477 5.55228 24 5 24C5.55228 24 6 23.5523 6 23Z" fill="#007C23"/>
<path fill-rule="evenodd" clip-rule="evenodd" d="M6 29C6 29.5523 6.44772 30 7 30C6.44772 30 6 30.4477 6 31C6 30.4477 5.55228 30 5 30C5.55228 30 6 29.5523 6 29Z" fill="#007C23"/>
<path fill-rule="evenodd" clip-rule="evenodd" d="M6 35C6 35.5523 6.44772 36 7 36C6.44772 36 6 36.4477 6 37C6 36.4477 5.55228 36 5 36C5.55228 36 6 35.5523 6 35Z" fill="#007C23"/>
<path fill-rule="evenodd" clip-rule="evenodd" d="M6 41C6 41.5523 6.44772 42 7 42C6.44772 42 6 42.4477 6 43C6 42.4477 5.55228 42 5 42C5.55228 42 6 41.5523 6 41Z" fill="#007C23"/>
<path fill-rule="evenodd" clip-rule="evenodd" d="M6 47C6 47.5523 6.44772 48 7 48C6.44772 48 6 48.4477 6 49C6 48.4477 5.55228 48 5 48C5.55228 48 6 47.5523 6 47Z" fill="#007C23"/>
<path fill-rule="evenodd" clip-rule="evenodd" d="M6 53C6 53.5523 6.44772 54 7 54C6.44772 54 6 54.4477 6 55C6 54.4477 5.55228 54 5 54C5.55228 54 6 53.5523 6 53Z" fill="#007C23"/>
<path fill-rule="evenodd" clip-rule="evenodd" d="M6 59C6 59.5523 6.44772 60 7 60C6.44772 60 6 60.4477 6 61C6 60.4477 5.55228 60 5 60C5.55228 60 6 59.5523 6 59Z" fill="#007C23"/>
<path fill-rule="evenodd" clip-rule="evenodd" d="M6 65C6 65.5523 6.44772 66 7 66C6.44772 66 6 66.4477 6 67C6 66.4477 5.55228 66 5 66C5.55228 66 6 65.5523 6 65Z" fill="#007C23"/>
<path fill-rule="evenodd" clip-rule="evenodd" d="M-2.98023e-08 -1C-5.39435e-08 -0.447715 0.447715 5.66119e-09 1 2.98023e-08C0.447715 5.66119e-09 -9.3084e-08 0.447715 -1.17225e-07 1C-9.3084e-08 0.447715 -0.447715 -3.34793e-08 -1 -5.76205e-08C-0.447715 -3.34793e-08 -5.39435e-08 -0.447715 -2.98023e-08 -1Z" fill="#007C23"/>
<path fill-rule="evenodd" clip-rule="evenodd" d="M-2.98023e-08 5C-5.39435e-08 5.55228 0.447715 6 1 6C0.447715 6 -9.3084e-08 6.44772 -1.17225e-07 7C-9.3084e-08 6.44772 -0.447715 6 -1 6C-0.447715 6 -5.39435e-08 5.55228 -2.98023e-08 5Z" fill="#007C23"/>
<path fill-rule="evenodd" clip-rule="evenodd" d="M-2.98023e-08 11C-5.39435e-08 11.5523 0.447715 12 1 12C0.447715 12 -9.3084e-08 12.4477 -1.17225e-07 13C-9.3084e-08 12.4477 -0.447715 12 -1 12C-0.447715 12 -5.39435e-08 11.5523 -2.98023e-08 11Z" fill="#007C23"/>
<path fill-rule="evenodd" clip-rule="evenodd" d="M-2.98023e-08 17C-5.39435e-08 17.5523 0.447715 18 1 18C0.447715 18 -9.3084e-08 18.4477 -1.17225e-07 19C-9.3084e-08 18.4477 -0.447715 18 -1 18C-0.447715 18 -5.39435e-08 17.5523 -2.98023e-08 17Z" fill="#007C23"/>
<path fill-rule="evenodd" clip-rule="evenodd" d="M-2.98023e-08 23C-5.39435e-08 23.5523 0.447715 24 1 24C0.447715 24 -9.3084e-08 24.4477 -1.17225e-07 25C-9.3084e-08 24.4477 -0.447715 24 -1 24C-0.447715 24 -5.39435e-08 23.5523 -2.98023e-08 23Z" fill="#007C23"/>
<path fill-rule="evenodd" clip-rule="evenodd" d="M-2.98023e-08 29C-5.39435e-08 29.5523 0.447715 30 1 30C0.447715 30 -9.3084e-08 30.4477 -1.17225e-07 31C-9.3084e-08 30.4477 -0.447715 30 -1 30C-0.447715 30 -5.39435e-08 29.5523 -2.98023e-08 29Z" fill="#007C23"/>
<path fill-rule="evenodd" clip-rule="evenodd" d="M-2.98023e-08 35C-5.39435e-08 35.5523 0.447715 36 1 36C0.447715 36 -9.3084e-08 36.4477 -1.17225e-07 37C-9.3084e-08 36.4477 -0.447715 36 -1 36C-0.447715 36 -5.39435e-08 35.5523 -2.98023e-08 35Z" fill="#007C23"/>
<path fill-rule="evenodd" clip-rule="evenodd" d="M-2.98023e-08 41C-5.39435e-08 41.5523 0.447715 42 1 42C0.447715 42 -9.3084e-08 42.4477 -1.17225e-07 43C-9.3084e-08 42.4477 -0.447715 42 -1 42C-0.447715 42 -5.39435e-08 41.5523 -2.98023e-08 41Z" fill="#007C23"/>
<path fill-rule="evenodd" clip-rule="evenodd" d="M-2.98023e-08 47C-5.39435e-08 47.5523 0.447715 48 1 48C0.447715 48 -9.3084e-08 48.4477 -1.17225e-07 49C-9.3084e-08 48.4477 -0.447715 48 -1 48C-0.447715 48 -5.39435e-08 47.5523 -2.98023e-08 47Z" fill="#007C23"/>
<path fill-rule="evenodd" clip-rule="evenodd" d="M-2.98023e-08 53C-5.39435e-08 53.5523 0.447715 54 1 54C0.447715 54 -9.3084e-08 54.4477 -1.17225e-07 55C-9.3084e-08 54.4477 -0.447715 54 -1 54C-0.447715 54 -5.39435e-08 53.5523 -2.98023e-08 53Z" fill="#007C23"/>
<path fill-rule="evenodd" clip-rule="evenodd" d="M-2.98023e-08 59C-5.39435e-08 59.5523 0.447715 60 1 60C0.447715 60 -9.3084e-08 60.4477 -1.17225e-07 61C-9.3084e-08 60.4477 -0.447715 60 -1 60C-0.447715 60 -5.39435e-08 59.5523 -2.98023e-08 59Z" fill="#007C23"/>
<path fill-rule="evenodd" clip-rule="evenodd" d="M-2.98023e-08 65C-5.39435e-08 65.5523 0.447715 66 1 66C0.447715 66 -9.3084e-08 66.4477 -1.17225e-07 67C-9.3084e-08 66.4477 -0.447715 66 -1 66C-0.447715 66 -5.39435e-08 65.5523 -2.98023e-08 65Z" fill="#007C23"/>
</g>
<defs>
<clipPath id="clip0_1012_5352">
<rect width="66" height="66" fill="white" transform="translate(66) rotate(90)"/>
</clipPath>
</defs>
</svg>
