<svg width="498" height="333" viewBox="0 0 498 333" fill="none" xmlns="http://www.w3.org/2000/svg">
<path d="M281.895 138.331C281.521 137.297 280.37 136.758 279.323 137.128C278.277 137.497 277.732 138.635 278.105 139.669L281.895 138.331ZM309.139 223.797C310.143 224.267 311.343 223.843 311.818 222.851L319.568 206.68C320.044 205.688 319.616 204.502 318.611 204.032C317.607 203.562 316.408 203.986 315.932 204.978L309.043 219.352L294.498 212.544C293.493 212.074 292.294 212.498 291.818 213.49C291.343 214.482 291.771 215.668 292.775 216.138L309.139 223.797ZM278.105 139.669L308.105 222.669L311.895 221.331L281.895 138.331L278.105 139.669Z" fill="url(#paint0_linear_66_188)"/>
<path d="M217.105 138.331C217.479 137.297 218.63 136.758 219.677 137.128C220.723 137.497 221.268 138.635 220.895 139.669L217.105 138.331ZM189.861 223.797C188.857 224.267 187.657 223.843 187.182 222.851L179.432 206.68C178.956 205.688 179.384 204.502 180.389 204.032C181.393 203.562 182.592 203.986 183.068 204.978L189.957 219.352L204.502 212.544C205.507 212.074 206.706 212.498 207.182 213.49C207.657 214.482 207.229 215.668 206.225 216.138L189.861 223.797ZM220.895 139.669L190.895 222.669L187.105 221.331L217.105 138.331L220.895 139.669Z" fill="url(#paint1_linear_66_188)"/>
<path d="M170.958 95.2929C171.901 94.7174 173.132 95.0152 173.707 95.958C174.283 96.9008 173.985 98.1316 173.042 98.7071L170.958 95.2929ZM94.5297 145.944C93.4561 145.684 92.7963 144.603 93.0561 143.53L97.2888 126.034C97.5485 124.961 98.6294 124.301 99.703 124.561C100.777 124.821 101.436 125.901 101.177 126.975L97.4142 142.526L112.966 146.289C114.039 146.549 114.699 147.629 114.439 148.703C114.179 149.777 113.099 150.436 112.025 150.177L94.5297 145.944ZM173.042 98.7071L96.042 145.707L93.958 142.293L170.958 95.2929L173.042 98.7071Z" fill="url(#paint2_linear_66_188)"/>
<path d="M327.042 95.2929C326.099 94.7174 324.868 95.0152 324.293 95.958C323.717 96.9008 324.015 98.1316 324.958 98.7071L327.042 95.2929ZM403.47 145.944C404.544 145.684 405.204 144.603 404.944 143.53L400.711 126.034C400.451 124.961 399.371 124.301 398.297 124.561C397.223 124.821 396.564 125.901 396.823 126.975L400.586 142.526L385.034 146.289C383.961 146.549 383.301 147.629 383.561 148.703C383.821 149.777 384.901 150.436 385.975 150.177L403.47 145.944ZM324.958 98.7071L401.958 145.707L404.042 142.293L327.042 95.2929L324.958 98.7071Z" fill="url(#paint3_linear_66_188)"/>
<path d="M309.576 293.077C309.576 306.479 318.691 316.461 331.691 316.461C341.105 316.461 348.58 310.503 351.268 301.863H370.102C366.661 320.485 351.123 333 331.696 333C308.689 333 291.5 316.018 291.5 293.077C291.5 270.132 309.132 253 331.696 253C351.567 253 366.806 265.515 370.246 283.983H351.268C348.431 275.342 340.961 269.533 331.546 269.533C318.547 269.533 309.581 279.515 309.576 293.077Z" fill="#0052FF"/>
<path d="M487.007 157.284C478.693 152.044 467.748 153.292 457.986 159.481C448.255 153.292 437.302 152.044 428.999 157.284C415.863 165.566 414.266 186.894 425.435 204.924C433.668 218.217 446.542 226.006 458.003 225.862C469.463 226.006 482.338 218.217 490.57 204.924C501.726 186.894 500.143 165.566 487.007 157.284ZM431.474 201.117C429.171 197.434 427.433 193.42 426.32 189.213C425.331 185.561 424.953 181.768 425.201 177.99C425.7 171.326 428.388 166.137 432.769 163.377C437.15 160.616 442.941 160.449 449.109 162.918C450.035 163.291 450.95 163.722 451.859 164.198C448.431 167.35 445.451 170.965 443.002 174.939C436.221 185.885 434.152 198.066 436.519 207.777C434.632 205.723 432.943 203.493 431.474 201.117ZM489.689 189.21C488.574 193.417 486.837 197.43 484.535 201.114C483.065 203.493 481.376 205.728 479.49 207.788C481.606 199.082 480.168 188.416 474.98 178.414C474.897 178.249 474.781 178.104 474.639 177.987C474.497 177.871 474.332 177.785 474.155 177.737C473.979 177.689 473.794 177.678 473.613 177.706C473.432 177.735 473.259 177.801 473.105 177.901L456.931 188.095C456.784 188.187 456.656 188.309 456.555 188.452C456.454 188.594 456.382 188.756 456.343 188.927C456.304 189.098 456.298 189.275 456.327 189.448C456.356 189.621 456.418 189.786 456.511 189.935L458.884 193.763C458.976 193.911 459.096 194.04 459.237 194.142C459.379 194.244 459.538 194.317 459.707 194.356C459.877 194.396 460.052 194.401 460.223 194.372C460.394 194.343 460.558 194.28 460.705 194.187L471.189 187.578C471.528 188.604 471.867 189.63 472.122 190.657C473.111 194.304 473.49 198.093 473.244 201.866C472.745 208.526 470.057 213.715 465.676 216.48C463.416 217.873 460.827 218.629 458.179 218.669H457.844C455.195 218.63 452.606 217.874 450.346 216.48C445.962 213.715 443.273 208.526 442.775 201.866C442.528 198.088 442.906 194.295 443.894 190.643C446.166 182.192 450.864 174.608 457.396 168.843C460.213 166.348 463.421 164.344 466.89 162.911C473.041 160.441 478.842 160.606 483.226 163.37C487.61 166.133 490.296 171.319 490.794 177.983C491.046 181.761 490.672 185.555 489.689 189.21Z" fill="#1BDBDB"/>
<path d="M40 230C62.0914 230 80 212.091 80 190C80 167.909 62.0914 150 40 150C17.9086 150 0 167.909 0 190C0 212.091 17.9086 230 40 230Z" fill="#FF0420"/>
<path d="M28.336 200.624C25.952 200.624 24 200.064 22.48 198.944C20.976 197.808 20.224 196.176 20.224 194.08C20.224 193.632 20.272 193.104 20.368 192.464C20.624 191.024 20.992 189.296 21.472 187.264C22.832 181.76 26.352 179.008 32.016 179.008C33.552 179.008 34.944 179.264 36.16 179.792C37.376 180.288 38.336 181.056 39.04 182.08C39.744 183.088 40.096 184.288 40.096 185.68C40.096 186.096 40.048 186.624 39.952 187.264C39.648 189.04 39.296 190.784 38.864 192.464C38.16 195.2 36.96 197.264 35.232 198.624C33.52 199.968 31.216 200.624 28.336 200.624ZM28.768 196.304C29.888 196.304 30.832 195.968 31.616 195.312C32.416 194.656 32.992 193.648 33.328 192.272C33.792 190.384 34.144 188.752 34.384 187.344C34.464 186.928 34.512 186.496 34.512 186.048C34.512 184.224 33.568 183.312 31.664 183.312C30.544 183.312 29.584 183.648 28.784 184.304C28 184.96 27.44 185.968 27.104 187.344C26.736 188.688 26.384 190.32 26.016 192.272C25.936 192.672 25.888 193.088 25.888 193.536C25.872 195.392 26.848 196.304 28.768 196.304Z" fill="white"/>
<path d="M41.488 200.336C41.264 200.336 41.104 200.272 40.976 200.128C40.88 199.968 40.848 199.792 40.88 199.584L45.024 180.064C45.056 179.84 45.168 179.664 45.36 179.52C45.536 179.376 45.728 179.312 45.936 179.312H53.92C56.144 179.312 57.92 179.776 59.264 180.688C60.624 181.616 61.312 182.944 61.312 184.688C61.312 185.184 61.248 185.712 61.136 186.256C60.64 188.56 59.632 190.256 58.096 191.36C56.592 192.464 54.528 193.008 51.904 193.008H47.856L46.48 199.584C46.432 199.808 46.336 199.984 46.144 200.128C45.968 200.272 45.776 200.336 45.568 200.336H41.488ZM52.112 188.864C52.96 188.864 53.68 188.64 54.304 188.176C54.944 187.712 55.36 187.056 55.568 186.192C55.632 185.856 55.664 185.552 55.664 185.296C55.664 184.72 55.488 184.272 55.152 183.968C54.816 183.648 54.224 183.488 53.408 183.488H49.808L48.672 188.864H52.112Z" fill="white"/>
<path d="M132 313L166.641 333L201.281 313V273L166.641 253.001L132 273.001V313Z" fill="url(#paint4_linear_66_188)"/>
<path d="M163.065 257.819L137.949 272.32C137.999 272.766 137.999 273.216 137.949 273.662L163.066 288.163C165.184 286.6 168.073 286.6 170.191 288.163L195.308 273.662C195.258 273.216 195.258 272.766 195.308 272.32L170.192 257.819C168.075 259.382 165.185 259.382 163.068 257.819L163.065 257.819ZM197.72 277.667L172.576 292.33C172.87 294.945 171.426 297.447 169.013 298.5L169.042 327.341C169.453 327.52 169.843 327.745 170.204 328.012L195.321 313.511C195.027 310.895 196.471 308.393 198.883 307.34V278.339C198.472 278.159 198.082 277.934 197.721 277.668L197.72 277.667ZM135.562 277.828C135.201 278.095 134.811 278.32 134.4 278.5V307.501C136.812 308.554 138.256 311.056 137.962 313.671L163.078 328.172C163.439 327.906 163.829 327.681 164.24 327.501V298.5C161.828 297.447 160.383 294.945 160.678 292.329L135.562 277.828L135.562 277.828Z" fill="url(#paint5_linear_66_188)"/>
<path d="M166.641 333L201.282 313V273L166.641 293V333Z" fill="black" fill-opacity="0.25098"/>
<path d="M166.641 333V293L132 273V313L166.641 333Z" fill="black" fill-opacity="0.039216"/>
<path d="M132 273L166.641 293L201.281 273L166.641 253L132 273Z" fill="black" fill-opacity="0.13018"/>
<path d="M142.749 282.062H138.186V304.125H142.749V282.062Z" fill="white"/>
<path d="M150.699 304.125V296.031C151.824 296.125 152.949 296.125 153.886 296.125C160.386 296.125 162.261 292.906 162.261 288.938C162.261 284.125 158.824 282.062 153.511 282.062H146.136V304.125H150.699ZM153.167 292.906C152.324 292.906 151.074 292.906 150.699 292.875V285.375H153.542C156.292 285.375 157.855 286.688 157.855 289.094V289.156C157.855 291.031 157.167 292.906 153.167 292.906Z" fill="white"/>
<path d="M177.883 282.062H164.039V304.125H168.602V294.406H177.258V291.094H168.571V285.406H177.571L177.883 282.062Z" fill="white"/>
<path d="M192.814 286.375L194.002 283.312C192.221 282.031 189.814 281.562 186.783 281.562C182.377 281.562 178.752 283.625 178.752 287.844C178.752 291.625 181.533 293.125 184.314 294.031L187.096 294.969C189.002 295.625 190.564 296.25 190.564 298.312C190.564 300.187 188.939 300.937 186.471 300.937C183.971 300.937 181.283 300.187 179.752 299.219L178.564 302.531C180.564 303.812 183.096 304.438 186.502 304.438C191.346 304.438 195.096 302.313 195.096 297.781C195.096 293.563 191.877 292.219 188.627 291.125L185.596 290.125C184.283 289.688 183.283 289.094 183.283 287.406C183.283 285.687 184.689 285 186.783 285C189.346 285 191.346 285.469 192.814 286.375Z" fill="white"/>
<rect x="189" width="120" height="120" rx="60" fill="url(#paint6_linear_66_188)"/>
<path d="M222.941 39.1613C223.678 37.7941 224.741 36.6285 226.036 35.7674L247.779 20.6399L225.501 57.3433C225.501 57.3433 223.555 54.0659 222.795 52.4075C221.849 50.3224 221.372 48.0565 221.398 45.7684C221.423 43.4802 221.95 41.2253 222.941 39.1613ZM213.968 64.4805C214.214 67.9905 215.209 71.4076 216.887 74.5031C218.566 77.5988 220.889 80.3013 223.701 82.4298L247.75 99.1379C247.75 99.1379 232.703 77.5329 220.012 56.0344C218.727 53.763 217.863 51.2797 217.462 48.7033C217.284 47.5367 217.284 46.3499 217.462 45.1833C217.131 45.7943 216.489 47.0452 216.489 47.0452C215.202 49.66 214.326 52.4562 213.89 55.3362C213.64 58.3804 213.666 61.4409 213.968 64.4805ZM275.283 67.3895C274.504 65.7313 272.577 62.4537 272.577 62.4537L250.338 99.1379L272.081 84.0201C273.376 83.1589 274.439 81.9935 275.176 80.6262C276.167 78.5622 276.694 76.3072 276.72 74.0193C276.745 71.7311 276.268 69.465 275.322 67.3799L275.283 67.3895ZM284.11 55.3069C283.865 51.7972 282.869 48.3798 281.191 45.2843C279.512 42.1887 277.189 39.4862 274.378 37.3577L250.367 20.6399C250.367 20.6399 265.404 42.245 278.105 63.7434C279.387 66.0155 280.247 68.4988 280.645 71.0745C280.823 72.2411 280.823 73.4279 280.645 74.5945C280.976 73.9835 281.619 72.7326 281.619 72.7326C282.905 70.1178 283.782 67.3216 284.217 64.4416C284.471 61.3977 284.448 58.3372 284.149 55.2973L284.11 55.3069Z" fill="white"/>
<defs>
<linearGradient id="paint0_linear_66_188" x1="317" y1="163.694" x2="284.391" y2="196.692" gradientUnits="userSpaceOnUse">
<stop stop-color="#503EFF"/>
<stop offset="1" stop-color="#52CDFF"/>
</linearGradient>
<linearGradient id="paint1_linear_66_188" x1="182" y1="163.694" x2="214.609" y2="196.692" gradientUnits="userSpaceOnUse">
<stop stop-color="#503EFF"/>
<stop offset="1" stop-color="#52CDFF"/>
</linearGradient>
<linearGradient id="paint2_linear_66_188" x1="137.757" y1="99.2315" x2="129.243" y2="149.769" gradientUnits="userSpaceOnUse">
<stop stop-color="#503EFF"/>
<stop offset="1" stop-color="#52CDFF"/>
</linearGradient>
<linearGradient id="paint3_linear_66_188" x1="360.243" y1="99.2315" x2="368.757" y2="149.769" gradientUnits="userSpaceOnUse">
<stop stop-color="#503EFF"/>
<stop offset="1" stop-color="#52CDFF"/>
</linearGradient>
<linearGradient id="paint4_linear_66_188" x1="132" y1="293" x2="201.282" y2="293" gradientUnits="userSpaceOnUse">
<stop stop-color="#4A9EA1"/>
</linearGradient>
<linearGradient id="paint5_linear_66_188" x1="134.4" y1="292.995" x2="198.882" y2="292.995" gradientUnits="userSpaceOnUse">
<stop stop-color="#63D3D7"/>
</linearGradient>
<linearGradient id="paint6_linear_66_188" x1="268.93" y1="134.222" x2="152.296" y2="-71.0699" gradientUnits="userSpaceOnUse">
<stop stop-color="#44BCF0"/>
<stop offset="0.378795" stop-color="#7298F8"/>
<stop offset="1" stop-color="#A099FF"/>
</linearGradient>
</defs>
</svg>
