<svg width="549" height="310" viewBox="0 0 549 310" fill="none" xmlns="http://www.w3.org/2000/svg">
<g clip-path="url(#clip0_1974_2558)">
<rect y="0.299805" width="549" height="308.812" rx="2" fill="#F6F6F6"/>
<path d="M15.9136 53.5967V14.486H30.1611C37.4245 14.486 45.4701 15.6034 45.4701 25.1017C45.4701 29.1245 43.4028 31.974 40.2181 33.5385C44.5203 35.1029 46.9787 37.9524 46.9787 42.7574C46.9787 52.5351 38.9889 53.5967 30.7757 53.5967H15.9136ZM22.8976 48.0094H30.5522C35.9718 48.0094 40.1622 47.8418 40.1622 42.4222C40.1622 36.5556 35.0778 36.4438 30.8315 36.4438H22.8976V48.0094ZM22.8976 30.8566H29.7141C34.4074 30.8566 38.6537 30.7448 38.6537 25.4928C38.6537 20.2967 34.4074 20.1291 29.7699 20.1291H22.8976V30.8566ZM50.6658 53.5967V25.6605H57.2588V30.689C58.1527 27.7836 60.9463 25.3811 65.472 25.0459C65.919 24.99 66.9806 24.99 67.4275 24.99L67.2599 31.0242C66.8688 30.9683 66.366 30.9683 65.8631 30.9683C60.6111 30.9683 57.3146 33.0915 57.3146 40.8019V53.5967H50.6658ZM77.1769 54.2671C72.0366 54.2671 67.5109 51.5294 67.5109 45.8863C67.5109 39.9079 72.4836 38.2318 77.568 37.2819L85.893 35.7175C85.893 33.8737 85.893 32.5328 85.1107 31.4153C84.3285 30.3537 82.9317 29.8509 80.6409 29.8509C76.7857 29.8509 74.9978 31.1918 74.942 35.1029L68.4608 34.2648C68.6284 30.9683 69.8576 28.6217 71.9807 27.169C74.048 25.7163 77.121 24.99 81.0321 24.99C88.2396 24.99 92.3183 28.1188 92.3183 34.2089V48.5682C92.3183 50.4119 92.7094 52.0323 93.2681 53.3732V53.5967H86.6193C86.3958 52.5351 86.2282 51.3618 86.2282 49.6297C84.7755 52.3675 81.7584 54.2671 77.1769 54.2671ZM74.2715 45.8304C74.2715 48.2329 76.1711 49.4062 78.5737 49.4062C83.3228 49.4062 85.893 47.0037 85.893 42.8692V40.2432L78.6295 41.8076C76.0594 42.4222 74.2715 43.2603 74.2715 45.8304ZM97.0203 53.5967V25.6605H103.613V29.9068C105.01 26.4985 108.027 24.99 112.05 24.99C115.682 24.99 117.972 25.8839 119.872 27.8395C122.051 30.0744 122.219 33.3708 122.219 36.7232V53.5967H115.514V37.226C115.514 34.6559 115.402 32.868 113.95 31.5271C112.72 30.2979 111.38 30.1861 109.759 30.1861C107.301 30.1861 103.669 31.5271 103.669 38.2876V53.5967H97.0203ZM138.164 54.2671C130.845 54.2671 125.537 48.7358 125.537 39.6286C125.537 30.8007 130.565 24.99 138.052 24.99C141.684 24.99 144.589 26.3868 146.433 29.1245V14.486H153.026V53.5967H146.433V49.6297C144.813 52.7027 141.851 54.2671 138.164 54.2671ZM132.744 39.6286C132.744 46.0539 134.253 49.4062 139.672 49.4062C141.684 49.4062 143.192 48.7916 144.31 47.6183C145.874 45.9422 146.601 43.2603 146.601 39.6844C146.601 34.0972 145.092 29.9068 139.784 29.9068C137.326 29.9068 135.65 30.6331 134.588 31.974C133.247 33.5943 132.744 36.1645 132.744 39.6286ZM32.3401 108.267C20.7186 108.267 13.8463 101.06 13.8463 88.0413C13.8463 76.1405 20.7745 67.8155 33.1223 67.8155C41.7267 67.8155 48.2637 72.1177 50.3869 80.2192L43.0676 81.616C41.8943 77.0903 38.8772 73.4586 33.1223 73.4586C29.0436 73.4586 25.8589 74.6878 23.9033 77.4256C22.2272 79.7722 21.2773 83.2922 21.2773 88.0413C21.2773 92.8464 22.0595 96.2546 23.7916 98.6571C25.6913 101.395 28.8201 102.624 33.3458 102.624C39.6035 102.624 43.5146 99.1041 43.9616 92.3994H32.4518V86.421H50.778V107.597H44.9114L44.4644 102.401C42.0619 106.144 37.648 108.267 32.3401 108.267ZM65.4738 108.267C61.8979 108.267 59.4395 107.317 57.4281 105.194C55.2491 102.903 55.0256 99.4393 55.0256 96.0311V79.6605H61.7862V95.6958C61.7862 98.266 61.842 100.222 63.183 101.618C64.5239 102.959 65.9766 103.071 67.5969 103.071C70.2229 103.071 73.6311 101.73 73.6311 95.0812V79.6605H80.1682V107.597H73.687V103.518C72.1784 106.591 69.329 108.267 65.4738 108.267ZM85.2194 107.597V79.6605H91.8683V107.597H85.2194ZM85.2753 75.3024V68.1507H91.8683V75.3024H85.2753ZM108.03 108.267C100.711 108.267 95.4026 102.736 95.4026 93.6286C95.4026 84.8007 100.431 78.99 107.918 78.99C111.55 78.99 114.455 80.3868 116.299 83.1245V68.486H122.892V107.597H116.299V103.63C114.679 106.703 111.717 108.267 108.03 108.267ZM102.61 93.6286C102.61 100.054 104.119 103.406 109.538 103.406C111.55 103.406 113.058 102.792 114.176 101.618C115.74 99.9422 116.467 97.2603 116.467 93.6844C116.467 88.0972 114.958 83.9068 109.65 83.9068C107.192 83.9068 105.516 84.6331 104.454 85.974C103.113 87.5943 102.61 90.1645 102.61 93.6286ZM140.321 108.267C135.963 108.267 132.61 106.87 130.208 104.412C127.638 101.786 126.464 98.0984 126.464 93.5727C126.464 89.2705 127.693 85.5829 130.208 82.9011C132.666 80.3309 136.018 78.99 140.265 78.99C144.679 78.99 148.422 80.6662 150.769 83.6274C153.004 86.421 154.121 90.6673 153.953 95.4724H133.169C133.281 100.668 135.627 103.295 140.265 103.295C144.343 103.295 146.467 101.562 147.081 98.1542L153.506 98.6571C152.054 105.082 147.472 108.267 140.321 108.267ZM133.225 90.4997H147.193C147.081 88.9353 146.578 87.315 145.628 86.1417C144.399 84.6331 142.723 83.9626 140.265 83.9626C137.639 83.9626 135.739 84.8566 134.622 86.421C133.728 87.6502 133.337 89.1588 133.225 90.4997ZM157.397 107.597V68.486H164.046V107.597H157.397ZM169.089 107.597V79.6605H175.738V107.597H169.089ZM169.145 75.3024V68.1507H175.738V75.3024H169.145ZM180.781 107.597V79.6605H187.374V83.9068C188.771 80.4985 191.788 78.99 195.811 78.99C199.442 78.99 201.733 79.8839 203.633 81.8395C205.812 84.0744 205.979 87.3708 205.979 90.7232V107.597H199.275V91.226C199.275 88.6559 199.163 86.868 197.71 85.5271C196.481 84.2979 195.14 84.1861 193.52 84.1861C191.061 84.1861 187.43 85.5271 187.43 92.2876V107.597H180.781ZM223.154 108.267C218.796 108.267 215.443 106.87 213.041 104.412C210.471 101.786 209.297 98.0984 209.297 93.5727C209.297 89.2705 210.527 85.5829 213.041 82.9011C215.499 80.3309 218.852 78.99 223.098 78.99C227.512 78.99 231.255 80.6662 233.602 83.6274C235.837 86.421 236.954 90.6673 236.787 95.4724H216.002C216.114 100.668 218.46 103.295 223.098 103.295C227.176 103.295 229.3 101.562 229.914 98.1542L236.34 98.6571C234.887 105.082 230.305 108.267 223.154 108.267ZM216.058 90.4997H230.026C229.914 88.9353 229.411 87.315 228.462 86.1417C227.232 84.6331 225.556 83.9626 223.098 83.9626C220.472 83.9626 218.572 84.8566 217.455 86.421C216.561 87.6502 216.17 89.1588 216.058 90.4997ZM250.79 108.267C244.253 108.267 238.61 105.418 238.387 98.713L244.589 97.9866C244.644 101.618 247.159 103.518 250.846 103.518C254.59 103.518 256.545 102.177 256.545 99.8304C256.545 97.372 253.081 96.925 248.891 95.8635C243.918 94.5784 239.169 93.014 239.169 87.3708C239.169 81.3925 244.589 78.99 250.176 78.99C256.266 78.99 261.462 81.2249 262.077 87.8737L255.987 88.8794C255.819 85.4153 253.696 83.7391 250.176 83.7391C247.717 83.7391 245.427 84.689 245.427 86.868C245.427 89.047 247.997 89.7175 251.573 90.4997C256.825 91.673 262.803 92.8464 262.803 99.4393C262.803 106.2 256.936 108.267 250.79 108.267Z" fill="#0080BC"/>
<path fill-rule="evenodd" clip-rule="evenodd" d="M549 2.5873C549 1.32395 547.976 0.299805 546.712 0.299805H396.881C395.618 0.299805 394.594 1.32395 394.594 2.5873V152.419C394.594 153.682 395.618 154.706 396.881 154.706C395.618 154.706 394.594 155.73 394.594 156.994V229.622C394.594 230.885 395.618 231.909 396.881 231.909C395.618 231.909 394.594 232.933 394.594 234.197V268.223C394.594 269.487 395.618 270.511 396.881 270.511C395.618 270.511 394.594 271.535 394.594 272.798V306.825C394.594 308.088 395.618 309.112 396.881 309.112H430.908C432.171 309.112 433.195 308.088 433.195 306.825C433.195 308.088 434.219 309.112 435.483 309.112H469.509C470.773 309.112 471.797 308.088 471.797 306.825C471.797 308.088 472.821 309.112 474.084 309.112H488.953C490.216 309.112 491.241 308.088 491.241 306.825C491.241 308.088 492.265 309.112 493.528 309.112H508.111C509.374 309.112 510.398 308.088 510.398 306.825C510.398 308.088 511.423 309.112 512.686 309.112H517.833C519.096 309.112 520.12 308.088 520.12 306.825C520.12 308.088 521.144 309.112 522.408 309.112H527.555C528.818 309.112 529.842 308.088 529.842 306.825C529.842 308.088 530.866 309.112 532.13 309.112H537.277C538.54 309.112 539.564 308.088 539.564 306.825C539.564 308.088 540.588 309.112 541.852 309.112H546.712C547.976 309.112 549 308.088 549 306.825V301.678C549 300.415 547.976 299.39 546.712 299.39C547.976 299.39 549 298.366 549 297.103V291.956C549 290.693 547.976 289.669 546.712 289.669C547.976 289.669 549 288.644 549 287.381V282.234C549 280.971 547.976 279.947 546.712 279.947C547.976 279.947 549 278.923 549 277.659V272.798C549 271.535 547.976 270.511 546.712 270.511C547.976 270.511 549 269.487 549 268.223V253.354C549 252.091 547.976 251.067 546.712 251.067C547.976 251.067 549 250.043 549 248.779V234.197C549 232.933 547.976 231.909 546.712 231.909C547.976 231.909 549 230.885 549 229.622V156.994C549 155.73 547.976 154.706 546.712 154.706C547.976 154.706 549 153.682 549 152.419V2.5873ZM529.842 301.678C529.842 300.415 530.866 299.39 532.13 299.39C530.866 299.39 529.842 298.366 529.842 297.103C529.842 298.366 528.818 299.39 527.555 299.39C528.818 299.39 529.842 300.415 529.842 301.678ZM537.277 299.39C538.54 299.39 539.564 300.415 539.564 301.678C539.564 300.415 540.588 299.39 541.852 299.39C540.588 299.39 539.564 298.366 539.564 297.103C539.564 298.366 538.54 299.39 537.277 299.39ZM510.398 301.678C510.398 300.415 511.423 299.39 512.686 299.39C511.423 299.39 510.398 298.366 510.398 297.103V301.678ZM517.833 299.39C519.096 299.39 520.12 300.415 520.12 301.678C520.12 300.415 521.144 299.39 522.408 299.39C521.144 299.39 520.12 298.366 520.12 297.103C520.12 298.366 519.096 299.39 517.833 299.39ZM529.842 291.956C529.842 290.693 530.866 289.669 532.13 289.669C530.866 289.669 529.842 288.644 529.842 287.381C529.842 288.644 528.818 289.669 527.555 289.669C528.818 289.669 529.842 290.693 529.842 291.956ZM539.564 291.956C539.564 290.693 538.54 289.669 537.277 289.669C538.54 289.669 539.564 288.644 539.564 287.381C539.564 288.644 540.588 289.669 541.852 289.669C540.588 289.669 539.564 290.693 539.564 291.956ZM527.555 279.947C528.818 279.947 529.842 280.971 529.842 282.234C529.842 280.971 530.866 279.947 532.13 279.947C530.866 279.947 529.842 278.923 529.842 277.659C529.842 278.923 528.818 279.947 527.555 279.947ZM539.564 282.234C539.564 280.971 538.54 279.947 537.277 279.947C538.54 279.947 539.564 278.923 539.564 277.659C539.564 278.923 540.588 279.947 541.852 279.947C540.588 279.947 539.564 280.971 539.564 282.234ZM541.852 270.511C540.588 270.511 539.564 271.535 539.564 272.798C539.564 271.535 538.54 270.511 537.277 270.511H541.852ZM529.842 268.223C529.842 269.487 530.866 270.511 532.13 270.511C530.866 270.511 529.842 271.535 529.842 272.798C529.842 271.535 528.818 270.511 527.555 270.511C528.818 270.511 529.842 269.487 529.842 268.223ZM510.398 291.956C510.398 290.693 511.423 289.669 512.686 289.669C511.423 289.669 510.398 288.644 510.398 287.381C510.398 288.644 509.374 289.669 508.111 289.669C509.374 289.669 510.398 290.693 510.398 291.956ZM520.12 291.956C520.12 290.693 519.096 289.669 517.833 289.669C519.096 289.669 520.12 288.644 520.12 287.381C520.12 288.644 521.144 289.669 522.408 289.669C521.144 289.669 520.12 290.693 520.12 291.956ZM510.398 277.659V282.234C510.398 280.971 511.423 279.947 512.686 279.947C511.423 279.947 510.398 278.923 510.398 277.659ZM520.12 282.234C520.12 280.971 519.096 279.947 517.833 279.947C519.096 279.947 520.12 278.923 520.12 277.659C520.12 278.923 521.144 279.947 522.408 279.947C521.144 279.947 520.12 280.971 520.12 282.234ZM522.408 270.511C521.144 270.511 520.12 271.535 520.12 272.798C520.12 271.535 519.096 270.511 517.833 270.511H522.408ZM510.398 268.223C510.398 269.487 511.423 270.511 512.686 270.511C511.423 270.511 510.398 271.535 510.398 272.798C510.398 271.535 509.374 270.511 508.111 270.511C509.374 270.511 510.398 269.487 510.398 268.223ZM510.398 253.354C510.398 252.091 511.423 251.067 512.686 251.067C511.423 251.067 510.398 250.043 510.398 248.779C510.398 250.043 509.374 251.067 508.111 251.067C509.374 251.067 510.398 252.091 510.398 253.354ZM527.555 251.067C528.818 251.067 529.842 252.091 529.842 253.354C529.842 252.091 530.866 251.067 532.13 251.067C530.866 251.067 529.842 250.043 529.842 248.779C529.842 250.043 528.818 251.067 527.555 251.067ZM474.084 289.669C472.821 289.669 471.797 290.693 471.797 291.956V287.381C471.797 288.644 472.821 289.669 474.084 289.669ZM493.528 289.669C492.265 289.669 491.241 290.693 491.241 291.956C491.241 290.693 490.216 289.669 488.953 289.669C490.216 289.669 491.241 288.644 491.241 287.381C491.241 288.644 492.265 289.669 493.528 289.669ZM435.483 270.511C434.219 270.511 433.195 271.535 433.195 272.798C433.195 271.535 432.171 270.511 430.908 270.511C432.171 270.511 433.195 269.487 433.195 268.223C433.195 269.487 434.219 270.511 435.483 270.511ZM510.398 234.197C510.398 232.933 511.423 231.909 512.686 231.909H508.111C509.374 231.909 510.398 232.933 510.398 234.197ZM527.555 231.909C528.818 231.909 529.842 232.933 529.842 234.197C529.842 232.933 530.866 231.909 532.13 231.909H527.555ZM493.528 270.511C492.265 270.511 491.241 271.535 491.241 272.798C491.241 271.535 490.216 270.511 488.953 270.511C490.216 270.511 491.241 269.487 491.241 268.223C491.241 269.487 492.265 270.511 493.528 270.511ZM474.084 270.511C472.821 270.511 471.797 269.487 471.797 268.223C471.797 269.487 470.773 270.511 469.509 270.511C470.773 270.511 471.797 271.535 471.797 272.798C471.797 271.535 472.821 270.511 474.084 270.511ZM471.797 253.354C471.797 252.091 472.821 251.067 474.084 251.067C472.821 251.067 471.797 250.043 471.797 248.779V253.354ZM488.953 251.067C490.216 251.067 491.241 250.043 491.241 248.779C491.241 250.043 492.265 251.067 493.528 251.067C492.265 251.067 491.241 252.091 491.241 253.354C491.241 252.091 490.216 251.067 488.953 251.067ZM471.797 234.197C471.797 232.933 472.821 231.909 474.084 231.909C472.821 231.909 471.797 230.885 471.797 229.622C471.797 230.885 470.773 231.909 469.509 231.909C470.773 231.909 471.797 232.933 471.797 234.197ZM488.953 231.909C490.216 231.909 491.241 232.933 491.241 234.197C491.241 232.933 492.265 231.909 493.528 231.909H488.953ZM433.195 234.197C433.195 232.933 432.171 231.909 430.908 231.909H435.483C434.219 231.909 433.195 232.933 433.195 234.197ZM469.509 154.706C470.773 154.706 471.797 155.73 471.797 156.994C471.797 155.73 472.821 154.706 474.084 154.706H469.509Z" fill="#0080BC"/>
<path d="M122.171 295.995C115.919 295.995 110.698 293.515 110.004 287.592C109.983 287.408 110.115 287.242 110.298 287.219L116.714 286.398C116.914 286.372 117.093 286.526 117.11 286.728C117.368 289.679 119.455 291.012 122.332 291.012C125.382 291.012 126.934 289.886 126.934 287.904C126.934 286.136 124.901 285.493 120.673 284.475C115.536 283.242 110.827 281.635 110.827 276.116C110.827 270.222 116.018 267.917 121.797 267.917C127.578 267.917 132.533 269.829 133.368 275.683C133.393 275.864 133.269 276.032 133.089 276.063L126.886 277.122C126.684 277.157 126.497 277.006 126.476 276.801C126.189 274.072 124.462 272.847 121.904 272.847C119.71 272.847 117.89 273.651 117.89 275.526C117.89 277.348 119.817 277.991 123.402 278.795C128.165 279.866 134.105 281.152 134.105 287.529C134.105 293.959 128.433 295.995 122.171 295.995Z" fill="#0080BC"/>
<path d="M105.814 270.469C107.954 272.612 108.222 275.506 108.222 278.988V295.417C108.222 295.607 108.068 295.761 107.878 295.761H101.02C100.83 295.761 100.677 295.607 100.677 295.417V279.631C100.677 277.167 100.463 275.881 99.2852 274.755C98.322 273.845 97.4123 273.684 95.8069 273.684C93.5058 273.684 90.8302 275.238 90.8302 280.757V295.417C90.8302 295.607 90.6764 295.761 90.4867 295.761H83.6818C83.4922 295.761 83.3384 295.607 83.3384 295.417V268.937C83.3384 268.747 83.4922 268.593 83.6818 268.593H90.4332C90.6229 268.593 90.7767 268.747 90.7767 268.937V271.853C90.7767 272.018 91.0211 272.07 91.0978 271.924C92.6034 269.06 95.4653 267.95 98.6966 267.95C102.121 267.95 104.101 268.754 105.814 270.469Z" fill="#0080BC"/>
<path d="M77.4095 271.363C80.0076 274.009 81.3164 278.029 81.4265 283.121C81.4306 283.308 81.2826 283.463 81.0957 283.469L62.2035 284.067C62.0123 284.073 61.8625 284.236 61.8756 284.427C62.1686 288.691 64.3687 290.807 68.2752 290.684C71.5717 290.579 73.2354 289.085 73.7532 286.472C73.7875 286.299 73.9416 286.174 74.1174 286.184L80.6973 286.556C80.9093 286.568 81.0597 286.769 81.0076 286.975C79.5451 292.763 75.19 295.772 68.4426 295.986C64.2707 296.118 60.9123 294.884 58.5965 292.759C55.9497 290.323 54.5545 286.829 54.4125 282.33C54.2772 278.046 55.3389 274.367 57.8803 271.767C60.161 269.389 63.3313 268.056 67.5032 267.924C71.7286 267.79 75.087 269.024 77.4095 271.363ZM67.6672 273.119C65.4743 273.188 63.9435 273.88 62.9695 275.251C62.315 276.151 61.9339 277.265 61.7845 278.553C61.7609 278.756 61.9262 278.93 62.1309 278.923L73.2966 278.57C73.4993 278.563 73.6528 278.383 73.6212 278.183C73.3865 276.694 72.9138 275.448 71.9951 274.537C70.9451 273.498 69.5927 273.058 67.6672 273.119Z" fill="#0080BC"/>
<path fill-rule="evenodd" clip-rule="evenodd" d="M19.8993 280.6L30.1684 263.708C30.2876 263.512 30.0731 263.283 29.8694 263.389C28.0742 264.325 23.2302 267.032 19.4273 270.829C15.2596 274.99 18.6277 279.556 19.5317 280.629C19.6316 280.748 19.8187 280.733 19.8993 280.6ZM29.9146 300.181C30.052 300.39 29.7994 300.635 29.5945 300.491L21.0152 294.488C15.608 290.704 13.1183 283.948 14.8326 277.581C14.9684 277.077 15.1141 276.636 15.251 276.266C15.3359 276.036 15.6732 276.086 15.6902 276.33C15.8348 278.403 17.3279 280.773 18.4116 282.493C18.6051 282.8 18.7855 283.086 18.9428 283.347C19.9961 285.089 27.6209 296.694 29.9146 300.181ZM31.006 300.187L41.2751 283.294C41.3556 283.162 41.5427 283.147 41.6426 283.266C42.5467 284.339 45.9147 288.904 41.7471 293.066C37.9441 296.863 33.1002 299.57 31.305 300.506C31.1013 300.612 30.8867 300.383 31.006 300.187ZM31.259 263.715C31.1216 263.506 31.3741 263.262 31.5791 263.405L40.1583 269.409C45.5655 273.193 48.0552 279.948 46.3409 286.315C46.2051 286.819 46.0594 287.261 45.9226 287.631C45.8377 287.86 45.5003 287.811 45.4833 287.567C45.3387 285.494 43.8456 283.124 42.7619 281.404C42.5685 281.097 42.3881 280.81 42.2307 280.55C41.1774 278.808 33.5527 267.203 31.259 263.715Z" fill="#0080BC"/>
<rect x="328" y="281" width="213.132" height="20" rx="2" fill="#CEE1E8"/>
<path d="M336.9 295V286.6H339.888C342.528 286.6 344.016 288.268 344.016 290.8C344.016 293.428 342.456 295 339.888 295H336.9ZM338.4 293.788H339.768C340.752 293.788 341.46 293.5 341.868 292.96C342.264 292.42 342.42 291.724 342.42 290.8C342.42 289.864 342.3 289.252 341.892 288.652C341.484 288.052 340.716 287.812 339.768 287.812H338.4V293.788ZM348.169 295.144C346.249 295.144 345.097 293.956 345.097 292C345.097 290.176 346.261 288.856 348.169 288.856C350.053 288.856 351.217 290.188 351.217 292C351.217 293.884 350.017 295.144 348.169 295.144ZM346.621 292C346.621 292.792 346.753 293.356 347.065 293.692C347.305 293.968 347.665 294.1 348.169 294.1C348.673 294.1 349.045 293.956 349.285 293.668C349.573 293.32 349.693 292.768 349.693 292C349.693 291.232 349.561 290.68 349.273 290.332C349.033 290.044 348.673 289.9 348.169 289.9C347.677 289.9 347.305 290.032 347.065 290.308C346.753 290.644 346.621 291.208 346.621 292ZM353.694 295L351.858 289H353.334L354.102 292.132L354.462 293.788H354.474C354.606 293.14 354.75 292.42 354.822 292.132L355.578 289H356.97L357.702 292.132C357.798 292.528 357.906 293.128 358.05 293.788H358.062C358.206 293.104 358.314 292.576 358.422 292.132L359.202 289H360.678L358.842 295H357.318L356.61 292.084C356.502 291.652 356.382 291.028 356.262 290.368H356.25C356.13 291.016 356.01 291.688 355.914 292.084L355.218 295H353.694ZM361.756 295V289H363.172V289.912C363.472 289.18 364.12 288.856 364.984 288.856C365.764 288.856 366.256 289.048 366.664 289.468C367.132 289.948 367.168 290.656 367.168 291.376V295H365.728V291.484C365.728 290.932 365.704 290.548 365.392 290.26C365.128 289.996 364.84 289.972 364.492 289.972C363.964 289.972 363.184 290.26 363.184 291.712V295H361.756ZM368.805 295V286.6H370.233V295H368.805ZM374.652 295.144C372.732 295.144 371.58 293.956 371.58 292C371.58 290.176 372.744 288.856 374.652 288.856C376.536 288.856 377.7 290.188 377.7 292C377.7 293.884 376.5 295.144 374.652 295.144ZM373.104 292C373.104 292.792 373.236 293.356 373.548 293.692C373.788 293.968 374.148 294.1 374.652 294.1C375.156 294.1 375.528 293.956 375.768 293.668C376.056 293.32 376.176 292.768 376.176 292C376.176 291.232 376.044 290.68 375.756 290.332C375.516 290.044 375.156 289.9 374.652 289.9C374.16 289.9 373.788 290.032 373.548 290.308C373.236 290.644 373.104 291.208 373.104 292ZM380.847 295.144C379.743 295.144 378.771 294.556 378.771 293.344C378.771 292.06 379.839 291.7 380.931 291.496L382.719 291.16C382.719 290.764 382.719 290.476 382.551 290.236C382.383 290.008 382.083 289.9 381.591 289.9C380.763 289.9 380.379 290.188 380.367 291.028L378.975 290.848C379.011 290.14 379.275 289.636 379.731 289.324C380.175 289.012 380.835 288.856 381.675 288.856C383.223 288.856 384.099 289.528 384.099 290.836V293.92C384.099 294.316 384.183 294.664 384.303 294.952V295H382.875C382.827 294.772 382.791 294.52 382.791 294.148C382.479 294.736 381.831 295.144 380.847 295.144ZM380.223 293.332C380.223 293.848 380.631 294.1 381.147 294.1C382.167 294.1 382.719 293.584 382.719 292.696V292.132L381.159 292.468C380.607 292.6 380.223 292.78 380.223 293.332ZM388.097 295.144C386.525 295.144 385.385 293.956 385.385 292C385.385 290.104 386.465 288.856 388.073 288.856C388.853 288.856 389.477 289.156 389.873 289.744V286.6H391.289V295H389.873V294.148C389.525 294.808 388.889 295.144 388.097 295.144ZM386.933 292C386.933 293.38 387.257 294.1 388.421 294.1C388.853 294.1 389.177 293.968 389.417 293.716C389.753 293.356 389.909 292.78 389.909 292.012C389.909 290.812 389.585 289.912 388.445 289.912C387.917 289.912 387.557 290.068 387.329 290.356C387.041 290.704 386.933 291.256 386.933 292ZM395.931 295V286.6H398.991C400.551 286.6 402.279 286.84 402.279 288.88C402.279 289.744 401.835 290.356 401.151 290.692C402.075 291.028 402.603 291.64 402.603 292.672C402.603 294.772 400.887 295 399.123 295H395.931ZM397.431 293.8H399.075C400.239 293.8 401.139 293.764 401.139 292.6C401.139 291.34 400.047 291.316 399.135 291.316H397.431V293.8ZM397.431 290.116H398.895C399.903 290.116 400.815 290.092 400.815 288.964C400.815 287.848 399.903 287.812 398.907 287.812H397.431V290.116ZM403.995 295V289H405.411V290.08C405.603 289.456 406.203 288.94 407.175 288.868C407.271 288.856 407.499 288.856 407.595 288.856L407.559 290.152C407.475 290.14 407.367 290.14 407.259 290.14C406.131 290.14 405.423 290.596 405.423 292.252V295H403.995ZM410.289 295.144C409.185 295.144 408.213 294.556 408.213 293.344C408.213 292.06 409.281 291.7 410.373 291.496L412.161 291.16C412.161 290.764 412.161 290.476 411.993 290.236C411.825 290.008 411.525 289.9 411.033 289.9C410.205 289.9 409.821 290.188 409.809 291.028L408.417 290.848C408.453 290.14 408.717 289.636 409.173 289.324C409.617 289.012 410.277 288.856 411.117 288.856C412.665 288.856 413.541 289.528 413.541 290.836V293.92C413.541 294.316 413.625 294.664 413.745 294.952V295H412.317C412.269 294.772 412.233 294.52 412.233 294.148C411.921 294.736 411.273 295.144 410.289 295.144ZM409.665 293.332C409.665 293.848 410.073 294.1 410.589 294.1C411.609 294.1 412.161 293.584 412.161 292.696V292.132L410.601 292.468C410.049 292.6 409.665 292.78 409.665 293.332ZM415.151 295V289H416.567V289.912C416.867 289.18 417.515 288.856 418.379 288.856C419.159 288.856 419.651 289.048 420.059 289.468C420.527 289.948 420.563 290.656 420.563 291.376V295H419.123V291.484C419.123 290.932 419.099 290.548 418.787 290.26C418.523 289.996 418.235 289.972 417.887 289.972C417.359 289.972 416.579 290.26 416.579 291.712V295H415.151ZM424.587 295.144C423.015 295.144 421.875 293.956 421.875 292C421.875 290.104 422.955 288.856 424.563 288.856C425.343 288.856 425.967 289.156 426.363 289.744V286.6H427.779V295H426.363V294.148C426.015 294.808 425.379 295.144 424.587 295.144ZM423.423 292C423.423 293.38 423.747 294.1 424.911 294.1C425.343 294.1 425.667 293.968 425.907 293.716C426.243 293.356 426.399 292.78 426.399 292.012C426.399 290.812 426.075 289.912 424.935 289.912C424.407 289.912 424.047 290.068 423.819 290.356C423.531 290.704 423.423 291.256 423.423 292ZM435.95 295.144C433.454 295.144 431.978 293.596 431.978 290.8C431.978 288.244 433.466 286.456 436.118 286.456C437.966 286.456 439.37 287.38 439.826 289.12L438.254 289.42C438.002 288.448 437.354 287.668 436.118 287.668C435.242 287.668 434.558 287.932 434.138 288.52C433.778 289.024 433.574 289.78 433.574 290.8C433.574 291.832 433.742 292.564 434.114 293.08C434.522 293.668 435.194 293.932 436.166 293.932C437.51 293.932 438.35 293.176 438.446 291.736H435.974V290.452H439.91V295H438.65L438.554 293.884C438.038 294.688 437.09 295.144 435.95 295.144ZM443.666 295.144C442.898 295.144 442.37 294.94 441.938 294.484C441.47 293.992 441.422 293.248 441.422 292.516V289H442.874V292.444C442.874 292.996 442.886 293.416 443.174 293.716C443.462 294.004 443.774 294.028 444.122 294.028C444.686 294.028 445.418 293.74 445.418 292.312V289H446.822V295H445.43V294.124C445.106 294.784 444.494 295.144 443.666 295.144ZM448.507 295V289H449.935V295H448.507ZM448.519 288.064V286.528H449.935V288.064H448.519ZM454.006 295.144C452.434 295.144 451.294 293.956 451.294 292C451.294 290.104 452.374 288.856 453.982 288.856C454.762 288.856 455.386 289.156 455.782 289.744V286.6H457.198V295H455.782V294.148C455.434 294.808 454.798 295.144 454.006 295.144ZM452.842 292C452.842 293.38 453.166 294.1 454.33 294.1C454.762 294.1 455.086 293.968 455.326 293.716C455.662 293.356 455.818 292.78 455.818 292.012C455.818 290.812 455.494 289.912 454.354 289.912C453.826 289.912 453.466 290.068 453.238 290.356C452.95 290.704 452.842 291.256 452.842 292ZM461.541 295.144C460.605 295.144 459.885 294.844 459.369 294.316C458.817 293.752 458.565 292.96 458.565 291.988C458.565 291.064 458.829 290.272 459.369 289.696C459.897 289.144 460.617 288.856 461.529 288.856C462.477 288.856 463.281 289.216 463.785 289.852C464.265 290.452 464.505 291.364 464.469 292.396H460.005C460.029 293.512 460.533 294.076 461.529 294.076C462.405 294.076 462.861 293.704 462.993 292.972L464.373 293.08C464.061 294.46 463.077 295.144 461.541 295.144ZM460.017 291.328H463.017C462.993 290.992 462.885 290.644 462.681 290.392C462.417 290.068 462.057 289.924 461.529 289.924C460.965 289.924 460.557 290.116 460.317 290.452C460.125 290.716 460.041 291.04 460.017 291.328ZM465.809 295V286.6H467.237V295H465.809ZM468.92 295V289H470.348V295H468.92ZM468.932 288.064V286.528H470.348V288.064H468.932ZM472.031 295V289H473.447V289.912C473.747 289.18 474.395 288.856 475.259 288.856C476.039 288.856 476.531 289.048 476.939 289.468C477.407 289.948 477.443 290.656 477.443 291.376V295H476.003V291.484C476.003 290.932 475.979 290.548 475.667 290.26C475.403 289.996 475.115 289.972 474.767 289.972C474.239 289.972 473.459 290.26 473.459 291.712V295H472.031ZM481.732 295.144C480.796 295.144 480.076 294.844 479.56 294.316C479.008 293.752 478.756 292.96 478.756 291.988C478.756 291.064 479.02 290.272 479.56 289.696C480.088 289.144 480.808 288.856 481.72 288.856C482.668 288.856 483.472 289.216 483.976 289.852C484.456 290.452 484.696 291.364 484.66 292.396H480.196C480.22 293.512 480.724 294.076 481.72 294.076C482.596 294.076 483.052 293.704 483.184 292.972L484.564 293.08C484.252 294.46 483.268 295.144 481.732 295.144ZM480.208 291.328H483.208C483.184 290.992 483.076 290.644 482.872 290.392C482.608 290.068 482.248 289.924 481.72 289.924C481.156 289.924 480.748 290.116 480.508 290.452C480.316 290.716 480.232 291.04 480.208 291.328ZM488.268 295.144C486.864 295.144 485.652 294.532 485.604 293.092L486.936 292.936C486.948 293.716 487.488 294.124 488.28 294.124C489.084 294.124 489.504 293.836 489.504 293.332C489.504 292.804 488.76 292.708 487.86 292.48C486.792 292.204 485.772 291.868 485.772 290.656C485.772 289.372 486.936 288.856 488.136 288.856C489.444 288.856 490.56 289.336 490.692 290.764L489.384 290.98C489.348 290.236 488.892 289.876 488.136 289.876C487.608 289.876 487.116 290.08 487.116 290.548C487.116 291.016 487.668 291.16 488.436 291.328C489.564 291.58 490.848 291.832 490.848 293.248C490.848 294.7 489.588 295.144 488.268 295.144ZM495.144 295V286.6H498.132C499.68 286.6 501.564 286.852 501.564 289.204C501.564 291.532 499.692 291.784 498.12 291.784H496.644V295H495.144ZM496.644 290.584H498.096C499.08 290.584 500.064 290.524 500.064 289.204C500.064 287.836 499.08 287.812 498.108 287.812H496.644V290.584ZM502.978 295V286.6H505.966C508.606 286.6 510.094 288.268 510.094 290.8C510.094 293.428 508.534 295 505.966 295H502.978ZM504.478 293.788H505.846C506.83 293.788 507.538 293.5 507.946 292.96C508.342 292.42 508.498 291.724 508.498 290.8C508.498 289.864 508.378 289.252 507.97 288.652C507.562 288.052 506.794 287.812 505.846 287.812H504.478V293.788ZM511.69 295V286.6H517.39V287.848H513.178V290.14H516.946V291.376H513.178V295H511.69Z" fill="#0080BC"/>
<path fill-rule="evenodd" clip-rule="evenodd" d="M533.132 290.556L530.566 295L528 290.556L530.121 290.556L530.121 287L531.01 287L531.01 290.556L533.132 290.556Z" fill="#0080BC"/>
</g>
<rect x="0.142969" y="0.442773" width="548.714" height="308.527" rx="1.85703" stroke="#E5E5E5" stroke-width="0.285938"/>
<defs>
<clipPath id="clip0_1974_2558">
<rect y="0.299805" width="549" height="308.812" rx="2" fill="white"/>
</clipPath>
</defs>
</svg>
