<svg width="358" height="358" viewBox="0 0 358 358" fill="none" xmlns="http://www.w3.org/2000/svg">
<rect width="358" height="358" transform="translate(0 -0.00805664)" fill="#F2F2F2"/>
<rect x="19.5" y="110.492" width="320" height="25" stroke="#E5E5E5"/>
<rect x="19.5" y="221.492" width="320" height="24" stroke="#E5E5E5"/>
<rect x="19" y="110.992" width="25" height="24.9966" fill="#E5E5E5"/>
<path d="M27.122 123.004C26.936 123.196 26.618 123.268 26.288 123.268C26.228 123.268 26.168 123.262 26.114 123.256V122.632C26.774 122.632 27.134 122.404 27.23 121.882H27.83V125.998H27.122V123.004ZM28.4953 126.202L30.2653 121.582H30.9733L29.2033 126.202H28.4953ZM32.8292 126.064C31.8992 126.064 31.4012 125.5 31.3952 124.72L32.1152 124.612C32.1092 125.146 32.3612 125.476 32.8292 125.476C33.2792 125.476 33.5552 125.242 33.5552 124.798C33.5552 124.312 33.2012 124.156 32.8592 124.156H32.4812V123.532H32.7872C33.0812 123.532 33.3992 123.388 33.3992 122.968C33.3992 122.62 33.2012 122.392 32.8292 122.392C32.2892 122.392 32.1752 122.836 32.1872 123.16L31.4492 123.052C31.4852 122.29 32.0372 121.81 32.8292 121.81C33.5552 121.81 34.1312 122.2 34.1312 122.956C34.1312 123.316 33.9392 123.616 33.6152 123.784C34.0592 123.934 34.2872 124.342 34.2872 124.792C34.2872 125.632 33.6692 126.064 32.8292 126.064Z" fill="#0080BC"/>
<rect x="19" y="220.992" width="25" height="24.9966" fill="#E5E5E5"/>
<path d="M27.122 233.004C26.936 233.196 26.618 233.268 26.288 233.268C26.228 233.268 26.168 233.262 26.114 233.256V232.632C26.774 232.632 27.134 232.404 27.23 231.882H27.83V235.998H27.122V233.004ZM28.4953 236.202L30.2653 231.582H30.9733L29.2033 236.202H28.4953ZM32.8292 236.064C31.8992 236.064 31.4012 235.5 31.3952 234.72L32.1152 234.612C32.1092 235.146 32.3612 235.476 32.8292 235.476C33.2792 235.476 33.5552 235.242 33.5552 234.798C33.5552 234.312 33.2012 234.156 32.8592 234.156H32.4812V233.532H32.7872C33.0812 233.532 33.3992 233.388 33.3992 232.968C33.3992 232.62 33.2012 232.392 32.8292 232.392C32.2892 232.392 32.1752 232.836 32.1872 233.16L31.4492 233.052C31.4852 232.29 32.0372 231.81 32.8292 231.81C33.5552 231.81 34.1312 232.2 34.1312 232.956C34.1312 233.316 33.9392 233.616 33.6152 233.784C34.0592 233.934 34.2872 234.342 34.2872 234.792C34.2872 235.632 33.6692 236.064 32.8292 236.064Z" fill="#0080BC"/>
<rect x="43.5" y="111.492" width="134" height="24" transform="rotate(90 43.5 111.492)" stroke="#E5E5E5"/>
<rect x="315" y="110.992" width="25" height="24.9966" fill="#E5E5E5"/>
<path d="M323.122 123.004C322.936 123.196 322.618 123.268 322.288 123.268C322.228 123.268 322.168 123.262 322.114 123.256V122.632C322.774 122.632 323.134 122.404 323.23 121.882H323.83V125.998H323.122V123.004ZM324.495 126.202L326.265 121.582H326.973L325.203 126.202H324.495ZM328.829 126.064C327.899 126.064 327.401 125.5 327.395 124.72L328.115 124.612C328.109 125.146 328.361 125.476 328.829 125.476C329.279 125.476 329.555 125.242 329.555 124.798C329.555 124.312 329.201 124.156 328.859 124.156H328.481V123.532H328.787C329.081 123.532 329.399 123.388 329.399 122.968C329.399 122.62 329.201 122.392 328.829 122.392C328.289 122.392 328.175 122.836 328.187 123.16L327.449 123.052C327.485 122.29 328.037 121.81 328.829 121.81C329.555 121.81 330.131 122.2 330.131 122.956C330.131 123.316 329.939 123.616 329.615 123.784C330.059 123.934 330.287 124.342 330.287 124.792C330.287 125.632 329.669 126.064 328.829 126.064Z" fill="#0080BC"/>
<rect x="315" y="220.992" width="25" height="24.9966" fill="#E5E5E5"/>
<path d="M323.122 233.004C322.936 233.196 322.618 233.268 322.288 233.268C322.228 233.268 322.168 233.262 322.114 233.256V232.632C322.774 232.632 323.134 232.404 323.23 231.882H323.83V235.998H323.122V233.004ZM324.495 236.202L326.265 231.582H326.973L325.203 236.202H324.495ZM328.829 236.064C327.899 236.064 327.401 235.5 327.395 234.72L328.115 234.612C328.109 235.146 328.361 235.476 328.829 235.476C329.279 235.476 329.555 235.242 329.555 234.798C329.555 234.312 329.201 234.156 328.859 234.156H328.481V233.532H328.787C329.081 233.532 329.399 233.388 329.399 232.968C329.399 232.62 329.201 232.392 328.829 232.392C328.289 232.392 328.175 232.836 328.187 233.16L327.449 233.052C327.485 232.29 328.037 231.81 328.829 231.81C329.555 231.81 330.131 232.2 330.131 232.956C330.131 233.316 329.939 233.616 329.615 233.784C330.059 233.934 330.287 234.342 330.287 234.792C330.287 235.632 329.669 236.064 328.829 236.064Z" fill="#0080BC"/>
<rect x="339.5" y="111.492" width="134" height="24" transform="rotate(90 339.5 111.492)" stroke="#E5E5E5"/>
<path d="M289.576 209.183C275.341 209.183 263.456 203.545 261.877 190.078C261.828 189.661 262.129 189.284 262.545 189.231L277.151 187.364C277.608 187.306 278.014 187.656 278.054 188.115C278.64 194.823 283.393 197.854 289.941 197.854C296.885 197.854 300.418 195.295 300.418 190.788C300.418 186.768 295.789 185.306 286.165 182.991C274.47 180.189 263.75 176.535 263.75 163.987C263.75 150.587 275.566 145.348 288.723 145.348C301.883 145.348 313.163 149.695 315.064 163.004C315.122 163.415 314.838 163.798 314.429 163.868L300.309 166.276C299.848 166.355 299.423 166.011 299.374 165.546C298.721 159.34 294.79 156.556 288.967 156.556C283.972 156.556 279.83 158.383 279.83 162.647C279.83 166.789 284.216 168.251 292.378 170.078C303.22 172.515 316.742 175.438 316.742 189.935C316.742 204.554 303.829 209.183 289.576 209.183Z" fill="#011A25"/>
<path d="M252.338 151.149C257.211 156.022 257.82 162.6 257.82 170.518V207.869C257.82 208.301 257.47 208.651 257.038 208.651H241.425C240.993 208.651 240.643 208.301 240.643 207.869V171.98C240.643 166.376 240.156 163.453 237.476 160.894C235.283 158.824 233.212 158.458 229.557 158.458C224.319 158.458 218.228 161.991 218.228 174.539V207.869C218.228 208.301 217.878 208.651 217.446 208.651H201.955C201.523 208.651 201.173 208.301 201.173 207.869V147.667C201.173 147.235 201.523 146.885 201.955 146.885H217.324C217.756 146.885 218.106 147.235 218.106 147.667V154.296C218.106 154.671 218.663 154.789 218.837 154.458C222.265 147.946 228.78 145.423 236.136 145.423C243.932 145.423 248.44 147.25 252.338 151.149Z" fill="#011A25"/>
<path d="M187.677 153.182C193.591 159.197 196.571 168.338 196.821 179.915C196.83 180.34 196.494 180.693 196.068 180.706L153.06 182.066C152.625 182.08 152.284 182.448 152.314 182.883C152.981 192.577 157.989 197.389 166.882 197.108C174.387 196.871 178.174 193.473 179.353 187.533C179.431 187.14 179.782 186.855 180.182 186.877L195.161 187.723C195.644 187.75 195.986 188.207 195.868 188.676C192.538 201.836 182.624 208.677 167.263 209.162C157.766 209.463 150.121 206.657 144.849 201.827C138.824 196.289 135.647 188.345 135.324 178.117C135.016 168.376 137.433 160.011 143.218 154.1C148.41 148.695 155.628 145.664 165.125 145.363C174.744 145.059 182.389 147.865 187.677 153.182ZM165.498 157.174C160.506 157.332 157.021 158.905 154.804 162.022C153.314 164.068 152.447 166.599 152.106 169.528C152.053 169.991 152.429 170.385 152.895 170.37L178.314 169.567C178.775 169.552 179.124 169.143 179.052 168.687C178.518 165.302 177.442 162.47 175.351 160.397C172.96 158.035 169.882 157.036 165.498 157.174Z" fill="#011A25"/>
<path d="M80.1307 135.778L56.7531 174.183C56.5698 174.485 56.1438 174.518 55.9164 174.249C53.8583 171.809 46.1909 161.429 55.6785 151.968C64.336 143.335 75.3632 137.18 79.45 135.053C79.9137 134.812 80.4021 135.332 80.1307 135.778Z" fill="#011A25"/>
<path d="M78.8249 219.406C79.2914 219.732 79.8663 219.176 79.5536 218.701C74.332 210.771 56.9743 184.387 54.5765 180.427C52.2115 176.52 47.56 170.028 47.1719 164.474C47.1332 163.919 46.3652 163.806 46.172 164.328C45.8605 165.169 45.5288 166.173 45.2196 167.319C41.317 181.794 46.9848 197.154 59.2942 205.756L78.8249 219.406V219.406Z" fill="#011A25"/>
<path d="M82.0379 218.714L105.416 180.308C105.599 180.007 106.025 179.973 106.252 180.243C108.31 182.683 115.978 193.063 106.49 202.523C97.8326 211.156 86.8054 217.311 82.7186 219.438C82.255 219.68 81.7665 219.16 82.0379 218.714Z" fill="#011A25"/>
<path d="M83.3432 135.09C82.8767 134.764 82.3018 135.32 82.6145 135.794C87.8361 143.724 105.194 170.108 107.592 174.068C109.957 177.975 114.608 184.467 114.996 190.022C115.035 190.576 115.803 190.689 115.996 190.167C116.308 189.326 116.639 188.323 116.948 187.176C120.851 172.701 115.183 157.341 102.874 148.739L83.3432 135.09Z" fill="#011A25"/>
</svg>
