<svg width="358" height="358" viewBox="0 0 358 358" fill="none" xmlns="http://www.w3.org/2000/svg">
<rect y="-0.00805664" width="358" height="358" rx="2" fill="#F2F2F2"/>
<path d="M177.584 116.827L142.912 173.787C142.64 174.234 142.008 174.284 141.671 173.884C138.619 170.265 127.247 154.871 141.318 140.84C154.158 128.036 170.513 118.908 176.574 115.753C177.262 115.395 177.986 116.166 177.584 116.827Z" fill="#011A25"/>
<path d="M175.649 240.847C176.341 241.331 177.194 240.506 176.73 239.802C168.986 228.041 143.242 188.911 139.686 183.037C136.179 177.244 129.28 167.615 128.704 159.377C128.647 158.555 127.508 158.388 127.221 159.161C126.759 160.408 126.267 161.897 125.809 163.598C120.021 185.065 128.427 207.846 146.683 220.604L175.649 240.847V240.847Z" fill="#011A25"/>
<path d="M180.414 239.823L215.086 182.863C215.358 182.416 215.99 182.366 216.327 182.766C219.379 186.385 230.751 201.779 216.68 215.81C203.84 228.613 187.485 237.742 181.424 240.897C180.736 241.255 180.012 240.484 180.414 239.823Z" fill="#011A25"/>
<path d="M182.351 115.807C181.659 115.323 180.806 116.148 181.27 116.852C189.014 128.613 214.757 167.743 218.314 173.617C221.821 179.41 228.72 189.039 229.295 197.277C229.353 198.099 230.492 198.266 230.778 197.493C231.24 196.246 231.732 194.757 232.191 193.056C237.979 171.589 229.573 148.809 211.317 136.05L182.351 115.807Z" fill="#011A25"/>
<rect x="234" y="78.662" width="36.6667" height="36.6667" fill="#E5E5E5"/>
<path d="M243.244 94.686C242.872 95.07 242.236 95.214 241.576 95.214C241.456 95.214 241.336 95.202 241.228 95.19V93.942C242.548 93.942 243.268 93.486 243.46 92.442H244.66V100.674H243.244V94.686ZM245.991 101.082L249.531 91.842H250.947L247.407 101.082H245.991ZM254.658 100.806C252.798 100.806 251.802 99.678 251.79 98.118L253.23 97.902C253.218 98.97 253.722 99.63 254.658 99.63C255.558 99.63 256.11 99.162 256.11 98.274C256.11 97.302 255.402 96.99 254.718 96.99H253.962V95.742H254.574C255.162 95.742 255.798 95.454 255.798 94.614C255.798 93.918 255.402 93.462 254.658 93.462C253.578 93.462 253.35 94.35 253.374 94.998L251.898 94.782C251.97 93.258 253.074 92.298 254.658 92.298C256.11 92.298 257.262 93.078 257.262 94.59C257.262 95.31 256.878 95.91 256.23 96.246C257.118 96.546 257.574 97.362 257.574 98.262C257.574 99.942 256.338 100.806 254.658 100.806Z" fill="#0080BC"/>
<rect x="87" y="78.662" width="36.6667" height="36.6667" fill="#E5E5E5"/>
<path d="M96.244 94.686C95.872 95.07 95.236 95.214 94.576 95.214C94.456 95.214 94.336 95.202 94.228 95.19V93.942C95.548 93.942 96.268 93.486 96.46 92.442H97.66V100.674H96.244V94.686ZM98.9906 101.082L102.531 91.842H103.947L100.407 101.082H98.9906ZM107.658 100.806C105.798 100.806 104.802 99.678 104.79 98.118L106.23 97.902C106.218 98.97 106.722 99.63 107.658 99.63C108.558 99.63 109.11 99.162 109.11 98.274C109.11 97.302 108.402 96.99 107.718 96.99H106.962V95.742H107.574C108.162 95.742 108.798 95.454 108.798 94.614C108.798 93.918 108.402 93.462 107.658 93.462C106.578 93.462 106.35 94.35 106.374 94.998L104.898 94.782C104.97 93.258 106.074 92.298 107.658 92.298C109.11 92.298 110.262 93.078 110.262 94.59C110.262 95.31 109.878 95.91 109.23 96.246C110.118 96.546 110.574 97.362 110.574 98.262C110.574 99.942 109.338 100.806 107.658 100.806Z" fill="#0080BC"/>
<rect x="234" y="240.662" width="36.6667" height="36.6667" fill="#E5E5E5"/>
<path d="M243.244 256.686C242.872 257.07 242.236 257.214 241.576 257.214C241.456 257.214 241.336 257.202 241.228 257.19V255.942C242.548 255.942 243.268 255.486 243.46 254.442H244.66V262.674H243.244V256.686ZM245.991 263.082L249.531 253.842H250.947L247.407 263.082H245.991ZM254.658 262.806C252.798 262.806 251.802 261.678 251.79 260.118L253.23 259.902C253.218 260.97 253.722 261.63 254.658 261.63C255.558 261.63 256.11 261.162 256.11 260.274C256.11 259.302 255.402 258.99 254.718 258.99H253.962V257.742H254.574C255.162 257.742 255.798 257.454 255.798 256.614C255.798 255.918 255.402 255.462 254.658 255.462C253.578 255.462 253.35 256.35 253.374 256.998L251.898 256.782C251.97 255.258 253.074 254.298 254.658 254.298C256.11 254.298 257.262 255.078 257.262 256.59C257.262 257.31 256.878 257.91 256.23 258.246C257.118 258.546 257.574 259.362 257.574 260.262C257.574 261.942 256.338 262.806 254.658 262.806Z" fill="#0080BC"/>
<rect x="87" y="240.662" width="36.6667" height="36.6667" fill="#E5E5E5"/>
<path d="M96.244 256.686C95.872 257.07 95.236 257.214 94.576 257.214C94.456 257.214 94.336 257.202 94.228 257.19V255.942C95.548 255.942 96.268 255.486 96.46 254.442H97.66V262.674H96.244V256.686ZM98.9906 263.082L102.531 253.842H103.947L100.407 263.082H98.9906ZM107.658 262.806C105.798 262.806 104.802 261.678 104.79 260.118L106.23 259.902C106.218 260.97 106.722 261.63 107.658 261.63C108.558 261.63 109.11 261.162 109.11 260.274C109.11 259.302 108.402 258.99 107.718 258.99H106.962V257.742H107.574C108.162 257.742 108.798 257.454 108.798 256.614C108.798 255.918 108.402 255.462 107.658 255.462C106.578 255.462 106.35 256.35 106.374 256.998L104.898 256.782C104.97 255.258 106.074 254.298 107.658 254.298C109.11 254.298 110.262 255.078 110.262 256.59C110.262 257.31 109.878 257.91 109.23 258.246C110.118 258.546 110.574 259.362 110.574 260.262C110.574 261.942 109.338 262.806 107.658 262.806Z" fill="#0080BC"/>
<rect x="87.5" y="79.162" width="183" height="36" stroke="#E5E5E5"/>
<rect x="87.5" y="241.162" width="183" height="36" stroke="#E5E5E5"/>
<rect x="123.5" y="79.162" width="198" height="36" transform="rotate(90 123.5 79.162)" stroke="#E5E5E5"/>
<rect x="270.5" y="79.162" width="198" height="36" transform="rotate(90 270.5 79.162)" stroke="#E5E5E5"/>
</svg>
