<svg width="1000" height="1000" viewBox="0 0 1000 1000" fill="none" xmlns="http://www.w3.org/2000/svg">
<rect width="1000" height="1000" rx="500" fill="#0080BC"/>
<path d="M492.35 174.173L308.302 475.929C306.859 478.295 303.505 478.559 301.715 476.441C285.512 457.271 225.149 375.716 299.842 301.384C368.001 233.556 454.816 185.195 486.991 168.481C490.641 166.585 494.486 170.671 492.35 174.173Z" fill="#F6F6F6"/>
<path d="M482.17 831.191C485.843 833.753 490.369 829.384 487.907 825.653C446.798 763.35 310.144 556.051 291.267 524.933C272.648 494.239 236.027 443.229 232.972 399.588C232.667 395.231 226.621 394.347 225.1 398.444C222.647 405.051 220.036 412.938 217.602 421.947C186.877 535.676 231.499 656.358 328.409 723.949L482.17 831.192V831.191Z" fill="#F6F6F6"/>
<path d="M507.45 825.825L691.498 524.069C692.941 521.703 696.295 521.439 698.085 523.558C714.288 542.727 774.651 624.282 699.957 698.614C631.799 766.443 544.984 814.803 512.809 831.517C509.159 833.414 505.314 829.328 507.45 825.825Z" fill="#F6F6F6"/>
<path d="M517.83 168.767C514.158 166.205 509.632 170.574 512.093 174.305C553.202 236.609 689.856 443.907 708.733 475.026C727.353 505.719 763.973 556.729 767.028 600.37C767.333 604.727 773.379 605.612 774.9 601.515C777.353 594.907 779.965 587.02 782.398 578.011C813.123 464.282 768.501 343.6 671.592 276.01L517.83 168.767Z" fill="#F6F6F6"/>
</svg>
