<svg width="300" height="300" viewBox="0 0 300 300" fill="none" xmlns="http://www.w3.org/2000/svg">
<circle cx="150" cy="150" r="150" fill="#0080BC"/>
<path d="M147.933 61.6735L98.2183 143.475C97.8284 144.116 96.9225 144.188 96.4389 143.614C92.0623 138.417 75.757 116.309 95.9331 96.1583C114.344 77.7711 137.794 64.6614 146.485 60.1304C147.471 59.6164 148.51 60.7239 147.933 61.6735Z" fill="#F6F6F6"/>
<path d="M145.183 239.781C146.175 240.476 147.398 239.291 146.733 238.28C135.628 221.39 98.7159 165.195 93.6169 156.759C88.5875 148.439 78.6955 134.611 77.8703 122.78C77.788 121.599 76.1548 121.359 75.744 122.47C75.0815 124.261 74.3761 126.399 73.7187 128.842C65.4193 159.672 77.4725 192.387 103.649 210.709L145.183 239.781V239.781Z" fill="#F6F6F6"/>
<path d="M152.011 238.327L201.726 156.525C202.116 155.884 203.022 155.812 203.505 156.387C207.882 161.583 224.187 183.691 204.011 203.842C185.6 222.229 162.15 235.339 153.459 239.87C152.473 240.384 151.434 239.276 152.011 238.327Z" fill="#F6F6F6"/>
<path d="M154.815 60.208C153.823 59.5135 152.601 60.6978 153.266 61.7092C164.37 78.5987 201.282 134.794 206.381 143.23C211.411 151.55 221.303 165.378 222.128 177.209C222.21 178.39 223.843 178.63 224.254 177.519C224.917 175.728 225.622 173.59 226.28 171.148C234.579 140.317 222.526 107.603 196.349 89.2797L154.815 60.208Z" fill="#F6F6F6"/>
</svg>
