<svg width="10" height="10" viewBox="0 0 10 10" fill="none" xmlns="http://www.w3.org/2000/svg">
<g id="octicon:bell-16" clip-path="url(#clip0_40_13498)">
<path id="Vector" d="M4.99572 9.67352C5.2852 9.67362 5.56476 9.56804 5.78191 9.3766C5.99905 9.18516 6.13884 8.92104 6.17503 8.63383C6.18513 8.55243 6.1174 8.4853 6.03541 8.4853H3.95602C3.87403 8.4853 3.8063 8.55243 3.8164 8.63383C3.85259 8.92104 3.99238 9.18516 4.20952 9.3766C4.42667 9.56804 4.70623 9.67362 4.99572 9.67352ZM2.02515 3.13829C2.02515 2.35044 2.33812 1.59487 2.89521 1.03778C3.4523 0.480694 4.20787 0.167725 4.99572 0.167725C5.78356 0.167725 6.53913 0.480694 7.09622 1.03778C7.65331 1.59487 7.96628 2.35044 7.96628 3.13829V4.88914C7.96628 4.91884 7.97519 4.94736 7.99123 4.97172L9.003 6.48967C9.09317 6.62553 9.14485 6.78328 9.15254 6.94615C9.16024 7.10903 9.12366 7.27094 9.0467 7.41469C8.96973 7.55844 8.85526 7.67866 8.71545 7.76256C8.57563 7.84645 8.4157 7.89091 8.25264 7.89119H1.73879C1.5754 7.89158 1.41498 7.84752 1.27471 7.76373C1.13444 7.67993 1.0196 7.55956 0.942506 7.4155C0.865409 7.27143 0.828953 7.10912 0.837042 6.94592C0.845132 6.78273 0.897462 6.62481 0.988428 6.48908L2.0002 4.97172C2.01635 4.94719 2.02502 4.9185 2.02515 4.88914V3.13829ZM4.99572 1.05889C4.44423 1.05889 3.91533 1.27797 3.52536 1.66793C3.1354 2.0579 2.91632 2.5868 2.91632 3.13829V4.88914C2.91632 5.0947 2.85572 5.29491 2.74165 5.46542L1.72988 6.98398C1.72868 6.98572 1.72805 6.9878 1.7281 6.98992L1.72869 6.99348C1.72869 6.99467 1.72988 6.99586 1.73107 6.99705L1.73463 6.99942L1.73879 7.00002H8.25264L8.2568 6.99942L8.26036 6.99705L8.26274 6.99348L8.26333 6.98932C8.26338 6.98721 8.26275 6.98513 8.26155 6.98338L7.24978 5.46602C7.13582 5.29544 7.07503 5.09488 7.07511 4.88973V3.13829C7.07511 2.5868 6.85603 2.0579 6.46607 1.66793C6.07611 1.27797 5.54721 1.05889 4.99572 1.05889Z" fill="#011A25"/>
</g>
<defs>
<clipPath id="clip0_40_13498">
<rect width="9.5058" height="9.5058" fill="white" transform="translate(0.243164 0.167725)"/>
</clipPath>
</defs>
</svg>
