<svg width="1374" height="115" viewBox="0 0 1374 115" fill="none" xmlns="http://www.w3.org/2000/svg">
<path fill-rule="evenodd" clip-rule="evenodd" d="M1.19243e-08 114L9.84123e-06 89.4664C1.04304e-05 40.0596 40.0473 4.7756e-07 89.4556 1.06675e-06L1284.54 1.5318e-05C1333.95 1.59072e-05 1374 40.0597 1374 89.4664L1374 115L1326 115L1326 89.4664C1326 66.5618 1307.44 48 1284.54 48L89.4556 48C66.5645 48 48 66.5618 48 89.4664L48 114L1.19243e-08 114ZM51.7076 114L51.7076 89.4664C51.7076 68.6216 68.6033 51.7172 89.4545 51.7172L1284.54 51.7172C1305.39 51.7172 1322.29 68.6216 1322.29 89.4664L1322.29 115L1274.29 115L1274.29 99.7172L99.7076 99.7172L99.7076 114L51.7076 114Z" fill="#E5E5E5"/>
</svg>
