<svg width="11" height="10" viewBox="0 0 11 10" fill="none" xmlns="http://www.w3.org/2000/svg">
<g id="octicon:home-16" clip-path="url(#clip0_40_13489)">
<path id="Vector" d="M4.87211 0.561872C5.05644 0.414204 5.28558 0.33374 5.52177 0.33374C5.75796 0.33374 5.9871 0.414204 6.17143 0.561872L9.29052 3.05714C9.53708 3.25439 9.68085 3.55323 9.68085 3.8693V8.03937C9.68085 8.31512 9.57132 8.57957 9.37634 8.77455C9.18135 8.96953 8.9169 9.07907 8.64116 9.07907H6.56176C6.44359 9.07907 6.33025 9.03212 6.24669 8.94856C6.16313 8.865 6.11618 8.75166 6.11618 8.63348V5.51439H4.92796V8.63348C4.92796 8.75166 4.88101 8.865 4.79745 8.94856C4.71388 9.03212 4.60055 9.07907 4.48237 9.07907H2.40298C2.12723 9.07907 1.86278 8.96953 1.6678 8.77455C1.47282 8.57957 1.36328 8.31512 1.36328 8.03937V3.8687C1.36328 3.55323 1.50706 3.25439 1.75361 3.05714L4.87211 0.561872ZM5.61475 1.25758C5.58843 1.23656 5.55575 1.22511 5.52207 1.22511C5.48839 1.22511 5.45571 1.23656 5.42939 1.25758L2.3103 3.75285C2.29282 3.7668 2.27872 3.78452 2.26905 3.80469C2.25938 3.82485 2.25439 3.84693 2.25445 3.8693V8.03937C2.25445 8.12136 2.32099 8.1879 2.40298 8.1879H4.03679V5.06881C4.03679 4.95063 4.08373 4.8373 4.1673 4.75373C4.25086 4.67017 4.3642 4.62322 4.48237 4.62322H6.56176C6.67994 4.62322 6.79328 4.67017 6.87684 4.75373C6.9604 4.8373 7.00735 4.95063 7.00735 5.06881V8.1879H8.64116C8.68055 8.1879 8.71833 8.17225 8.74618 8.1444C8.77404 8.11654 8.78969 8.07876 8.78969 8.03937V3.8687C8.78965 3.84644 8.78462 3.82447 8.77495 3.80442C8.76529 3.78436 8.75124 3.76674 8.73384 3.75285L5.61475 1.25758Z" fill="#011A25"/>
</g>
<defs>
<clipPath id="clip0_40_13489">
<rect width="9.5058" height="9.5058" fill="white" transform="translate(0.769531 0.167725)"/>
</clipPath>
</defs>
</svg>
