<svg width="10" height="10" viewBox="0 0 10 10" fill="none" xmlns="http://www.w3.org/2000/svg">
<g id="octicon:plus-16">
<path id="Vector" d="M5.02259 1.35583C5.14077 1.35583 5.2541 1.40278 5.33767 1.48634C5.42123 1.56991 5.46818 1.68324 5.46818 1.80142V4.3264H7.99315C8.11133 4.3264 8.22467 4.37334 8.30823 4.45691C8.39179 4.54047 8.43874 4.6538 8.43874 4.77198C8.43874 4.89016 8.39179 5.00349 8.30823 5.08706C8.22467 5.17062 8.11133 5.21757 7.99315 5.21757H5.46818V7.74254C5.46818 7.86072 5.42123 7.97405 5.33767 8.05762C5.2541 8.14118 5.14077 8.18813 5.02259 8.18813C4.90441 8.18813 4.79108 8.14118 4.70752 8.05762C4.62395 7.97405 4.57701 7.86072 4.57701 7.74254V5.21757H2.05203C1.93385 5.21757 1.82052 5.17062 1.73695 5.08706C1.65339 5.00349 1.60645 4.89016 1.60645 4.77198C1.60645 4.6538 1.65339 4.54047 1.73695 4.45691C1.82052 4.37334 1.93385 4.3264 2.05203 4.3264H4.57701V1.80142C4.57701 1.68324 4.62395 1.56991 4.70752 1.48634C4.79108 1.40278 4.90441 1.35583 5.02259 1.35583Z" fill="#011A25"/>
</g>
</svg>
