<svg width="11" height="10" viewBox="0 0 11 10" fill="none" xmlns="http://www.w3.org/2000/svg">
<g id="octicon:search-16" clip-path="url(#clip0_40_13492)">
<path id="Vector" d="M6.93889 7.14262C6.2226 7.6986 5.32137 7.96072 4.41863 7.87563C3.5159 7.79054 2.67952 7.36463 2.07974 6.6846C1.47996 6.00457 1.16187 5.12154 1.19022 4.21524C1.21857 3.30895 1.59122 2.44752 2.23233 1.8063C2.87354 1.1652 3.73497 0.792543 4.64127 0.764195C5.54756 0.735847 6.4306 1.05394 7.11063 1.65371C7.79066 2.25349 8.21656 3.08987 8.30165 3.99261C8.38675 4.89534 8.12462 5.79658 7.56864 6.51286L9.37475 8.31896C9.4334 8.37343 9.47628 8.4427 9.49886 8.51949C9.52145 8.59628 9.5229 8.67773 9.50307 8.75528C9.48325 8.83283 9.44287 8.90359 9.3862 8.96011C9.32953 9.01664 9.25866 9.05683 9.18107 9.07645C9.10361 9.09631 9.02223 9.09492 8.94549 9.07245C8.86876 9.04997 8.79949 9.00723 8.74499 8.94872L6.93889 7.14262ZM7.42606 4.32653C7.43134 3.9722 7.36611 3.62036 7.23417 3.29147C7.10223 2.96259 6.90621 2.66322 6.65751 2.41078C6.40881 2.15835 6.1124 1.95789 5.78552 1.82106C5.45864 1.68423 5.10781 1.61377 4.75344 1.61377C4.39908 1.61377 4.04825 1.68423 3.72137 1.82106C3.39448 1.95789 3.09807 2.15835 2.84937 2.41078C2.60067 2.66322 2.40465 2.96259 2.27271 3.29147C2.14077 3.62036 2.07554 3.9722 2.08083 4.32653C2.09129 5.02845 2.37748 5.69807 2.87755 6.19075C3.37762 6.68342 4.05144 6.95959 4.75344 6.95959C5.45544 6.95959 6.12926 6.68342 6.62934 6.19075C7.12941 5.69807 7.41559 5.02845 7.42606 4.32653Z" fill="#011A25"/>
</g>
<defs>
<clipPath id="clip0_40_13492">
<rect width="9.5058" height="9.5058" fill="white" transform="translate(0.59375 0.167725)"/>
</clipPath>
</defs>
</svg>
