<svg width="24" height="21" xmlns="http://www.w3.org/2000/svg" xmlns:xlink="http://www.w3.org/1999/xlink">
  <defs>
    <path id="a" d="M0 0h24v6H0z"/>
  </defs>
  <g fill="none" fill-rule="evenodd">
    <path d="M0 19.7553C0 20.4427.5757 21 1.2857 21h21.4286c.71 0 1.2857-.5573 1.2857-1.2447V8H0v11.7553z" fill="#000"/>
    <mask id="b" fill="#fff">
      <use xlink:href="#a"/>
    </mask>
    <path d="M11.624 4.8094c-1.0283 0-1.8617-.8334-1.8617-1.8617 0-1.0283.8334-1.862 1.8617-1.862 1.0283 0 1.8617.8337 1.8617 1.862-.0174 1.0209-.8408 1.8443-1.8617 1.8617m-4.4097 0c-1.0283 0-1.8617-.8334-1.8617-1.8617 0-1.0283.8334-1.862 1.8617-1.862 1.0283 0 1.862.8337 1.862 1.862-.0174 1.0209-.8409 1.8443-1.862 1.8617m-4.4094 0c-1.0283 0-1.862-.8334-1.862-1.8617 0-1.0283.8337-1.862 1.862-1.862 1.0282 0 1.8617.8337 1.8617 1.862-.0175 1.0209-.8409 1.8443-1.8617 1.8617M22.7143 0H1.2857C.5757 0 0 .5757 0 1.2857V6h24V1.2857C24 .5757 23.4246 0 22.7143 0" fill="#000" mask="url(#b)"/>
  </g>
</svg>