<svg width="401" height="401" viewBox="0 0 401 401" fill="none" xmlns="http://www.w3.org/2000/svg">
<circle cx="200.316" cy="200.681" r="200" fill="white"/>
<g clip-path="url(#clip0_276_8877)">
<path d="M350.318 216.99V90.9902H344.081C326.006 90.9902 311.343 105.653 311.343 123.728V143.752C297.254 134.253 280.296 128.696 262.024 128.696C218.701 128.696 182.701 159.909 175.196 201.058H215.499C222.144 181.73 240.476 167.807 262.024 167.807C289.145 167.807 311.222 189.869 311.222 217.005C311.222 244.14 289.16 266.202 262.024 266.202C240.219 266.202 221.706 251.947 215.273 232.271H175.075C182.308 273.753 218.474 305.298 262.024 305.298C310.528 305.298 349.88 266.172 350.302 217.76H350.318V217.005V216.99Z" fill="#3CE360"/>
<path d="M214.743 236.319C214.789 236.137 214.819 235.956 214.864 235.775C215.106 234.673 215.317 233.57 215.529 232.453C215.529 232.393 215.559 232.332 215.559 232.272C216.435 227.289 216.903 222.185 216.903 216.96C216.903 214.861 216.797 212.807 216.661 210.738H128.61V243.567H169.955C161.197 257.158 145.96 266.203 128.61 266.203C101.489 266.203 79.4118 244.141 79.4118 217.005C79.4118 189.869 101.474 167.807 128.61 167.807C150.158 167.807 168.505 181.745 175.134 201.059H215.438C207.933 159.91 171.933 128.697 128.61 128.697C79.8498 128.697 40.3164 168.23 40.3164 216.99C40.3164 265.75 79.8498 305.283 128.61 305.283C168.128 305.283 201.561 279.31 212.81 243.522C213.173 242.359 213.52 241.181 213.837 240.003C213.883 239.852 213.913 239.701 213.958 239.55C214.245 238.478 214.502 237.391 214.743 236.304V236.319Z" fill="#7658EA"/>
</g>
<defs>
<clipPath id="clip0_276_8877">
<rect width="310" height="214.292" fill="white" transform="translate(40.3164 91.0322)"/>
</clipPath>
</defs>
</svg>
