<svg width="22" height="23" xmlns="http://www.w3.org/2000/svg">
  <g fill="#2B2B2B" fill-rule="evenodd">
    <path d="M8.0625.8687h-5.966c-1.072 0-1.924.852-1.924 1.924v5.966c0 1.072.852 1.924 1.924 1.924h5.966c1.072 0 1.924-.852 1.924-1.924v-5.966c0-1.044-.852-1.924-1.924-1.924M19.6663.8687h-5.966c-1.072 0-1.924.852-1.924 1.924v5.966c0 1.072.852 1.924 1.924 1.924h5.966c1.072 0 1.924-.852 1.924-1.924v-5.966c0-1.044-.879-1.924-1.924-1.924M19.6663 12.2225h-5.966c-1.072 0-1.924.852-1.924 1.924v5.966c0 1.072.852 1.924 1.924 1.924h5.966c1.072 0 1.924-.852 1.924-1.924v-5.966c0-1.072-.879-1.924-1.924-1.924M8.2737 12.2349h-5.966c-1.072 0-1.924.852-1.924 1.924v5.966c0 1.072.852 1.924 1.924 1.924h5.966c1.072 0 1.924-.852 1.924-1.924v-5.966c0-1.072-.879-1.924-1.924-1.924"/>
  </g>
</svg>