<svg width="410" height="411" viewBox="0 0 410 411" fill="none" xmlns="http://www.w3.org/2000/svg">
  <path d="M102.5 51.125H0.257812V52.375H102.5V103H0V0.5H102.5V51.125Z" fill="#CEE1E8" />
  <path d="M50.625 0.5L50.625 102.742H51.875L51.875 0.5H102.5V103H0L0 0.5H50.625Z" fill="#093C52" />
  <path d="M153.125 0.5V102.742H154.375V0.5H205V103H102.5V0.5H153.125Z" fill="#093C52" />
  <path d="M205 51.125H102.758V52.375H205V103H102.5V0.5H205V51.125Z" fill="#CEE1E8" />
  <path d="M255.625 0.5V102.742H256.875V0.5H307.5V103H205V0.5H255.625Z" fill="#093C52" />
  <path d="M307.5 51.125H205.258V52.375H307.5V103H205V0.5H307.5V51.125Z" fill="#CEE1E8" />
  <path d="M410 51.125H307.758V52.375H410V103H307.5V0.5H410V51.125Z" fill="#CEE1E8" />
  <path d="M358.125 0.5V102.742H359.375V0.5H410V103H307.5V0.5H358.125Z" fill="#093C52" />
  <path d="M102.5 153.625H0.257812V154.875H102.5V205.5H0V103H102.5V153.625Z" fill="#CEE1E8" />
  <path d="M50.625 103L50.625 205.242H51.875L51.875 103H102.5V205.5H0L0 103H50.625Z" fill="#093C52" />
  <path d="M205 153.625H102.758V154.875H205V205.5H102.5V103H205V153.625Z" fill="#CEE1E8" />
  <path d="M153.125 103V205.242H154.375V103H205V205.5H102.5V103H153.125Z" fill="#0080BC" />
  <path d="M255.625 103V205.242H256.875V103H307.5V205.5H205V103H255.625Z" fill="#093C52" />
  <path d="M307.5 153.625H205.258V154.875H307.5V205.5H205V103H307.5V153.625Z" fill="#CEE1E8" />
  <path d="M358.125 103V205.242H359.375V103H410V205.5H307.5V103H358.125Z" fill="#093C52" />
  <path d="M410 153.625H307.758V154.875H410V205.5H307.5V103H410V153.625Z" fill="#CEE1E8" />
  <path d="M50.625 205.5L50.625 307.742H51.875L51.875 205.5H102.5V308H0L0 205.5H50.625Z" fill="#093C52" />
  <path d="M102.5 256.125H0.257812V257.375H102.5V308H0V205.5H102.5V256.125Z" fill="#CEE1E8" />
  <path d="M205 256.125H102.758V257.375H205V308H102.5V205.5H205V256.125Z" fill="#CEE1E8" />
  <path d="M153.125 205.5V307.742H154.375V205.5H205V308H102.5V205.5H153.125Z" fill="#0080BC" />
  <path d="M307.5 256.125H205.258V257.375H307.5V308H205V205.5H307.5V256.125Z" fill="#CEE1E8" />
  <path d="M255.625 205.5V307.742H256.875V205.5H307.5V308H205V205.5H255.625Z" fill="#093C52" />
  <path d="M358.125 205.5V307.742H359.375V205.5H410V308H307.5V205.5H358.125Z" fill="#093C52" />
  <path d="M410 256.125H307.758V257.375H410V308H307.5V205.5H410V256.125Z" fill="#CEE1E8" />
  <path d="M50.625 308L50.625 410.242H51.875L51.875 308H102.5V410.5H0L0 308H50.625Z" fill="#093C52" />
  <path d="M102.5 358.625H0.257812V359.875H102.5V410.5H0V308H102.5V358.625Z" fill="#CEE1E8" />
  <path d="M153.125 308V410.242H154.375V308H205V410.5H102.5V308H153.125Z" fill="#093C52" />
  <path d="M205 358.625H102.758V359.875H205V410.5H102.5V308H205V358.625Z" fill="#CEE1E8" />
  <path d="M307.5 358.625H205.258V359.875H307.5V410.5H205V308H307.5V358.625Z" fill="#CEE1E8" />
  <path d="M255.625 308V410.242H256.875V308H307.5V410.5H205V308H255.625Z" fill="#093C52" />
  <path d="M410 358.625H307.758V359.875H410V410.5H307.5V308H410V358.625Z" fill="#CEE1E8" />
  <path d="M358.125 308V410.242H359.375V308H410V410.5H307.5V308H358.125Z" fill="#0080BC" />
</svg>