<svg width="410" height="410" viewBox="0 0 410 410" fill="none" xmlns="http://www.w3.org/2000/svg">
    <g>
        <path d="M0 51.125H102.242V52.375H0V89.25H102.5V14.25H0V51.125Z" fill="#C5DDCC" />
        <path d="M51.875 0.5L51.875 102.742H50.625L50.625 0.5H13.75V103H88.75V0.5H51.875Z" fill="#007C23" />
        <path d="M154.375 0.5V102.742H153.125V0.5H116.25V103H191.25V0.5H154.375Z" fill="#007C23" />
        <path d="M102.5 51.125H204.742V52.375H102.5V89.25H205V14.25H102.5V51.125Z" fill="#C5DDCC" />
        <path d="M256.875 0.5V102.742H255.625V0.5H218.75V103H293.75V0.5H256.875Z" fill="#007C23" />
        <path d="M205 51.125H307.242V52.375H205V89.25H307.5V14.25H205V51.125Z" fill="#C5DDCC" />
        <path d="M307.5 51.125H409.742V52.375H307.5V89.25H410V14.25H307.5V51.125Z" fill="#C5DDCC" />
        <path d="M359.375 0.5V102.742H358.125V0.5H321.25V103H396.25V0.5H359.375Z" fill="#007C23" />
        <path d="M0 153.625H102.242V154.875H0V191.75H102.5V116.75H0V153.625Z" fill="#C5DDCC" />
        <path d="M51.875 103L51.875 205.242H50.625L50.625 103H13.75V205.5H88.75L88.75 103H51.875Z" fill="#007C23" />
        <path d="M256.875 103V205.242H255.625V103H218.75V205.5H293.75V103H256.875Z" fill="#007C23" />
        <path d="M205 153.625H307.242V154.875H205V191.75H307.5V116.75H205V153.625Z" fill="#C5DDCC" />
        <path d="M359.375 103V205.242H358.125V103H321.25V205.5H396.25V103H359.375Z" fill="#007C23" />
        <path d="M307.5 153.625H409.742V154.875H307.5V191.75H410V116.75H307.5V153.625Z" fill="#C5DDCC" />
        <path d="M51.875 205.5L51.875 307.742H50.625L50.625 205.5H13.75V308H88.75V205.5H51.875Z" fill="#007C23" />
        <path d="M0 256.125H102.242V257.375H0V294.25H102.5V219.25H0V256.125Z" fill="#C5DDCC" />
        <path d="M102.5 256.125H204.742V257.375H102.5V294.25H205V219.25H102.5V256.125Z" fill="#C5DDCC" />
        <path d="M154.375 205.5V307.742H153.125V205.5H116.25V308H191.25V205.5H154.375Z" fill="#007C23" />
        <path d="M205 256.125H307.242V257.375H205V294.25H307.5V219.25H205V256.125Z" fill="#C5DDCC" />
        <path d="M256.875 205.5V307.742H255.625V205.5H218.75V308H293.75V205.5H256.875Z" fill="#007C23" />
        <path d="M359.375 205.5V307.742H358.125V205.5H321.25V308H396.25V205.5H359.375Z" fill="#007C23" />
        <path d="M307.5 256.125H409.742V257.375H307.5V294.25H410V219.25H307.5V256.125Z" fill="#C5DDCC" />
        <path d="M51.875 308L51.875 410.242H50.625L50.625 308H13.75V410.5H88.75L88.75 308H51.875Z" fill="#007C23" />
        <path d="M0 358.625H102.242V359.875H0V396.75H102.5V321.75H0V358.625Z" fill="#C5DDCC" />
        <path d="M154.375 308V410.242H153.125V308H116.25V410.5H191.25V308H154.375Z" fill="#007C23" />
        <path d="M102.5 358.625H204.742V359.875H102.5V396.75H205V321.75H102.5V358.625Z" fill="#C5DDCC" />
        <path d="M205 358.625H307.242V359.875H205V396.75H307.5V321.75H205V358.625Z" fill="#C5DDCC" />
        <path d="M256.875 308V410.242H255.625V308H218.75V410.5H293.75V308H256.875Z" fill="#007C23" />
        <path d="M307.5 358.625H409.742V359.875H307.5V396.75H410V321.75H307.5V358.625Z" fill="#C5DDCC" />
        <path d="M359.375 308V410.242H358.125V308H321.25V410.5H396.25V308H359.375Z" fill="#007C23" />
        <path d="M102.5 153.625H204.742V154.875H102.5V191.75H205V116.75H102.5V153.625Z" fill="#C5DDCC" />
        <path d="M154.375 103V205.242H153.125V103H116.25V205.5H191.25V103H154.375Z" fill="#007C23" />
    </g>
</svg>