<svg width="26" height="31" viewBox="0 0 26 31" fill="none" xmlns="http://www.w3.org/2000/svg">
<path fill-rule="evenodd" clip-rule="evenodd" d="M24.2509 7.68741L24.9293 5.99079C24.9293 5.99079 24.0658 5.04821 23.0173 3.97997C21.9688 2.91172 19.7484 3.5401 19.7484 3.5401L17.2196 0.617188H12.7789H8.33808L5.8093 3.5401C5.8093 3.5401 3.58891 2.91172 2.54039 3.97997C1.49188 5.04821 0.628392 5.99079 0.628392 5.99079L1.30684 7.68741L0.443359 10.2009C0.443359 10.2009 2.98293 20.0008 3.28052 21.1976C3.86646 23.554 4.26736 24.4652 5.93265 25.6591C7.59795 26.853 10.6201 28.9267 11.1136 29.2409C11.607 29.5551 12.2238 30.0903 12.7789 30.0903C13.334 30.0903 13.9507 29.5551 14.4441 29.2409C14.9376 28.9267 17.9598 26.853 19.6251 25.6591C21.2903 24.4652 21.6912 23.554 22.2772 21.1976C22.5747 20.0008 25.1143 10.2009 25.1143 10.2009L24.2509 7.68741Z" fill="url(#paint0_linear_46_2640)"/>
<path fill-rule="evenodd" clip-rule="evenodd" d="M12.7804 18.9594C12.9494 18.9594 14.0326 19.349 14.9018 19.8072C15.771 20.2655 16.4009 20.5895 16.6023 20.7179C16.8036 20.8463 16.6808 21.0885 16.4974 21.2205C16.314 21.3526 13.8493 23.2971 13.6101 23.512C13.3709 23.727 13.0194 24.0819 12.7804 24.0819C12.5414 24.0819 12.1898 23.727 11.9506 23.512C11.7114 23.2971 9.24673 21.3526 9.06331 21.2205C8.87988 21.0885 8.75714 20.8463 8.95845 20.7179C9.15983 20.5895 9.78974 20.2655 10.659 19.8072C11.5281 19.349 12.6113 18.9594 12.7804 18.9594ZM12.7936 5.11011C12.8766 5.11245 13.3443 5.1356 14.0139 5.36302C14.7541 5.61437 15.5559 5.92856 15.9259 5.92856C16.296 5.92856 19.0406 5.39444 19.0406 5.39444C19.0406 5.39444 22.2933 9.40036 22.2933 10.2565C22.2933 11.1127 21.8841 11.3387 21.4727 11.7838C21.0613 12.2288 19.2646 14.1727 19.0338 14.4223C18.8031 14.6719 18.3228 15.0504 18.6053 15.7316C18.8879 16.4128 19.3047 17.2797 18.8412 18.1589C18.3776 19.0382 17.5835 19.625 17.0747 19.528C16.5658 19.4309 15.3708 18.7947 14.9314 18.504C14.4919 18.2134 13.0991 17.0431 13.0991 16.5953C13.0991 16.1476 14.5389 15.3437 14.8048 15.161C15.0709 14.9784 16.2841 14.2714 16.3089 13.9939C16.3337 13.7163 16.3243 13.635 15.9663 12.9493C15.6082 12.2635 14.9634 11.3485 15.0708 10.7396C15.1781 10.1309 16.218 9.81428 16.9601 9.52874C17.702 9.24327 19.1308 8.70406 19.3092 8.62023C19.4878 8.53634 19.4417 8.45647 18.9009 8.40426C18.3603 8.35204 16.826 8.14455 16.1343 8.34098C15.4426 8.53741 14.2609 8.83627 14.1652 8.99475C14.0694 9.15322 13.985 9.15856 14.0833 9.70526C14.1816 10.2519 14.6877 12.8752 14.7368 13.3411C14.7859 13.8071 14.882 14.1151 14.3889 14.23C13.8957 14.3448 13.0656 14.5443 12.7804 14.5443C12.4951 14.5443 11.6649 14.3448 11.1718 14.23C10.6787 14.1151 10.7747 13.8071 10.8239 13.3411C10.8731 12.8752 11.3791 10.2519 11.4774 9.70526C11.5757 9.15856 11.4913 9.15322 11.3956 8.99475C11.2999 8.83627 10.1181 8.53741 9.42635 8.34098C8.73464 8.14455 7.20041 8.35204 6.65975 8.40426C6.11908 8.45647 6.07295 8.53634 6.25144 8.62023C6.42994 8.70406 7.8587 9.24327 8.60068 9.52874C9.34272 9.81428 10.3827 10.1309 10.49 10.7396C10.5973 11.3485 9.95246 12.2635 9.59448 12.9493C9.23645 13.635 9.22695 13.7163 9.2518 13.9939C9.2766 14.2714 10.4899 14.9784 10.7559 15.161C11.0219 15.3437 12.4616 16.1476 12.4616 16.5953C12.4616 17.0431 11.0688 18.2134 10.6294 18.504C10.1899 18.7947 8.99492 19.4309 8.48608 19.528C7.97724 19.625 7.18314 19.0382 6.71957 18.1589C6.25607 17.2797 6.67288 16.4128 6.95537 15.7316C7.23791 15.0504 6.75763 14.6719 6.52683 14.4223C6.29616 14.1727 4.49937 12.2288 4.08798 11.7838C3.67659 11.3387 3.26749 11.1127 3.26749 10.2565C3.26749 9.40036 6.52011 5.39444 6.52011 5.39444C6.52011 5.39444 9.26476 5.92856 9.63482 5.92856C10.0049 5.92856 10.8067 5.61437 11.5468 5.36302C12.2165 5.1356 12.6842 5.11245 12.7672 5.11011H12.7936Z" fill="white"/>
<path d="M19.749 3.5401L17.2203 0.617188H12.7795H8.3387L5.80992 3.5401C5.80992 3.5401 3.58953 2.91172 2.54102 3.97997C2.54102 3.97997 5.50153 3.70769 6.51921 5.39382C6.51921 5.39382 9.26386 5.92795 9.63392 5.92795C10.004 5.92795 10.8058 5.61376 11.5459 5.3624C12.2861 5.11105 12.7795 5.10923 12.7795 5.10923C12.7795 5.10923 13.2729 5.11105 14.013 5.3624C14.7532 5.61376 15.555 5.92795 15.925 5.92795C16.2951 5.92795 19.0397 5.39382 19.0397 5.39382C20.0574 3.70769 23.0179 3.97997 23.0179 3.97997C21.9694 2.91172 19.749 3.5401 19.749 3.5401Z" fill="url(#paint1_linear_46_2640)"/>
<defs>
<linearGradient id="paint0_linear_46_2640" x1="0.443359" y1="1495.06" x2="2467.54" y2="1495.06" gradientUnits="userSpaceOnUse">
<stop stop-color="#FF5500"/>
<stop offset="0.409877" stop-color="#FF5500"/>
<stop offset="0.581981" stop-color="#FF2000"/>
<stop offset="1" stop-color="#FF2000"/>
</linearGradient>
<linearGradient id="paint1_linear_46_2640" x1="46.5344" y1="269.902" x2="2050.23" y2="269.902" gradientUnits="userSpaceOnUse">
<stop stop-color="#FF452A"/>
<stop offset="1" stop-color="#FF2000"/>
</linearGradient>
</defs>
</svg>
