<svg width="31" height="31" viewBox="0 0 31 31" fill="none" xmlns="http://www.w3.org/2000/svg">
<path d="M6.47364 14.5037C6.47367 14.3344 6.50715 14.1668 6.57214 14.0104C6.63713 13.8541 6.73235 13.7121 6.85236 13.5927C6.97239 13.4733 7.11479 13.3787 7.27144 13.3145C7.42809 13.2502 7.59589 13.2176 7.76521 13.2184L9.9066 13.2254C10.248 13.2254 10.5754 13.361 10.8169 13.6024C11.0583 13.8438 11.1939 14.1713 11.1939 14.5127V22.6096C11.435 22.538 11.7446 22.4618 12.0834 22.382C12.3187 22.3267 12.5284 22.1935 12.6786 22.0041C12.8287 21.8146 12.9103 21.5799 12.9103 21.3382V11.2944C12.9103 10.9529 13.0459 10.6254 13.2873 10.384C13.5287 10.1425 13.8562 10.0069 14.1976 10.0068H16.3432C16.6847 10.0069 17.0121 10.1425 17.2535 10.384C17.4949 10.6254 17.6306 10.9529 17.6306 11.2944V20.616C17.6306 20.616 18.1678 20.3986 18.691 20.1778C18.8854 20.0956 19.0513 19.9579 19.168 19.7821C19.2847 19.6062 19.347 19.3999 19.3472 19.1888V8.07604C19.3472 7.73467 19.4828 7.40725 19.7241 7.16584C19.9655 6.92443 20.2928 6.78879 20.6342 6.78872H22.7799C23.1213 6.78872 23.4487 6.92433 23.6901 7.16577C23.9316 7.40718 24.0672 7.73462 24.0672 8.07604V17.2272C25.9274 15.879 27.8125 14.2577 29.3085 12.308C29.5256 12.025 29.6692 11.6926 29.7266 11.3407C29.7839 10.9887 29.7532 10.628 29.6373 10.2907C28.9448 8.29836 27.8442 6.47247 26.4055 4.92992C24.9669 3.38739 23.2221 2.16215 21.2828 1.33264C19.3435 0.503123 17.2523 0.0875929 15.1432 0.112641C13.0341 0.137689 10.9534 0.602764 9.03434 1.4781C7.11526 2.35344 5.40005 3.61976 3.99848 5.19603C2.5969 6.77229 1.53982 8.62381 0.894885 10.6321C0.24995 12.6403 0.0313593 14.7611 0.253102 16.8587C0.474844 18.9563 1.13204 20.9845 2.18262 22.8135C2.36564 23.129 2.63489 23.3857 2.95874 23.5535C3.2826 23.7213 3.6476 23.7932 4.01092 23.7608C4.41676 23.7251 4.92207 23.6745 5.52285 23.604C5.78438 23.5743 6.02585 23.4494 6.20122 23.2532C6.37662 23.0569 6.47367 22.803 6.47389 22.5398L6.47364 14.5037Z" fill="#21325B"/>
<path d="M6.42581 27.491C8.68743 29.1364 11.3602 30.124 14.1483 30.3447C16.9365 30.565 19.7313 30.0101 22.2235 28.7407C24.7157 27.4714 26.8081 25.5374 28.2695 23.1526C29.7306 20.7679 30.5036 18.0253 30.5028 15.2285C30.5028 14.8795 30.4866 14.5342 30.4635 14.1909C24.9245 22.4518 14.6975 26.3139 6.42629 27.4898" fill="#979695"/>
</svg>
