<svg width="60" height="60" viewBox="0 0 60 60" fill="none" xmlns="http://www.w3.org/2000/svg">
<g clip-path="url(#clip0_960_2999)">
<path d="M48 0H12C5.37258 0 0 5.37258 0 12V48C0 54.6274 5.37258 60 12 60H48C54.6274 60 60 54.6274 60 48V12C60 5.37258 54.6274 0 48 0Z" fill="#855DCD"/>
<path d="M15.4667 9.33325H44.5333V50.6665H40.2667V31.7332H40.2248C39.7532 26.5005 35.3555 22.3999 30 22.3999C24.6445 22.3999 20.2468 26.5005 19.7752 31.7332H19.7333V50.6665H15.4667V9.33325Z" fill="white"/>
<path d="M7.7334 15.2L9.46674 21.0666H10.9334V44.8C10.197 44.8 9.60006 45.3969 9.60006 46.1333V47.7333H9.33342C8.59704 47.7333 8.00004 48.3303 8.00004 49.0667V50.6666H22.9334V49.0667C22.9334 48.3303 22.3364 47.7333 21.6001 47.7333H21.3334V46.1333C21.3334 45.3969 20.7364 44.8 20 44.8H18.4001V15.2H7.7334Z" fill="white"/>
<path d="M40.5333 44.8C39.7969 44.8 39.1999 45.3969 39.1999 46.1333V47.7333H38.9333C38.1969 47.7333 37.6 48.3303 37.6 49.0667V50.6666H52.5333V49.0667C52.5333 48.3303 51.9363 47.7333 51.1999 47.7333H50.9333V46.1333C50.9333 45.3969 50.3364 44.8 49.6 44.8V21.0666H51.0666L52.8 15.2H42.1333V44.8H40.5333Z" fill="white"/>
</g>
<defs>
<clipPath id="clip0_960_2999">
<rect width="60" height="60" fill="white"/>
</clipPath>
</defs>
</svg>
