<svg width="34" height="30" viewBox="0 0 34 30" fill="none" xmlns="http://www.w3.org/2000/svg">
<path d="M29.32 1.95732C25.8522 -0.181002 21.287 0.328456 17.2153 2.85341C13.1563 0.328456 8.58824 -0.181002 5.12469 1.95732C-0.354182 5.33649 -1.0203 14.0391 3.6383 21.3963C7.07214 26.8203 12.4421 29.9984 17.2223 29.9398C22.0026 29.9984 27.3725 26.8203 30.8064 21.3963C35.4593 14.0391 34.7989 5.33649 29.32 1.95732ZM6.15711 19.8428C5.19652 18.3399 4.47176 16.7023 4.00742 14.9855C3.59487 13.4952 3.43714 11.9475 3.54071 10.4059C3.74861 7.68698 4.87013 5.56959 6.69736 4.4432C8.5246 3.31681 10.9402 3.24842 13.5127 4.25617C13.8988 4.4083 14.2807 4.58417 14.6597 4.77818C13.2301 6.06463 11.9871 7.53942 10.9656 9.16092C8.13708 13.6274 7.27438 18.5977 8.26154 22.5604C7.47441 21.7223 6.76977 20.8124 6.15711 19.8428ZM30.4387 14.9841C29.9737 16.7007 29.249 18.3382 28.289 19.8414C27.6758 20.8124 26.9712 21.7241 26.1846 22.5645C27.0671 19.0123 26.4674 14.6603 24.3036 10.579C24.269 10.5118 24.2206 10.4525 24.1613 10.4049C24.1021 10.3573 24.0334 10.3226 23.9597 10.3028C23.886 10.2831 23.8089 10.2789 23.7334 10.2904C23.6579 10.3019 23.5857 10.3289 23.5215 10.3697L16.7754 14.5291C16.7139 14.567 16.6605 14.6165 16.6184 14.6747C16.5763 14.733 16.5462 14.7989 16.5299 14.8686C16.5137 14.9384 16.5115 15.0106 16.5235 15.0812C16.5355 15.1518 16.5615 15.2193 16.6001 15.28L17.5901 16.8419C17.6283 16.9025 17.6783 16.9552 17.7373 16.9967C17.7962 17.0383 17.8628 17.068 17.9334 17.084C18.0039 17.1001 18.077 17.1023 18.1484 17.0904C18.2198 17.0786 18.2882 17.0529 18.3495 17.0149L22.7224 14.3183C22.8639 14.737 23.0053 15.1558 23.1114 15.5745C23.5238 17.0629 23.682 18.6087 23.5795 20.1485C23.3716 22.866 22.2501 24.9834 20.4228 26.1112C19.4804 26.6799 18.4004 26.9884 17.2959 27.0045H17.1559C16.0513 26.9888 14.9713 26.6802 14.0289 26.1112C12.2003 24.9834 11.0788 22.866 10.8709 20.1485C10.7679 18.607 10.9256 17.0593 11.3376 15.5689C12.2854 12.1208 14.2447 9.02612 16.9692 6.67365C18.1441 5.65584 19.4823 4.83792 20.9291 4.25337C23.4946 3.24563 25.9144 3.31262 27.7431 4.44041C29.5717 5.56819 30.6918 7.68419 30.8997 10.4032C31.0046 11.9448 30.8488 13.4929 30.4387 14.9841Z" fill="#1BDBDB"/>
</svg>
