<svg width="550" height="550" viewBox="0 0 550 550" fill="none" xmlns="http://www.w3.org/2000/svg">
<g clip-path="url(#clip0_2197_2)">
<path d="M412.72 37.04C370.45 12.63 324.69 0 275 0C225.31 0 179.56 12.2 137.28 37.04C95 61.88 61.88 95 37.04 137.28C12.2 179.55 0 225.31 0 275C0 324.69 12.2 370.44 37.04 412.72C61.88 454.99 95 488.12 137.28 512.96C179.56 537.8 225.31 550 275 550C324.69 550 370.44 537.8 412.72 512.96C455 488.12 488.12 455 512.96 412.72C537.8 370.45 550 324.69 550 275C550 225.31 537.8 179.56 512.96 137.28C488.12 95 455 61.88 412.72 37.04ZM292 374.37C261.06 374.37 236.22 365.65 217.04 347.79C203.97 335.59 195.69 320.77 191.33 303.34H487.69C484.64 328.62 477.23 352.15 465.9 374.38H291.57H292.01L292 374.37ZM191.76 247.54C195.68 230.54 204.4 215.73 217.04 203.52C235.78 185.65 261.06 176.5 292 176.5H467.2C478.53 198.73 485.5 222.26 488.12 247.54H191.76ZM89.34 165.61C108.52 132.49 134.23 106.34 166.92 86.73C199.61 67.12 235.78 57.53 275 57.53C314.22 57.53 350.4 67.12 383.08 86.73C399.64 96.75 414.89 108.52 427.97 122.03H289.38C258 122.03 230.11 128.57 205.7 141.64C181.29 154.71 162.12 172.58 148.61 195.68C139.02 211.81 132.92 229.24 130.31 247.98H62.32C65.81 218.78 74.52 191.32 89.34 166.05V165.61ZM383.08 463.27C350.39 482.88 314.22 492.47 275 492.47C235.78 492.47 199.6 482.88 166.92 463.27C134.23 443.66 108.08 417.51 89.34 384.39C74.96 359.55 65.81 332.53 62.32 303.76H130.31C132.92 322.5 139.03 339.93 148.61 356.06C162.12 378.72 181.3 397.03 205.7 410.1C230.11 423.17 258 429.71 289.38 429.71H426.66C413.59 442.78 399.2 454.12 383.08 463.7V463.26V463.27Z" fill="#33312E"/>
</g>
<defs>
<clipPath id="clip0_2197_2">
<rect width="550" height="550" fill="white"/>
</clipPath>
</defs>
</svg>
