<svg width="91" height="100" viewBox="0 0 91 100" fill="none" xmlns="http://www.w3.org/2000/svg">
<g clip-path="url(#clip0_86_746)">
<path d="M5.01758 30.4V69.6C5.01758 72.12 6.33758 74.4 8.53758 75.68L42.4976 95.28C44.6576 96.52 47.3376 96.52 49.4976 95.28L83.4576 75.68C85.6176 74.44 86.9776 72.12 86.9776 69.6V30.4C86.9776 27.88 85.6576 25.6 83.4576 24.32L49.4976 4.71998C47.3376 3.47998 44.6576 3.47998 42.4976 4.71998L8.53758 24.32C6.37758 25.56 5.05758 27.88 5.05758 30.4H5.01758Z" fill="#213147"/>
<path d="M53.3775 57.5999L48.5375 70.8799C48.4175 71.2399 48.4175 71.6399 48.5375 72.0399L56.8575 94.8799L66.4975 89.3199L54.9375 57.5999C54.6575 56.8799 53.6575 56.8799 53.3775 57.5999Z" fill="#12AAFF"/>
<path d="M63.0975 35.28C62.8175 34.56 61.8175 34.56 61.5375 35.28L56.6975 48.56C56.5775 48.92 56.5775 49.32 56.6975 49.72L70.3375 87.12L79.9775 81.56L63.0975 35.32V35.28Z" fill="#12AAFF"/>
<path d="M45.9776 6.2C46.2176 6.2 46.4576 6.28 46.6576 6.4L83.3776 27.6C83.8176 27.84 84.0576 28.32 84.0576 28.8V71.2C84.0576 71.68 83.7776 72.16 83.3776 72.4L46.6576 93.6C46.4576 93.72 46.2176 93.8 45.9776 93.8C45.7376 93.8 45.4976 93.72 45.2976 93.6L8.57759 72.4C8.13759 72.16 7.89759 71.68 7.89759 71.2V28.76C7.89759 28.28 8.17759 27.8 8.57759 27.56L45.2976 6.36C45.4976 6.24 45.7376 6.16 45.9776 6.16V6.2ZM45.9776 0C44.6576 0 43.3776 0.32 42.1776 1L5.45759 22.2C3.09759 23.56 1.65759 26.04 1.65759 28.76V71.16C1.65759 73.88 3.09759 76.36 5.45759 77.72L42.1776 98.92C43.3376 99.6 44.6576 99.92 45.9776 99.92C47.2976 99.92 48.5776 99.6 49.7776 98.92L86.4976 77.72C88.8576 76.36 90.2976 73.88 90.2976 71.16V28.76C90.2976 26.04 88.8576 23.56 86.4976 22.2L49.7376 1C48.5776 0.32 47.2576 0 45.9376 0H45.9776Z" fill="#9DCCED"/>
<path d="M21.6576 87.16L25.0576 77.88L31.8576 83.52L25.4976 89.36L21.6576 87.16Z" fill="#213147"/>
<path d="M42.8576 25.76H33.5376C32.8576 25.76 32.2176 26.2 31.9776 26.84L12.0176 81.56L21.6576 87.12L43.6576 26.84C43.8576 26.28 43.4576 25.72 42.8976 25.72L42.8576 25.76Z" fill="white"/>
<path d="M59.1776 25.76H49.8576C49.1776 25.76 48.5376 26.2 48.2976 26.84L25.4976 89.32L35.1376 94.88L59.9376 26.84C60.1376 26.28 59.7376 25.72 59.1776 25.72V25.76Z" fill="white"/>
</g>
<defs>
<clipPath id="clip0_86_746">
<rect width="90" height="100" fill="white" transform="translate(0.98877)"/>
</clipPath>
</defs>
</svg>
