<svg width="22" height="25" viewBox="0 0 22 25" fill="none" xmlns="http://www.w3.org/2000/svg">
<g clip-path="url(#clip0_3_193)">
<path d="M2.86544 5.88206C3.0943 5.44786 3.42457 5.07768 3.82714 4.8042L10.5833 0L3.6608 11.6563C3.6608 11.6563 3.05596 10.6155 2.82006 10.0888C2.52611 9.4266 2.37786 8.70701 2.3857 7.98034C2.39353 7.25367 2.55728 6.53753 2.86544 5.88206ZM0.0770992 13.9229C0.15338 15.0377 0.462657 16.1229 0.984221 17.1059C1.50578 18.0891 2.22759 18.9473 3.10132 19.6233L10.5742 24.9295C10.5742 24.9295 5.89872 18.0681 1.95514 11.2406C1.55589 10.5193 1.28749 9.73064 1.16279 8.91242C1.10759 8.54192 1.10759 8.16501 1.16279 7.79451C1.05997 7.98857 0.860372 8.38582 0.860372 8.38582C0.460508 9.21623 0.188181 10.1043 0.0529057 11.0189C-0.0249577 11.9857 -0.0168602 12.9576 0.0770992 13.9229ZM19.1297 14.8468C18.8877 14.3202 18.2889 13.2793 18.2889 13.2793L11.3786 24.9295L18.1347 20.1284C18.5373 19.8549 18.8676 19.4848 19.0965 19.0505C19.4046 18.395 19.5683 17.6789 19.5762 16.9523C19.584 16.2256 19.4358 15.5059 19.1418 14.8437L19.1297 14.8468ZM21.8726 11.0096C21.7963 9.89497 21.4871 8.80968 20.9656 7.8266C20.444 6.84351 19.7221 5.98524 18.8484 5.30926L11.3876 0C11.3876 0 16.0601 6.86138 20.0067 13.6889C20.4049 14.4104 20.6722 15.1991 20.796 16.0171C20.8512 16.3876 20.8512 16.7645 20.796 17.135C20.8989 16.9409 21.0985 16.5437 21.0985 16.5437C21.4983 15.7133 21.7707 14.8252 21.9059 13.9106C21.9848 12.9439 21.9777 11.972 21.8848 11.0066L21.8726 11.0096Z" fill="#6C79A6"/>
</g>
<defs>
<clipPath id="clip0_3_193">
<rect width="22" height="25" fill="white"/>
</clipPath>
</defs>
</svg>
