<svg width="77" height="57" xmlns="http://www.w3.org/2000/svg"><defs><linearGradient x1=".003%" y1="0%" x2="167.608%" y2="217.265%" id="a"><stop stop-color="#52E5FF" offset="0%"/><stop stop-color="#5143FF" offset="100%"/></linearGradient><linearGradient x1="0%" y1=".005%" x2="167.615%" y2="217.249%" id="b"><stop stop-color="#52E5FF" offset="0%"/><stop stop-color="#5143FF" offset="100%"/></linearGradient><linearGradient x1="9.149%" y1="0%" x2="146.093%" y2="217.265%" id="c"><stop stop-color="#52E5FF" offset="0%"/><stop stop-color="#5143FF" offset="100%"/></linearGradient><linearGradient x1="0%" y1="39.027%" x2="167.615%" y2="86.707%" id="d"><stop stop-color="#52E5FF" offset="0%"/><stop stop-color="#5143FF" offset="100%"/></linearGradient><linearGradient x1="9.396%" y1="0%" x2="145.512%" y2="217.265%" id="e"><stop stop-color="#52E5FF" offset="0%"/><stop stop-color="#5143FF" offset="100%"/></linearGradient></defs><g fill="none" fill-rule="evenodd"><path d="M29.19 10.115a10.299 10.299 0 013.841-3.843 10.413 10.413 0 015.29-1.405c1.903 0 3.667.468 5.292 1.405a10.312 10.312 0 013.842 3.843 10.424 10.424 0 011.404 5.29c0 1.903-.468 3.666-1.404 5.291a10.307 10.307 0 01-3.842 3.842 10.416 10.416 0 01-5.291 1.404c-1.903 0-3.666-.467-5.29-1.404a10.293 10.293 0 01-3.843-3.842 10.413 10.413 0 01-1.404-5.291c0-1.902.467-3.665 1.404-5.29m1.45 18.551c2.34 1.378 4.902 2.065 7.683 2.065 2.781 0 5.342-.687 7.684-2.065a15.446 15.446 0 005.577-5.576c1.377-2.343 2.064-4.902 2.064-7.685 0-2.781-.687-5.343-2.064-7.684a15.46 15.46 0 00-5.577-5.577C43.664.768 41.103.08 38.322.08c-2.781 0-5.343.688-7.684 2.064A15.462 15.462 0 0025.06 7.72c-1.376 2.341-2.063 4.903-2.063 7.684 0 2.783.687 5.342 2.063 7.685a15.449 15.449 0 005.578 5.576" fill="url(#a)"/><path d="M8.024 17.307c1.088-1.071 2.39-1.608 3.903-1.608 1.514 0 2.816.537 3.904 1.608 1.088 1.07 1.634 2.381 1.634 3.93 0 1.514-.546 2.816-1.634 3.904-1.088 1.09-2.39 1.634-3.904 1.634-1.513 0-2.815-.545-3.903-1.634-1.088-1.088-1.633-2.389-1.633-3.903 0-1.55.545-2.86 1.633-3.931m-.8 12.042c1.433.836 3 1.254 4.704 1.254 1.702 0 3.27-.418 4.703-1.254a9.337 9.337 0 003.406-3.406c.836-1.434 1.256-3.002 1.256-4.705 0-1.702-.42-3.27-1.256-4.703a9.337 9.337 0 00-3.406-3.406c-1.432-.836-3-1.255-4.703-1.255-1.703 0-3.271.42-4.704 1.255a9.336 9.336 0 00-3.406 3.406c-.836 1.432-1.255 3-1.255 4.703 0 1.703.419 3.271 1.255 4.705a9.335 9.335 0 003.406 3.406M60.812 17.307c1.089-1.071 2.39-1.608 3.905-1.608 1.513 0 2.814.537 3.903 1.608 1.087 1.07 1.633 2.381 1.633 3.93 0 1.514-.546 2.816-1.633 3.904-1.09 1.09-2.39 1.634-3.903 1.634-1.515 0-2.816-.545-3.905-1.634-1.088-1.088-1.632-2.389-1.632-3.903 0-1.55.544-2.86 1.632-3.931m-.8 12.042c1.433.836 3.002 1.254 4.705 1.254 1.702 0 3.27-.418 4.703-1.254a9.35 9.35 0 003.406-3.406c.836-1.434 1.255-3.002 1.255-4.705 0-1.702-.42-3.27-1.255-4.703a9.35 9.35 0 00-3.406-3.406c-1.433-.836-3-1.255-4.703-1.255-1.703 0-3.272.42-4.705 1.255a9.337 9.337 0 00-3.405 3.406c-.837 1.432-1.256 3-1.256 4.703 0 1.703.419 3.271 1.256 4.705a9.337 9.337 0 003.405 3.406" fill="url(#b)"/><path d="M74.699 42.229a14.282 14.282 0 00-5.279-5.28 14.19 14.19 0 00-6.888-1.932l-.094-.002h-.06l-.216-.003v.003h-.642a2.55 2.55 0 00-2.543 2.543v.017a2.55 2.55 0 002.543 2.543h.643v.003c1.703 0 3.271.42 4.704 1.255a9.337 9.337 0 013.405 3.406c.837 1.433 1.257 3 1.257 4.704v.32a2.55 2.55 0 00-.01.202v1.997a2.55 2.55 0 002.544 2.544h.024a2.55 2.55 0 002.543-2.51h.006v-2.553c0-2.612-.646-5.03-1.937-7.257" fill="url(#c)"/><path d="M61.31 52.001v-2.515c0-2.612-.647-5.031-1.937-7.259a14.292 14.292 0 00-5.28-5.28c-2.227-1.29-4.646-1.937-7.257-1.937H29.808c-2.612 0-5.03.647-7.258 1.938a14.279 14.279 0 00-5.28 5.28c-1.291 2.227-1.937 4.646-1.937 7.258v4.519a2.55 2.55 0 002.544 2.543h.037a2.55 2.55 0 002.543-2.543v-1.997c0-.09-.005-.178-.014-.265v-2.257c0-1.703.419-3.271 1.256-4.704a9.337 9.337 0 013.405-3.406c1.433-.836 3.002-1.255 4.705-1.255h17.027c1.703 0 3.271.42 4.704 1.255a9.337 9.337 0 013.406 3.406c.836 1.433 1.256 3 1.256 4.704v2.438l-.002.084v1.997a2.55 2.55 0 002.543 2.543h.024a2.55 2.55 0 002.543-2.543v-1.997-.007" fill="url(#d)"/><path d="M15.064 35.015h-.375c-.07 0-.139.004-.207.01v-.015c-2.61 0-5.03.647-7.258 1.938a14.269 14.269 0 00-5.279 5.28C.653 44.454.007 46.873.007 49.485v.34a2.54 2.54 0 00-.007.182v1.997a2.55 2.55 0 002.543 2.543h.038a2.55 2.55 0 002.543-2.543v-1.997c0-.061-.003-.122-.008-.183v-.341c0-1.703.42-3.271 1.257-4.704a9.323 9.323 0 013.405-3.406c1.432-.835 3.001-1.255 4.704-1.255v-.01c.068.006.137.01.207.01h.375a2.55 2.55 0 002.543-2.544v-.017a2.55 2.55 0 00-2.543-2.543" fill="url(#e)"/></g></svg>