<svg width="40" height="40" viewBox="0 0 40 40" fill="none" xmlns="http://www.w3.org/2000/svg">
<path d="M6.68697 9.43792C7.0613 8.74122 7.60153 8.14727 8.26001 7.70846L19.3109 0L7.98792 18.7029C7.98792 18.7029 6.99859 17.0328 6.61274 16.1877C6.13193 15.1252 5.88944 13.9706 5.90225 12.8046C5.91507 11.6387 6.18291 10.4896 6.68697 9.43792ZM2.12611 22.3397C2.25088 24.1283 2.75676 25.8695 3.60988 27.4469C4.46299 29.0244 5.64364 30.4015 7.07279 31.4861L19.296 40C19.296 40 11.6485 28.9908 5.198 18.0359C4.54495 16.8785 4.10593 15.6131 3.90197 14.3002C3.81167 13.7057 3.81167 13.101 3.90197 12.5065C3.73377 12.8179 3.4073 13.4553 3.4073 13.4553C2.75325 14.7877 2.30781 16.2125 2.08654 17.6801C1.95918 19.2313 1.97242 20.7908 2.12611 22.3397ZM33.2902 23.8221C32.8944 22.9771 31.915 21.3069 31.915 21.3069L20.6119 40L31.6627 32.2964C32.3212 31.8576 32.8614 31.2638 33.2358 30.5671C33.7398 29.5153 34.0076 28.3662 34.0205 27.2004C34.0333 26.0344 33.7908 24.8797 33.31 23.8172L33.2902 23.8221ZM37.7768 17.6652C37.652 15.8767 37.1461 14.1354 36.2931 12.558C35.4399 10.9806 34.2592 9.60346 32.8301 8.51884L20.6266 0C20.6266 0 28.2692 11.0093 34.7247 21.9641C35.376 23.1219 35.8133 24.3873 36.0158 25.6998C36.1061 26.2943 36.1061 26.899 36.0158 27.4935C36.184 27.1821 36.5104 26.5447 36.5104 26.5447C37.1645 25.2123 37.61 23.7874 37.8312 22.3199C37.9602 20.7688 37.9486 19.2093 37.7966 17.6603L37.7768 17.6652Z" fill="url(#paint0_linear_49_5)"/>
<defs>
<linearGradient id="paint0_linear_49_5" x1="35.2978" y1="53.04" x2="-7.23702" y2="1.78355" gradientUnits="userSpaceOnUse">
<stop stop-color="#DE82FF"/>
<stop offset="1" stop-color="#7F6AFF"/>
</linearGradient>
</defs>
</svg>
