<svg id="Layer_1" data-name="Layer 1" xmlns="http://www.w3.org/2000/svg" viewBox="0 0 113.62 43.7"><defs><style>.cls-1{fill:#ffffff}</style></defs><path class="cls-1" d="M.23 59.08V17.2a.22.22 0 0 1 .21-.2h26.61a.22.22 0 0 1 .22.22v5.33a.22.22 0 0 1-.22.22H6.65v12.34H24a.22.22 0 0 1 .22.22v5.27a.22.22 0 0 1-.22.22H6.65v12.71h20.4a.22.22 0 0 1 .22.22v5.33a.22.22 0 0 1-.22.22H.44a.22.22 0 0 1-.21-.22zM66.4 59.19L46.93 29.54v29.53a.22.22 0 0 1-.22.22h-6a.22.22 0 0 1-.22-.22V17.23a.22.22 0 0 1 .22-.22h5.55a.22.22 0 0 1 .18.1L65.93 46.7V17.23a.22.22 0 0 1 .22-.22h6a.22.22 0 0 1 .22.22v41.84a.22.22 0 0 1-.22.22h-5.57a.22.22 0 0 1-.18-.1zM92 51.17v2a40.79 40.79 0 0 0 7.82.92 40.27 40.27 0 0 0 7.73-.91V43.7l-21.78-7.61a.22.22 0 0 1-.14-.2V18.48a.19.19 0 0 1 .14-.2 54.34 54.34 0 0 1 13.94-2 55.07 55.07 0 0 1 14 2 .19.19 0 0 1 .14.2v6.57a.22.22 0 0 1-.22.22h-5.89a.22.22 0 0 1-.22-.22v-2a40.85 40.85 0 0 0-7.82-.91 40.5 40.5 0 0 0-7.73.9L92 32l21.7 7.6a.22.22 0 0 1 .14.2v17.95a.19.19 0 0 1-.14.2 54.36 54.36 0 0 1-13.94 2 55.11 55.11 0 0 1-14-2 .19.19 0 0 1-.14-.2v-6.58a.22.22 0 0 1 .22-.22h5.88a.22.22 0 0 1 .28.22z" transform="translate(-.23 -16.27)"/></svg>