<svg width="76" height="61" xmlns="http://www.w3.org/2000/svg"><defs><linearGradient x1="-9.998%" y1="2.379%" x2="130.898%" y2="82.227%" id="a"><stop stop-color="#52E5FF" offset="0%"/><stop stop-color="#52E5FF" offset=".059%"/><stop stop-color="#5049FF" offset="100%"/></linearGradient><linearGradient x1="0%" y1="45.399%" x2="174.369%" y2="57.492%" id="b"><stop stop-color="#52E5FF" offset="0%"/><stop stop-color="#514AFF" offset="100%"/></linearGradient><linearGradient x1="0%" y1="40.4%" x2="174.369%" y2="65.631%" id="c"><stop stop-color="#52E5FF" offset="0%"/><stop stop-color="#514AFF" offset="100%"/></linearGradient></defs><g fill="none" fill-rule="evenodd"><path d="M70.017 52.77l-5.827-4.488a2.506 2.506 0 00-1.525-.498H25.006V40.92h27.507c1.38 0 2.5-1.116 2.5-2.493V15.985h15.004v36.786zM12.353 35.934a2.505 2.505 0 00-1.525.499L5 40.92V5.03h45.01v30.903H12.354zm60.164-24.935H55.013V2.537a2.497 2.497 0 00-2.5-2.494H2.5A2.497 2.497 0 000 2.537v43.37a2.497 2.497 0 002.48 2.513 2.505 2.505 0 001.545-.518l9.177-6.982h6.802v9.357a2.497 2.497 0 002.5 2.494h39.31l9.177 6.981a2.505 2.505 0 003.507-.454c.34-.441.523-.984.519-1.54V13.492a2.497 2.497 0 00-2.5-2.494z" fill="url(#a)"/><path d="M13.56 12.8h26.48c1.337 0 2.36 1.04 2.36 2.4 0 1.36-1.023 2.4-2.36 2.4H13.56c-1.337 0-2.36-1.04-2.36-2.4 0-1.36 1.023-2.4 2.36-2.4" fill="url(#b)"/><path d="M12.768 23.2h16.864c1.342 0 2.368 1.04 2.368 2.4 0 1.36-1.026 2.4-2.368 2.4H12.768c-1.342 0-2.368-1.04-2.368-2.4 0-1.36 1.026-2.4 2.368-2.4" fill="url(#c)"/></g></svg>