<svg width="26" height="26" xmlns="http://www.w3.org/2000/svg"><path d="M.3 13.62c0 5.707 3.61 10.549 8.617 12.258.63.118.86-.28.86-.623 0-.307-.01-1.12-.017-2.197-3.505.78-4.244-1.732-4.244-1.732-.573-1.492-1.4-1.89-1.4-1.89-1.144-.801.087-.785.087-.785 1.265.09 1.93 1.331 1.93 1.331 1.124 1.974 2.95 1.404 3.667 1.074.115-.835.44-1.405.8-1.727-2.798-.326-5.74-1.435-5.74-6.385 0-1.41.492-2.564 1.298-3.467-.13-.327-.563-1.64.123-3.419 0 0 1.058-.347 3.465 1.324a11.757 11.757 0 013.154-.434c1.07.005 2.148.147 3.155.434 2.405-1.671 3.461-1.324 3.461-1.324.688 1.779.255 3.092.125 3.419.808.903 1.296 2.056 1.296 3.467 0 4.963-2.946 6.055-5.753 6.374.452.4.855 1.188.855 2.393 0 1.727-.015 3.12-.015 3.544 0 .345.226.747.866.621 5.003-1.712 8.61-6.55 8.61-12.257C25.5 6.484 19.858.7 12.899.7 5.94.7.3 6.484.3 13.62z" fill="#FEFEFE" fill-rule="evenodd" opacity=".35"/></svg>