<svg width="24" height="21" xmlns="http://www.w3.org/2000/svg"><path d="M23.2 17.618v2.864h-8.004V17.61h1.624V4.887a.697.697 0 00-.147.313c-1.243 4.964-2.488 9.926-3.722 14.892-.074.296-.17.417-.468.406a26.73 26.73 0 00-2.239 0c-.351.017-.468-.125-.555-.482-1.209-4.947-2.432-9.89-3.653-14.833-.028-.113-.067-.222-.1-.333l-.075.02v12.767h1.634v2.845H.8v-2.864c.256.002.512.009.768.004.543-.01.916-.424.917-1.018V4.864c0-.62-.394-1.071-.952-1.092-.244-.01-.489-.006-.733-.008V.9h8.4l2.747 11.323a.64.64 0 00.188-.334c.634-2.582 1.269-5.163 1.898-7.746.262-1.079.512-2.162.767-3.243h8.4v2.864c-.256.002-.513-.003-.769.008-.517.022-.915.476-.915 1.05-.002 3.94-.002 7.882 0 11.823 0 .548.378.965.88.977.268.006.536-.002.804-.004" fill="#FFF" fill-rule="evenodd" opacity=".35"/></svg>