<svg width="26" height="22" xmlns="http://www.w3.org/2000/svg"><path d="M25.2 2.684c-.923.42-1.923.711-2.969.838A5.32 5.32 0 0024.507.586c-1 .608-2.106 1.05-3.291 1.286A5.1 5.1 0 0017.448.2c-2.853 0-5.168 2.375-5.168 5.302 0 .418.047.82.132 1.207-4.3-.222-8.105-2.328-10.658-5.54a5.367 5.367 0 00-.7 2.668 5.33 5.33 0 002.299 4.41 4.993 4.993 0 01-2.337-.663v.064c0 2.571 1.783 4.716 4.144 5.207a5.207 5.207 0 01-2.337.087c.661 2.106 2.567 3.635 4.829 3.684-1.77 1.42-4 2.264-6.422 2.264-.415 0-.823-.025-1.23-.071A14.363 14.363 0 007.928 21.2c9.504 0 14.703-8.078 14.703-15.083l-.016-.686A10.566 10.566 0 0025.2 2.684z" fill="#FFF" fill-rule="evenodd" opacity=".35"/></svg>