<svg width="40" height="40" viewBox="0 0 40 40" fill="none" xmlns="http://www.w3.org/2000/svg">
<path d="M32.5337 13.2856C32.5536 13.5516 32.5536 13.8175 32.5536 14.0859C32.5536 22.2636 25.7939 31.6949 13.4336 31.6949V31.69C9.78229 31.6949 6.20685 30.7317 3.13306 28.9155C3.66398 28.9744 4.19757 29.0038 4.73249 29.005C7.75838 29.0074 10.6978 28.0724 13.0783 26.3506C10.2028 26.3003 7.6812 24.5736 6.80031 22.0528C7.80761 22.2317 8.84552 22.1949 9.83419 21.9462C6.69919 21.3628 4.44374 18.8261 4.44374 15.88C4.44374 15.853 4.44374 15.8273 4.44374 15.8016C5.37786 16.2807 6.42374 16.5467 7.49358 16.5761C4.54088 14.7587 3.63072 11.141 5.41378 8.31259C8.82556 12.179 13.8594 14.5295 19.2631 14.7783C18.7216 12.6288 19.4614 10.3763 21.2072 8.86529C23.9137 6.52215 28.1705 6.64225 30.7147 9.13367C32.2196 8.86039 33.6621 8.35181 34.9821 7.63122C34.4804 9.06382 33.4305 10.2807 32.028 11.054C33.36 10.9094 34.6614 10.581 35.8869 10.0797C34.9847 11.3248 33.8483 12.4094 32.5337 13.2856Z" fill="#838383" fill-opacity="0.3"/>
</svg>
