<svg width="57" height="63" viewBox="0 0 57 63" fill="none" xmlns="http://www.w3.org/2000/svg">
<g clip-path="url(#clip0_947_279)">
<path d="M7.29393 25.488C7.92273 26.8188 9.47899 29.4493 9.47899 29.4493L27.4703 0L9.91128 12.1408C8.86501 12.8319 8.00661 13.7674 7.41183 14.8647C6.61211 16.5201 6.18721 18.3285 6.16685 20.1634C6.14648 21.9984 6.53114 23.8156 7.29393 25.488Z" fill="white"/>
<path d="M0.165102 35.1851C0.363354 38.0021 1.16716 40.7446 2.5227 43.229C3.87823 45.7134 5.75421 47.8824 8.025 49.5907L27.4468 63C27.4468 63 15.2954 45.6604 5.0461 28.4065C4.00846 26.5836 3.3109 24.5906 2.98681 22.5228C2.84334 21.5865 2.84334 20.6341 2.98681 19.6978C2.71957 20.1881 2.20082 21.192 2.20082 21.192C1.16157 23.2907 0.453802 25.5348 0.102223 27.8461C-0.100143 30.2893 -0.0790977 32.7456 0.165102 35.1851Z" fill="white"/>
<path d="M49.7138 37.5121C49.085 36.1813 47.5288 33.5508 47.5288 33.5508L29.5375 63.0001L47.0965 50.867C48.1428 50.1759 49.0012 49.2404 49.5959 48.1431C50.3969 46.4867 50.8224 44.6769 50.8428 42.8405C50.8631 41.0042 50.4778 39.1856 49.7138 37.5121Z" fill="white"/>
<path d="M56.8428 27.8149C56.6446 24.998 55.8408 22.2555 54.4852 19.7711C53.1297 17.2866 51.2537 15.1177 48.9829 13.4094L29.5611 0C29.5611 0 41.7046 17.3396 51.9618 34.5936C52.9967 36.417 53.6916 38.41 54.0133 40.4772C54.1567 41.4135 54.1567 42.3659 54.0133 43.3023C54.2805 42.812 54.7992 41.808 54.7992 41.808C55.8385 39.7094 56.5463 37.4652 56.8978 35.1539C57.1028 32.711 57.0844 30.2546 56.8428 27.8149Z" fill="white"/>
<g style="mix-blend-mode:color">
<path d="M7.41193 14.8647C8.00671 13.7674 8.86511 12.832 9.91138 12.1408L27.4704 0L9.47908 29.4571C9.47908 29.4571 7.9071 26.8266 7.29403 25.4957C6.53005 23.8223 6.14475 22.0037 6.16511 20.1673C6.18548 18.3309 6.61102 16.5212 7.41193 14.8647ZM0.165102 35.1851C0.363354 38.002 1.16716 40.7445 2.52269 43.2289C3.87823 45.7134 5.7542 47.8823 8.025 49.5906L27.4468 63C27.4468 63 15.2954 45.6604 5.0461 28.4064C4.00846 26.5835 3.3109 24.5905 2.98681 22.5228C2.84334 21.5865 2.84334 20.6341 2.98681 19.6977C2.71957 20.188 2.20082 21.192 2.20082 21.192C1.16157 23.2906 0.453802 25.5348 0.102223 27.8461C-0.100143 30.2893 -0.0790977 32.7456 0.165102 35.1851ZM49.6825 37.5198C49.0537 36.189 47.4974 33.5585 47.4974 33.5585L29.5375 63L47.0966 50.867C48.1428 50.1758 49.0012 49.2404 49.596 48.1431C50.3969 46.4866 50.8225 44.6768 50.8428 42.8405C50.8632 41.0041 50.4779 39.1855 49.7139 37.512L49.6825 37.5198ZM56.8114 27.8227C56.6131 25.0058 55.8093 22.2633 54.4538 19.7788C53.0983 17.2944 51.2223 15.1255 48.9515 13.4172L29.5611 0C29.5611 0 41.7047 17.3396 51.9618 34.5936C52.9967 36.417 53.6916 38.41 54.0133 40.4772C54.1567 41.4135 54.1567 42.366 54.0133 43.3023C54.2805 42.812 54.7993 41.808 54.7993 41.808C55.8385 39.7094 56.5463 37.4652 56.8979 35.1539C57.1028 32.711 57.0844 30.2546 56.8428 27.8149L56.8114 27.8227Z" fill="white"/>
</g>
</g>
<defs>
<clipPath id="clip0_947_279">
<rect width="57" height="63" fill="white"/>
</clipPath>
</defs>
</svg>
