<svg width="512" height="408" viewBox="0 0 512 408" fill="none" xmlns="http://www.w3.org/2000/svg">
  <g mask="url(#mask0_3620_19911)">
    <path
      d="M753.381 490.596L674.919 412.153C672.315 409.549 668.784 408.087 665.102 408.087L92.6172 408.087C41.4608 408.085 0.00509178 366.612 0.00489855 315.472L0.00106635 -531.32L0.00106645 -532.511C0.00106677 -536.194 1.46397 -539.726 4.06796 -542.33L80.1715 -618.433C82.7755 -621.037 86.3072 -622.5 89.9898 -622.5L92.3727 -622.5C96.0553 -622.5 99.587 -621.037 102.191 -618.433L178.295 -542.33C180.899 -539.726 182.361 -536.194 182.361 -532.511L182.361 -531.32L182.364 211.841C182.364 219.51 188.581 225.727 196.249 225.727L708.023 225.727C732.585 225.727 756.137 235.485 773.502 252.846L773.503 252.847L882.308 361.631L883.15 362.473C885.754 365.076 887.218 368.608 887.219 372.291L887.235 479.922C887.235 483.605 885.772 487.137 883.169 489.741L881.485 491.426C878.881 494.03 875.349 495.493 871.666 495.493L764.036 495.499C760.353 495.499 756.82 494.036 754.216 491.431L753.381 490.596ZM822.756 431.025C825.467 428.313 825.467 423.918 822.755 421.207L713.944 312.417C712.373 310.846 710.243 309.964 708.022 309.964L112.012 309.964C104.344 309.964 98.1269 303.747 98.1269 296.079L98.1241 -531.32C98.1241 -535.155 95.0154 -538.263 91.1812 -538.263C87.3471 -538.263 84.2384 -535.155 84.2384 -531.32L84.2422 315.472C84.2422 320.098 87.9927 323.849 92.6192 323.85L699.99 323.85C703.672 323.85 707.203 325.312 709.807 327.915L812.938 431.025C815.65 433.737 820.045 433.736 822.756 431.025Z"
      fill="#C5DDCC" style="fill:#C5DDCC;fill:color(display-p3 0.7725 0.8667 0.8000);fill-opacity:1;" />
  </g>
  <defs>
    <clipPath id="clip0_3620_19911">
      <rect width="512" height="408" fill="white" style="fill:white;fill-opacity:1;" />
    </clipPath>
    <mask id="mask0_3620_19911">
      <rect width="512" height="408" fill="white" style="fill:white;fill-opacity:1;" />
      <rect x="289.328" y="275.024" width="83.3115" height="83.2954" rx="18.5137" fill="black" />
    </mask>
  </defs>
</svg>