<svg width="136" height="137" viewBox="0 0 136 137" fill="none" xmlns="http://www.w3.org/2000/svg">
<g id="Frame 2243394">
<g clip-path="url(#clip0_95_4463)">
<path id="Vector" d="M149.954 -101.085C149.954 -115.61 138.179 -127.386 123.653 -127.386L47.6953 -127.386C33.1698 -127.386 21.3943 -115.61 21.3943 -101.085L21.3943 88.7019C21.3943 103.227 33.1698 115.003 47.6953 115.003L123.446 115.003L177.544 115.003M129.177 -101.085C129.177 -104.135 126.704 -106.608 123.653 -106.608L47.6953 -106.608C44.6445 -106.608 42.1716 -104.135 42.1716 -101.085L42.1716 88.7023C42.1716 91.7531 44.6445 94.226 47.6953 94.226L85.3135 94.226L177.544 94.226C180.595 94.226 183.068 91.7531 183.068 88.7023" stroke="#007C23" stroke-width="19.2068" stroke-miterlimit="10" stroke-linecap="round"/>
</g>
</g>
<defs>
<clipPath id="clip0_95_4463">
<rect x="135.25" y="136.218" width="135.25" height="135.25" rx="1.06078" transform="rotate(-180 135.25 136.218)" fill="white"/>
</clipPath>
</defs>
</svg>
