<svg width="137" height="136" viewBox="0 0 137 136" fill="none" xmlns="http://www.w3.org/2000/svg">
<g id="Frame 2243394">
<g clip-path="url(#clip0_95_4466)">
<path id="Vector" d="M-13.9182 237.303C-13.9182 251.828 -2.14307 263.604 12.3829 263.604L88.3403 263.604C102.866 263.604 114.641 251.828 114.641 237.303L114.641 47.5159C114.641 32.9904 102.866 21.2149 88.3404 21.2149L12.5898 21.2148L-41.5083 21.2148M6.85914 237.302C6.85914 240.353 9.33206 242.826 12.3829 242.826L88.3403 242.826C91.3911 242.826 93.8641 240.353 93.8641 237.302L93.8641 47.5155C93.8641 44.4647 91.3912 41.9917 88.3404 41.9917L50.7222 41.9917L-41.5083 41.9917C-44.5591 41.9917 -47.032 44.4647 -47.032 47.5155" stroke="#007C23" stroke-width="19.2068" stroke-miterlimit="10" stroke-linecap="round"/>
</g>
</g>
<defs>
<clipPath id="clip0_95_4466">
<rect x="0.786377" width="135.25" height="135.25" rx="1.06078" fill="white"/>
</clipPath>
</defs>
</svg>
