<svg width="200" height="200" viewBox="0 0 200 200" fill="none" xmlns="http://www.w3.org/2000/svg">
<g id="Frame 2243394">
<g clip-path="url(#clip0_1_268)">
<path id="Vector" d="M-21.744 350.91C-21.744 372.389 -4.33168 389.802 17.1485 389.802L129.47 389.802C150.95 389.802 168.363 372.389 168.363 350.91L168.363 70.2637C168.363 48.7842 150.95 31.3711 129.47 31.3711L17.4544 31.3711L-62.5427 31.3711M8.98029 350.909C8.98029 355.421 12.6371 359.077 17.1485 359.077L129.47 359.078C133.982 359.078 137.638 355.421 137.638 350.909L137.638 70.263C137.638 65.7516 133.982 62.0948 129.47 62.0948L73.8426 62.0948L-62.5427 62.0948C-67.0541 62.0948 -70.7109 65.7516 -70.7109 70.263" stroke="#007C23" stroke-width="28.402" stroke-miterlimit="10" stroke-linecap="round"/>
</g>
</g>
<defs>
<clipPath id="clip0_1_268">
<rect width="200" height="200" rx="1.56863" fill="white"/>
</clipPath>
</defs>
</svg>
