<svg width="200" height="200" viewBox="0 0 200 200" fill="none" xmlns="http://www.w3.org/2000/svg">
<g id="Frame 2243394">
<g clip-path="url(#clip0_1_265)">
<path id="Vector" d="M221.744 -150.91C221.744 -172.389 204.332 -189.802 182.852 -189.802L70.5298 -189.802C49.0503 -189.802 31.6373 -172.389 31.6373 -150.91L31.6373 129.736C31.6373 151.216 49.0503 168.629 70.5298 168.629L182.546 168.629L262.543 168.629M191.02 -150.909C191.02 -155.421 187.363 -159.078 182.852 -159.078L70.5298 -159.078C66.0184 -159.078 62.3616 -155.421 62.3616 -150.909L62.3616 129.737C62.3616 134.248 66.0184 137.905 70.5298 137.905L126.157 137.905L262.543 137.905C267.054 137.905 270.711 134.248 270.711 129.737" stroke="#007C23" stroke-width="28.402" stroke-miterlimit="10" stroke-linecap="round"/>
</g>
</g>
<defs>
<clipPath id="clip0_1_265">
<rect x="200" y="200" width="200" height="200" rx="1.56863" transform="rotate(-180 200 200)" fill="white"/>
</clipPath>
</defs>
</svg>
