<svg width="136" height="407" viewBox="0 0 136 407" fill="none" xmlns="http://www.w3.org/2000/svg">
<g clip-path="url(#clip0_858_4120)">
<path d="M-139.857 173.414C-154.383 173.414 -166.158 185.189 -166.158 199.715V275.672C-166.158 290.197 -154.383 301.973 -139.857 301.973L49.9294 301.973C64.4549 301.973 76.2305 290.198 76.2305 275.672L76.2305 199.922L76.2305 -85.2285M-139.857 194.191C-142.908 194.191 -145.381 196.664 -145.381 199.715V275.672C-145.381 278.723 -142.908 281.196 -139.857 281.196L49.9299 281.196C52.9807 281.196 55.4536 278.723 55.4536 275.672V238.054L55.4536 -73.394C55.4536 -76.4448 52.9807 -78.9177 49.9299 -78.9177" stroke="#C5DDCC" stroke-width="19.2068" stroke-miterlimit="10" stroke-linecap="round"/>
</g>
<g clip-path="url(#clip1_858_4120)">
<path d="M150.021 168.915C150.021 154.39 138.246 142.614 123.72 142.614L47.7629 142.614C33.2374 142.614 21.4619 154.39 21.4619 168.915L21.4619 358.702C21.4619 373.227 33.2374 385.003 47.7629 385.003L123.513 385.003L177.612 385.003M129.244 168.915C129.244 165.865 126.771 163.392 123.72 163.392L47.7629 163.392C44.7121 163.392 42.2392 165.865 42.2392 168.915L42.2392 358.702C42.2392 361.753 44.7121 364.226 47.7629 364.226L85.3811 364.226L177.612 364.226C180.662 364.226 183.135 361.753 183.135 358.702" stroke="#007C23" stroke-width="19.2068" stroke-miterlimit="10" stroke-linecap="round"/>
</g>
<defs>
<clipPath id="clip0_858_4120">
<rect x="98.8" y="0.317383" width="270.5" height="67.6249" rx="1.06078" transform="rotate(90 98.8 0.317383)" fill="white"/>
</clipPath>
<clipPath id="clip1_858_4120">
<rect x="135.317" y="406.218" width="135.25" height="135.25" rx="1.06078" transform="rotate(-180 135.317 406.218)" fill="white"/>
</clipPath>
</defs>
</svg>
