<svg width="354" height="923" viewBox="0 0 354 923" fill="none" xmlns="http://www.w3.org/2000/svg">
<g clip-path="url(#clip0_858_4122)">
<path d="M2.58463 430.815C-12.6037 446.003 -12.6041 470.628 2.58465 485.817L82.008 565.24C97.1963 580.429 121.822 580.429 137.01 565.24L335.457 366.793C350.646 351.605 350.646 326.979 335.457 311.791L256.25 232.584L-41.9114 -65.5776M24.3105 452.539C21.1205 455.729 21.1205 460.901 24.3105 464.091L103.734 543.514C106.924 546.704 112.095 546.704 115.285 543.514L313.732 345.067C316.922 341.877 316.922 336.706 313.732 333.516L274.398 294.181L-51.2618 -31.4782C-54.4518 -34.6682 -59.6233 -34.6682 -62.8134 -31.4782" stroke="#C5DDCC" stroke-width="28.402" stroke-miterlimit="10" stroke-linecap="round"/>
</g>
<g clip-path="url(#clip1_858_4122)">
<path d="M-131.914 578.493C-153.393 578.493 -170.806 595.905 -170.806 617.386L-170.806 729.707C-170.806 751.187 -153.393 768.6 -131.914 768.6L148.732 768.6C170.212 768.6 187.625 751.187 187.625 729.707L187.625 617.692L187.625 196.027M-131.913 609.217C-136.425 609.217 -140.081 612.874 -140.081 617.386L-140.081 729.707C-140.081 734.219 -136.425 737.875 -131.913 737.875L148.733 737.875C153.244 737.875 156.901 734.219 156.901 729.707V674.08L156.901 213.528C156.901 209.016 153.244 205.359 148.733 205.359" stroke="#C5DDCC" stroke-width="28.402" stroke-miterlimit="10" stroke-linecap="round"/>
</g>
<g clip-path="url(#clip2_858_4122)">
<path d="M296.744 571.84C296.744 550.361 279.332 532.948 257.852 532.948L145.53 532.948C124.05 532.948 106.637 550.361 106.637 571.84L106.637 852.486C106.637 873.966 124.05 891.379 145.53 891.379L257.546 891.379L337.543 891.379M266.02 571.841C266.02 567.329 262.363 563.672 257.852 563.672L145.53 563.672C141.018 563.672 137.362 567.329 137.362 571.841L137.362 852.487C137.362 856.998 141.018 860.655 145.53 860.655L201.157 860.655L337.543 860.655C342.054 860.655 345.711 856.998 345.711 852.487" stroke="#007C23" stroke-width="28.402" stroke-miterlimit="10" stroke-linecap="round"/>
</g>
<defs>
<clipPath id="clip0_858_4122">
<rect x="71.1394" y="0.273438" width="400" height="100" rx="1.56863" transform="rotate(45 71.1394 0.273438)" fill="white"/>
</clipPath>
<clipPath id="clip1_858_4122">
<rect x="221" y="322.527" width="400" height="100" rx="1.56863" transform="rotate(90 221 322.527)" fill="white"/>
</clipPath>
<clipPath id="clip2_858_4122">
<rect x="275" y="922.75" width="200" height="200" rx="1.56863" transform="rotate(-180 275 922.75)" fill="white"/>
</clipPath>
</defs>
</svg>
