<svg width="332" height="355" viewBox="0 0 332 355" fill="none" xmlns="http://www.w3.org/2000/svg">
<g clip-path="url(#clip0_1_249)">
<path d="M2.58412 431.065C-12.6042 446.253 -12.6046 470.878 2.58414 486.067L82.0075 565.49C97.1958 580.679 121.822 580.679 137.01 565.49L335.457 367.044C350.645 351.855 350.645 327.23 335.457 312.041L256.25 232.834L-41.9119 -65.3274M24.31 452.79C21.12 455.98 21.12 461.151 24.31 464.341L103.733 543.765C106.923 546.955 112.095 546.955 115.285 543.765L313.732 345.318C316.922 342.128 316.922 336.956 313.732 333.766L274.397 294.432L-51.2623 -31.2279C-54.4523 -34.4179 -59.6238 -34.4179 -62.8138 -31.2279" stroke="#C5DDCC" stroke-width="28.402" stroke-miterlimit="10" stroke-linecap="round"/>
</g>
<defs>
<clipPath id="clip0_1_249">
<rect x="71.1389" y="0.523682" width="400" height="100" rx="1.56863" transform="rotate(45 71.1389 0.523682)" fill="white"/>
</clipPath>
</defs>
</svg>
