<svg width="158" height="271" viewBox="0 0 158 271" fill="none" xmlns="http://www.w3.org/2000/svg">
<g clip-path="url(#clip0_858_4121)">
<path d="M-80.2373 173.097C-94.7628 173.097 -106.538 184.872 -106.538 199.398L-106.538 275.355C-106.538 289.881 -94.7628 301.656 -80.2373 301.656L109.55 301.656C124.075 301.656 135.851 289.881 135.851 275.355L135.851 199.605L135.851 63.2295M-80.2369 193.874C-83.2877 193.874 -85.7606 196.347 -85.7606 199.398L-85.7606 275.355C-85.7606 278.406 -83.2877 280.879 -80.2369 280.879L109.55 280.879C112.601 280.879 115.074 278.406 115.074 275.355L115.074 237.737L115.074 75.064C115.074 72.0132 112.601 69.5403 109.55 69.5403" stroke="#C5DDCC" stroke-width="19.2068" stroke-miterlimit="10" stroke-linecap="round"/>
</g>
<g clip-path="url(#clip1_858_4121)">
<path d="M-13.8505 237.303C-13.8505 251.828 -2.07544 263.604 12.4505 263.604L88.408 263.604C102.933 263.604 114.709 251.828 114.709 237.303L114.709 47.5159C114.709 32.9904 102.933 21.2149 88.408 21.2149L12.6574 21.2148L-41.4406 21.2148M6.92677 237.302C6.92677 240.353 9.39969 242.826 12.4505 242.826L88.408 242.826C91.4588 242.826 93.9317 240.353 93.9317 237.302L93.9317 47.5155C93.9317 44.4647 91.4588 41.9917 88.408 41.9917L50.7898 41.9917L-41.4406 41.9917C-44.4914 41.9917 -46.9644 44.4647 -46.9644 47.5155" stroke="#007C23" stroke-width="19.2068" stroke-miterlimit="10" stroke-linecap="round"/>
</g>
<defs>
<clipPath id="clip0_858_4121">
<rect x="157.068" y="135.25" width="135.25" height="135.25" rx="1.06078" transform="rotate(90 157.068 135.25)" fill="white"/>
</clipPath>
<clipPath id="clip1_858_4121">
<rect x="0.854004" width="135.25" height="135.25" rx="1.06078" fill="white"/>
</clipPath>
</defs>
</svg>
