<svg width="354" height="674" viewBox="0 0 354 674" fill="none" xmlns="http://www.w3.org/2000/svg">
<g clip-path="url(#clip0_858_4123)">
<path d="M2.58412 750.815C-12.6042 766.003 -12.6046 790.628 2.58414 805.817L82.0075 885.24C97.1958 900.429 121.822 900.429 137.01 885.24L335.457 686.793C350.645 671.605 350.645 646.979 335.457 631.791L256.25 552.584L-41.9119 254.422M24.31 772.539C21.12 775.729 21.12 780.901 24.31 784.091L103.733 863.514C106.923 866.704 112.095 866.704 115.285 863.514L313.732 665.067C316.922 661.877 316.922 656.706 313.732 653.516L274.397 614.181L-51.2623 288.522C-54.4523 285.332 -59.6238 285.332 -62.8138 288.522" stroke="#C5DDCC" stroke-width="28.402" stroke-miterlimit="10" stroke-linecap="round"/>
</g>
<g clip-path="url(#clip1_858_4123)">
<path d="M-102.914 256.715C-124.393 256.715 -141.806 274.128 -141.806 295.608L-141.806 407.929C-141.806 429.409 -124.393 446.822 -102.914 446.822L177.732 446.822C199.212 446.822 216.625 429.409 216.625 407.929L216.625 295.914L216.625 94.2495M-102.913 287.44C-107.425 287.44 -111.081 291.096 -111.081 295.608L-111.081 407.929C-111.081 412.441 -107.425 416.098 -102.913 416.098L177.733 416.098C182.244 416.098 185.901 412.441 185.901 407.929L185.901 352.302L185.901 111.75C185.901 107.238 182.244 103.582 177.733 103.582" stroke="#C5DDCC" stroke-width="28.402" stroke-miterlimit="10" stroke-linecap="round"/>
</g>
<g clip-path="url(#clip2_858_4123)">
<path d="M-4.74404 351.659C-4.74405 373.139 12.6683 390.552 34.1485 390.552L146.47 390.552C167.95 390.552 185.363 373.139 185.363 351.659L185.363 71.0132C185.363 49.5337 167.95 32.1206 146.47 32.1206L34.4544 32.1206L-45.5427 32.1206M25.9803 351.659C25.9803 356.17 29.6371 359.827 34.1485 359.827L146.47 359.827C150.982 359.827 154.638 356.17 154.638 351.659L154.638 71.0125C154.638 66.5012 150.982 62.8443 146.47 62.8443L90.8426 62.8443L-45.5427 62.8443C-50.0541 62.8443 -53.7109 66.5011 -53.7109 71.0125" stroke="#007C23" stroke-width="28.402" stroke-miterlimit="10" stroke-linecap="round"/>
</g>
<defs>
<clipPath id="clip0_858_4123">
<rect x="71.1389" y="320.273" width="400" height="100" rx="1.56863" transform="rotate(45 71.1389 320.273)" fill="white"/>
</clipPath>
<clipPath id="clip1_858_4123">
<rect x="248" y="200.75" width="200" height="200" rx="1.56863" transform="rotate(90 248 200.75)" fill="white"/>
</clipPath>
<clipPath id="clip2_858_4123">
<rect x="17" y="0.749512" width="200" height="200" rx="1.56863" fill="white"/>
</clipPath>
</defs>
</svg>
