<svg width="155" height="116" xmlns="http://www.w3.org/2000/svg">
  <defs>
    <linearGradient x1="104.8631%" y1="80.5239%" x2="5.6399%" y2="25.2815%" id="a">
      <stop stop-color="#52CDFF" offset="0%"/>
      <stop stop-color="#503EFF" offset="100%"/>
    </linearGradient>
    <linearGradient x1="90.4005%" y1="50.1735%" x2="17.5105%" y2="49.9213%" id="b">
      <stop stop-color="#52C3FF" offset="0%"/>
      <stop stop-color="#503EFF" offset="100%"/>
    </linearGradient>
    <linearGradient x1="8.1211%" y1="50%" x2="93.8516%" y2="50%" id="c">
      <stop stop-color="#52C3FF" offset="0%"/>
      <stop stop-color="#51A1FF" offset="100%"/>
    </linearGradient>
  </defs>
  <g fill="none" fill-rule="evenodd">
    <g transform="translate(0 .2484)">
      <path fill="#FFF" d="M2.2266 113.6487h148.904v-95.623H2.2266z"/>
      <path d="M140.0347 68.4496c1.9636 0 3.5626-1.599 3.5626-3.5626 0-1.9636-1.599-3.5627-3.5626-3.5627-1.9637 0-3.5664 1.599-3.5664 3.5627 0 1.9636 1.6027 3.5626 3.5664 3.5626" fill="#5162FF"/>
      <path d="M149.9618 47.889h-18.3057c-3.2792 0-5.9455 2.67-5.9455 5.9455v22.105c0 3.2755 2.666 5.9455 5.9455 5.9455h18.3057v28.6248H4.5211V18.0417l1.8978.6713a9.5927 9.5927 0 003.2134.5512h65.3758v-.004h74.9537v28.6287zM130.2357 77.36h19.7261V52.414h-19.7261V77.36zm18.3057-62.6246l-138.9093.004c-2.8136 0-5.107-2.2858-5.111-5.0956 0-2.8213 2.2935-5.115 5.111-5.115h125.2061c1.2459 0 2.2625-1.0129 2.2625-2.2624 0-1.2496-1.0169-2.2664-2.2625-2.2664H9.6321C4.323 0 0 4.3231 0 9.636v99.4534c0 3.2755 2.666 5.9455 5.9415 5.9455h142.6001c3.2755 0 5.9455-2.67 5.9455-5.9455V20.6808c-.0002-3.2755-2.6702-5.9455-5.9457-5.9455z" fill="url(#a)"/>
      <rect fill="url(#b)" x="15" y="27.7516" width="126" height="5" rx="2.5"/>
      <rect fill="url(#c)" transform="rotate(90 138.5 39.2516)" x="127" y="36.7516" width="23" height="5" rx="2.5"/>
      <rect fill="url(#c)" transform="rotate(-90 138.5 89.2516)" x="127" y="86.7516" width="23" height="5" rx="2.5"/>
      <rect fill="url(#b)" x="15" y="96.7516" width="126" height="5" rx="2.5"/>
    </g>
    <text font-family="Karma-Medium, Karma" font-size="22" font-weight="400" fill="#5162FF">
      <tspan x="19.5" y="70">name.eth</tspan>
    </text>
  </g>
</svg>